<svg width="24px" height="24px" fill="#000" aria-labelledby="call-title call-description" role="img" viewBox="0 -960 960 960" xmlns="http://www.w3.org/2000/svg">
  <title id="call-title">Call</title>
  <desc id="call-description">An icon of a phone</desc>
  <path d="m887.21-0.0078543q-166.01 0-325.82-69.951-159.81-69.951-290.64-200.11-130.83-129.63-200.79-290.72-69.951-161.1-69.951-326.42 0-32.827 19.648-52.811 19.648-19.984 52.475-19.984h223.09q32.407 0 54.348 17.164 21.953 17.176 28.938 47.026l33.979 176.91q4.429 27.654-1.5483 48.659-5.9773 21.005-21.989 34.988l-127.23 120.13q20.092 34.7 48.238 68.967 28.158 34.255 64.37 70.467 33.295 32.095 65.078 58.033 31.783 25.938 62.726 44.674l130.67-124.52q17.068-17.068 37.544-22.709 20.488-5.6292 44.698-0.51612l179.04 39.501q30.379 8.8699 47.806 28.602 17.428 19.72 17.428 49.571v230.25q0 32.827-19.984 52.811-19.984 19.984-52.127 19.984z" stroke-width="1.2003"/>
</svg>
