<svg width="150px" height="150px" fill="#b0095f33" viewBox="0 -960 960 960" xmlns="http://www.w3.org/2000/svg">
  <g stroke-width=".19526">
    <path d="m-10.444-396.07q-14.644-2.9289-28.41-10.153-13.766-7.2246-24.31-19.721-10.544-12.497-16.89-30.558-6.3459-18.061-6.3459-42.664v-1.5621q0-3.1242 2.1478-5.272 2.1478-2.1478 5.272-2.1478h1.7573q11.13 0 21.478 1.855 10.349 1.855 20.502 6.3459 2.7336-15.621 10.251-31.827 7.5175-16.207 17.671-29.484 2.7336-3.7099 7.2246-3.7099 4.491 0 7.2246 3.7099 10.153 13.278 17.671 29.484 7.5175 16.206 10.251 31.827 10.349-5.0767 20.795-6.6388 10.446-1.5621 21.381-1.5621h1.7573q3.1241 0 5.272 2.1478 2.1478 2.1479 2.1478 5.272v1.3668q0 26.946-7.3222 45.886-7.3222 18.94-18.842 31.339-11.52 12.399-25.579 18.745-14.059 6.3459-27.727 8.1032-3.5147 0.39054-8.5914 0.19526-5.0767-0.19526-8.7867-0.97628zm8.0056-19.916q-2.1479-32.804-19.721-49.889-17.573-17.085-43.152-20.99h0.09764-0.09764q2.1478 33.585 20.307 50.474 18.159 16.89 42.566 20.405 0.39052 0.19528 0 0.0977-0.39052-0.0977 0-0.0977zm-13.278-72.441q3.9052 3.1242 8.2985 7.4198 4.3933 4.2957 7.3222 8.2009 3.1241-3.9052 7.3222-8.1032 4.1981-4.1981 8.1032-7.5175-0.58578-10.934-4.5886-22.65-4.0028-11.716-10.837-23.236v0.0976-0.0976q-6.8341 11.325-10.837 23.041-4.0028 11.716-4.7838 22.845zm27.141 36.709q2.3431 6.2483 4.1004 14.547 1.7573 8.2985 2.7336 17.085 6.053-1.9526 13.668-6.3459 7.6151-4.3933 14.547-12.204 6.9317-7.8104 12.204-19.624 5.272-11.813 6.6388-28.605 0.19527-0.39053 0.0977 0-0.0977 0.39052-0.0977 0-18.354 2.7336-32.022 11.618-13.668 8.8843-21.869 23.529z"/>
    <path d="m469.56-876.06q-14.644-2.9289-28.41-10.153-13.766-7.2246-24.31-19.721-10.544-12.497-16.89-30.558-6.3459-18.061-6.3459-42.664v-1.5621q0-3.1242 2.1478-5.272 2.1478-2.1478 5.272-2.1478h1.7573q11.13 0 21.478 1.855 10.349 1.855 20.502 6.3459 2.7336-15.621 10.251-31.827 7.5175-16.206 17.671-29.484 2.7336-3.7099 7.2246-3.7099t7.2246 3.7099q10.153 13.278 17.671 29.484 7.5175 16.207 10.251 31.827 10.349-5.0767 20.795-6.6388 10.446-1.5621 21.381-1.5621h1.7573q3.1241 0 5.272 2.1478 2.1478 2.1479 2.1478 5.272v1.3668q0 26.946-7.3222 45.886-7.3222 18.94-18.842 31.339-11.52 12.399-25.579 18.745t-27.727 8.1032q-3.5147 0.39054-8.5914 0.19526-5.0767-0.19526-8.7866-0.97628zm8.0056-19.916q-2.1478-32.804-19.721-49.889-17.573-17.085-43.152-20.99h0.0976-0.0976q2.1478 33.585 20.307 50.474 18.159 16.89 42.566 20.405 0.39052 0.19528 0 0.0977-0.39052-0.0977 0-0.0977zm-13.278-72.441q3.9052 3.1242 8.2985 7.4198 4.3933 4.2957 7.3222 8.2009 3.1242-3.9052 7.3222-8.1032 4.1981-4.1981 8.1032-7.5175-0.58578-10.934-4.5886-22.65-4.0028-11.715-10.837-23.236v0.098-0.098q-6.8341 11.325-10.837 23.041-4.0028 11.716-4.7838 22.845zm27.141 36.709q2.3431 6.2483 4.1004 14.547 1.7573 8.2985 2.7336 17.085 6.053-1.9526 13.668-6.3459 7.6151-4.3933 14.547-12.204 6.9317-7.8104 12.204-19.624 5.272-11.813 6.6388-28.605 0.19528-0.39053 0.0977 0-0.0977 0.39052-0.0977 0-18.354 2.7336-32.022 11.618-13.668 8.8843-21.869 23.529z"/>
    <path d="m469.55 83.919q-14.644-2.9289-28.41-10.153-13.766-7.2246-24.31-19.721-10.544-12.497-16.89-30.558-6.3459-18.061-6.3459-42.664v-1.5621q0-3.1242 2.1478-5.272 2.1478-2.1478 5.272-2.1478h1.7573q11.13 0 21.478 1.855 10.349 1.855 20.502 6.3459 2.7336-15.621 10.251-31.827 7.5175-16.207 17.671-29.484 2.7336-3.7099 7.2246-3.7099 4.491 0 7.2246 3.7099 10.153 13.278 17.671 29.484 7.5175 16.206 10.251 31.827 10.349-5.0767 20.795-6.6388 10.446-1.5621 21.381-1.5621h1.7573q3.1241 0 5.272 2.1478 2.1478 2.1479 2.1478 5.272v1.3668q0 26.946-7.3222 45.886-7.3222 18.94-18.842 31.339-11.52 12.399-25.579 18.745-14.059 6.3459-27.727 8.1032-3.5147 0.39054-8.5914 0.19526-5.0767-0.19526-8.7867-0.97628zm8.0056-19.916q-2.1478-32.804-19.721-49.889-17.573-17.085-43.152-20.99h0.0976-0.0976q2.1478 33.585 20.307 50.474 18.159 16.89 42.566 20.405 0.39052 0.19528 0 0.0977-0.39051-0.0977 0-0.0977zm-13.278-72.441q3.9052 3.1242 8.2985 7.4198 4.3933 4.2957 7.3222 8.2009 3.1242-3.9052 7.3222-8.1032 4.1981-4.1981 8.1032-7.5175-0.58578-10.934-4.5886-22.65-4.0028-11.716-10.837-23.236v0.0976-0.0976q-6.8341 11.325-10.837 23.041-4.0028 11.716-4.7839 22.845zm27.141 36.709q2.3431 6.2483 4.1004 14.547 1.7573 8.2985 2.7336 17.085 6.053-1.9526 13.668-6.3459 7.6151-4.3933 14.547-12.204 6.9317-7.8104 12.204-19.624 5.272-11.813 6.6388-28.605 0.19528-0.39053 0.0977 0-0.0977 0.39052-0.0977 0-18.354 2.7336-32.022 11.618-13.668 8.8843-21.869 23.529z"/>
    <path d="m949.56-396.07q-14.644-2.9289-28.41-10.153-13.766-7.2246-24.31-19.721-10.544-12.497-16.89-30.558-6.3459-18.061-6.3459-42.664v-1.5621q0-3.1242 2.1478-5.272 2.1478-2.1478 5.272-2.1478h1.7573q11.13 0 21.478 1.855 10.349 1.855 20.502 6.3459 2.7336-15.621 10.251-31.827 7.5175-16.207 17.671-29.484 2.7336-3.7099 7.2246-3.7099t7.2246 3.7099q10.153 13.278 17.671 29.484 7.5175 16.206 10.251 31.827 10.349-5.0767 20.795-6.6388 10.446-1.5621 21.381-1.5621h1.7574q3.1241 0 5.272 2.1478 2.1478 2.1479 2.1478 5.272v1.3668q0 26.946-7.3222 45.886-7.3222 18.94-18.842 31.339-11.52 12.399-25.579 18.745-14.059 6.3459-27.727 8.1032-3.5147 0.39054-8.5914 0.19526-5.0767-0.19526-8.7867-0.97628zm8.0056-19.916q-2.1478-32.804-19.721-49.889-17.573-17.085-43.152-20.99h0.0976-0.0976q2.1478 33.585 20.307 50.474 18.159 16.89 42.566 20.405 0.39052 0.19528 0 0.0977-0.39052-0.0977 0-0.0977zm-13.278-72.441q3.9052 3.1242 8.2985 7.4198 4.3933 4.2957 7.3222 8.2009 3.1241-3.9052 7.3222-8.1032 4.1981-4.1981 8.1032-7.5175-0.58578-10.934-4.5886-22.65-4.0028-11.716-10.837-23.236v0.0976-0.0976q-6.8341 11.325-10.837 23.041-4.0028 11.716-4.7838 22.845zm27.141 36.709q2.3431 6.2483 4.1004 14.547 1.7573 8.2985 2.7336 17.085 6.053-1.9526 13.668-6.3459 7.6151-4.3933 14.547-12.204 6.9317-7.8104 12.204-19.624 5.2719-11.813 6.6387-28.605 0.1953-0.39053 0.098 0-0.098 0.39052-0.098 0-18.354 2.7336-32.022 11.618-13.668 8.8843-21.869 23.529z"/>
  </g>
</svg>
