<svg xmlns="http://www.w3.org/2000/svg" fill="none" viewBox="0 0 43 21">
<path fill="#e067a5" d="m35.2.8 2.2 3.4.4.3 4 .9c.5 0 .7.7.4 1l-2.7 3-.2.5.4 4c0 .4-.5.8-1 .6L35 13h-.5l-3.8 1.5c-.5.2-1-.2-1-.7L30 10c0-.2 0-.3-.2-.5l-2.7-3a.7.7 0 0 1 .4-1l4-1c.2 0 .3 0 .4-.2L34.1.8c.2-.5.9-.5 1.1 0ZM8.7.8l2.1 3.4.4.3 4 .9c.5 0 .8.7.4 1.1l-2.7 3-.1.4.3 4c0 .4-.5.8-1 .6L8.5 13h-.6L4 14.5c-.5.2-1-.2-1-.7l.4-3.9c0-.1 0-.3-.2-.5l-2.6-3a.7.7 0 0 1 .4-1l4-1c.1 0 .3 0 .4-.2L7.5.8c.3-.5.9-.5 1.2 0Z"/>
<path fill="#bd4d86" d="m21.7 1 3.2 5c.1.2.3.3.4.3l6 1.4c.6 0 .8.7.4 1.1l-4 4.4-.2.6.6 5.8c0 .5-.5 1-1 .7L21.4 18h-.6l-5.7 2.3c-.5.2-1-.2-1-.7l.6-5.8c0-.2 0-.4-.2-.6l-4-4.4a.7.7 0 0 1 .3-1.1l6-1.4c.2 0 .4-.1.5-.3l3.2-5c.3-.5 1-.5 1.2 0Z"/>
</svg>