<svg viewBox="0 0 72 20" xmlns="http://www.w3.org/2000/svg">
  <path fill="#9ab1fc" d="m0 0v20h72v-20zm33.604 4.4368c0.87922 0 1.6592 0.13672 2.3398 0.41016 0.68069 0.26838 1.2536 0.64508 1.7188 1.1312 0.47081 0.48611 0.82835 1.0679 1.0723 1.7464 0.24391 0.67853 0.36719 1.429 0.36719 2.2493 1e-6 0.82032-0.12327 1.5737-0.36719 2.2623-0.24391 0.68359-0.60146 1.2746-1.0723 1.7708-0.46514 0.49118-1.0381 0.87242-1.7188 1.1458-0.68069 0.27344-1.4606 0.41016-2.3398 0.41016s-1.6592-0.13672-2.3398-0.41016c-0.67502-0.2785-1.2479-0.6628-1.7188-1.154-0.46514-0.49624-0.81859-1.0856-1.0625-1.7692-0.23824-0.68866-0.35742-1.4437-0.35742-2.264 0-0.82033 0.11918-1.5692 0.35742-2.2477 0.24391-0.67853 0.59736-1.2619 1.0625-1.7481 0.47081-0.48611 1.0437-0.86283 1.7188-1.1312 0.68069-0.26837 1.4606-0.40202 2.3398-0.40202zm-27.16 0.2653h5.0371c0.61262 0 1.1563 0.091142 1.6328 0.27343 0.4765 0.18229 0.87784 0.42083 1.2012 0.71452 0.329 0.29369 0.57573 0.62482 0.74024 0.9945 0.17017 0.36965 0.25391 0.7449 0.25391 1.1247 0 0.46586-0.13593 0.90333-0.4082 1.3135-0.2666 0.40509-0.67439 0.75756-1.2246 1.0563 0.26093 0.08102 0.48469 0.1964 0.67188 0.34831 0.18719 0.15191 0.33986 0.32516 0.45898 0.51758 0.11912 0.18736 0.20695 0.38936 0.26367 0.6071 0.05672 0.21267 0.08594 0.42535 0.08594 0.63802v1.5348c0 0.19242 0.05024 0.41721 0.15234 0.67546 0.03686 0.08833 0.07951 0.17682 0.125 0.26692l3.4551-4.7868-3.8125-5.2783h2.2285l2.707 3.737 2.7051-3.737h2.2637l-3.8555 5.2864 3.8555 5.3092h-2.2637l-2.6895-3.737-2.7227 3.737h-3.7558c-0.08509-0.12152-0.15617-0.24758-0.21289-0.37923-0.05105-0.13166-0.09078-0.26077-0.11914-0.38737-0.02269-0.12659-0.03944-0.24667-0.05078-0.35808-0.0057-0.1114-0.0098-0.21014-0.0098-0.29622v-1.6097c0-0.15698-0.03135-0.3134-0.09375-0.47037-0.05672-0.15698-0.14883-0.29677-0.2793-0.41829-0.13046-0.12659-0.30398-0.22841-0.51953-0.30437-0.21555-0.08102-0.47689-0.12044-0.7832-0.12044h-3.0293v4.3441h-2.0078v-10.596zm33.146 0h2.2891l5.0977 8.0582v-8.0582h2.0078v10.596h-2.2637l-5.1211-8.1347v8.1347h-2.0098zm10.521 0h2.0098v9.0608h5.709v1.5348h-7.7188v-10.596zm4.8438 0h2.2793l3.0547 4.694 2.9785-4.694h2.2891l-4.2969 6.403v4.1927h-2.0176v-4.1927zm-21.352 1.2305c-0.4935 0-0.95152 0.091142-1.377 0.27343-0.41976 0.17722-0.78567 0.43855-1.0977 0.78287-0.30631 0.33927-0.5509 0.75847-0.73242 1.2598-0.17584 0.5013-0.26367 1.074-0.26367 1.7171 1e-6 0.64308 0.08783 1.2173 0.26367 1.7237 0.18152 0.50637 0.42611 0.93783 0.73242 1.2923 0.31198 0.34939 0.6779 0.61668 1.0977 0.80403 0.42543 0.18229 0.88345 0.27343 1.377 0.27343 0.48783 0 0.94157-0.09115 1.3613-0.27343 0.42543-0.18736 0.79544-0.45464 1.1074-0.80403 0.31765-0.35446 0.56653-0.78595 0.74805-1.2923 0.18152-0.50637 0.27148-1.0806 0.27148-1.7237 0-0.64308-0.08997-1.2158-0.27148-1.7171-0.18152-0.5013-0.43039-0.9205-0.74805-1.2598-0.31198-0.34433-0.68199-0.60565-1.1074-0.78287-0.41976-0.18229-0.8735-0.27343-1.3613-0.27343zm-25.152 0.28158v3.2357h3.0293c0.24391 0 0.4739-0.037977 0.68945-0.11393 0.22122-0.081019 0.41362-0.19043 0.57812-0.32715 0.17017-0.14178 0.30396-0.31196 0.40039-0.50944s0.14453-0.41468 0.14453-0.65267c0-0.23292-0.04596-0.44868-0.13672-0.64616-0.090759-0.20255-0.21831-0.37417-0.38281-0.51595-0.15883-0.14685-0.34909-0.26078-0.57031-0.3418-0.22122-0.086083-0.46173-0.12858-0.72266-0.12858h-3.0293z" />
</svg>