<svg xmlns="http://www.w3.org/2000/svg" viewBox="0 0 1536 1024" width="1536" height="1024" role="img" aria-labelledby="skinmcl-logo-title skinmcl-logo-description">

<!-- 
  Copyright (c) 2025 Logan Medical Group, LLC. All rights reserved.

  Contributers
  Tyler Morgan <git@tylerjm.org>
-->

  <title id="skinmcl-logo-title">SkinMCL Logo</title>
  <desc id="skinmcl-logo-description">An abstract face  with an eye and mouth, outlined in the shape of an S</desc>
  <path d="M301 249c-69 2-105 43-105 43s47-28 105-29c57-1 108 29 108 29s-40-44-108-43z" fill="#fff"/>
  <path d="M367 30s-105 38-176 86C121 164 81 226 77 263c-5 35 10 86 48 121 37 32 93 76 123 97 30 20 99 90 101 138 1 48 1 76-57 155-60 78-241 217-241 217l3 3s169-83 241-157c72-73 100-125 103-184 4-59-37-118-88-153-51-36-140-77-182-141-13-16-24-38-16-81 6-25 19-55 47-84 90-93 209-161 209-161z" fill="#cd5d96"/>
  <path d="M195 304s28 41 105 41c77 1 108-40 108-40s-46 31-108 31c-57 0-105-32-105-32z" fill="#fff"/>
  <path d="M310 647s-87 11-129 23c-39 12-93 36-101 39l4 9c3-2 56-27 101-41 47-15 125-30 125-30zM81 715l2 3h1l-3-3z" fill="#fff"/>
  <path d="M98 646s-37 15-37 34 23 38 23 38-12-24-12-38 26-34 26-34z" fill="#fff"/>
  <path d="m206 643-108 3 108 4c51 0 104-3 104-3-1 0-57-4-104-4zm104 4z" fill="#fff"/>
  <path d="M81 586c-4 4-14 13-13 28 0 19 30 32 30 32s-21-15-21-33l2-20z" fill="#fff"/>
  <path d="M83 582zm0 0-4 11s32 15 86 29c64 17 145 25 145 25s-119-25-141-33c-80-26-86-32-86-32z" fill="#fff"/>
  <path d="M460 102zm0 0s82 92 84 230c1 76-19 141-41 189h1l32-3c27-45 51-107 49-187a319 319 0 0 0-125-229zm66 430-14 2 11 2 3-4zm-35 14c-21 40-40 63-40 63s30-19 62-59l-22-4z" fill="#cd5d96"/>
  <path d="M692 461s-40 30-92 42-60 16-96 18-65-3-65 8 11 12 20 13c10 2 70 9 101 17s89 37 105 40a291 291 0 0 0 157-1c14-6 32-18 32-18s-3 12 0 15 8 8 28 13a242 242 0 0 0 147-36c13-8 44-22 55-23 12 0 26-4 33 2 6 6 3 16 3 21s2 15 10 22c8 6 30 13 47 15 16 1 99-2 170-9 71-8 137-23 137-23s-185 13-238 15c-53 1-83-4-89-7-7-2-10-1-11-19 0-19-9-29-20-35s-23-4-41-2-51 15-65 26c-14 10-30 19-60 28-30 8-50 11-70 11-21-1-22-2-23-6s19-26 23-31c4-4 6-8 1-11-5-4-5-3-11 2s-17 19-28 26c-12 7-23 17-58 23-34 6-73 6-98 1-24-4-56-18-87-36-32-18-97-28-97-28s48-3 85-17 61-27 78-38c16-11 17-18 17-18z" fill="#cd5d96"/>
  <path d="M988 433s-97 16-113 40c-13 20 6 28 6 28s16-22 37-35c20-13 70-33 70-33z" fill="#fff"/>
  <path d="M451 716v3l7 1 5 1 1 1 1 3v1l-1 48c-1 7-5 10-14 10v4h34v-4c-9 0-14-3-14-9l1-48 32 61h4l30-62 1 50c0 6-4 8-12 8v4h40v-4c-9 0-13-3-13-8l-2-50 1-3 1-2 4-1 8-1v-3h-29l-27 55-29-55z" fill="#fff"/>
  <path d="m820 735-22 44-3 4-4 2v2h20v-2c-5 0-8-1-8-4l1-2 3-8 4-2h14c3 0 5 1 5 2l4 10 1 1v1l-1 1h-2l-2 1h-3v2h25v-2a73 73 0 0 0-5-1l-2-2-22-46zm-56 0-11 2-9 6a27 27 0 0 0-8 20c0 3 0 7 2 10l5 8 9 6a35 35 0 0 0 21 1l7-3 6-5 3-7-3-1-4 6-4 4-5 2-7 1-9-2-7-5-3-8-1-11 1-7c0-3 2-5 3-7l6-5 9-2c4 0 8 2 12 4 3 3 6 6 7 11h3a55 55 0 0 0-3-17l-6 3c-5-3-9-4-14-4zm-105 1a185 185 0 0 0-20 0h-8v2l4 1 3 1 1 2 1 4v32l-1 4-1 2-3 1h-4v2h23l17-1c5-2 9-3 12-6 3-2 5-4 6-8 2-3 3-6 3-10s-1-8-3-11c-1-3-3-6-6-8l-10-5c-4-2-9-2-14-2zm-87 0v2c6 0 9 3 9 7v35c0 3-3 5-9 5v2h49l3-15-3-1-2 6-4 4-6 2-9 1h-3c-5 0-7-1-7-4v-15c0-2 1-3 4-3h1l5 1 3 1 3 2 1 5h3v-20h-3l-2 4c0 2-1 2-2 3l-4 1h-7c-2 0-2-1-2-2v-14c0-2 2-4 7-4h2l7 1 5 1 4 3 3 7h3l-1-15zm128 0v2c6 0 9 3 9 7v35c0 3-3 5-9 5v2h27v-2c-6 0-9-2-9-5v-35c0-4 3-7 9-7v-2zm155 0v2c7 0 10 2 10 6v37c0 3-3 4-9 4v2h48l2-16h-2c-2 6-5 10-7 11l-6 2h-11c-4 0-6-1-6-3v-37c0-4 2-6 8-6v-2zm-200 3h3c8 0 13 2 17 6 4 3 6 9 6 17s-2 13-5 17c-4 4-9 5-16 5h-9l-2-2v-41l1-1 2-1h3zm164 7 8 16 1 3-3 1h-12l-3-1 1-3z" fill="#fff"/>
  <path d="M988 714c-6 0-12 1-17 3-6 2-10 4-14 8-4 3-8 7-10 12l-3 15a34 34 0 0 0 12 26c4 3 8 6 14 8a59 59 0 0 0 31 1l11-4c4-2 7-4 9-7l5-10-5-1c-1 4-3 7-6 9l-6 6-8 3-10 1c-6 0-10-1-14-3-5-2-8-4-10-8-3-3-5-7-6-11l-2-14 2-11a27 27 0 0 1 14-16 34 34 0 0 1 32 3c6 3 10 8 12 15h5a70 70 0 0 0-4-22l-1-2c-4 0-7 2-10 4-7-3-14-5-21-5z" fill="#fff"/>
  <path d="M1123 735a20 20 0 0 0-13 4l-3 4-2 6 2 7 6 5 8 3a434 434 0 0 1 16 7c2 1 2 3 2 5l-1 4-4 3-4 2a19 19 0 0 1-21-9l-1-6h-3a81 81 0 0 0 2 18l3-1 4-2a57 57 0 0 0 4 2 28 28 0 0 0 9 1l9-1 5-3 4-5 1-6-2-7-5-5-8-3a216 216 0 0 1-17-7c-2-1-2-3-2-5l3-6 8-2c4 0 8 1 11 4 3 2 5 5 6 10h3l-1-9-2-8-6 3a352 352 0 0 1-12-3zm339 0a20 20 0 0 0-12 4l-4 4-2 6c0 3 1 6 3 7l5 5 8 3a434 434 0 0 1 16 7c2 1 2 3 2 5l-1 4-4 3-4 2a19 19 0 0 1-20-9c-2-1-2-4-2-6h-3a81 81 0 0 0 2 18l3-1 4-2a58 58 0 0 0 4 2 28 28 0 0 0 9 1l9-1 5-3 4-5 1-6-2-7-5-5-8-3a217 217 0 0 1-17-7l-2-5 3-6 8-2c5 0 8 1 11 4 3 2 5 5 6 10h3l-1-9-1-8-6 3a352 352 0 0 1-12-3zm-397 0a32 32 0 0 0-22 8 26 26 0 0 0-8 19 25 25 0 0 0 9 19 31 31 0 0 0 21 7c5 0 9 0 13-2l10-6 6-9a24 24 0 0 0 0-20l-7-8c-2-3-6-5-9-6l-13-2zm347 0-11 2c-4 1-7 3-9 6a27 27 0 0 0-9 19l2 11 6 8 9 5a35 35 0 0 0 21 1c2 0 5-1 7-3l5-4 4-8h-3l-4 6-4 4-6 2-6 1-9-2-7-5c-1-3-3-5-3-9l-2-10 1-7 4-7c1-2 3-4 6-5l8-2c5 0 9 1 13 4 3 2 6 6 7 11h3a55 55 0 0 0-3-18l-7 4c-4-3-8-4-13-4zm-120 0-3 17 3 1c1-5 3-8 6-10 2-3 6-4 10-4 3 0 4 1 4 3v36c0 5-3 7-10 7v2h29v-2c-6 0-10-2-10-7v-36c0-2 2-2 5-2 9 0 14 4 15 12h2v-17a126 126 0 0 1-8 1h-36a46 46 0 0 1-7-1zm-121 1h-19v2l5 1h3l1 2v37c-1 4-4 7-9 7v2h22v-2c-6 0-9-2-9-7v-34l21 43h3l19-44 1 36c0 4-3 6-8 6v2h26v-2c-6 0-8-2-8-6l-1-36v-2l1-1 3-1 4-1v-2h-18l-18 39zm113 0h-49v2c7 0 10 3 10 7v35c0 3-3 5-9 5v2h49l3-15-3-1-3 6c0 2-2 3-3 4l-6 2-9 1h-3c-5 0-7-1-7-4v-15c0-2 1-3 4-3h1l5 1 3 1 2 2 2 5h3v-20h-3l-2 4-2 3-4 1h-7c-2 0-2-1-2-2v-14c0-3 2-4 7-4h2l7 1 5 1 4 3 3 7 3-1zm64 0v2c6 0 9 3 9 7v35c0 3-3 5-9 5v2h27v-2c-6 0-9-2-9-5v-35c0-4 3-7 9-7v-2zm-283 2 9 2 7 5c1 3 3 5 3 8a34 34 0 0 1-3 26 17 17 0 0 1-15 6l-9-1-7-5-3-8-1-10 1-9c0-2 1-5 3-7 1-2 3-4 6-5 2-2 5-2 9-2z" fill="#fff"/>
  <path d="M494 842c-14 0-21 5-21 16l1 7 5 7c-8 3-13 6-17 10-3 4-5 9-5 13 0 14 11 20 32 20 10 0 19-3 26-8a35 35 0 0 0 32 7l6-3 5-4 2-5-4-1-2 2-3 2-5 2-4 1-8-3-10-6a37 37 0 0 0 12-14l3-4 5-6 8-2v-3h-34v3c9 0 13 3 13 8 0 2-1 5-3 7-1 3-4 5-7 8a517 517 0 0 1-24-23l13-8c4-3 6-6 6-10 0-9-7-13-22-13zm0 3c8 0 12 3 12 11 0 3-4 8-12 14-7-7-10-12-10-15 0-7 3-10 10-10zm-13 29 14 15 17 14c-3 3-6 4-9 5l-9 1c-16 0-24-8-24-22 0-5 4-9 11-13z" fill="#fff"/>
  <path d="M603 842v4c10 0 14 2 14 8v51c0 4-4 6-12 6v3h72l5-22-4-1c-3 9-7 14-11 16l-9 2h-17c-7 0-10-1-10-4v-51c0-6 5-8 13-8v-4z" fill="#fff"/>
  <path d="m709 861-22 45-3 4-5 1v3h21v-3c-5 0-8-1-8-3v-2l4-8c0-2 1-2 4-2h14c3 0 4 0 5 2l4 9 1 1v1l-1 1-2 1h-5v3h25v-3a73 73 0 0 0-5-1l-2-2-22-46zm54 0a20 20 0 0 0-12 4l-4 5-1 6c0 3 0 5 2 7l5 5 9 3a434 434 0 0 1 16 6l2 6-2 4-3 3-5 1a19 19 0 0 1-16-3l-4-5-2-6h-3a81 81 0 0 0 2 18l4-1 3-2a59 59 0 0 0 4 2 28 28 0 0 0 9 1l9-1 6-4 3-5 1-6-2-7-5-4-8-4a217 217 0 0 1-17-7l-2-4c0-3 1-5 3-6 2-2 5-3 8-3 5 0 8 2 11 4 3 3 5 6 6 10h3v-8l-2-8-6 3a351 351 0 0 1-12-4zm120 1a168 168 0 0 0-13 0h-17v3c6 0 9 2 9 5v36c0 4-3 5-8 5v3h26v-3c-6 0-9-1-9-5v-16l3-1h3c2 0 4 0 5 2l4 4 3 7 2 6 4 5 8 2 3-1a9 9 0 0 0 5-5v-2l-2-1-3 4-3-1-3-4-1-4-2-4-4-5-7-4 7-2 5-3 3-3 1-5-1-5-4-4-6-3-8-1zm-41 0h-48v3c6 0 9 2 9 6v35c0 4-3 5-8 5v3h49l2-16h-2l-3 5-4 4c-1 2-3 2-5 3l-10 1h-3c-5 0-7-2-7-5v-15c0-1 1-2 4-2h6l4 1 2 3 1 4h3v-20h-3l-1 5-3 2-3 1h-8c-1 0-2 0-2-2v-14c0-2 2-3 7-3h9l6 1 4 4 2 6h3zm33 3h4l5 1 4 2 3 3 2 4-2 6-3 3-5 1-5 1h-5l-2-1v-15c0-3 1-5 4-5zm-167 7 8 17 1 2-3 1h-12l-3-1 1-3z" fill="#fff"/>
</svg>