<svg width="1536" height="1024" aria-labelledby="skinmcl-logo-title skinmcl-logo-description" role="img" version="1.1" viewBox="0 0 1536 1024" xmlns="http://www.w3.org/2000/svg">
  <!-- 
  Copyright (c) 2025 Logan Medical Group, LLC. All rights reserved.

  Contributers
  Tyler Morgan <git@tylerjm.org>
-->
  <title id="skinmcl-logo-title">SkinMCL Logo</title>
  <desc id="skinmcl-logo-description">An abstract face  with an eye and mouth, outlined in the shape of an S</desc>
  <g fill="#fff">
    <path d="m301 249c-69 2-105 43-105 43s47-28 105-29c57-1 108 29 108 29s-40-44-108-43z"/>
    <path d="m367 30s-105 38-176 86c-70 48-110 110-114 147-5 35 10 86 48 121 37 32 93 76 123 97 30 20 99 90 101 138 1 48 1 76-57 155-60 78-241 217-241 217l3 3s169-83 241-157c72-73 100-125 103-184 4-59-37-118-88-153-51-36-140-77-182-141-13-16-24-38-16-81 6-25 19-55 47-84 90-93 209-161 209-161z"/>
    <path d="m195 304s28 41 105 41c77 1 108-40 108-40s-46 31-108 31c-57 0-105-32-105-32z"/>
    <path d="M310 647s-87 11-129 23c-39 12-93 36-101 39l4 9c3-2 56-27 101-41 47-15 125-30 125-30zM81 715l2 3h1l-3-3z"/>
    <path d="m98 646s-37 15-37 34 23 38 23 38-12-24-12-38 26-34 26-34z"/>
    <path d="m206 643-108 3 108 4c51 0 104-3 104-3-1 0-57-4-104-4z"/>
    <path d="m81 586c-4 4-14 13-13 28 0 19 30 32 30 32s-21-15-21-33l2-20z"/>
    <path d="m83 582m0 0-4 11s32 15 86 29c64 17 145 25 145 25s-119-25-141-33c-80-26-86-32-86-32z"/>
    <path d="m460 102m0 0s82 92 84 230c1 76-19 141-41 189h1l32-3c27-45 51-107 49-187a319 319 0 0 0-125-229zm66 430-14 2 11 2 3-4zm-35 14c-21 40-40 63-40 63s30-19 62-59l-22-4z"/>
    <path d="m692 461s-40 30-92 42-60 16-96 18-65-3-65 8 11 12 20 13c10 2 70 9 101 17s89 37 105 40a291 291 0 0 0 157-1c14-6 32-18 32-18s-3 12 0 15 8 8 28 13a242 242 0 0 0 147-36c13-8 44-22 55-23 12 0 26-4 33 2 6 6 3 16 3 21s2 15 10 22c8 6 30 13 47 15 16 1 99-2 170-9 71-8 137-23 137-23s-185 13-238 15c-53 1-83-4-89-7-7-2-10-1-11-19 0-19-9-29-20-35s-23-4-41-2-51 15-65 26c-14 10-30 19-60 28-30 8-50 11-70 11-21-1-22-2-23-6s19-26 23-31c4-4 6-8 1-11-5-4-5-3-11 2s-17 19-28 26c-12 7-23 17-58 23-34 6-73 6-98 1-24-4-56-18-87-36-32-18-97-28-97-28s48-3 85-17 61-27 78-38c16-11 17-18 17-18z"/>
    <path d="m988 433s-97 16-113 40c-13 20 6 28 6 28s16-22 37-35c20-13 70-33 70-33z"/>
  </g>
</svg>
