<svg viewBox="0 0 83.024 8.992" xmlns="http://www.w3.org/2000/svg">
<!-- 
  Copyright (c) 2025 Logan Medical Group, LLC. All rights reserved.

  Contributers
  Tyler Morgan <git@tylerjm.org>
-->
  <g transform="translate(-52.905 -104.28)" stroke-linecap="round" stroke-linejoin="round">
    <path d="m54.719 109.49h4.3462v-1.5134h-4.3462zm3.2829-3.3761v5.4328h1.7074v-5.4328zm-3.6477 0v5.4328h1.7074v-5.4328zm6.9626 4.7343h2.8716v-1.2263h-2.8716zm1.4203-2.2662 0.66746 1.4979-0.11642 0.44238 0.57432 1.0245h1.9403l-3.0656-5.8208-3.0656 5.8208h1.9403l0.58984-1.0788-0.13194-0.38805zm3.0277-2.468v5.4328h1.7074v-5.4328zm1.1021 1.3582h1.0322q0.3182 0 0.48119 0.13194t0.16298 0.37253q0 0.2406-0.16298 0.37253-0.16298 0.13194-0.48119 0.13194h-1.0322v1.3582h1.0322q0.79939 0 1.2961-0.22508 0.50447-0.22507 0.7373-0.64417 0.24059-0.4191 0.24059-0.99342 0-0.58208-0.24059-0.99342-0.23283-0.4191-0.7373-0.64417-0.49671-0.22507-1.2961-0.22507h-1.0322zm3.5399-1.3582v5.4328h1.7074v-5.4328zm1.1021 1.3582h1.0322q0.3182 0 0.48119 0.13194t0.16298 0.37253q0 0.2406-0.16298 0.37253-0.16298 0.13194-0.48119 0.13194h-1.0322v1.3582h1.0322q0.79939 0 1.2961-0.22508 0.50447-0.22507 0.7373-0.64417 0.24059-0.4191 0.24059-0.99342 0-0.58208-0.24059-0.99342-0.23283-0.4191-0.7373-0.64417-0.49671-0.22507-1.2961-0.22507h-1.0322zm6.4115-1.3582-0.85372 1.754-0.85372-1.754h-1.9791l1.9636 3.314v2.1188h1.7462v-2.1343l1.9558-3.2985zm4.4176 0v5.4328h1.7074v-5.4328zm1.1021 1.3582h1.0322q0.3182 0 0.48119 0.13194t0.16298 0.37253q0 0.2406-0.16298 0.37253-0.16298 0.13194-0.48119 0.13194h-1.0322v1.3582h1.0322q0.79939 0 1.2961-0.22508 0.50447-0.22507 0.7373-0.64417 0.24059-0.4191 0.24059-0.99342 0-0.58208-0.24059-0.99342-0.23283-0.4191-0.7373-0.64417-0.49671-0.22507-1.2961-0.22507h-1.0322zm5.131 1.7462 1.3194 2.3283h1.9791l-1.5522-2.3283zm-1.591-3.1044v5.4328h1.7074v-5.4328zm1.1021 1.4358h1.0322q0.21731 0 0.35701 0.0621 0.1397 0.0543 0.20955 0.17074 0.07761 0.10866 0.07761 0.27164 0 0.15522-0.07761 0.27164-0.06985 0.11642-0.20955 0.17851-0.1397 0.0543-0.35701 0.0543h-1.0322v1.2806h1.1874q0.79939 0 1.2961-0.2406 0.50447-0.24059 0.7373-0.65969 0.24059-0.42686 0.24059-0.96238 0-0.54328-0.24059-0.96238-0.23283-0.41909-0.7373-0.65969-0.49671-0.24059-1.2961-0.24059h-1.1874zm3.7883-1.4358v5.4328h1.7462v-5.4328zm2.2904 0v5.4328h1.7773v-5.4328zm2.1343 5.4328q0.94685 0 1.6221-0.32597 0.68298-0.32597 1.04-0.93133 0.36477-0.61313 0.36477-1.4591 0-0.85372-0.36477-1.4591-0.35701-0.60537-1.04-0.93134-0.67522-0.32596-1.6221-0.32596h-0.95462v1.4746h0.877q0.22507 0 0.4579 0.0388t0.42686 0.16298q0.19403 0.12418 0.31044 0.37254 0.12418 0.24835 0.12418 0.66745t-0.12418 0.66746q-0.11642 0.24835-0.31044 0.37253-0.19403 0.12418-0.42686 0.16298t-0.4579 0.0388h-0.877v1.4746zm4.4402 0h2.7397v-1.3582h-2.7397zm0-4.0746h2.7397v-1.3582h-2.7397zm0 1.9403h2.5844v-1.3194h-2.5844zm-1.1797-3.2985v5.4328h1.6298v-5.4328zm8.6552 3.2131 1.3116 1.7152 1.3116-1.7152 0.2794 2.2197h1.8239l-1.009-5.7044-2.4059 2.9337-2.4059-2.9337-1.0089 5.7044h1.8239zm6.4581-0.49671q0-0.40358 0.14746-0.6985 0.14746-0.30268 0.4191-0.46566 0.27164-0.17075 0.65193-0.17075 0.40358 0 0.66746 0.17075 0.27163 0.16298 0.41133 0.46566 0.1397 0.29492 0.1397 0.6985 0 0.39582-0.14746 0.6985t-0.4191 0.47343q-0.27164 0.16298-0.65193 0.16298t-0.65193-0.16298q-0.27164-0.17075-0.4191-0.47343t-0.14746-0.6985zm-1.8083 0q0 0.65193 0.21731 1.1952 0.22507 0.53552 0.62865 0.93133 0.40358 0.39582 0.95462 0.60537 0.5588 0.21731 1.2262 0.21731 0.66746 0 1.2185-0.21731 0.5588-0.20955 0.96238-0.60537 0.40358-0.39581 0.62089-0.93133 0.22507-0.54328 0.22507-1.1952t-0.22507-1.1797q-0.22507-0.52775-0.63641-0.90804-0.41134-0.3803-0.96238-0.58209-0.55104-0.20178-1.203-0.20178-0.63641 0-1.1874 0.20178-0.55104 0.20179-0.96237 0.58209-0.41134 0.38029-0.64417 0.90804-0.23284 0.52776-0.23284 1.1797zm9.8187-2.7164v2.4603l-3.5313-2.7319v5.7044h1.6298v-2.4603l3.5313 2.7319v-5.7044zm1.6307 1.5134h1.5522v3.9194h1.7074v-3.9194h1.5522v-1.5134h-4.8119zm5.1775 1.8627h4.3462v-1.5134h-4.3462zm3.2829-3.3761v5.4328h1.7074v-5.4328zm-3.6477 0v5.4328h1.7074v-5.4328z" fill="#fff" stroke="#000" stroke-width="2.9" style="paint-order:stroke fill markers" aria-label="HAPPY PRIDE MONTH"/>
    <path d="m54.719 109.49h4.3462v-1.5134h-4.3462zm3.2829-3.3761v5.4328h1.7074v-5.4328zm-3.6477 0v5.4328h1.7074v-5.4328zm6.9626 4.7343h2.8716v-1.2263h-2.8716zm1.4203-2.2662 0.66746 1.4979-0.11642 0.44238 0.57432 1.0245h1.9403l-3.0656-5.8208-3.0656 5.8208h1.9403l0.58984-1.0788-0.13194-0.38805zm3.0277-2.468v5.4328h1.7074v-5.4328zm1.1021 1.3582h1.0322q0.3182 0 0.48119 0.13194t0.16298 0.37253q0 0.2406-0.16298 0.37253-0.16298 0.13194-0.48119 0.13194h-1.0322v1.3582h1.0322q0.79939 0 1.2961-0.22508 0.50447-0.22507 0.7373-0.64417 0.24059-0.4191 0.24059-0.99342 0-0.58208-0.24059-0.99342-0.23283-0.4191-0.7373-0.64417-0.49671-0.22507-1.2961-0.22507h-1.0322zm3.5399-1.3582v5.4328h1.7074v-5.4328zm1.1021 1.3582h1.0322q0.3182 0 0.48119 0.13194t0.16298 0.37253q0 0.2406-0.16298 0.37253-0.16298 0.13194-0.48119 0.13194h-1.0322v1.3582h1.0322q0.79939 0 1.2961-0.22508 0.50447-0.22507 0.7373-0.64417 0.24059-0.4191 0.24059-0.99342 0-0.58208-0.24059-0.99342-0.23283-0.4191-0.7373-0.64417-0.49671-0.22507-1.2961-0.22507h-1.0322zm6.4115-1.3582-0.85372 1.754-0.85372-1.754h-1.9791l1.9636 3.314v2.1188h1.7462v-2.1343l1.9558-3.2985zm4.4176 0v5.4328h1.7074v-5.4328zm1.1021 1.3582h1.0322q0.3182 0 0.48119 0.13194t0.16298 0.37253q0 0.2406-0.16298 0.37253-0.16298 0.13194-0.48119 0.13194h-1.0322v1.3582h1.0322q0.79939 0 1.2961-0.22508 0.50447-0.22507 0.7373-0.64417 0.24059-0.4191 0.24059-0.99342 0-0.58208-0.24059-0.99342-0.23283-0.4191-0.7373-0.64417-0.49671-0.22507-1.2961-0.22507h-1.0322zm5.131 1.7462 1.3194 2.3283h1.9791l-1.5522-2.3283zm-1.591-3.1044v5.4328h1.7074v-5.4328zm1.1021 1.4358h1.0322q0.21731 0 0.35701 0.0621 0.1397 0.0543 0.20955 0.17074 0.07761 0.10866 0.07761 0.27164 0 0.15522-0.07761 0.27164-0.06985 0.11642-0.20955 0.17851-0.1397 0.0543-0.35701 0.0543h-1.0322v1.2806h1.1874q0.79939 0 1.2961-0.2406 0.50447-0.24059 0.7373-0.65969 0.24059-0.42686 0.24059-0.96238 0-0.54328-0.24059-0.96238-0.23283-0.41909-0.7373-0.65969-0.49671-0.24059-1.2961-0.24059h-1.1874zm3.7883-1.4358v5.4328h1.7462v-5.4328zm2.2904 0v5.4328h1.7773v-5.4328zm2.1343 5.4328q0.94685 0 1.6221-0.32597 0.68298-0.32597 1.04-0.93133 0.36477-0.61313 0.36477-1.4591 0-0.85372-0.36477-1.4591-0.35701-0.60537-1.04-0.93134-0.67522-0.32596-1.6221-0.32596h-0.95462v1.4746h0.877q0.22507 0 0.4579 0.0388t0.42686 0.16298q0.19403 0.12418 0.31044 0.37254 0.12418 0.24835 0.12418 0.66745t-0.12418 0.66746q-0.11642 0.24835-0.31044 0.37253-0.19403 0.12418-0.42686 0.16298t-0.4579 0.0388h-0.877v1.4746zm4.4402 0h2.7397v-1.3582h-2.7397zm0-4.0746h2.7397v-1.3582h-2.7397zm0 1.9403h2.5844v-1.3194h-2.5844zm-1.1797-3.2985v5.4328h1.6298v-5.4328zm8.6552 3.2131 1.3116 1.7152 1.3116-1.7152 0.2794 2.2197h1.8239l-1.009-5.7044-2.4059 2.9337-2.4059-2.9337-1.0089 5.7044h1.8239zm6.4581-0.49671q0-0.40358 0.14746-0.6985 0.14746-0.30268 0.4191-0.46566 0.27164-0.17075 0.65193-0.17075 0.40358 0 0.66746 0.17075 0.27163 0.16298 0.41133 0.46566 0.1397 0.29492 0.1397 0.6985 0 0.39582-0.14746 0.6985t-0.4191 0.47343q-0.27164 0.16298-0.65193 0.16298t-0.65193-0.16298q-0.27164-0.17075-0.4191-0.47343t-0.14746-0.6985zm-1.8083 0q0 0.65193 0.21731 1.1952 0.22507 0.53552 0.62865 0.93133 0.40358 0.39582 0.95462 0.60537 0.5588 0.21731 1.2262 0.21731 0.66746 0 1.2185-0.21731 0.5588-0.20955 0.96238-0.60537 0.40358-0.39581 0.62089-0.93133 0.22507-0.54328 0.22507-1.1952t-0.22507-1.1797q-0.22507-0.52775-0.63641-0.90804-0.41134-0.3803-0.96238-0.58209-0.55104-0.20178-1.203-0.20178-0.63641 0-1.1874 0.20178-0.55104 0.20179-0.96237 0.58209-0.41134 0.38029-0.64417 0.90804-0.23284 0.52776-0.23284 1.1797zm9.8187-2.7164v2.4603l-3.5313-2.7319v5.7044h1.6298v-2.4603l3.5313 2.7319v-5.7044zm1.6307 1.5134h1.5522v3.9194h1.7074v-3.9194h1.5522v-1.5134h-4.8119zm5.1775 1.8627h4.3462v-1.5134h-4.3462zm3.2829-3.3761v5.4328h1.7074v-5.4328zm-3.6477 0v5.4328h1.7074v-5.4328z" fill="#fff" stroke="#613915" stroke-width="2.2" style="paint-order:stroke fill markers" aria-label="HAPPY PRIDE MONTH"/>
    <path d="m116.5 108.83a0.58757 0.61585 0 0 1-0.58758 0.61585 0.58757 0.61585 0 0 1-0.58757-0.61585 0.58757 0.61585 0 0 1 0.58757-0.61586 0.58757 0.61585 0 0 1 0.58758 0.61586z" fill="#5bceff" stroke-width="10.125" style="paint-order:stroke fill markers"/>
    <path d="m96.911 108.81a0.17622 0.50701 0 0 1-0.17622 0.50702 0.17622 0.50701 0 0 1-0.17622-0.50702 0.17622 0.50701 0 0 1 0.17622-0.50701 0.17622 0.50701 0 0 1 0.17622 0.50701z" fill="#5bceff" stroke-width="5.031" style="paint-order:stroke fill markers"/>
    <path d="m54.719 109.49h4.3462v-1.5134h-4.3462zm3.2829-3.3761v5.4328h1.7074v-5.4328zm-3.6477 0v5.4328h1.7074v-5.4328zm6.9626 4.7343h2.8716v-1.2263h-2.8716zm1.4203-2.2662 0.66746 1.4979-0.11642 0.44238 0.57432 1.0245h1.9403l-3.0656-5.8208-3.0656 5.8208h1.9403l0.58984-1.0788-0.13194-0.38805zm3.0277-2.468v5.4328h1.7074v-5.4328zm1.1021 1.3582h1.0322q0.3182 0 0.48119 0.13194t0.16298 0.37253q0 0.2406-0.16298 0.37253-0.16298 0.13194-0.48119 0.13194h-1.0322v1.3582h1.0322q0.79939 0 1.2961-0.22508 0.50447-0.22507 0.7373-0.64417 0.24059-0.4191 0.24059-0.99342 0-0.58208-0.24059-0.99342-0.23283-0.4191-0.7373-0.64417-0.49671-0.22507-1.2961-0.22507h-1.0322zm3.5399-1.3582v5.4328h1.7074v-5.4328zm1.1021 1.3582h1.0322q0.3182 0 0.48119 0.13194t0.16298 0.37253q0 0.2406-0.16298 0.37253-0.16298 0.13194-0.48119 0.13194h-1.0322v1.3582h1.0322q0.79939 0 1.2961-0.22508 0.50447-0.22507 0.7373-0.64417 0.24059-0.4191 0.24059-0.99342 0-0.58208-0.24059-0.99342-0.23283-0.4191-0.7373-0.64417-0.49671-0.22507-1.2961-0.22507h-1.0322zm6.4115-1.3582-0.85372 1.754-0.85372-1.754h-1.9791l1.9636 3.314v2.1188h1.7462v-2.1343l1.9558-3.2985zm4.4176 0v5.4328h1.7074v-5.4328zm1.1021 1.3582h1.0322q0.3182 0 0.48119 0.13194t0.16298 0.37253q0 0.2406-0.16298 0.37253-0.16298 0.13194-0.48119 0.13194h-1.0322v1.3582h1.0322q0.79939 0 1.2961-0.22508 0.50447-0.22507 0.7373-0.64417 0.24059-0.4191 0.24059-0.99342 0-0.58208-0.24059-0.99342-0.23283-0.4191-0.7373-0.64417-0.49671-0.22507-1.2961-0.22507h-1.0322zm5.131 1.7462 1.3194 2.3283h1.9791l-1.5522-2.3283zm-1.591-3.1044v5.4328h1.7074v-5.4328zm1.1021 1.4358h1.0322q0.21731 0 0.35701 0.0621 0.1397 0.0543 0.20955 0.17074 0.07761 0.10866 0.07761 0.27164 0 0.15522-0.07761 0.27164-0.06985 0.11642-0.20955 0.17851-0.1397 0.0543-0.35701 0.0543h-1.0322v1.2806h1.1874q0.79939 0 1.2961-0.2406 0.50447-0.24059 0.7373-0.65969 0.24059-0.42686 0.24059-0.96238 0-0.54328-0.24059-0.96238-0.23283-0.41909-0.7373-0.65969-0.49671-0.24059-1.2961-0.24059h-1.1874zm3.7883-1.4358v5.4328h1.7462v-5.4328zm2.2904 0v5.4328h1.7773v-5.4328zm2.1343 5.4328q0.94685 0 1.6221-0.32597 0.68298-0.32597 1.04-0.93133 0.36477-0.61313 0.36477-1.4591 0-0.85372-0.36477-1.4591-0.35701-0.60537-1.04-0.93134-0.67522-0.32596-1.6221-0.32596h-0.95462v1.4746h0.877q0.22507 0 0.4579 0.0388t0.42686 0.16298q0.19403 0.12418 0.31044 0.37254 0.12418 0.24835 0.12418 0.66745t-0.12418 0.66746q-0.11642 0.24835-0.31044 0.37253-0.19403 0.12418-0.42686 0.16298t-0.4579 0.0388h-0.877v1.4746zm4.4402 0h2.7397v-1.3582h-2.7397zm0-4.0746h2.7397v-1.3582h-2.7397zm0 1.9403h2.5844v-1.3194h-2.5844zm-1.1797-3.2985v5.4328h1.6298v-5.4328zm8.6552 3.2131 1.3116 1.7152 1.3116-1.7152 0.2794 2.2197h1.8239l-1.009-5.7044-2.4059 2.9337-2.4059-2.9337-1.0089 5.7044h1.8239zm6.4581-0.49671q0-0.40358 0.14746-0.6985 0.14746-0.30268 0.4191-0.46566 0.27164-0.17075 0.65193-0.17075 0.40358 0 0.66746 0.17075 0.27163 0.16298 0.41133 0.46566 0.1397 0.29492 0.1397 0.6985 0 0.39582-0.14746 0.6985t-0.4191 0.47343q-0.27164 0.16298-0.65193 0.16298t-0.65193-0.16298q-0.27164-0.17075-0.4191-0.47343t-0.14746-0.6985zm-1.8083 0q0 0.65193 0.21731 1.1952 0.22507 0.53552 0.62865 0.93133 0.40358 0.39582 0.95462 0.60537 0.5588 0.21731 1.2262 0.21731 0.66746 0 1.2185-0.21731 0.5588-0.20955 0.96238-0.60537 0.40358-0.39581 0.62089-0.93133 0.22507-0.54328 0.22507-1.1952t-0.22507-1.1797q-0.22507-0.52775-0.63641-0.90804-0.41134-0.3803-0.96238-0.58209-0.55104-0.20178-1.203-0.20178-0.63641 0-1.1874 0.20178-0.55104 0.20179-0.96237 0.58209-0.41134 0.38029-0.64417 0.90804-0.23284 0.52776-0.23284 1.1797zm9.8187-2.7164v2.4603l-3.5313-2.7319v5.7044h1.6298v-2.4603l3.5313 2.7319v-5.7044zm1.6307 1.5134h1.5522v3.9194h1.7074v-3.9194h1.5522v-1.5134h-4.8119zm5.1775 1.8627h4.3462v-1.5134h-4.3462zm3.2829-3.3761v5.4328h1.7074v-5.4328zm-3.6477 0v5.4328h1.7074v-5.4328z" fill="#fff" stroke="#5bceff" stroke-width="1.5" style="paint-order:stroke fill markers" aria-label="HAPPY PRIDE MONTH"/>
    <path d="m54.719 109.49h4.3462v-1.5134h-4.3462zm3.2829-3.3761v5.4328h1.7074v-5.4328zm-3.6477 0v5.4328h1.7074v-5.4328zm6.9626 4.7343h2.8716v-1.2263h-2.8716zm1.4203-2.2662 0.66746 1.4979-0.11642 0.44238 0.57432 1.0245h1.9403l-3.0656-5.8208-3.0656 5.8208h1.9403l0.58984-1.0788-0.13194-0.38805zm3.0277-2.468v5.4328h1.7074v-5.4328zm1.1021 1.3582h1.0322q0.3182 0 0.48119 0.13194t0.16298 0.37253q0 0.2406-0.16298 0.37253-0.16298 0.13194-0.48119 0.13194h-1.0322v1.3582h1.0322q0.79939 0 1.2961-0.22508 0.50447-0.22507 0.7373-0.64417 0.24059-0.4191 0.24059-0.99342 0-0.58208-0.24059-0.99342-0.23283-0.4191-0.7373-0.64417-0.49671-0.22507-1.2961-0.22507h-1.0322zm3.5399-1.3582v5.4328h1.7074v-5.4328zm1.1021 1.3582h1.0322q0.3182 0 0.48119 0.13194t0.16298 0.37253q0 0.2406-0.16298 0.37253-0.16298 0.13194-0.48119 0.13194h-1.0322v1.3582h1.0322q0.79939 0 1.2961-0.22508 0.50447-0.22507 0.7373-0.64417 0.24059-0.4191 0.24059-0.99342 0-0.58208-0.24059-0.99342-0.23283-0.4191-0.7373-0.64417-0.49671-0.22507-1.2961-0.22507h-1.0322zm6.4115-1.3582-0.85372 1.754-0.85372-1.754h-1.9791l1.9636 3.314v2.1188h1.7462v-2.1343l1.9558-3.2985zm4.4176 0v5.4328h1.7074v-5.4328zm1.1021 1.3582h1.0322q0.3182 0 0.48119 0.13194t0.16298 0.37253q0 0.2406-0.16298 0.37253-0.16298 0.13194-0.48119 0.13194h-1.0322v1.3582h1.0322q0.79939 0 1.2961-0.22508 0.50447-0.22507 0.7373-0.64417 0.24059-0.4191 0.24059-0.99342 0-0.58208-0.24059-0.99342-0.23283-0.4191-0.7373-0.64417-0.49671-0.22507-1.2961-0.22507h-1.0322zm5.131 1.7462 1.3194 2.3283h1.9791l-1.5522-2.3283zm-1.591-3.1044v5.4328h1.7074v-5.4328zm1.1021 1.4358h1.0322q0.21731 0 0.35701 0.0621 0.1397 0.0543 0.20955 0.17074 0.07761 0.10866 0.07761 0.27164 0 0.15522-0.07761 0.27164-0.06985 0.11642-0.20955 0.17851-0.1397 0.0543-0.35701 0.0543h-1.0322v1.2806h1.1874q0.79939 0 1.2961-0.2406 0.50447-0.24059 0.7373-0.65969 0.24059-0.42686 0.24059-0.96238 0-0.54328-0.24059-0.96238-0.23283-0.41909-0.7373-0.65969-0.49671-0.24059-1.2961-0.24059h-1.1874zm3.7883-1.4358v5.4328h1.7462v-5.4328zm2.2904 0v5.4328h1.7773v-5.4328zm2.1343 5.4328q0.94685 0 1.6221-0.32597 0.68298-0.32597 1.04-0.93133 0.36477-0.61313 0.36477-1.4591 0-0.85372-0.36477-1.4591-0.35701-0.60537-1.04-0.93134-0.67522-0.32596-1.6221-0.32596h-0.95462v1.4746h0.877q0.22507 0 0.4579 0.0388t0.42686 0.16298q0.19403 0.12418 0.31044 0.37254 0.12418 0.24835 0.12418 0.66745t-0.12418 0.66746q-0.11642 0.24835-0.31044 0.37253-0.19403 0.12418-0.42686 0.16298t-0.4579 0.0388h-0.877v1.4746zm4.4402 0h2.7397v-1.3582h-2.7397zm0-4.0746h2.7397v-1.3582h-2.7397zm0 1.9403h2.5844v-1.3194h-2.5844zm-1.1797-3.2985v5.4328h1.6298v-5.4328zm8.6552 3.2131 1.3116 1.7152 1.3116-1.7152 0.2794 2.2197h1.8239l-1.009-5.7044-2.4059 2.9337-2.4059-2.9337-1.0089 5.7044h1.8239zm6.4581-0.49671q0-0.40358 0.14746-0.6985 0.14746-0.30268 0.4191-0.46566 0.27164-0.17075 0.65193-0.17075 0.40358 0 0.66746 0.17075 0.27163 0.16298 0.41133 0.46566 0.1397 0.29492 0.1397 0.6985 0 0.39582-0.14746 0.6985t-0.4191 0.47343q-0.27164 0.16298-0.65193 0.16298t-0.65193-0.16298q-0.27164-0.17075-0.4191-0.47343t-0.14746-0.6985zm-1.8083 0q0 0.65193 0.21731 1.1952 0.22507 0.53552 0.62865 0.93133 0.40358 0.39582 0.95462 0.60537 0.5588 0.21731 1.2262 0.21731 0.66746 0 1.2185-0.21731 0.5588-0.20955 0.96238-0.60537 0.40358-0.39581 0.62089-0.93133 0.22507-0.54328 0.22507-1.1952t-0.22507-1.1797q-0.22507-0.52775-0.63641-0.90804-0.41134-0.3803-0.96238-0.58209-0.55104-0.20178-1.203-0.20178-0.63641 0-1.1874 0.20178-0.55104 0.20179-0.96237 0.58209-0.41134 0.38029-0.64417 0.90804-0.23284 0.52776-0.23284 1.1797zm9.8187-2.7164v2.4603l-3.5313-2.7319v5.7044h1.6298v-2.4603l3.5313 2.7319v-5.7044zm1.6307 1.5134h1.5522v3.9194h1.7074v-3.9194h1.5522v-1.5134h-4.8119zm5.1775 1.8627h4.3462v-1.5134h-4.3462zm3.2829-3.3761v5.4328h1.7074v-5.4328zm-3.6477 0v5.4328h1.7074v-5.4328z" fill="#fff" stroke="#f5a9bf" stroke-width=".8" style="paint-order:stroke fill markers" aria-label="HAPPY PRIDE MONTH"/>
  </g>
</svg>
