<svg width="1024" height="1024" aria-labelledby="skinmcl-logo-title skinmcl-logo-description" role="img" viewBox="0 0 1024 1024" xmlns="http://www.w3.org/2000/svg">
  <!-- 
  Copyright (c) 2025 Logan Medical Group, LLC. All rights reserved.

  Contributers
  Tyler Morgan <git@tylerjm.org>
-->
  <defs>
    <linearGradient id="linearGradient19" x1="767.5" x2="767.5" y1="-204.5" y2="1228.5" gradientUnits="userSpaceOnUse">
      <stop stop-color="#f30000" offset=".19469"/>
      <stop stop-color="#eea100" offset=".26106"/>
      <stop stop-color="#e7eb00" offset=".31785"/>
      <stop stop-color="#0aba00" offset=".39639"/>
      <stop stop-color="#0064e9" offset=".44746"/>
      <stop stop-color="#9732e9" offset=".51576"/>
      <stop stop-color="#fff" offset=".58237"/>
      <stop stop-color="#f287f4" offset=".64811"/>
      <stop stop-color="#64bbfa" offset=".70311"/>
      <stop stop-color="#753b03" offset=".75716"/>
      <stop offset=".83776"/>
    </linearGradient>
  </defs>
  <title id="skinmcl-logo-title">SkinMCL Logo</title>
  <desc id="skinmcl-logo-description">An abstract face  with an eye and mouth, outlined in the shape of an S</desc>
  <rect width="1536" height="1024" fill="#fff" stroke-linecap="round" stroke-linejoin="round" stroke-width="34.075"/>
  <g transform="matrix(.79378 0 0 .87005 324.28 66.537)">
    <path d="m301 249c-69 2-105 43-105 43s47-28 105-29c57-1 108 29 108 29s-40-44-108-43z"/>
    <path d="m367 30s-105 38-176 86c-70 48-110 110-114 147-5 35 10 86 48 121 37 32 93 76 123 97 30 20 99 90 101 138 1 48 1 76-57 155-60 78-241 217-241 217l3 3s169-83 241-157c72-73 100-125 103-184 4-59-37-118-88-153-51-36-140-77-182-141-13-16-24-38-16-81 6-25 19-55 47-84 90-93 209-161 209-161z" fill="url(#linearGradient19)"/>
    <path d="m195 304s28 41 105 41c77 1 108-40 108-40s-46 31-108 31c-57 0-105-32-105-32z"/>
    <path d="m310 647s-87 11-129 23c-39 12-93 36-101 39l4 9c3-2 56-27 101-41 47-15 125-30 125-30zm-229 68 2 3h1z"/>
    <path d="m98 646s-37 15-37 34 23 38 23 38-12-24-12-38 26-34 26-34z"/>
    <path d="m206 643-108 3 108 4c51 0 104-3 104-3-1 0-57-4-104-4z"/>
    <path d="m81 586c-4 4-14 13-13 28 0 19 30 32 30 32s-21-15-21-33l2-20z"/>
    <path d="m83 582m0 0-4 11s32 15 86 29c64 17 145 25 145 25s-119-25-141-33c-80-26-86-32-86-32z"/>
  </g>
</svg>
