<svg xmlns="http://www.w3.org/2000/svg" width="1024" height="1024" viewBox="0 0 1024 1024" role="img" aria-labelledby="skinmcl-logo-title skinmcl-logo-description">
  <title id="skinmcl-logo-title">SkinMCL Logo</title>
  <desc id="skinmcl-logo-description">An abstract face  with an eye and mouth, outlined in the shape of an S</desc>
  <rect width="1024" height="1024" rx="179.649" fill="#fff" />
  <path id="s" fill="#cd5d96" d="M606 82s-74 34-124 77-78 99-81 132c-3 32 7 78 34 109 26 29 66 68 87 87 21 18 70 81 71 124s1 68-40 139c-42 70-170 195-170 195l2 3s119-75 170-141 71-112 73-165c3-53-26-106-62-138s-99-69-129-126c-9-15-17-35-11-73 4-23 13-50 33-76 64-83 148-144 148-144z" />
  <g fill="#000">
    <path id="upper-eye" d="M486 320s26-36 76-38c49-1 78 38 78 38s-37-27-78-26c-42 1-76 26-76 26z" />
    <path id="lower-eye" d="M485 331s35 29 76 29c45 0 78-28 78-28s-22 37-78 36c-56 0-76-37-76-37z" />
    <path id="lower-right-lip" d="M404 702s40-24 74-37 90-27 90-27-63 10-93 21-75 36-75 36z" />
    <path id="lower-left-lip" d="M405 702s-17-17-17-34 27-31 27-31-19 18-19 31c0 12 9 34 9 34z" />
    <path id="lip-split" d="M415 637s41 3 78 4c37 0 75-3 75-3s-41-3-75-3l-78 2z" />
    <path id="upper-left-lip" d="M415 637s-22-11-22-28c-1-17 11-26 11-26s-5 9-4 25c0 16 15 29 15 29z" />
    <path id="upper-right-lip" d="m404 580-3 10s23 13 62 26c47 15 105 22 105 22s-86-22-102-29c-58-24-62-29-62-29z" />
  </g>
</svg>
