<svg version="1.1" viewBox="0 0 1300 630" width="1300" height="630" xml:space="preserve" xmlns="http://www.w3.org/2000/svg"><rect width="1300" height="630" fill="#cd5d96" style="paint-order:stroke fill markers"/><g transform="translate(-160)" fill="#feacd6"><g transform="translate(1.3709 20.31)"><g transform="translate(1120)"><g transform="matrix(.14954 0 0 .14954 312.14 217.68)"><path d="m606 82s-74 34-124 77-78 99-81 132c-3 32 7 78 34 109 26 29 66 68 87 87 21 18 70 81 71 124s1 68-40 139c-42 70-170 195-170 195l2 3s119-75 170-141 71-112 73-165c3-53-26-106-62-138s-99-69-129-126c-9-15-17-35-11-73 4-23 13-50 33-76 64-83 148-144 148-144z"/><path d="m486 320s26-36 76-38c49-1 78 38 78 38s-37-27-78-26c-42 1-76 26-76 26z"/><path d="m485 331s35 29 76 29c45 0 78-28 78-28s-22 37-78 36c-56 0-76-37-76-37z"/><path d="m404 702s40-24 74-37 90-27 90-27-63 10-93 21-75 36-75 36z"/><path d="m405 702s-17-17-17-34 27-31 27-31-19 18-19 31c0 12 9 34 9 34z"/><path d="m415 637s41 3 78 4c37 0 75-3 75-3s-41-3-75-3z"/><path d="m415 637s-22-11-22-28c-1-17 11-26 11-26s-5 9-4 25c0 16 15 29 15 29z"/><path d="m404 580-3 10s23 13 62 26c47 15 105 22 105 22s-86-22-102-29c-58-24-62-29-62-29z"/></g><g transform="matrix(.14954 0 0 .14954 312.14 617.68)"><path d="m606 82s-74 34-124 77-78 99-81 132c-3 32 7 78 34 109 26 29 66 68 87 87 21 18 70 81 71 124s1 68-40 139c-42 70-170 195-170 195l2 3s119-75 170-141 71-112 73-165c3-53-26-106-62-138s-99-69-129-126c-9-15-17-35-11-73 4-23 13-50 33-76 64-83 148-144 148-144z"/><path d="m486 320s26-36 76-38c49-1 78 38 78 38s-37-27-78-26c-42 1-76 26-76 26z"/><path d="m485 331s35 29 76 29c45 0 78-28 78-28s-22 37-78 36c-56 0-76-37-76-37z"/><path d="m404 702s40-24 74-37 90-27 90-27-63 10-93 21-75 36-75 36z"/><path d="m405 702s-17-17-17-34 27-31 27-31-19 18-19 31c0 12 9 34 9 34z"/><path d="m415 637s41 3 78 4c37 0 75-3 75-3s-41-3-75-3z"/><path d="m415 637s-22-11-22-28c-1-17 11-26 11-26s-5 9-4 25c0 16 15 29 15 29z"/><path d="m404 580-3 10s23 13 62 26c47 15 105 22 105 22s-86-22-102-29c-58-24-62-29-62-29z"/></g><g transform="matrix(.14954 0 0 .14954 312.14 -182.32)"><path d="m606 82s-74 34-124 77-78 99-81 132c-3 32 7 78 34 109 26 29 66 68 87 87 21 18 70 81 71 124s1 68-40 139c-42 70-170 195-170 195l2 3s119-75 170-141 71-112 73-165c3-53-26-106-62-138s-99-69-129-126c-9-15-17-35-11-73 4-23 13-50 33-76 64-83 148-144 148-144z"/><path d="m486 320s26-36 76-38c49-1 78 38 78 38s-37-27-78-26c-42 1-76 26-76 26z"/><path d="m485 331s35 29 76 29c45 0 78-28 78-28s-22 37-78 36c-56 0-76-37-76-37z"/><path d="m404 702s40-24 74-37 90-27 90-27-63 10-93 21-75 36-75 36z"/><path d="m405 702s-17-17-17-34 27-31 27-31-19 18-19 31c0 12 9 34 9 34z"/><path d="m415 637s41 3 78 4c37 0 75-3 75-3s-41-3-75-3z"/><path d="m415 637s-22-11-22-28c-1-17 11-26 11-26s-5 9-4 25c0 16 15 29 15 29z"/><path d="m404 580-3 10s23 13 62 26c47 15 105 22 105 22s-86-22-102-29c-58-24-62-29-62-29z"/></g></g><g transform="translate(1220)"><g transform="matrix(.14954 0 0 .14954 12.139 417.68)"><path d="m606 82s-74 34-124 77-78 99-81 132c-3 32 7 78 34 109 26 29 66 68 87 87 21 18 70 81 71 124s1 68-40 139c-42 70-170 195-170 195l2 3s119-75 170-141 71-112 73-165c3-53-26-106-62-138s-99-69-129-126c-9-15-17-35-11-73 4-23 13-50 33-76 64-83 148-144 148-144z"/><path d="m486 320s26-36 76-38c49-1 78 38 78 38s-37-27-78-26c-42 1-76 26-76 26z"/><path d="m485 331s35 29 76 29c45 0 78-28 78-28s-22 37-78 36c-56 0-76-37-76-37z"/><path d="m404 702s40-24 74-37 90-27 90-27-63 10-93 21-75 36-75 36z"/><path d="m405 702s-17-17-17-34 27-31 27-31-19 18-19 31c0 12 9 34 9 34z"/><path d="m415 637s41 3 78 4c37 0 75-3 75-3s-41-3-75-3z"/><path d="m415 637s-22-11-22-28c-1-17 11-26 11-26s-5 9-4 25c0 16 15 29 15 29z"/><path d="m404 580-3 10s23 13 62 26c47 15 105 22 105 22s-86-22-102-29c-58-24-62-29-62-29z"/></g><g transform="matrix(.14954 0 0 .14954 12.139 17.677)"><path d="m606 82s-74 34-124 77-78 99-81 132c-3 32 7 78 34 109 26 29 66 68 87 87 21 18 70 81 71 124s1 68-40 139c-42 70-170 195-170 195l2 3s119-75 170-141 71-112 73-165c3-53-26-106-62-138s-99-69-129-126c-9-15-17-35-11-73 4-23 13-50 33-76 64-83 148-144 148-144z"/><path d="m486 320s26-36 76-38c49-1 78 38 78 38s-37-27-78-26c-42 1-76 26-76 26z"/><path d="m485 331s35 29 76 29c45 0 78-28 78-28s-22 37-78 36c-56 0-76-37-76-37z"/><path d="m404 702s40-24 74-37 90-27 90-27-63 10-93 21-75 36-75 36z"/><path d="m405 702s-17-17-17-34 27-31 27-31-19 18-19 31c0 12 9 34 9 34z"/><path d="m415 637s41 3 78 4c37 0 75-3 75-3s-41-3-75-3z"/><path d="m415 637s-22-11-22-28c-1-17 11-26 11-26s-5 9-4 25c0 16 15 29 15 29z"/><path d="m404 580-3 10s23 13 62 26c47 15 105 22 105 22s-86-22-102-29c-58-24-62-29-62-29z"/></g></g><g transform="translate(1020)"><g transform="matrix(.14954 0 0 .14954 12.139 217.68)"><path d="m606 82s-74 34-124 77-78 99-81 132c-3 32 7 78 34 109 26 29 66 68 87 87 21 18 70 81 71 124s1 68-40 139c-42 70-170 195-170 195l2 3s119-75 170-141 71-112 73-165c3-53-26-106-62-138s-99-69-129-126c-9-15-17-35-11-73 4-23 13-50 33-76 64-83 148-144 148-144z"/><path d="m486 320s26-36 76-38c49-1 78 38 78 38s-37-27-78-26c-42 1-76 26-76 26z"/><path d="m485 331s35 29 76 29c45 0 78-28 78-28s-22 37-78 36c-56 0-76-37-76-37z"/><path d="m404 702s40-24 74-37 90-27 90-27-63 10-93 21-75 36-75 36z"/><path d="m405 702s-17-17-17-34 27-31 27-31-19 18-19 31c0 12 9 34 9 34z"/><path d="m415 637s41 3 78 4c37 0 75-3 75-3s-41-3-75-3z"/><path d="m415 637s-22-11-22-28c-1-17 11-26 11-26s-5 9-4 25c0 16 15 29 15 29z"/><path d="m404 580-3 10s23 13 62 26c47 15 105 22 105 22s-86-22-102-29c-58-24-62-29-62-29z"/></g><g transform="matrix(.14954 0 0 .14954 12.139 617.68)"><path d="m606 82s-74 34-124 77-78 99-81 132c-3 32 7 78 34 109 26 29 66 68 87 87 21 18 70 81 71 124s1 68-40 139c-42 70-170 195-170 195l2 3s119-75 170-141 71-112 73-165c3-53-26-106-62-138s-99-69-129-126c-9-15-17-35-11-73 4-23 13-50 33-76 64-83 148-144 148-144z"/><path d="m486 320s26-36 76-38c49-1 78 38 78 38s-37-27-78-26c-42 1-76 26-76 26z"/><path d="m485 331s35 29 76 29c45 0 78-28 78-28s-22 37-78 36c-56 0-76-37-76-37z"/><path d="m404 702s40-24 74-37 90-27 90-27-63 10-93 21-75 36-75 36z"/><path d="m405 702s-17-17-17-34 27-31 27-31-19 18-19 31c0 12 9 34 9 34z"/><path d="m415 637s41 3 78 4c37 0 75-3 75-3s-41-3-75-3z"/><path d="m415 637s-22-11-22-28c-1-17 11-26 11-26s-5 9-4 25c0 16 15 29 15 29z"/><path d="m404 580-3 10s23 13 62 26c47 15 105 22 105 22s-86-22-102-29c-58-24-62-29-62-29z"/></g><g transform="matrix(.14954 0 0 .14954 12.139 -182.32)"><path d="m606 82s-74 34-124 77-78 99-81 132c-3 32 7 78 34 109 26 29 66 68 87 87 21 18 70 81 71 124s1 68-40 139c-42 70-170 195-170 195l2 3s119-75 170-141 71-112 73-165c3-53-26-106-62-138s-99-69-129-126c-9-15-17-35-11-73 4-23 13-50 33-76 64-83 148-144 148-144z"/><path d="m486 320s26-36 76-38c49-1 78 38 78 38s-37-27-78-26c-42 1-76 26-76 26z"/><path d="m485 331s35 29 76 29c45 0 78-28 78-28s-22 37-78 36c-56 0-76-37-76-37z"/><path d="m404 702s40-24 74-37 90-27 90-27-63 10-93 21-75 36-75 36z"/><path d="m405 702s-17-17-17-34 27-31 27-31-19 18-19 31c0 12 9 34 9 34z"/><path d="m415 637s41 3 78 4c37 0 75-3 75-3s-41-3-75-3z"/><path d="m415 637s-22-11-22-28c-1-17 11-26 11-26s-5 9-4 25c0 16 15 29 15 29z"/><path d="m404 580-3 10s23 13 62 26c47 15 105 22 105 22s-86-22-102-29c-58-24-62-29-62-29z"/></g></g><g transform="translate(820)"><g transform="matrix(.14954 0 0 .14954 12.139 417.68)"><path d="m606 82s-74 34-124 77-78 99-81 132c-3 32 7 78 34 109 26 29 66 68 87 87 21 18 70 81 71 124s1 68-40 139c-42 70-170 195-170 195l2 3s119-75 170-141 71-112 73-165c3-53-26-106-62-138s-99-69-129-126c-9-15-17-35-11-73 4-23 13-50 33-76 64-83 148-144 148-144z"/><path d="m486 320s26-36 76-38c49-1 78 38 78 38s-37-27-78-26c-42 1-76 26-76 26z"/><path d="m485 331s35 29 76 29c45 0 78-28 78-28s-22 37-78 36c-56 0-76-37-76-37z"/><path d="m404 702s40-24 74-37 90-27 90-27-63 10-93 21-75 36-75 36z"/><path d="m405 702s-17-17-17-34 27-31 27-31-19 18-19 31c0 12 9 34 9 34z"/><path d="m415 637s41 3 78 4c37 0 75-3 75-3s-41-3-75-3z"/><path d="m415 637s-22-11-22-28c-1-17 11-26 11-26s-5 9-4 25c0 16 15 29 15 29z"/><path d="m404 580-3 10s23 13 62 26c47 15 105 22 105 22s-86-22-102-29c-58-24-62-29-62-29z"/></g><g transform="matrix(.14954 0 0 .14954 12.139 17.677)"><path d="m606 82s-74 34-124 77-78 99-81 132c-3 32 7 78 34 109 26 29 66 68 87 87 21 18 70 81 71 124s1 68-40 139c-42 70-170 195-170 195l2 3s119-75 170-141 71-112 73-165c3-53-26-106-62-138s-99-69-129-126c-9-15-17-35-11-73 4-23 13-50 33-76 64-83 148-144 148-144z"/><path d="m486 320s26-36 76-38c49-1 78 38 78 38s-37-27-78-26c-42 1-76 26-76 26z"/><path d="m485 331s35 29 76 29c45 0 78-28 78-28s-22 37-78 36c-56 0-76-37-76-37z"/><path d="m404 702s40-24 74-37 90-27 90-27-63 10-93 21-75 36-75 36z"/><path d="m405 702s-17-17-17-34 27-31 27-31-19 18-19 31c0 12 9 34 9 34z"/><path d="m415 637s41 3 78 4c37 0 75-3 75-3s-41-3-75-3z"/><path d="m415 637s-22-11-22-28c-1-17 11-26 11-26s-5 9-4 25c0 16 15 29 15 29z"/><path d="m404 580-3 10s23 13 62 26c47 15 105 22 105 22s-86-22-102-29c-58-24-62-29-62-29z"/></g></g><g transform="translate(620)"><g transform="matrix(.14954 0 0 .14954 12.139 217.68)"><path d="m606 82s-74 34-124 77-78 99-81 132c-3 32 7 78 34 109 26 29 66 68 87 87 21 18 70 81 71 124s1 68-40 139c-42 70-170 195-170 195l2 3s119-75 170-141 71-112 73-165c3-53-26-106-62-138s-99-69-129-126c-9-15-17-35-11-73 4-23 13-50 33-76 64-83 148-144 148-144z"/><path d="m486 320s26-36 76-38c49-1 78 38 78 38s-37-27-78-26c-42 1-76 26-76 26z"/><path d="m485 331s35 29 76 29c45 0 78-28 78-28s-22 37-78 36c-56 0-76-37-76-37z"/><path d="m404 702s40-24 74-37 90-27 90-27-63 10-93 21-75 36-75 36z"/><path d="m405 702s-17-17-17-34 27-31 27-31-19 18-19 31c0 12 9 34 9 34z"/><path d="m415 637s41 3 78 4c37 0 75-3 75-3s-41-3-75-3z"/><path d="m415 637s-22-11-22-28c-1-17 11-26 11-26s-5 9-4 25c0 16 15 29 15 29z"/><path d="m404 580-3 10s23 13 62 26c47 15 105 22 105 22s-86-22-102-29c-58-24-62-29-62-29z"/></g><g transform="matrix(.14954 0 0 .14954 12.139 617.68)"><path d="m606 82s-74 34-124 77-78 99-81 132c-3 32 7 78 34 109 26 29 66 68 87 87 21 18 70 81 71 124s1 68-40 139c-42 70-170 195-170 195l2 3s119-75 170-141 71-112 73-165c3-53-26-106-62-138s-99-69-129-126c-9-15-17-35-11-73 4-23 13-50 33-76 64-83 148-144 148-144z"/><path d="m486 320s26-36 76-38c49-1 78 38 78 38s-37-27-78-26c-42 1-76 26-76 26z"/><path d="m485 331s35 29 76 29c45 0 78-28 78-28s-22 37-78 36c-56 0-76-37-76-37z"/><path d="m404 702s40-24 74-37 90-27 90-27-63 10-93 21-75 36-75 36z"/><path d="m405 702s-17-17-17-34 27-31 27-31-19 18-19 31c0 12 9 34 9 34z"/><path d="m415 637s41 3 78 4c37 0 75-3 75-3s-41-3-75-3z"/><path d="m415 637s-22-11-22-28c-1-17 11-26 11-26s-5 9-4 25c0 16 15 29 15 29z"/><path d="m404 580-3 10s23 13 62 26c47 15 105 22 105 22s-86-22-102-29c-58-24-62-29-62-29z"/></g><g transform="matrix(.14954 0 0 .14954 12.139 -182.32)"><path d="m606 82s-74 34-124 77-78 99-81 132c-3 32 7 78 34 109 26 29 66 68 87 87 21 18 70 81 71 124s1 68-40 139c-42 70-170 195-170 195l2 3s119-75 170-141 71-112 73-165c3-53-26-106-62-138s-99-69-129-126c-9-15-17-35-11-73 4-23 13-50 33-76 64-83 148-144 148-144z"/><path d="m486 320s26-36 76-38c49-1 78 38 78 38s-37-27-78-26c-42 1-76 26-76 26z"/><path d="m485 331s35 29 76 29c45 0 78-28 78-28s-22 37-78 36c-56 0-76-37-76-37z"/><path d="m404 702s40-24 74-37 90-27 90-27-63 10-93 21-75 36-75 36z"/><path d="m405 702s-17-17-17-34 27-31 27-31-19 18-19 31c0 12 9 34 9 34z"/><path d="m415 637s41 3 78 4c37 0 75-3 75-3s-41-3-75-3z"/><path d="m415 637s-22-11-22-28c-1-17 11-26 11-26s-5 9-4 25c0 16 15 29 15 29z"/><path d="m404 580-3 10s23 13 62 26c47 15 105 22 105 22s-86-22-102-29c-58-24-62-29-62-29z"/></g></g><g transform="translate(420)"><g transform="matrix(.14954 0 0 .14954 12.139 417.68)"><path d="m606 82s-74 34-124 77-78 99-81 132c-3 32 7 78 34 109 26 29 66 68 87 87 21 18 70 81 71 124s1 68-40 139c-42 70-170 195-170 195l2 3s119-75 170-141 71-112 73-165c3-53-26-106-62-138s-99-69-129-126c-9-15-17-35-11-73 4-23 13-50 33-76 64-83 148-144 148-144z"/><path d="m486 320s26-36 76-38c49-1 78 38 78 38s-37-27-78-26c-42 1-76 26-76 26z"/><path d="m485 331s35 29 76 29c45 0 78-28 78-28s-22 37-78 36c-56 0-76-37-76-37z"/><path d="m404 702s40-24 74-37 90-27 90-27-63 10-93 21-75 36-75 36z"/><path d="m405 702s-17-17-17-34 27-31 27-31-19 18-19 31c0 12 9 34 9 34z"/><path d="m415 637s41 3 78 4c37 0 75-3 75-3s-41-3-75-3z"/><path d="m415 637s-22-11-22-28c-1-17 11-26 11-26s-5 9-4 25c0 16 15 29 15 29z"/><path d="m404 580-3 10s23 13 62 26c47 15 105 22 105 22s-86-22-102-29c-58-24-62-29-62-29z"/></g><g transform="matrix(.14954 0 0 .14954 12.139 17.677)"><path d="m606 82s-74 34-124 77-78 99-81 132c-3 32 7 78 34 109 26 29 66 68 87 87 21 18 70 81 71 124s1 68-40 139c-42 70-170 195-170 195l2 3s119-75 170-141 71-112 73-165c3-53-26-106-62-138s-99-69-129-126c-9-15-17-35-11-73 4-23 13-50 33-76 64-83 148-144 148-144z"/><path d="m486 320s26-36 76-38c49-1 78 38 78 38s-37-27-78-26c-42 1-76 26-76 26z"/><path d="m485 331s35 29 76 29c45 0 78-28 78-28s-22 37-78 36c-56 0-76-37-76-37z"/><path d="m404 702s40-24 74-37 90-27 90-27-63 10-93 21-75 36-75 36z"/><path d="m405 702s-17-17-17-34 27-31 27-31-19 18-19 31c0 12 9 34 9 34z"/><path d="m415 637s41 3 78 4c37 0 75-3 75-3s-41-3-75-3z"/><path d="m415 637s-22-11-22-28c-1-17 11-26 11-26s-5 9-4 25c0 16 15 29 15 29z"/><path d="m404 580-3 10s23 13 62 26c47 15 105 22 105 22s-86-22-102-29c-58-24-62-29-62-29z"/></g></g><g transform="translate(220)"><g transform="matrix(.14954 0 0 .14954 12.139 217.68)"><path d="m606 82s-74 34-124 77-78 99-81 132c-3 32 7 78 34 109 26 29 66 68 87 87 21 18 70 81 71 124s1 68-40 139c-42 70-170 195-170 195l2 3s119-75 170-141 71-112 73-165c3-53-26-106-62-138s-99-69-129-126c-9-15-17-35-11-73 4-23 13-50 33-76 64-83 148-144 148-144z"/><path d="m486 320s26-36 76-38c49-1 78 38 78 38s-37-27-78-26c-42 1-76 26-76 26z"/><path d="m485 331s35 29 76 29c45 0 78-28 78-28s-22 37-78 36c-56 0-76-37-76-37z"/><path d="m404 702s40-24 74-37 90-27 90-27-63 10-93 21-75 36-75 36z"/><path d="m405 702s-17-17-17-34 27-31 27-31-19 18-19 31c0 12 9 34 9 34z"/><path d="m415 637s41 3 78 4c37 0 75-3 75-3s-41-3-75-3z"/><path d="m415 637s-22-11-22-28c-1-17 11-26 11-26s-5 9-4 25c0 16 15 29 15 29z"/><path d="m404 580-3 10s23 13 62 26c47 15 105 22 105 22s-86-22-102-29c-58-24-62-29-62-29z"/></g><g transform="matrix(.14954 0 0 .14954 12.139 617.68)"><path d="m606 82s-74 34-124 77-78 99-81 132c-3 32 7 78 34 109 26 29 66 68 87 87 21 18 70 81 71 124s1 68-40 139c-42 70-170 195-170 195l2 3s119-75 170-141 71-112 73-165c3-53-26-106-62-138s-99-69-129-126c-9-15-17-35-11-73 4-23 13-50 33-76 64-83 148-144 148-144z"/><path d="m486 320s26-36 76-38c49-1 78 38 78 38s-37-27-78-26c-42 1-76 26-76 26z"/><path d="m485 331s35 29 76 29c45 0 78-28 78-28s-22 37-78 36c-56 0-76-37-76-37z"/><path d="m404 702s40-24 74-37 90-27 90-27-63 10-93 21-75 36-75 36z"/><path d="m405 702s-17-17-17-34 27-31 27-31-19 18-19 31c0 12 9 34 9 34z"/><path d="m415 637s41 3 78 4c37 0 75-3 75-3s-41-3-75-3z"/><path d="m415 637s-22-11-22-28c-1-17 11-26 11-26s-5 9-4 25c0 16 15 29 15 29z"/><path d="m404 580-3 10s23 13 62 26c47 15 105 22 105 22s-86-22-102-29c-58-24-62-29-62-29z"/></g><g transform="matrix(.14954 0 0 .14954 12.139 -182.32)"><path d="m606 82s-74 34-124 77-78 99-81 132c-3 32 7 78 34 109 26 29 66 68 87 87 21 18 70 81 71 124s1 68-40 139c-42 70-170 195-170 195l2 3s119-75 170-141 71-112 73-165c3-53-26-106-62-138s-99-69-129-126c-9-15-17-35-11-73 4-23 13-50 33-76 64-83 148-144 148-144z"/><path d="m486 320s26-36 76-38c49-1 78 38 78 38s-37-27-78-26c-42 1-76 26-76 26z"/><path d="m485 331s35 29 76 29c45 0 78-28 78-28s-22 37-78 36c-56 0-76-37-76-37z"/><path d="m404 702s40-24 74-37 90-27 90-27-63 10-93 21-75 36-75 36z"/><path d="m405 702s-17-17-17-34 27-31 27-31-19 18-19 31c0 12 9 34 9 34z"/><path d="m415 637s41 3 78 4c37 0 75-3 75-3s-41-3-75-3z"/><path d="m415 637s-22-11-22-28c-1-17 11-26 11-26s-5 9-4 25c0 16 15 29 15 29z"/><path d="m404 580-3 10s23 13 62 26c47 15 105 22 105 22s-86-22-102-29c-58-24-62-29-62-29z"/></g></g><g transform="translate(20)"><g transform="matrix(.14954 0 0 .14954 12.139 417.68)"><path d="m606 82s-74 34-124 77-78 99-81 132c-3 32 7 78 34 109 26 29 66 68 87 87 21 18 70 81 71 124s1 68-40 139c-42 70-170 195-170 195l2 3s119-75 170-141 71-112 73-165c3-53-26-106-62-138s-99-69-129-126c-9-15-17-35-11-73 4-23 13-50 33-76 64-83 148-144 148-144z"/><path d="m486 320s26-36 76-38c49-1 78 38 78 38s-37-27-78-26c-42 1-76 26-76 26z"/><path d="m485 331s35 29 76 29c45 0 78-28 78-28s-22 37-78 36c-56 0-76-37-76-37z"/><path d="m404 702s40-24 74-37 90-27 90-27-63 10-93 21-75 36-75 36z"/><path d="m405 702s-17-17-17-34 27-31 27-31-19 18-19 31c0 12 9 34 9 34z"/><path d="m415 637s41 3 78 4c37 0 75-3 75-3s-41-3-75-3z"/><path d="m415 637s-22-11-22-28c-1-17 11-26 11-26s-5 9-4 25c0 16 15 29 15 29z"/><path d="m404 580-3 10s23 13 62 26c47 15 105 22 105 22s-86-22-102-29c-58-24-62-29-62-29z"/></g><g transform="matrix(.14954 0 0 .14954 12.139 17.677)"><path id="s" d="m606 82s-74 34-124 77-78 99-81 132c-3 32 7 78 34 109 26 29 66 68 87 87 21 18 70 81 71 124s1 68-40 139c-42 70-170 195-170 195l2 3s119-75 170-141 71-112 73-165c3-53-26-106-62-138s-99-69-129-126c-9-15-17-35-11-73 4-23 13-50 33-76 64-83 148-144 148-144z"/><path id="upper-eye" d="m486 320s26-36 76-38c49-1 78 38 78 38s-37-27-78-26c-42 1-76 26-76 26z"/><path id="lower-eye" d="m485 331s35 29 76 29c45 0 78-28 78-28s-22 37-78 36c-56 0-76-37-76-37z"/><path id="lower-right-lip" d="m404 702s40-24 74-37 90-27 90-27-63 10-93 21-75 36-75 36z"/><path id="lower-left-lip" d="m405 702s-17-17-17-34 27-31 27-31-19 18-19 31c0 12 9 34 9 34z"/><path id="lip-split" d="m415 637s41 3 78 4c37 0 75-3 75-3s-41-3-75-3z"/><path id="upper-left-lip" d="m415 637s-22-11-22-28c-1-17 11-26 11-26s-5 9-4 25c0 16 15 29 15 29z"/><path id="upper-right-lip" d="m404 580-3 10s23 13 62 26c47 15 105 22 105 22s-86-22-102-29c-58-24-62-29-62-29z"/></g></g></g><g transform="translate(-30.59 2.9609)" stroke-width=".053825"><g transform="translate(0,-50)"><path d="m37.71 65.175q-4.0369-0.80737-7.8315-2.7989t-6.7012-5.4363q-2.9065-3.4448-4.6558-8.4236-1.7493-4.9788-1.7493-11.761v-0.4306q0-0.8612 0.59207-1.4533t1.4533-0.59207h0.48442q3.068 0 5.9207 0.51133 2.8527 0.51134 5.6516 1.7493 0.75355-4.306 2.8258-8.7734t4.8711-8.1276q0.75355-1.0227 1.9915-1.0227t1.9915 1.0227q2.7989 3.6601 4.8711 8.1276 2.0723 4.4675 2.8258 8.7734 2.8527-1.3994 5.7323-1.83 2.8796-0.4306 5.8938-0.4306h0.48442q0.8612 0 1.4533 0.59207 0.59208 0.59207 0.59208 1.4533v0.37678q0 7.4278-2.0184 12.649-2.0184 5.221-5.1941 8.6389-3.1757 3.4179-7.0511 5.1672-3.8754 1.7493-7.6431 2.2337-0.96885 0.10765-2.3683 0.0538-1.3994-0.0538-2.4221-0.26913zm2.2068-5.4901q-0.59207-9.0426-5.4363-13.752-4.8442-4.7097-11.895-5.7862h0.02691-0.02691q0.59207 9.2579 5.5978 13.914 5.0057 4.6558 11.734 5.6247 0.10765 0.0538 0 0.0269t0-0.0269zm-3.6601-19.969q1.0765 0.86119 2.2876 2.0453 1.2111 1.1842 2.0184 2.2606 0.8612-1.0765 2.0184-2.2337 1.1572-1.1572 2.2337-2.0722-0.16147-3.0142-1.2649-6.2437-1.1034-3.2295-2.9873-6.4052v0.0269-0.0269q-1.8839 3.1218-2.9873 6.3513-1.1034 3.2295-1.3187 6.2975zm7.4817 10.119q0.6459 1.7224 1.1303 4.01 0.48442 2.2876 0.75355 4.7097 1.6686-0.53825 3.7677-1.7493 2.0992-1.2111 4.01-3.364 1.9108-2.153 3.3641-5.4094 1.4533-3.2564 1.83-7.8853 0.05382-0.10764 0.02691 0-0.02691 0.10765-0.02691 0-5.0595 0.75355-8.8273 3.2026-3.7677 2.449-6.0284 6.4859z"/><path d="m37.71 225.17q-4.0369-0.80737-7.8315-2.7989t-6.7012-5.4363q-2.9065-3.4448-4.6558-8.4236-1.7493-4.9788-1.7493-11.761v-0.4306q0-0.8612 0.59207-1.4533t1.4533-0.59207h0.48442q3.068 0 5.9207 0.51133 2.8527 0.51134 5.6516 1.7493 0.75355-4.306 2.8258-8.7734t4.8711-8.1276q0.75355-1.0227 1.9915-1.0227t1.9915 1.0227q2.7989 3.6601 4.8711 8.1276 2.0723 4.4675 2.8258 8.7734 2.8527-1.3994 5.7323-1.83 2.8796-0.4306 5.8938-0.4306h0.48442q0.8612 0 1.4533 0.59207 0.59208 0.59207 0.59208 1.4533v0.37678q0 7.4278-2.0184 12.649-2.0184 5.221-5.1941 8.6389-3.1757 3.4179-7.0511 5.1672-3.8754 1.7493-7.6431 2.2337-0.96885 0.10765-2.3683 0.0538-1.3994-0.0538-2.4221-0.26913zm2.2068-5.4901q-0.59207-9.0426-5.4363-13.752-4.8442-4.7097-11.895-5.7862h0.02691-0.02691q0.59207 9.2579 5.5978 13.914 5.0057 4.6558 11.734 5.6247 0.10765 0.0538 0 0.0269t0-0.0269zm-3.6601-19.969q1.0765 0.86119 2.2876 2.0453 1.2111 1.1842 2.0184 2.2606 0.8612-1.0765 2.0184-2.2337 1.1572-1.1572 2.2337-2.0722-0.16147-3.0142-1.2649-6.2437-1.1034-3.2295-2.9873-6.4052v0.0269-0.0269q-1.8839 3.1218-2.9873 6.3513-1.1034 3.2295-1.3187 6.2975zm7.4817 10.119q0.6459 1.7224 1.1303 4.01 0.48442 2.2876 0.75355 4.7097 1.6686-0.53825 3.7677-1.7493 2.0992-1.2111 4.01-3.364 1.9108-2.153 3.3641-5.4094 1.4533-3.2564 1.83-7.8853 0.05382-0.10764 0.02691 0-0.02691 0.10765-0.02691 0-5.0595 0.75355-8.8273 3.2026-3.7677 2.449-6.0284 6.4859z"/><path d="m37.71 385.17q-4.0369-0.80737-7.8315-2.7989t-6.7012-5.4363q-2.9065-3.4448-4.6558-8.4236-1.7493-4.9788-1.7493-11.761v-0.4306q0-0.8612 0.59207-1.4533t1.4533-0.59207h0.48442q3.068 0 5.9207 0.51133 2.8527 0.51134 5.6516 1.7493 0.75355-4.306 2.8258-8.7734t4.8711-8.1276q0.75355-1.0227 1.9915-1.0227t1.9915 1.0227q2.7989 3.6601 4.8711 8.1276 2.0723 4.4675 2.8258 8.7734 2.8527-1.3994 5.7323-1.83 2.8796-0.4306 5.8938-0.4306h0.48442q0.8612 0 1.4533 0.59207 0.59208 0.59207 0.59208 1.4533v0.37678q0 7.4278-2.0184 12.649-2.0184 5.221-5.1941 8.6389-3.1757 3.4179-7.0511 5.1672-3.8754 1.7493-7.6431 2.2337-0.96885 0.10765-2.3683 0.0538-1.3994-0.0538-2.4221-0.26913zm2.2068-5.4901q-0.59207-9.0426-5.4363-13.752-4.8442-4.7097-11.895-5.7862h0.02691-0.02691q0.59207 9.2579 5.5978 13.914 5.0057 4.6558 11.734 5.6247 0.10765 0.0538 0 0.0269t0-0.0269zm-3.6601-19.969q1.0765 0.86119 2.2876 2.0453 1.2111 1.1842 2.0184 2.2606 0.8612-1.0765 2.0184-2.2337 1.1572-1.1572 2.2337-2.0722-0.16147-3.0142-1.2649-6.2437-1.1034-3.2295-2.9873-6.4052v0.0269-0.0269q-1.8839 3.1218-2.9873 6.3513-1.1034 3.2295-1.3187 6.2975zm7.4817 10.119q0.6459 1.7224 1.1303 4.01 0.48442 2.2876 0.75355 4.7097 1.6686-0.53825 3.7677-1.7493 2.0992-1.2111 4.01-3.364 1.9108-2.153 3.3641-5.4094 1.4533-3.2564 1.83-7.8853 0.05382-0.10764 0.02691 0-0.02691 0.10765-0.02691 0-5.0595 0.75355-8.8273 3.2026-3.7677 2.449-6.0284 6.4859z"/><path d="m37.71 545.17q-4.0369-0.80737-7.8315-2.7989t-6.7012-5.4363q-2.9065-3.4448-4.6558-8.4236-1.7493-4.9788-1.7493-11.761v-0.4306q0-0.8612 0.59207-1.4533t1.4533-0.59207h0.48442q3.068 0 5.9207 0.51133 2.8527 0.51134 5.6516 1.7493 0.75355-4.306 2.8258-8.7734t4.8711-8.1276q0.75355-1.0227 1.9915-1.0227t1.9915 1.0227q2.7989 3.6601 4.8711 8.1276 2.0723 4.4675 2.8258 8.7734 2.8527-1.3994 5.7323-1.83 2.8796-0.4306 5.8938-0.4306h0.48442q0.8612 0 1.4533 0.59207 0.59208 0.59207 0.59208 1.4533v0.37678q0 7.4278-2.0184 12.649-2.0184 5.221-5.1941 8.6389-3.1757 3.4179-7.0511 5.1672-3.8754 1.7493-7.6431 2.2337-0.96885 0.10765-2.3683 0.0538-1.3994-0.0538-2.4221-0.26913zm2.2068-5.4901q-0.59207-9.0426-5.4363-13.752-4.8442-4.7097-11.895-5.7862h0.02691-0.02691q0.59207 9.2579 5.5978 13.914 5.0057 4.6558 11.734 5.6247 0.10765 0.0538 0 0.0269t0-0.0269zm-3.6601-19.969q1.0765 0.86119 2.2876 2.0453 1.2111 1.1842 2.0184 2.2606 0.8612-1.0765 2.0184-2.2337 1.1572-1.1572 2.2337-2.0722-0.16147-3.0142-1.2649-6.2437-1.1034-3.2295-2.9873-6.4052v0.0269-0.0269q-1.8839 3.1218-2.9873 6.3513-1.1034 3.2295-1.3187 6.2975zm7.4817 10.119q0.6459 1.7224 1.1303 4.01 0.48442 2.2876 0.75355 4.7097 1.6686-0.53825 3.7677-1.7493 2.0992-1.2111 4.01-3.364 1.9108-2.153 3.3641-5.4094 1.4533-3.2564 1.83-7.8853 0.05382-0.10764 0.02691 0-0.02691 0.10765-0.02691 0-5.0595 0.75355-8.8273 3.2026-3.7677 2.449-6.0284 6.4859z"/><path d="m37.71 705.17q-4.0369-0.80737-7.8315-2.7989t-6.7012-5.4363q-2.9065-3.4448-4.6558-8.4236-1.7493-4.9788-1.7493-11.761v-0.4306q0-0.8612 0.59207-1.4533t1.4533-0.59207h0.48442q3.068 0 5.9207 0.51133 2.8527 0.51134 5.6516 1.7493 0.75355-4.306 2.8258-8.7734t4.8711-8.1276q0.75355-1.0227 1.9915-1.0227t1.9915 1.0227q2.7989 3.6601 4.8711 8.1276 2.0723 4.4675 2.8258 8.7734 2.8527-1.3994 5.7323-1.83 2.8796-0.4306 5.8938-0.4306h0.48442q0.8612 0 1.4533 0.59207 0.59208 0.59207 0.59208 1.4533v0.37678q0 7.4278-2.0184 12.649-2.0184 5.221-5.1941 8.6389-3.1757 3.4179-7.0511 5.1672-3.8754 1.7493-7.6431 2.2337-0.96885 0.10765-2.3683 0.0538-1.3994-0.0538-2.4221-0.26913zm2.2068-5.4901q-0.59207-9.0426-5.4363-13.752-4.8442-4.7097-11.895-5.7862h0.02691-0.02691q0.59207 9.2579 5.5978 13.914 5.0057 4.6558 11.734 5.6247 0.10765 0.0538 0 0.0269t0-0.0269zm-3.6601-19.969q1.0765 0.86119 2.2876 2.0453 1.2111 1.1842 2.0184 2.2606 0.8612-1.0765 2.0184-2.2337 1.1572-1.1572 2.2337-2.0722-0.16147-3.0142-1.2649-6.2437-1.1034-3.2295-2.9873-6.4052v0.0269-0.0269q-1.8839 3.1218-2.9873 6.3513-1.1034 3.2295-1.3187 6.2975zm7.4817 10.119q0.6459 1.7224 1.1303 4.01 0.48442 2.2876 0.75355 4.7097 1.6686-0.53825 3.7677-1.7493 2.0992-1.2111 4.01-3.364 1.9108-2.153 3.3641-5.4094 1.4533-3.2564 1.83-7.8853 0.05382-0.10764 0.02691 0-0.02691 0.10765-0.02691 0-5.0595 0.75355-8.8273 3.2026-3.7677 2.449-6.0284 6.4859z"/></g><g transform="translate(200,-50)"><path d="m37.71 145.17q-4.0369-0.80737-7.8315-2.7989t-6.7012-5.4363q-2.9065-3.4448-4.6558-8.4236-1.7493-4.9788-1.7493-11.761v-0.4306q0-0.8612 0.59207-1.4533t1.4533-0.59207h0.48442q3.068 0 5.9207 0.51133 2.8527 0.51134 5.6516 1.7493 0.75355-4.306 2.8258-8.7734t4.8711-8.1275q0.75355-1.0227 1.9915-1.0227t1.9915 1.0227q2.7989 3.6601 4.8711 8.1275 2.0723 4.4675 2.8258 8.7734 2.8527-1.3994 5.7323-1.83 2.8796-0.4306 5.8938-0.4306h0.48442q0.8612 0 1.4533 0.59207 0.59208 0.59207 0.59208 1.4533v0.37678q0 7.4278-2.0184 12.649-2.0184 5.221-5.1941 8.6389-3.1757 3.4179-7.0511 5.1672-3.8754 1.7493-7.6431 2.2337-0.96885 0.10765-2.3683 0.0538-1.3994-0.0538-2.4221-0.26913zm2.2068-5.4901q-0.59207-9.0426-5.4363-13.752-4.8442-4.7097-11.895-5.7862h0.02691-0.02691q0.59207 9.2579 5.5978 13.914 5.0057 4.6558 11.734 5.6247 0.10765 0.0538 0 0.0269t0-0.0269zm-3.6601-19.969q1.0765 0.86119 2.2876 2.0453 1.2111 1.1842 2.0184 2.2606 0.8612-1.0765 2.0184-2.2337 1.1572-1.1572 2.2337-2.0722-0.16147-3.0142-1.2649-6.2437-1.1034-3.2295-2.9873-6.4052v0.0269-0.0269q-1.8839 3.1218-2.9873 6.3513-1.1034 3.2295-1.3187 6.2975zm7.4817 10.119q0.6459 1.7224 1.1303 4.01 0.48442 2.2876 0.75355 4.7097 1.6686-0.53825 3.7677-1.7493 2.0992-1.2111 4.01-3.364 1.9108-2.153 3.3641-5.4094 1.4533-3.2564 1.83-7.8853 0.05382-0.10764 0.02691 0-0.02691 0.10765-0.02691 0-5.0595 0.75355-8.8273 3.2026-3.7677 2.449-6.0284 6.4859z"/><path d="m37.71 305.17q-4.0369-0.80737-7.8315-2.7989t-6.7012-5.4363q-2.9065-3.4448-4.6558-8.4236-1.7493-4.9788-1.7493-11.761v-0.4306q0-0.8612 0.59207-1.4533t1.4533-0.59207h0.48442q3.068 0 5.9207 0.51133 2.8527 0.51134 5.6516 1.7493 0.75355-4.306 2.8258-8.7734t4.8711-8.1276q0.75355-1.0227 1.9915-1.0227t1.9915 1.0227q2.7989 3.6601 4.8711 8.1276 2.0723 4.4675 2.8258 8.7734 2.8527-1.3994 5.7323-1.83 2.8796-0.4306 5.8938-0.4306h0.48442q0.8612 0 1.4533 0.59207 0.59208 0.59207 0.59208 1.4533v0.37678q0 7.4278-2.0184 12.649-2.0184 5.221-5.1941 8.6389-3.1757 3.4179-7.0511 5.1672-3.8754 1.7493-7.6431 2.2337-0.96885 0.10765-2.3683 0.0538-1.3994-0.0538-2.4221-0.26913zm2.2068-5.4901q-0.59207-9.0426-5.4363-13.752-4.8442-4.7097-11.895-5.7862h0.02691-0.02691q0.59207 9.2579 5.5978 13.914 5.0057 4.6558 11.734 5.6247 0.10765 0.0538 0 0.0269t0-0.0269zm-3.6601-19.969q1.0765 0.86119 2.2876 2.0453 1.2111 1.1842 2.0184 2.2606 0.8612-1.0765 2.0184-2.2337 1.1572-1.1572 2.2337-2.0722-0.16147-3.0142-1.2649-6.2437-1.1034-3.2295-2.9873-6.4052v0.0269-0.0269q-1.8839 3.1218-2.9873 6.3513-1.1034 3.2295-1.3187 6.2975zm7.4817 10.119q0.6459 1.7224 1.1303 4.01 0.48442 2.2876 0.75355 4.7097 1.6686-0.53825 3.7677-1.7493 2.0992-1.2111 4.01-3.364 1.9108-2.153 3.3641-5.4094 1.4533-3.2564 1.83-7.8853 0.05382-0.10764 0.02691 0-0.02691 0.10765-0.02691 0-5.0595 0.75355-8.8273 3.2026-3.7677 2.449-6.0284 6.4859z"/><path d="m37.71 465.17q-4.0369-0.80737-7.8315-2.7989t-6.7012-5.4363q-2.9065-3.4448-4.6558-8.4236-1.7493-4.9788-1.7493-11.761v-0.4306q0-0.8612 0.59207-1.4533t1.4533-0.59207h0.48442q3.068 0 5.9207 0.51133 2.8527 0.51134 5.6516 1.7493 0.75355-4.306 2.8258-8.7734t4.8711-8.1276q0.75355-1.0227 1.9915-1.0227t1.9915 1.0227q2.7989 3.6601 4.8711 8.1276 2.0723 4.4675 2.8258 8.7734 2.8527-1.3994 5.7323-1.83 2.8796-0.4306 5.8938-0.4306h0.48442q0.8612 0 1.4533 0.59207 0.59208 0.59207 0.59208 1.4533v0.37678q0 7.4278-2.0184 12.649-2.0184 5.221-5.1941 8.6389-3.1757 3.4179-7.0511 5.1672-3.8754 1.7493-7.6431 2.2337-0.96885 0.10765-2.3683 0.0538-1.3994-0.0538-2.4221-0.26913zm2.2068-5.4901q-0.59207-9.0426-5.4363-13.752-4.8442-4.7097-11.895-5.7862h0.02691-0.02691q0.59207 9.2579 5.5978 13.914 5.0057 4.6558 11.734 5.6247 0.10765 0.0538 0 0.0269t0-0.0269zm-3.6601-19.969q1.0765 0.86119 2.2876 2.0453 1.2111 1.1842 2.0184 2.2606 0.8612-1.0765 2.0184-2.2337 1.1572-1.1572 2.2337-2.0722-0.16147-3.0142-1.2649-6.2437-1.1034-3.2295-2.9873-6.4052v0.0269-0.0269q-1.8839 3.1218-2.9873 6.3513-1.1034 3.2295-1.3187 6.2975zm7.4817 10.119q0.6459 1.7224 1.1303 4.01 0.48442 2.2876 0.75355 4.7097 1.6686-0.53825 3.7677-1.7493 2.0992-1.2111 4.01-3.364 1.9108-2.153 3.3641-5.4094 1.4533-3.2564 1.83-7.8853 0.05382-0.10764 0.02691 0-0.02691 0.10765-0.02691 0-5.0595 0.75355-8.8273 3.2026-3.7677 2.449-6.0284 6.4859z"/><path d="m37.71 625.17q-4.0369-0.80737-7.8315-2.7989t-6.7012-5.4363q-2.9065-3.4448-4.6558-8.4236-1.7493-4.9788-1.7493-11.761v-0.4306q0-0.8612 0.59207-1.4533t1.4533-0.59207h0.48442q3.068 0 5.9207 0.51133 2.8527 0.51134 5.6516 1.7493 0.75355-4.306 2.8258-8.7734t4.8711-8.1276q0.75355-1.0227 1.9915-1.0227t1.9915 1.0227q2.7989 3.6601 4.8711 8.1276 2.0723 4.4675 2.8258 8.7734 2.8527-1.3994 5.7323-1.83 2.8796-0.4306 5.8938-0.4306h0.48442q0.8612 0 1.4533 0.59207 0.59208 0.59207 0.59208 1.4533v0.37678q0 7.4278-2.0184 12.649-2.0184 5.221-5.1941 8.6389-3.1757 3.4179-7.0511 5.1672-3.8754 1.7493-7.6431 2.2337-0.96885 0.10765-2.3683 0.0538-1.3994-0.0538-2.4221-0.26913zm2.2068-5.4901q-0.59207-9.0426-5.4363-13.752-4.8442-4.7097-11.895-5.7862h0.02691-0.02691q0.59207 9.2579 5.5978 13.914 5.0057 4.6558 11.734 5.6247 0.10765 0.0538 0 0.0269t0-0.0269zm-3.6601-19.969q1.0765 0.86119 2.2876 2.0453 1.2111 1.1842 2.0184 2.2606 0.8612-1.0765 2.0184-2.2337 1.1572-1.1572 2.2337-2.0722-0.16147-3.0142-1.2649-6.2437-1.1034-3.2295-2.9873-6.4052v0.0269-0.0269q-1.8839 3.1218-2.9873 6.3513-1.1034 3.2295-1.3187 6.2975zm7.4817 10.119q0.6459 1.7224 1.1303 4.01 0.48442 2.2876 0.75355 4.7097 1.6686-0.53825 3.7677-1.7493 2.0992-1.2111 4.01-3.364 1.9108-2.153 3.3641-5.4094 1.4533-3.2564 1.83-7.8853 0.05382-0.10764 0.02691 0-0.02691 0.10765-0.02691 0-5.0595 0.75355-8.8273 3.2026-3.7677 2.449-6.0284 6.4859z"/></g><g transform="translate(400,-50)"><path d="m37.71 65.175q-4.0369-0.80737-7.8315-2.7989t-6.7012-5.4363q-2.9065-3.4448-4.6558-8.4236-1.7493-4.9788-1.7493-11.761v-0.4306q0-0.8612 0.59207-1.4533t1.4533-0.59207h0.48442q3.068 0 5.9207 0.51133 2.8527 0.51134 5.6516 1.7493 0.75355-4.306 2.8258-8.7734t4.8711-8.1276q0.75355-1.0227 1.9915-1.0227t1.9915 1.0227q2.7989 3.6601 4.8711 8.1276 2.0723 4.4675 2.8258 8.7734 2.8527-1.3994 5.7323-1.83 2.8796-0.4306 5.8938-0.4306h0.48442q0.8612 0 1.4533 0.59207 0.59208 0.59207 0.59208 1.4533v0.37678q0 7.4278-2.0184 12.649-2.0184 5.221-5.1941 8.6389-3.1757 3.4179-7.0511 5.1672-3.8754 1.7493-7.6431 2.2337-0.96885 0.10765-2.3683 0.0538-1.3994-0.0538-2.4221-0.26913zm2.2068-5.4901q-0.59207-9.0426-5.4363-13.752-4.8442-4.7097-11.895-5.7862h0.02691-0.02691q0.59207 9.2579 5.5978 13.914 5.0057 4.6558 11.734 5.6247 0.10765 0.0538 0 0.0269t0-0.0269zm-3.6601-19.969q1.0765 0.86119 2.2876 2.0453 1.2111 1.1842 2.0184 2.2606 0.8612-1.0765 2.0184-2.2337 1.1572-1.1572 2.2337-2.0722-0.16147-3.0142-1.2649-6.2437-1.1034-3.2295-2.9873-6.4052v0.0269-0.0269q-1.8839 3.1218-2.9873 6.3513-1.1034 3.2295-1.3187 6.2975zm7.4817 10.119q0.6459 1.7224 1.1303 4.01 0.48442 2.2876 0.75355 4.7097 1.6686-0.53825 3.7677-1.7493 2.0992-1.2111 4.01-3.364 1.9108-2.153 3.3641-5.4094 1.4533-3.2564 1.83-7.8853 0.05382-0.10764 0.02691 0-0.02691 0.10765-0.02691 0-5.0595 0.75355-8.8273 3.2026-3.7677 2.449-6.0284 6.4859z"/><path d="m37.71 225.17q-4.0369-0.80737-7.8315-2.7989t-6.7012-5.4363q-2.9065-3.4448-4.6558-8.4236-1.7493-4.9788-1.7493-11.761v-0.4306q0-0.8612 0.59207-1.4533t1.4533-0.59207h0.48442q3.068 0 5.9207 0.51133 2.8527 0.51134 5.6516 1.7493 0.75355-4.306 2.8258-8.7734t4.8711-8.1276q0.75355-1.0227 1.9915-1.0227t1.9915 1.0227q2.7989 3.6601 4.8711 8.1276 2.0723 4.4675 2.8258 8.7734 2.8527-1.3994 5.7323-1.83 2.8796-0.4306 5.8938-0.4306h0.48442q0.8612 0 1.4533 0.59207 0.59208 0.59207 0.59208 1.4533v0.37678q0 7.4278-2.0184 12.649-2.0184 5.221-5.1941 8.6389-3.1757 3.4179-7.0511 5.1672-3.8754 1.7493-7.6431 2.2337-0.96885 0.10765-2.3683 0.0538-1.3994-0.0538-2.4221-0.26913zm2.2068-5.4901q-0.59207-9.0426-5.4363-13.752-4.8442-4.7097-11.895-5.7862h0.02691-0.02691q0.59207 9.2579 5.5978 13.914 5.0057 4.6558 11.734 5.6247 0.10765 0.0538 0 0.0269t0-0.0269zm-3.6601-19.969q1.0765 0.86119 2.2876 2.0453 1.2111 1.1842 2.0184 2.2606 0.8612-1.0765 2.0184-2.2337 1.1572-1.1572 2.2337-2.0722-0.16147-3.0142-1.2649-6.2437-1.1034-3.2295-2.9873-6.4052v0.0269-0.0269q-1.8839 3.1218-2.9873 6.3513-1.1034 3.2295-1.3187 6.2975zm7.4817 10.119q0.6459 1.7224 1.1303 4.01 0.48442 2.2876 0.75355 4.7097 1.6686-0.53825 3.7677-1.7493 2.0992-1.2111 4.01-3.364 1.9108-2.153 3.3641-5.4094 1.4533-3.2564 1.83-7.8853 0.05382-0.10764 0.02691 0-0.02691 0.10765-0.02691 0-5.0595 0.75355-8.8273 3.2026-3.7677 2.449-6.0284 6.4859z"/><path d="m37.71 385.17q-4.0369-0.80737-7.8315-2.7989t-6.7012-5.4363q-2.9065-3.4448-4.6558-8.4236-1.7493-4.9788-1.7493-11.761v-0.4306q0-0.8612 0.59207-1.4533t1.4533-0.59207h0.48442q3.068 0 5.9207 0.51133 2.8527 0.51134 5.6516 1.7493 0.75355-4.306 2.8258-8.7734t4.8711-8.1276q0.75355-1.0227 1.9915-1.0227t1.9915 1.0227q2.7989 3.6601 4.8711 8.1276 2.0723 4.4675 2.8258 8.7734 2.8527-1.3994 5.7323-1.83 2.8796-0.4306 5.8938-0.4306h0.48442q0.8612 0 1.4533 0.59207 0.59208 0.59207 0.59208 1.4533v0.37678q0 7.4278-2.0184 12.649-2.0184 5.221-5.1941 8.6389-3.1757 3.4179-7.0511 5.1672-3.8754 1.7493-7.6431 2.2337-0.96885 0.10765-2.3683 0.0538-1.3994-0.0538-2.4221-0.26913zm2.2068-5.4901q-0.59207-9.0426-5.4363-13.752-4.8442-4.7097-11.895-5.7862h0.02691-0.02691q0.59207 9.2579 5.5978 13.914 5.0057 4.6558 11.734 5.6247 0.10765 0.0538 0 0.0269t0-0.0269zm-3.6601-19.969q1.0765 0.86119 2.2876 2.0453 1.2111 1.1842 2.0184 2.2606 0.8612-1.0765 2.0184-2.2337 1.1572-1.1572 2.2337-2.0722-0.16147-3.0142-1.2649-6.2437-1.1034-3.2295-2.9873-6.4052v0.0269-0.0269q-1.8839 3.1218-2.9873 6.3513-1.1034 3.2295-1.3187 6.2975zm7.4817 10.119q0.6459 1.7224 1.1303 4.01 0.48442 2.2876 0.75355 4.7097 1.6686-0.53825 3.7677-1.7493 2.0992-1.2111 4.01-3.364 1.9108-2.153 3.3641-5.4094 1.4533-3.2564 1.83-7.8853 0.05382-0.10764 0.02691 0-0.02691 0.10765-0.02691 0-5.0595 0.75355-8.8273 3.2026-3.7677 2.449-6.0284 6.4859z"/><path d="m37.71 545.17q-4.0369-0.80737-7.8315-2.7989t-6.7012-5.4363q-2.9065-3.4448-4.6558-8.4236-1.7493-4.9788-1.7493-11.761v-0.4306q0-0.8612 0.59207-1.4533t1.4533-0.59207h0.48442q3.068 0 5.9207 0.51133 2.8527 0.51134 5.6516 1.7493 0.75355-4.306 2.8258-8.7734t4.8711-8.1276q0.75355-1.0227 1.9915-1.0227t1.9915 1.0227q2.7989 3.6601 4.8711 8.1276 2.0723 4.4675 2.8258 8.7734 2.8527-1.3994 5.7323-1.83 2.8796-0.4306 5.8938-0.4306h0.48442q0.8612 0 1.4533 0.59207 0.59208 0.59207 0.59208 1.4533v0.37678q0 7.4278-2.0184 12.649-2.0184 5.221-5.1941 8.6389-3.1757 3.4179-7.0511 5.1672-3.8754 1.7493-7.6431 2.2337-0.96885 0.10765-2.3683 0.0538-1.3994-0.0538-2.4221-0.26913zm2.2068-5.4901q-0.59207-9.0426-5.4363-13.752-4.8442-4.7097-11.895-5.7862h0.02691-0.02691q0.59207 9.2579 5.5978 13.914 5.0057 4.6558 11.734 5.6247 0.10765 0.0538 0 0.0269t0-0.0269zm-3.6601-19.969q1.0765 0.86119 2.2876 2.0453 1.2111 1.1842 2.0184 2.2606 0.8612-1.0765 2.0184-2.2337 1.1572-1.1572 2.2337-2.0722-0.16147-3.0142-1.2649-6.2437-1.1034-3.2295-2.9873-6.4052v0.0269-0.0269q-1.8839 3.1218-2.9873 6.3513-1.1034 3.2295-1.3187 6.2975zm7.4817 10.119q0.6459 1.7224 1.1303 4.01 0.48442 2.2876 0.75355 4.7097 1.6686-0.53825 3.7677-1.7493 2.0992-1.2111 4.01-3.364 1.9108-2.153 3.3641-5.4094 1.4533-3.2564 1.83-7.8853 0.05382-0.10764 0.02691 0-0.02691 0.10765-0.02691 0-5.0595 0.75355-8.8273 3.2026-3.7677 2.449-6.0284 6.4859z"/><path d="m37.71 705.17q-4.0369-0.80737-7.8315-2.7989t-6.7012-5.4363q-2.9065-3.4448-4.6558-8.4236-1.7493-4.9788-1.7493-11.761v-0.4306q0-0.8612 0.59207-1.4533t1.4533-0.59207h0.48442q3.068 0 5.9207 0.51133 2.8527 0.51134 5.6516 1.7493 0.75355-4.306 2.8258-8.7734t4.8711-8.1276q0.75355-1.0227 1.9915-1.0227t1.9915 1.0227q2.7989 3.6601 4.8711 8.1276 2.0723 4.4675 2.8258 8.7734 2.8527-1.3994 5.7323-1.83 2.8796-0.4306 5.8938-0.4306h0.48442q0.8612 0 1.4533 0.59207 0.59208 0.59207 0.59208 1.4533v0.37678q0 7.4278-2.0184 12.649-2.0184 5.221-5.1941 8.6389-3.1757 3.4179-7.0511 5.1672-3.8754 1.7493-7.6431 2.2337-0.96885 0.10765-2.3683 0.0538-1.3994-0.0538-2.4221-0.26913zm2.2068-5.4901q-0.59207-9.0426-5.4363-13.752-4.8442-4.7097-11.895-5.7862h0.02691-0.02691q0.59207 9.2579 5.5978 13.914 5.0057 4.6558 11.734 5.6247 0.10765 0.0538 0 0.0269t0-0.0269zm-3.6601-19.969q1.0765 0.86119 2.2876 2.0453 1.2111 1.1842 2.0184 2.2606 0.8612-1.0765 2.0184-2.2337 1.1572-1.1572 2.2337-2.0722-0.16147-3.0142-1.2649-6.2437-1.1034-3.2295-2.9873-6.4052v0.0269-0.0269q-1.8839 3.1218-2.9873 6.3513-1.1034 3.2295-1.3187 6.2975zm7.4817 10.119q0.6459 1.7224 1.1303 4.01 0.48442 2.2876 0.75355 4.7097 1.6686-0.53825 3.7677-1.7493 2.0992-1.2111 4.01-3.364 1.9108-2.153 3.3641-5.4094 1.4533-3.2564 1.83-7.8853 0.05382-0.10764 0.02691 0-0.02691 0.10765-0.02691 0-5.0595 0.75355-8.8273 3.2026-3.7677 2.449-6.0284 6.4859z"/></g><g transform="translate(600,-50)"><path d="m37.71 145.17q-4.0369-0.80737-7.8315-2.7989t-6.7012-5.4363q-2.9065-3.4448-4.6558-8.4236-1.7493-4.9788-1.7493-11.761v-0.4306q0-0.8612 0.59207-1.4533t1.4533-0.59207h0.48442q3.068 0 5.9207 0.51133 2.8527 0.51134 5.6516 1.7493 0.75355-4.306 2.8258-8.7734t4.8711-8.1275q0.75355-1.0227 1.9915-1.0227t1.9915 1.0227q2.7989 3.6601 4.8711 8.1275 2.0723 4.4675 2.8258 8.7734 2.8527-1.3994 5.7323-1.83 2.8796-0.4306 5.8938-0.4306h0.48442q0.8612 0 1.4533 0.59207 0.59208 0.59207 0.59208 1.4533v0.37678q0 7.4278-2.0184 12.649-2.0184 5.221-5.1941 8.6389-3.1757 3.4179-7.0511 5.1672-3.8754 1.7493-7.6431 2.2337-0.96885 0.10765-2.3683 0.0538-1.3994-0.0538-2.4221-0.26913zm2.2068-5.4901q-0.59207-9.0426-5.4363-13.752-4.8442-4.7097-11.895-5.7862h0.02691-0.02691q0.59207 9.2579 5.5978 13.914 5.0057 4.6558 11.734 5.6247 0.10765 0.0538 0 0.0269t0-0.0269zm-3.6601-19.969q1.0765 0.86119 2.2876 2.0453 1.2111 1.1842 2.0184 2.2606 0.8612-1.0765 2.0184-2.2337 1.1572-1.1572 2.2337-2.0722-0.16147-3.0142-1.2649-6.2437-1.1034-3.2295-2.9873-6.4052v0.0269-0.0269q-1.8839 3.1218-2.9873 6.3513-1.1034 3.2295-1.3187 6.2975zm7.4817 10.119q0.6459 1.7224 1.1303 4.01 0.48442 2.2876 0.75355 4.7097 1.6686-0.53825 3.7677-1.7493 2.0992-1.2111 4.01-3.364 1.9108-2.153 3.3641-5.4094 1.4533-3.2564 1.83-7.8853 0.05382-0.10764 0.02691 0-0.02691 0.10765-0.02691 0-5.0595 0.75355-8.8273 3.2026-3.7677 2.449-6.0284 6.4859z"/><path d="m37.71 305.17q-4.0369-0.80737-7.8315-2.7989t-6.7012-5.4363q-2.9065-3.4448-4.6558-8.4236-1.7493-4.9788-1.7493-11.761v-0.4306q0-0.8612 0.59207-1.4533t1.4533-0.59207h0.48442q3.068 0 5.9207 0.51133 2.8527 0.51134 5.6516 1.7493 0.75355-4.306 2.8258-8.7734t4.8711-8.1276q0.75355-1.0227 1.9915-1.0227t1.9915 1.0227q2.7989 3.6601 4.8711 8.1276 2.0723 4.4675 2.8258 8.7734 2.8527-1.3994 5.7323-1.83 2.8796-0.4306 5.8938-0.4306h0.48442q0.8612 0 1.4533 0.59207 0.59208 0.59207 0.59208 1.4533v0.37678q0 7.4278-2.0184 12.649-2.0184 5.221-5.1941 8.6389-3.1757 3.4179-7.0511 5.1672-3.8754 1.7493-7.6431 2.2337-0.96885 0.10765-2.3683 0.0538-1.3994-0.0538-2.4221-0.26913zm2.2068-5.4901q-0.59207-9.0426-5.4363-13.752-4.8442-4.7097-11.895-5.7862h0.02691-0.02691q0.59207 9.2579 5.5978 13.914 5.0057 4.6558 11.734 5.6247 0.10765 0.0538 0 0.0269t0-0.0269zm-3.6601-19.969q1.0765 0.86119 2.2876 2.0453 1.2111 1.1842 2.0184 2.2606 0.8612-1.0765 2.0184-2.2337 1.1572-1.1572 2.2337-2.0722-0.16147-3.0142-1.2649-6.2437-1.1034-3.2295-2.9873-6.4052v0.0269-0.0269q-1.8839 3.1218-2.9873 6.3513-1.1034 3.2295-1.3187 6.2975zm7.4817 10.119q0.6459 1.7224 1.1303 4.01 0.48442 2.2876 0.75355 4.7097 1.6686-0.53825 3.7677-1.7493 2.0992-1.2111 4.01-3.364 1.9108-2.153 3.3641-5.4094 1.4533-3.2564 1.83-7.8853 0.05382-0.10764 0.02691 0-0.02691 0.10765-0.02691 0-5.0595 0.75355-8.8273 3.2026-3.7677 2.449-6.0284 6.4859z"/><path d="m37.71 465.17q-4.0369-0.80737-7.8315-2.7989t-6.7012-5.4363q-2.9065-3.4448-4.6558-8.4236-1.7493-4.9788-1.7493-11.761v-0.4306q0-0.8612 0.59207-1.4533t1.4533-0.59207h0.48442q3.068 0 5.9207 0.51133 2.8527 0.51134 5.6516 1.7493 0.75355-4.306 2.8258-8.7734t4.8711-8.1276q0.75355-1.0227 1.9915-1.0227t1.9915 1.0227q2.7989 3.6601 4.8711 8.1276 2.0723 4.4675 2.8258 8.7734 2.8527-1.3994 5.7323-1.83 2.8796-0.4306 5.8938-0.4306h0.48442q0.8612 0 1.4533 0.59207 0.59208 0.59207 0.59208 1.4533v0.37678q0 7.4278-2.0184 12.649-2.0184 5.221-5.1941 8.6389-3.1757 3.4179-7.0511 5.1672-3.8754 1.7493-7.6431 2.2337-0.96885 0.10765-2.3683 0.0538-1.3994-0.0538-2.4221-0.26913zm2.2068-5.4901q-0.59207-9.0426-5.4363-13.752-4.8442-4.7097-11.895-5.7862h0.02691-0.02691q0.59207 9.2579 5.5978 13.914 5.0057 4.6558 11.734 5.6247 0.10765 0.0538 0 0.0269t0-0.0269zm-3.6601-19.969q1.0765 0.86119 2.2876 2.0453 1.2111 1.1842 2.0184 2.2606 0.8612-1.0765 2.0184-2.2337 1.1572-1.1572 2.2337-2.0722-0.16147-3.0142-1.2649-6.2437-1.1034-3.2295-2.9873-6.4052v0.0269-0.0269q-1.8839 3.1218-2.9873 6.3513-1.1034 3.2295-1.3187 6.2975zm7.4817 10.119q0.6459 1.7224 1.1303 4.01 0.48442 2.2876 0.75355 4.7097 1.6686-0.53825 3.7677-1.7493 2.0992-1.2111 4.01-3.364 1.9108-2.153 3.3641-5.4094 1.4533-3.2564 1.83-7.8853 0.05382-0.10764 0.02691 0-0.02691 0.10765-0.02691 0-5.0595 0.75355-8.8273 3.2026-3.7677 2.449-6.0284 6.4859z"/><path d="m37.71 625.17q-4.0369-0.80737-7.8315-2.7989t-6.7012-5.4363q-2.9065-3.4448-4.6558-8.4236-1.7493-4.9788-1.7493-11.761v-0.4306q0-0.8612 0.59207-1.4533t1.4533-0.59207h0.48442q3.068 0 5.9207 0.51133 2.8527 0.51134 5.6516 1.7493 0.75355-4.306 2.8258-8.7734t4.8711-8.1276q0.75355-1.0227 1.9915-1.0227t1.9915 1.0227q2.7989 3.6601 4.8711 8.1276 2.0723 4.4675 2.8258 8.7734 2.8527-1.3994 5.7323-1.83 2.8796-0.4306 5.8938-0.4306h0.48442q0.8612 0 1.4533 0.59207 0.59208 0.59207 0.59208 1.4533v0.37678q0 7.4278-2.0184 12.649-2.0184 5.221-5.1941 8.6389-3.1757 3.4179-7.0511 5.1672-3.8754 1.7493-7.6431 2.2337-0.96885 0.10765-2.3683 0.0538-1.3994-0.0538-2.4221-0.26913zm2.2068-5.4901q-0.59207-9.0426-5.4363-13.752-4.8442-4.7097-11.895-5.7862h0.02691-0.02691q0.59207 9.2579 5.5978 13.914 5.0057 4.6558 11.734 5.6247 0.10765 0.0538 0 0.0269t0-0.0269zm-3.6601-19.969q1.0765 0.86119 2.2876 2.0453 1.2111 1.1842 2.0184 2.2606 0.8612-1.0765 2.0184-2.2337 1.1572-1.1572 2.2337-2.0722-0.16147-3.0142-1.2649-6.2437-1.1034-3.2295-2.9873-6.4052v0.0269-0.0269q-1.8839 3.1218-2.9873 6.3513-1.1034 3.2295-1.3187 6.2975zm7.4817 10.119q0.6459 1.7224 1.1303 4.01 0.48442 2.2876 0.75355 4.7097 1.6686-0.53825 3.7677-1.7493 2.0992-1.2111 4.01-3.364 1.9108-2.153 3.3641-5.4094 1.4533-3.2564 1.83-7.8853 0.05382-0.10764 0.02691 0-0.02691 0.10765-0.02691 0-5.0595 0.75355-8.8273 3.2026-3.7677 2.449-6.0284 6.4859z"/></g><g transform="translate(800,-50)"><path d="m37.71 65.175q-4.0369-0.80737-7.8315-2.7989t-6.7012-5.4363q-2.9065-3.4448-4.6558-8.4236-1.7493-4.9788-1.7493-11.761v-0.4306q0-0.8612 0.59207-1.4533t1.4533-0.59207h0.48442q3.068 0 5.9207 0.51133 2.8527 0.51134 5.6516 1.7493 0.75355-4.306 2.8258-8.7734t4.8711-8.1276q0.75355-1.0227 1.9915-1.0227t1.9915 1.0227q2.7989 3.6601 4.8711 8.1276 2.0723 4.4675 2.8258 8.7734 2.8527-1.3994 5.7323-1.83 2.8796-0.4306 5.8938-0.4306h0.48442q0.8612 0 1.4533 0.59207 0.59208 0.59207 0.59208 1.4533v0.37678q0 7.4278-2.0184 12.649-2.0184 5.221-5.1941 8.6389-3.1757 3.4179-7.0511 5.1672-3.8754 1.7493-7.6431 2.2337-0.96885 0.10765-2.3683 0.0538-1.3994-0.0538-2.4221-0.26913zm2.2068-5.4901q-0.59207-9.0426-5.4363-13.752-4.8442-4.7097-11.895-5.7862h0.02691-0.02691q0.59207 9.2579 5.5978 13.914 5.0057 4.6558 11.734 5.6247 0.10765 0.0538 0 0.0269t0-0.0269zm-3.6601-19.969q1.0765 0.86119 2.2876 2.0453 1.2111 1.1842 2.0184 2.2606 0.8612-1.0765 2.0184-2.2337 1.1572-1.1572 2.2337-2.0722-0.16147-3.0142-1.2649-6.2437-1.1034-3.2295-2.9873-6.4052v0.0269-0.0269q-1.8839 3.1218-2.9873 6.3513-1.1034 3.2295-1.3187 6.2975zm7.4817 10.119q0.6459 1.7224 1.1303 4.01 0.48442 2.2876 0.75355 4.7097 1.6686-0.53825 3.7677-1.7493 2.0992-1.2111 4.01-3.364 1.9108-2.153 3.3641-5.4094 1.4533-3.2564 1.83-7.8853 0.05382-0.10764 0.02691 0-0.02691 0.10765-0.02691 0-5.0595 0.75355-8.8273 3.2026-3.7677 2.449-6.0284 6.4859z"/><path d="m37.71 225.17q-4.0369-0.80737-7.8315-2.7989t-6.7012-5.4363q-2.9065-3.4448-4.6558-8.4236-1.7493-4.9788-1.7493-11.761v-0.4306q0-0.8612 0.59207-1.4533t1.4533-0.59207h0.48442q3.068 0 5.9207 0.51133 2.8527 0.51134 5.6516 1.7493 0.75355-4.306 2.8258-8.7734t4.8711-8.1276q0.75355-1.0227 1.9915-1.0227t1.9915 1.0227q2.7989 3.6601 4.8711 8.1276 2.0723 4.4675 2.8258 8.7734 2.8527-1.3994 5.7323-1.83 2.8796-0.4306 5.8938-0.4306h0.48442q0.8612 0 1.4533 0.59207 0.59208 0.59207 0.59208 1.4533v0.37678q0 7.4278-2.0184 12.649-2.0184 5.221-5.1941 8.6389-3.1757 3.4179-7.0511 5.1672-3.8754 1.7493-7.6431 2.2337-0.96885 0.10765-2.3683 0.0538-1.3994-0.0538-2.4221-0.26913zm2.2068-5.4901q-0.59207-9.0426-5.4363-13.752-4.8442-4.7097-11.895-5.7862h0.02691-0.02691q0.59207 9.2579 5.5978 13.914 5.0057 4.6558 11.734 5.6247 0.10765 0.0538 0 0.0269t0-0.0269zm-3.6601-19.969q1.0765 0.86119 2.2876 2.0453 1.2111 1.1842 2.0184 2.2606 0.8612-1.0765 2.0184-2.2337 1.1572-1.1572 2.2337-2.0722-0.16147-3.0142-1.2649-6.2437-1.1034-3.2295-2.9873-6.4052v0.0269-0.0269q-1.8839 3.1218-2.9873 6.3513-1.1034 3.2295-1.3187 6.2975zm7.4817 10.119q0.6459 1.7224 1.1303 4.01 0.48442 2.2876 0.75355 4.7097 1.6686-0.53825 3.7677-1.7493 2.0992-1.2111 4.01-3.364 1.9108-2.153 3.3641-5.4094 1.4533-3.2564 1.83-7.8853 0.05382-0.10764 0.02691 0-0.02691 0.10765-0.02691 0-5.0595 0.75355-8.8273 3.2026-3.7677 2.449-6.0284 6.4859z"/><path d="m37.71 385.17q-4.0369-0.80737-7.8315-2.7989t-6.7012-5.4363q-2.9065-3.4448-4.6558-8.4236-1.7493-4.9788-1.7493-11.761v-0.4306q0-0.8612 0.59207-1.4533t1.4533-0.59207h0.48442q3.068 0 5.9207 0.51133 2.8527 0.51134 5.6516 1.7493 0.75355-4.306 2.8258-8.7734t4.8711-8.1276q0.75355-1.0227 1.9915-1.0227t1.9915 1.0227q2.7989 3.6601 4.8711 8.1276 2.0723 4.4675 2.8258 8.7734 2.8527-1.3994 5.7323-1.83 2.8796-0.4306 5.8938-0.4306h0.48442q0.8612 0 1.4533 0.59207 0.59208 0.59207 0.59208 1.4533v0.37678q0 7.4278-2.0184 12.649-2.0184 5.221-5.1941 8.6389-3.1757 3.4179-7.0511 5.1672-3.8754 1.7493-7.6431 2.2337-0.96885 0.10765-2.3683 0.0538-1.3994-0.0538-2.4221-0.26913zm2.2068-5.4901q-0.59207-9.0426-5.4363-13.752-4.8442-4.7097-11.895-5.7862h0.02691-0.02691q0.59207 9.2579 5.5978 13.914 5.0057 4.6558 11.734 5.6247 0.10765 0.0538 0 0.0269t0-0.0269zm-3.6601-19.969q1.0765 0.86119 2.2876 2.0453 1.2111 1.1842 2.0184 2.2606 0.8612-1.0765 2.0184-2.2337 1.1572-1.1572 2.2337-2.0722-0.16147-3.0142-1.2649-6.2437-1.1034-3.2295-2.9873-6.4052v0.0269-0.0269q-1.8839 3.1218-2.9873 6.3513-1.1034 3.2295-1.3187 6.2975zm7.4817 10.119q0.6459 1.7224 1.1303 4.01 0.48442 2.2876 0.75355 4.7097 1.6686-0.53825 3.7677-1.7493 2.0992-1.2111 4.01-3.364 1.9108-2.153 3.3641-5.4094 1.4533-3.2564 1.83-7.8853 0.05382-0.10764 0.02691 0-0.02691 0.10765-0.02691 0-5.0595 0.75355-8.8273 3.2026-3.7677 2.449-6.0284 6.4859z"/><path d="m37.71 545.17q-4.0369-0.80737-7.8315-2.7989t-6.7012-5.4363q-2.9065-3.4448-4.6558-8.4236-1.7493-4.9788-1.7493-11.761v-0.4306q0-0.8612 0.59207-1.4533t1.4533-0.59207h0.48442q3.068 0 5.9207 0.51133 2.8527 0.51134 5.6516 1.7493 0.75355-4.306 2.8258-8.7734t4.8711-8.1276q0.75355-1.0227 1.9915-1.0227t1.9915 1.0227q2.7989 3.6601 4.8711 8.1276 2.0723 4.4675 2.8258 8.7734 2.8527-1.3994 5.7323-1.83 2.8796-0.4306 5.8938-0.4306h0.48442q0.8612 0 1.4533 0.59207 0.59208 0.59207 0.59208 1.4533v0.37678q0 7.4278-2.0184 12.649-2.0184 5.221-5.1941 8.6389-3.1757 3.4179-7.0511 5.1672-3.8754 1.7493-7.6431 2.2337-0.96885 0.10765-2.3683 0.0538-1.3994-0.0538-2.4221-0.26913zm2.2068-5.4901q-0.59207-9.0426-5.4363-13.752-4.8442-4.7097-11.895-5.7862h0.02691-0.02691q0.59207 9.2579 5.5978 13.914 5.0057 4.6558 11.734 5.6247 0.10765 0.0538 0 0.0269t0-0.0269zm-3.6601-19.969q1.0765 0.86119 2.2876 2.0453 1.2111 1.1842 2.0184 2.2606 0.8612-1.0765 2.0184-2.2337 1.1572-1.1572 2.2337-2.0722-0.16147-3.0142-1.2649-6.2437-1.1034-3.2295-2.9873-6.4052v0.0269-0.0269q-1.8839 3.1218-2.9873 6.3513-1.1034 3.2295-1.3187 6.2975zm7.4817 10.119q0.6459 1.7224 1.1303 4.01 0.48442 2.2876 0.75355 4.7097 1.6686-0.53825 3.7677-1.7493 2.0992-1.2111 4.01-3.364 1.9108-2.153 3.3641-5.4094 1.4533-3.2564 1.83-7.8853 0.05382-0.10764 0.02691 0-0.02691 0.10765-0.02691 0-5.0595 0.75355-8.8273 3.2026-3.7677 2.449-6.0284 6.4859z"/><path d="m37.71 705.17q-4.0369-0.80737-7.8315-2.7989t-6.7012-5.4363q-2.9065-3.4448-4.6558-8.4236-1.7493-4.9788-1.7493-11.761v-0.4306q0-0.8612 0.59207-1.4533t1.4533-0.59207h0.48442q3.068 0 5.9207 0.51133 2.8527 0.51134 5.6516 1.7493 0.75355-4.306 2.8258-8.7734t4.8711-8.1276q0.75355-1.0227 1.9915-1.0227t1.9915 1.0227q2.7989 3.6601 4.8711 8.1276 2.0723 4.4675 2.8258 8.7734 2.8527-1.3994 5.7323-1.83 2.8796-0.4306 5.8938-0.4306h0.48442q0.8612 0 1.4533 0.59207 0.59208 0.59207 0.59208 1.4533v0.37678q0 7.4278-2.0184 12.649-2.0184 5.221-5.1941 8.6389-3.1757 3.4179-7.0511 5.1672-3.8754 1.7493-7.6431 2.2337-0.96885 0.10765-2.3683 0.0538-1.3994-0.0538-2.4221-0.26913zm2.2068-5.4901q-0.59207-9.0426-5.4363-13.752-4.8442-4.7097-11.895-5.7862h0.02691-0.02691q0.59207 9.2579 5.5978 13.914 5.0057 4.6558 11.734 5.6247 0.10765 0.0538 0 0.0269t0-0.0269zm-3.6601-19.969q1.0765 0.86119 2.2876 2.0453 1.2111 1.1842 2.0184 2.2606 0.8612-1.0765 2.0184-2.2337 1.1572-1.1572 2.2337-2.0722-0.16147-3.0142-1.2649-6.2437-1.1034-3.2295-2.9873-6.4052v0.0269-0.0269q-1.8839 3.1218-2.9873 6.3513-1.1034 3.2295-1.3187 6.2975zm7.4817 10.119q0.6459 1.7224 1.1303 4.01 0.48442 2.2876 0.75355 4.7097 1.6686-0.53825 3.7677-1.7493 2.0992-1.2111 4.01-3.364 1.9108-2.153 3.3641-5.4094 1.4533-3.2564 1.83-7.8853 0.05382-0.10764 0.02691 0-0.02691 0.10765-0.02691 0-5.0595 0.75355-8.8273 3.2026-3.7677 2.449-6.0284 6.4859z"/></g><g transform="translate(1e3 -50)"><path d="m37.71 145.17q-4.0369-0.80737-7.8315-2.7989t-6.7012-5.4363q-2.9065-3.4448-4.6558-8.4236-1.7493-4.9788-1.7493-11.761v-0.4306q0-0.8612 0.59207-1.4533t1.4533-0.59207h0.48442q3.068 0 5.9207 0.51133 2.8527 0.51134 5.6516 1.7493 0.75355-4.306 2.8258-8.7734t4.8711-8.1275q0.75355-1.0227 1.9915-1.0227t1.9915 1.0227q2.7989 3.6601 4.8711 8.1275 2.0723 4.4675 2.8258 8.7734 2.8527-1.3994 5.7323-1.83 2.8796-0.4306 5.8938-0.4306h0.48442q0.8612 0 1.4533 0.59207 0.59208 0.59207 0.59208 1.4533v0.37678q0 7.4278-2.0184 12.649-2.0184 5.221-5.1941 8.6389-3.1757 3.4179-7.0511 5.1672-3.8754 1.7493-7.6431 2.2337-0.96885 0.10765-2.3683 0.0538-1.3994-0.0538-2.4221-0.26913zm2.2068-5.4901q-0.59207-9.0426-5.4363-13.752-4.8442-4.7097-11.895-5.7862h0.02691-0.02691q0.59207 9.2579 5.5978 13.914 5.0057 4.6558 11.734 5.6247 0.10765 0.0538 0 0.0269t0-0.0269zm-3.6601-19.969q1.0765 0.86119 2.2876 2.0453 1.2111 1.1842 2.0184 2.2606 0.8612-1.0765 2.0184-2.2337 1.1572-1.1572 2.2337-2.0722-0.16147-3.0142-1.2649-6.2437-1.1034-3.2295-2.9873-6.4052v0.0269-0.0269q-1.8839 3.1218-2.9873 6.3513-1.1034 3.2295-1.3187 6.2975zm7.4817 10.119q0.6459 1.7224 1.1303 4.01 0.48442 2.2876 0.75355 4.7097 1.6686-0.53825 3.7677-1.7493 2.0992-1.2111 4.01-3.364 1.9108-2.153 3.3641-5.4094 1.4533-3.2564 1.83-7.8853 0.05382-0.10764 0.02691 0-0.02691 0.10765-0.02691 0-5.0595 0.75355-8.8273 3.2026-3.7677 2.449-6.0284 6.4859z"/><path d="m37.71 305.17q-4.0369-0.80737-7.8315-2.7989t-6.7012-5.4363q-2.9065-3.4448-4.6558-8.4236-1.7493-4.9788-1.7493-11.761v-0.4306q0-0.8612 0.59207-1.4533t1.4533-0.59207h0.48442q3.068 0 5.9207 0.51133 2.8527 0.51134 5.6516 1.7493 0.75355-4.306 2.8258-8.7734t4.8711-8.1276q0.75355-1.0227 1.9915-1.0227t1.9915 1.0227q2.7989 3.6601 4.8711 8.1276 2.0723 4.4675 2.8258 8.7734 2.8527-1.3994 5.7323-1.83 2.8796-0.4306 5.8938-0.4306h0.48442q0.8612 0 1.4533 0.59207 0.59208 0.59207 0.59208 1.4533v0.37678q0 7.4278-2.0184 12.649-2.0184 5.221-5.1941 8.6389-3.1757 3.4179-7.0511 5.1672-3.8754 1.7493-7.6431 2.2337-0.96885 0.10765-2.3683 0.0538-1.3994-0.0538-2.4221-0.26913zm2.2068-5.4901q-0.59207-9.0426-5.4363-13.752-4.8442-4.7097-11.895-5.7862h0.02691-0.02691q0.59207 9.2579 5.5978 13.914 5.0057 4.6558 11.734 5.6247 0.10765 0.0538 0 0.0269t0-0.0269zm-3.6601-19.969q1.0765 0.86119 2.2876 2.0453 1.2111 1.1842 2.0184 2.2606 0.8612-1.0765 2.0184-2.2337 1.1572-1.1572 2.2337-2.0722-0.16147-3.0142-1.2649-6.2437-1.1034-3.2295-2.9873-6.4052v0.0269-0.0269q-1.8839 3.1218-2.9873 6.3513-1.1034 3.2295-1.3187 6.2975zm7.4817 10.119q0.6459 1.7224 1.1303 4.01 0.48442 2.2876 0.75355 4.7097 1.6686-0.53825 3.7677-1.7493 2.0992-1.2111 4.01-3.364 1.9108-2.153 3.3641-5.4094 1.4533-3.2564 1.83-7.8853 0.05382-0.10764 0.02691 0-0.02691 0.10765-0.02691 0-5.0595 0.75355-8.8273 3.2026-3.7677 2.449-6.0284 6.4859z"/><path d="m37.71 465.17q-4.0369-0.80737-7.8315-2.7989t-6.7012-5.4363q-2.9065-3.4448-4.6558-8.4236-1.7493-4.9788-1.7493-11.761v-0.4306q0-0.8612 0.59207-1.4533t1.4533-0.59207h0.48442q3.068 0 5.9207 0.51133 2.8527 0.51134 5.6516 1.7493 0.75355-4.306 2.8258-8.7734t4.8711-8.1276q0.75355-1.0227 1.9915-1.0227t1.9915 1.0227q2.7989 3.6601 4.8711 8.1276 2.0723 4.4675 2.8258 8.7734 2.8527-1.3994 5.7323-1.83 2.8796-0.4306 5.8938-0.4306h0.48442q0.8612 0 1.4533 0.59207 0.59208 0.59207 0.59208 1.4533v0.37678q0 7.4278-2.0184 12.649-2.0184 5.221-5.1941 8.6389-3.1757 3.4179-7.0511 5.1672-3.8754 1.7493-7.6431 2.2337-0.96885 0.10765-2.3683 0.0538-1.3994-0.0538-2.4221-0.26913zm2.2068-5.4901q-0.59207-9.0426-5.4363-13.752-4.8442-4.7097-11.895-5.7862h0.02691-0.02691q0.59207 9.2579 5.5978 13.914 5.0057 4.6558 11.734 5.6247 0.10765 0.0538 0 0.0269t0-0.0269zm-3.6601-19.969q1.0765 0.86119 2.2876 2.0453 1.2111 1.1842 2.0184 2.2606 0.8612-1.0765 2.0184-2.2337 1.1572-1.1572 2.2337-2.0722-0.16147-3.0142-1.2649-6.2437-1.1034-3.2295-2.9873-6.4052v0.0269-0.0269q-1.8839 3.1218-2.9873 6.3513-1.1034 3.2295-1.3187 6.2975zm7.4817 10.119q0.6459 1.7224 1.1303 4.01 0.48442 2.2876 0.75355 4.7097 1.6686-0.53825 3.7677-1.7493 2.0992-1.2111 4.01-3.364 1.9108-2.153 3.3641-5.4094 1.4533-3.2564 1.83-7.8853 0.05382-0.10764 0.02691 0-0.02691 0.10765-0.02691 0-5.0595 0.75355-8.8273 3.2026-3.7677 2.449-6.0284 6.4859z"/><path d="m37.71 625.17q-4.0369-0.80737-7.8315-2.7989t-6.7012-5.4363q-2.9065-3.4448-4.6558-8.4236-1.7493-4.9788-1.7493-11.761v-0.4306q0-0.8612 0.59207-1.4533t1.4533-0.59207h0.48442q3.068 0 5.9207 0.51133 2.8527 0.51134 5.6516 1.7493 0.75355-4.306 2.8258-8.7734t4.8711-8.1276q0.75355-1.0227 1.9915-1.0227t1.9915 1.0227q2.7989 3.6601 4.8711 8.1276 2.0723 4.4675 2.8258 8.7734 2.8527-1.3994 5.7323-1.83 2.8796-0.4306 5.8938-0.4306h0.48442q0.8612 0 1.4533 0.59207 0.59208 0.59207 0.59208 1.4533v0.37678q0 7.4278-2.0184 12.649-2.0184 5.221-5.1941 8.6389-3.1757 3.4179-7.0511 5.1672-3.8754 1.7493-7.6431 2.2337-0.96885 0.10765-2.3683 0.0538-1.3994-0.0538-2.4221-0.26913zm2.2068-5.4901q-0.59207-9.0426-5.4363-13.752-4.8442-4.7097-11.895-5.7862h0.02691-0.02691q0.59207 9.2579 5.5978 13.914 5.0057 4.6558 11.734 5.6247 0.10765 0.0538 0 0.0269t0-0.0269zm-3.6601-19.969q1.0765 0.86119 2.2876 2.0453 1.2111 1.1842 2.0184 2.2606 0.8612-1.0765 2.0184-2.2337 1.1572-1.1572 2.2337-2.0722-0.16147-3.0142-1.2649-6.2437-1.1034-3.2295-2.9873-6.4052v0.0269-0.0269q-1.8839 3.1218-2.9873 6.3513-1.1034 3.2295-1.3187 6.2975zm7.4817 10.119q0.6459 1.7224 1.1303 4.01 0.48442 2.2876 0.75355 4.7097 1.6686-0.53825 3.7677-1.7493 2.0992-1.2111 4.01-3.364 1.9108-2.153 3.3641-5.4094 1.4533-3.2564 1.83-7.8853 0.05382-0.10764 0.02691 0-0.02691 0.10765-0.02691 0-5.0595 0.75355-8.8273 3.2026-3.7677 2.449-6.0284 6.4859z"/></g><g transform="translate(1200,-50)"><path d="m37.71 65.175q-4.0369-0.80737-7.8315-2.7989t-6.7012-5.4363q-2.9065-3.4448-4.6558-8.4236-1.7493-4.9788-1.7493-11.761v-0.4306q0-0.8612 0.59207-1.4533t1.4533-0.59207h0.48442q3.068 0 5.9207 0.51133 2.8527 0.51134 5.6516 1.7493 0.75355-4.306 2.8258-8.7734t4.8711-8.1276q0.75355-1.0227 1.9915-1.0227t1.9915 1.0227q2.7989 3.6601 4.8711 8.1276 2.0723 4.4675 2.8258 8.7734 2.8527-1.3994 5.7323-1.83 2.8796-0.4306 5.8938-0.4306h0.48442q0.8612 0 1.4533 0.59207 0.59208 0.59207 0.59208 1.4533v0.37678q0 7.4278-2.0184 12.649-2.0184 5.221-5.1941 8.6389-3.1757 3.4179-7.0511 5.1672-3.8754 1.7493-7.6431 2.2337-0.96885 0.10765-2.3683 0.0538-1.3994-0.0538-2.4221-0.26913zm2.2068-5.4901q-0.59207-9.0426-5.4363-13.752-4.8442-4.7097-11.895-5.7862h0.02691-0.02691q0.59207 9.2579 5.5978 13.914 5.0057 4.6558 11.734 5.6247 0.10765 0.0538 0 0.0269t0-0.0269zm-3.6601-19.969q1.0765 0.86119 2.2876 2.0453 1.2111 1.1842 2.0184 2.2606 0.8612-1.0765 2.0184-2.2337 1.1572-1.1572 2.2337-2.0722-0.16147-3.0142-1.2649-6.2437-1.1034-3.2295-2.9873-6.4052v0.0269-0.0269q-1.8839 3.1218-2.9873 6.3513-1.1034 3.2295-1.3187 6.2975zm7.4817 10.119q0.6459 1.7224 1.1303 4.01 0.48442 2.2876 0.75355 4.7097 1.6686-0.53825 3.7677-1.7493 2.0992-1.2111 4.01-3.364 1.9108-2.153 3.3641-5.4094 1.4533-3.2564 1.83-7.8853 0.05382-0.10764 0.02691 0-0.02691 0.10765-0.02691 0-5.0595 0.75355-8.8273 3.2026-3.7677 2.449-6.0284 6.4859z"/><path d="m37.71 225.17q-4.0369-0.80737-7.8315-2.7989t-6.7012-5.4363q-2.9065-3.4448-4.6558-8.4236-1.7493-4.9788-1.7493-11.761v-0.4306q0-0.8612 0.59207-1.4533t1.4533-0.59207h0.48442q3.068 0 5.9207 0.51133 2.8527 0.51134 5.6516 1.7493 0.75355-4.306 2.8258-8.7734t4.8711-8.1276q0.75355-1.0227 1.9915-1.0227t1.9915 1.0227q2.7989 3.6601 4.8711 8.1276 2.0723 4.4675 2.8258 8.7734 2.8527-1.3994 5.7323-1.83 2.8796-0.4306 5.8938-0.4306h0.48442q0.8612 0 1.4533 0.59207 0.59208 0.59207 0.59208 1.4533v0.37678q0 7.4278-2.0184 12.649-2.0184 5.221-5.1941 8.6389-3.1757 3.4179-7.0511 5.1672-3.8754 1.7493-7.6431 2.2337-0.96885 0.10765-2.3683 0.0538-1.3994-0.0538-2.4221-0.26913zm2.2068-5.4901q-0.59207-9.0426-5.4363-13.752-4.8442-4.7097-11.895-5.7862h0.02691-0.02691q0.59207 9.2579 5.5978 13.914 5.0057 4.6558 11.734 5.6247 0.10765 0.0538 0 0.0269t0-0.0269zm-3.6601-19.969q1.0765 0.86119 2.2876 2.0453 1.2111 1.1842 2.0184 2.2606 0.8612-1.0765 2.0184-2.2337 1.1572-1.1572 2.2337-2.0722-0.16147-3.0142-1.2649-6.2437-1.1034-3.2295-2.9873-6.4052v0.0269-0.0269q-1.8839 3.1218-2.9873 6.3513-1.1034 3.2295-1.3187 6.2975zm7.4817 10.119q0.6459 1.7224 1.1303 4.01 0.48442 2.2876 0.75355 4.7097 1.6686-0.53825 3.7677-1.7493 2.0992-1.2111 4.01-3.364 1.9108-2.153 3.3641-5.4094 1.4533-3.2564 1.83-7.8853 0.05382-0.10764 0.02691 0-0.02691 0.10765-0.02691 0-5.0595 0.75355-8.8273 3.2026-3.7677 2.449-6.0284 6.4859z"/><path d="m37.71 385.17q-4.0369-0.80737-7.8315-2.7989t-6.7012-5.4363q-2.9065-3.4448-4.6558-8.4236-1.7493-4.9788-1.7493-11.761v-0.4306q0-0.8612 0.59207-1.4533t1.4533-0.59207h0.48442q3.068 0 5.9207 0.51133 2.8527 0.51134 5.6516 1.7493 0.75355-4.306 2.8258-8.7734t4.8711-8.1276q0.75355-1.0227 1.9915-1.0227t1.9915 1.0227q2.7989 3.6601 4.8711 8.1276 2.0723 4.4675 2.8258 8.7734 2.8527-1.3994 5.7323-1.83 2.8796-0.4306 5.8938-0.4306h0.48442q0.8612 0 1.4533 0.59207 0.59208 0.59207 0.59208 1.4533v0.37678q0 7.4278-2.0184 12.649-2.0184 5.221-5.1941 8.6389-3.1757 3.4179-7.0511 5.1672-3.8754 1.7493-7.6431 2.2337-0.96885 0.10765-2.3683 0.0538-1.3994-0.0538-2.4221-0.26913zm2.2068-5.4901q-0.59207-9.0426-5.4363-13.752-4.8442-4.7097-11.895-5.7862h0.02691-0.02691q0.59207 9.2579 5.5978 13.914 5.0057 4.6558 11.734 5.6247 0.10765 0.0538 0 0.0269t0-0.0269zm-3.6601-19.969q1.0765 0.86119 2.2876 2.0453 1.2111 1.1842 2.0184 2.2606 0.8612-1.0765 2.0184-2.2337 1.1572-1.1572 2.2337-2.0722-0.16147-3.0142-1.2649-6.2437-1.1034-3.2295-2.9873-6.4052v0.0269-0.0269q-1.8839 3.1218-2.9873 6.3513-1.1034 3.2295-1.3187 6.2975zm7.4817 10.119q0.6459 1.7224 1.1303 4.01 0.48442 2.2876 0.75355 4.7097 1.6686-0.53825 3.7677-1.7493 2.0992-1.2111 4.01-3.364 1.9108-2.153 3.3641-5.4094 1.4533-3.2564 1.83-7.8853 0.05382-0.10764 0.02691 0-0.02691 0.10765-0.02691 0-5.0595 0.75355-8.8273 3.2026-3.7677 2.449-6.0284 6.4859z"/><path d="m37.71 545.17q-4.0369-0.80737-7.8315-2.7989t-6.7012-5.4363q-2.9065-3.4448-4.6558-8.4236-1.7493-4.9788-1.7493-11.761v-0.4306q0-0.8612 0.59207-1.4533t1.4533-0.59207h0.48442q3.068 0 5.9207 0.51133 2.8527 0.51134 5.6516 1.7493 0.75355-4.306 2.8258-8.7734t4.8711-8.1276q0.75355-1.0227 1.9915-1.0227t1.9915 1.0227q2.7989 3.6601 4.8711 8.1276 2.0723 4.4675 2.8258 8.7734 2.8527-1.3994 5.7323-1.83 2.8796-0.4306 5.8938-0.4306h0.48442q0.8612 0 1.4533 0.59207 0.59208 0.59207 0.59208 1.4533v0.37678q0 7.4278-2.0184 12.649-2.0184 5.221-5.1941 8.6389-3.1757 3.4179-7.0511 5.1672-3.8754 1.7493-7.6431 2.2337-0.96885 0.10765-2.3683 0.0538-1.3994-0.0538-2.4221-0.26913zm2.2068-5.4901q-0.59207-9.0426-5.4363-13.752-4.8442-4.7097-11.895-5.7862h0.02691-0.02691q0.59207 9.2579 5.5978 13.914 5.0057 4.6558 11.734 5.6247 0.10765 0.0538 0 0.0269t0-0.0269zm-3.6601-19.969q1.0765 0.86119 2.2876 2.0453 1.2111 1.1842 2.0184 2.2606 0.8612-1.0765 2.0184-2.2337 1.1572-1.1572 2.2337-2.0722-0.16147-3.0142-1.2649-6.2437-1.1034-3.2295-2.9873-6.4052v0.0269-0.0269q-1.8839 3.1218-2.9873 6.3513-1.1034 3.2295-1.3187 6.2975zm7.4817 10.119q0.6459 1.7224 1.1303 4.01 0.48442 2.2876 0.75355 4.7097 1.6686-0.53825 3.7677-1.7493 2.0992-1.2111 4.01-3.364 1.9108-2.153 3.3641-5.4094 1.4533-3.2564 1.83-7.8853 0.05382-0.10764 0.02691 0-0.02691 0.10765-0.02691 0-5.0595 0.75355-8.8273 3.2026-3.7677 2.449-6.0284 6.4859z"/><path d="m37.71 705.17q-4.0369-0.80737-7.8315-2.7989t-6.7012-5.4363q-2.9065-3.4448-4.6558-8.4236-1.7493-4.9788-1.7493-11.761v-0.4306q0-0.8612 0.59207-1.4533t1.4533-0.59207h0.48442q3.068 0 5.9207 0.51133 2.8527 0.51134 5.6516 1.7493 0.75355-4.306 2.8258-8.7734t4.8711-8.1276q0.75355-1.0227 1.9915-1.0227t1.9915 1.0227q2.7989 3.6601 4.8711 8.1276 2.0723 4.4675 2.8258 8.7734 2.8527-1.3994 5.7323-1.83 2.8796-0.4306 5.8938-0.4306h0.48442q0.8612 0 1.4533 0.59207 0.59208 0.59207 0.59208 1.4533v0.37678q0 7.4278-2.0184 12.649-2.0184 5.221-5.1941 8.6389-3.1757 3.4179-7.0511 5.1672-3.8754 1.7493-7.6431 2.2337-0.96885 0.10765-2.3683 0.0538-1.3994-0.0538-2.4221-0.26913zm2.2068-5.4901q-0.59207-9.0426-5.4363-13.752-4.8442-4.7097-11.895-5.7862h0.02691-0.02691q0.59207 9.2579 5.5978 13.914 5.0057 4.6558 11.734 5.6247 0.10765 0.0538 0 0.0269t0-0.0269zm-3.6601-19.969q1.0765 0.86119 2.2876 2.0453 1.2111 1.1842 2.0184 2.2606 0.8612-1.0765 2.0184-2.2337 1.1572-1.1572 2.2337-2.0722-0.16147-3.0142-1.2649-6.2437-1.1034-3.2295-2.9873-6.4052v0.0269-0.0269q-1.8839 3.1218-2.9873 6.3513-1.1034 3.2295-1.3187 6.2975zm7.4817 10.119q0.6459 1.7224 1.1303 4.01 0.48442 2.2876 0.75355 4.7097 1.6686-0.53825 3.7677-1.7493 2.0992-1.2111 4.01-3.364 1.9108-2.153 3.3641-5.4094 1.4533-3.2564 1.83-7.8853 0.05382-0.10764 0.02691 0-0.02691 0.10765-0.02691 0-5.0595 0.75355-8.8273 3.2026-3.7677 2.449-6.0284 6.4859z"/></g><g transform="translate(1400,-50)"><path d="m37.71 145.17q-4.0369-0.80737-7.8315-2.7989t-6.7012-5.4363q-2.9065-3.4448-4.6558-8.4236-1.7493-4.9788-1.7493-11.761v-0.4306q0-0.8612 0.59207-1.4533t1.4533-0.59207h0.48442q3.068 0 5.9207 0.51133 2.8527 0.51134 5.6516 1.7493 0.75355-4.306 2.8258-8.7734t4.8711-8.1275q0.75355-1.0227 1.9915-1.0227t1.9915 1.0227q2.7989 3.6601 4.8711 8.1275 2.0723 4.4675 2.8258 8.7734 2.8527-1.3994 5.7323-1.83 2.8796-0.4306 5.8938-0.4306h0.48442q0.8612 0 1.4533 0.59207 0.59208 0.59207 0.59208 1.4533v0.37678q0 7.4278-2.0184 12.649-2.0184 5.221-5.1941 8.6389-3.1757 3.4179-7.0511 5.1672-3.8754 1.7493-7.6431 2.2337-0.96885 0.10765-2.3683 0.0538-1.3994-0.0538-2.4221-0.26913zm2.2068-5.4901q-0.59207-9.0426-5.4363-13.752-4.8442-4.7097-11.895-5.7862h0.02691-0.02691q0.59207 9.2579 5.5978 13.914 5.0057 4.6558 11.734 5.6247 0.10765 0.0538 0 0.0269t0-0.0269zm-3.6601-19.969q1.0765 0.86119 2.2876 2.0453 1.2111 1.1842 2.0184 2.2606 0.8612-1.0765 2.0184-2.2337 1.1572-1.1572 2.2337-2.0722-0.16147-3.0142-1.2649-6.2437-1.1034-3.2295-2.9873-6.4052v0.0269-0.0269q-1.8839 3.1218-2.9873 6.3513-1.1034 3.2295-1.3187 6.2975zm7.4817 10.119q0.6459 1.7224 1.1303 4.01 0.48442 2.2876 0.75355 4.7097 1.6686-0.53825 3.7677-1.7493 2.0992-1.2111 4.01-3.364 1.9108-2.153 3.3641-5.4094 1.4533-3.2564 1.83-7.8853 0.05382-0.10764 0.02691 0-0.02691 0.10765-0.02691 0-5.0595 0.75355-8.8273 3.2026-3.7677 2.449-6.0284 6.4859z"/><path d="m37.71 305.17q-4.0369-0.80737-7.8315-2.7989t-6.7012-5.4363q-2.9065-3.4448-4.6558-8.4236-1.7493-4.9788-1.7493-11.761v-0.4306q0-0.8612 0.59207-1.4533t1.4533-0.59207h0.48442q3.068 0 5.9207 0.51133 2.8527 0.51134 5.6516 1.7493 0.75355-4.306 2.8258-8.7734t4.8711-8.1276q0.75355-1.0227 1.9915-1.0227t1.9915 1.0227q2.7989 3.6601 4.8711 8.1276 2.0723 4.4675 2.8258 8.7734 2.8527-1.3994 5.7323-1.83 2.8796-0.4306 5.8938-0.4306h0.48442q0.8612 0 1.4533 0.59207 0.59208 0.59207 0.59208 1.4533v0.37678q0 7.4278-2.0184 12.649-2.0184 5.221-5.1941 8.6389-3.1757 3.4179-7.0511 5.1672-3.8754 1.7493-7.6431 2.2337-0.96885 0.10765-2.3683 0.0538-1.3994-0.0538-2.4221-0.26913zm2.2068-5.4901q-0.59207-9.0426-5.4363-13.752-4.8442-4.7097-11.895-5.7862h0.02691-0.02691q0.59207 9.2579 5.5978 13.914 5.0057 4.6558 11.734 5.6247 0.10765 0.0538 0 0.0269t0-0.0269zm-3.6601-19.969q1.0765 0.86119 2.2876 2.0453 1.2111 1.1842 2.0184 2.2606 0.8612-1.0765 2.0184-2.2337 1.1572-1.1572 2.2337-2.0722-0.16147-3.0142-1.2649-6.2437-1.1034-3.2295-2.9873-6.4052v0.0269-0.0269q-1.8839 3.1218-2.9873 6.3513-1.1034 3.2295-1.3187 6.2975zm7.4817 10.119q0.6459 1.7224 1.1303 4.01 0.48442 2.2876 0.75355 4.7097 1.6686-0.53825 3.7677-1.7493 2.0992-1.2111 4.01-3.364 1.9108-2.153 3.3641-5.4094 1.4533-3.2564 1.83-7.8853 0.05382-0.10764 0.02691 0-0.02691 0.10765-0.02691 0-5.0595 0.75355-8.8273 3.2026-3.7677 2.449-6.0284 6.4859z"/><path d="m37.71 465.17q-4.0369-0.80737-7.8315-2.7989t-6.7012-5.4363q-2.9065-3.4448-4.6558-8.4236-1.7493-4.9788-1.7493-11.761v-0.4306q0-0.8612 0.59207-1.4533t1.4533-0.59207h0.48442q3.068 0 5.9207 0.51133 2.8527 0.51134 5.6516 1.7493 0.75355-4.306 2.8258-8.7734t4.8711-8.1276q0.75355-1.0227 1.9915-1.0227t1.9915 1.0227q2.7989 3.6601 4.8711 8.1276 2.0723 4.4675 2.8258 8.7734 2.8527-1.3994 5.7323-1.83 2.8796-0.4306 5.8938-0.4306h0.48442q0.8612 0 1.4533 0.59207 0.59208 0.59207 0.59208 1.4533v0.37678q0 7.4278-2.0184 12.649-2.0184 5.221-5.1941 8.6389-3.1757 3.4179-7.0511 5.1672-3.8754 1.7493-7.6431 2.2337-0.96885 0.10765-2.3683 0.0538-1.3994-0.0538-2.4221-0.26913zm2.2068-5.4901q-0.59207-9.0426-5.4363-13.752-4.8442-4.7097-11.895-5.7862h0.02691-0.02691q0.59207 9.2579 5.5978 13.914 5.0057 4.6558 11.734 5.6247 0.10765 0.0538 0 0.0269t0-0.0269zm-3.6601-19.969q1.0765 0.86119 2.2876 2.0453 1.2111 1.1842 2.0184 2.2606 0.8612-1.0765 2.0184-2.2337 1.1572-1.1572 2.2337-2.0722-0.16147-3.0142-1.2649-6.2437-1.1034-3.2295-2.9873-6.4052v0.0269-0.0269q-1.8839 3.1218-2.9873 6.3513-1.1034 3.2295-1.3187 6.2975zm7.4817 10.119q0.6459 1.7224 1.1303 4.01 0.48442 2.2876 0.75355 4.7097 1.6686-0.53825 3.7677-1.7493 2.0992-1.2111 4.01-3.364 1.9108-2.153 3.3641-5.4094 1.4533-3.2564 1.83-7.8853 0.05382-0.10764 0.02691 0-0.02691 0.10765-0.02691 0-5.0595 0.75355-8.8273 3.2026-3.7677 2.449-6.0284 6.4859z"/><path d="m37.71 625.17q-4.0369-0.80737-7.8315-2.7989t-6.7012-5.4363q-2.9065-3.4448-4.6558-8.4236-1.7493-4.9788-1.7493-11.761v-0.4306q0-0.8612 0.59207-1.4533t1.4533-0.59207h0.48442q3.068 0 5.9207 0.51133 2.8527 0.51134 5.6516 1.7493 0.75355-4.306 2.8258-8.7734t4.8711-8.1276q0.75355-1.0227 1.9915-1.0227t1.9915 1.0227q2.7989 3.6601 4.8711 8.1276 2.0723 4.4675 2.8258 8.7734 2.8527-1.3994 5.7323-1.83 2.8796-0.4306 5.8938-0.4306h0.48442q0.8612 0 1.4533 0.59207 0.59208 0.59207 0.59208 1.4533v0.37678q0 7.4278-2.0184 12.649-2.0184 5.221-5.1941 8.6389-3.1757 3.4179-7.0511 5.1672-3.8754 1.7493-7.6431 2.2337-0.96885 0.10765-2.3683 0.0538-1.3994-0.0538-2.4221-0.26913zm2.2068-5.4901q-0.59207-9.0426-5.4363-13.752-4.8442-4.7097-11.895-5.7862h0.02691-0.02691q0.59207 9.2579 5.5978 13.914 5.0057 4.6558 11.734 5.6247 0.10765 0.0538 0 0.0269t0-0.0269zm-3.6601-19.969q1.0765 0.86119 2.2876 2.0453 1.2111 1.1842 2.0184 2.2606 0.8612-1.0765 2.0184-2.2337 1.1572-1.1572 2.2337-2.0722-0.16147-3.0142-1.2649-6.2437-1.1034-3.2295-2.9873-6.4052v0.0269-0.0269q-1.8839 3.1218-2.9873 6.3513-1.1034 3.2295-1.3187 6.2975zm7.4817 10.119q0.6459 1.7224 1.1303 4.01 0.48442 2.2876 0.75355 4.7097 1.6686-0.53825 3.7677-1.7493 2.0992-1.2111 4.01-3.364 1.9108-2.153 3.3641-5.4094 1.4533-3.2564 1.83-7.8853 0.05382-0.10764 0.02691 0-0.02691 0.10765-0.02691 0-5.0595 0.75355-8.8273 3.2026-3.7677 2.449-6.0284 6.4859z"/></g><g transform="translate(1600,-50)"><path d="m37.71 65.175q-4.0369-0.80737-7.8315-2.7989t-6.7012-5.4363q-2.9065-3.4448-4.6558-8.4236-1.7493-4.9788-1.7493-11.761v-0.4306q0-0.8612 0.59207-1.4533t1.4533-0.59207h0.48442q3.068 0 5.9207 0.51133 2.8527 0.51134 5.6516 1.7493 0.75355-4.306 2.8258-8.7734t4.8711-8.1276q0.75355-1.0227 1.9915-1.0227t1.9915 1.0227q2.7989 3.6601 4.8711 8.1276 2.0723 4.4675 2.8258 8.7734 2.8527-1.3994 5.7323-1.83 2.8796-0.4306 5.8938-0.4306h0.48442q0.8612 0 1.4533 0.59207 0.59208 0.59207 0.59208 1.4533v0.37678q0 7.4278-2.0184 12.649-2.0184 5.221-5.1941 8.6389-3.1757 3.4179-7.0511 5.1672-3.8754 1.7493-7.6431 2.2337-0.96885 0.10765-2.3683 0.0538-1.3994-0.0538-2.4221-0.26913zm2.2068-5.4901q-0.59207-9.0426-5.4363-13.752-4.8442-4.7097-11.895-5.7862h0.02691-0.02691q0.59207 9.2579 5.5978 13.914 5.0057 4.6558 11.734 5.6247 0.10765 0.0538 0 0.0269t0-0.0269zm-3.6601-19.969q1.0765 0.86119 2.2876 2.0453 1.2111 1.1842 2.0184 2.2606 0.8612-1.0765 2.0184-2.2337 1.1572-1.1572 2.2337-2.0722-0.16147-3.0142-1.2649-6.2437-1.1034-3.2295-2.9873-6.4052v0.0269-0.0269q-1.8839 3.1218-2.9873 6.3513-1.1034 3.2295-1.3187 6.2975zm7.4817 10.119q0.6459 1.7224 1.1303 4.01 0.48442 2.2876 0.75355 4.7097 1.6686-0.53825 3.7677-1.7493 2.0992-1.2111 4.01-3.364 1.9108-2.153 3.3641-5.4094 1.4533-3.2564 1.83-7.8853 0.05382-0.10764 0.02691 0-0.02691 0.10765-0.02691 0-5.0595 0.75355-8.8273 3.2026-3.7677 2.449-6.0284 6.4859z"/><path d="m37.71 225.17q-4.0369-0.80737-7.8315-2.7989t-6.7012-5.4363q-2.9065-3.4448-4.6558-8.4236-1.7493-4.9788-1.7493-11.761v-0.4306q0-0.8612 0.59207-1.4533t1.4533-0.59207h0.48442q3.068 0 5.9207 0.51133 2.8527 0.51134 5.6516 1.7493 0.75355-4.306 2.8258-8.7734t4.8711-8.1276q0.75355-1.0227 1.9915-1.0227t1.9915 1.0227q2.7989 3.6601 4.8711 8.1276 2.0723 4.4675 2.8258 8.7734 2.8527-1.3994 5.7323-1.83 2.8796-0.4306 5.8938-0.4306h0.48442q0.8612 0 1.4533 0.59207 0.59208 0.59207 0.59208 1.4533v0.37678q0 7.4278-2.0184 12.649-2.0184 5.221-5.1941 8.6389-3.1757 3.4179-7.0511 5.1672-3.8754 1.7493-7.6431 2.2337-0.96885 0.10765-2.3683 0.0538-1.3994-0.0538-2.4221-0.26913zm2.2068-5.4901q-0.59207-9.0426-5.4363-13.752-4.8442-4.7097-11.895-5.7862h0.02691-0.02691q0.59207 9.2579 5.5978 13.914 5.0057 4.6558 11.734 5.6247 0.10765 0.0538 0 0.0269t0-0.0269zm-3.6601-19.969q1.0765 0.86119 2.2876 2.0453 1.2111 1.1842 2.0184 2.2606 0.8612-1.0765 2.0184-2.2337 1.1572-1.1572 2.2337-2.0722-0.16147-3.0142-1.2649-6.2437-1.1034-3.2295-2.9873-6.4052v0.0269-0.0269q-1.8839 3.1218-2.9873 6.3513-1.1034 3.2295-1.3187 6.2975zm7.4817 10.119q0.6459 1.7224 1.1303 4.01 0.48442 2.2876 0.75355 4.7097 1.6686-0.53825 3.7677-1.7493 2.0992-1.2111 4.01-3.364 1.9108-2.153 3.3641-5.4094 1.4533-3.2564 1.83-7.8853 0.05382-0.10764 0.02691 0-0.02691 0.10765-0.02691 0-5.0595 0.75355-8.8273 3.2026-3.7677 2.449-6.0284 6.4859z"/><path d="m37.71 385.17q-4.0369-0.80737-7.8315-2.7989t-6.7012-5.4363q-2.9065-3.4448-4.6558-8.4236-1.7493-4.9788-1.7493-11.761v-0.4306q0-0.8612 0.59207-1.4533t1.4533-0.59207h0.48442q3.068 0 5.9207 0.51133 2.8527 0.51134 5.6516 1.7493 0.75355-4.306 2.8258-8.7734t4.8711-8.1276q0.75355-1.0227 1.9915-1.0227t1.9915 1.0227q2.7989 3.6601 4.8711 8.1276 2.0723 4.4675 2.8258 8.7734 2.8527-1.3994 5.7323-1.83 2.8796-0.4306 5.8938-0.4306h0.48442q0.8612 0 1.4533 0.59207 0.59208 0.59207 0.59208 1.4533v0.37678q0 7.4278-2.0184 12.649-2.0184 5.221-5.1941 8.6389-3.1757 3.4179-7.0511 5.1672-3.8754 1.7493-7.6431 2.2337-0.96885 0.10765-2.3683 0.0538-1.3994-0.0538-2.4221-0.26913zm2.2068-5.4901q-0.59207-9.0426-5.4363-13.752-4.8442-4.7097-11.895-5.7862h0.02691-0.02691q0.59207 9.2579 5.5978 13.914 5.0057 4.6558 11.734 5.6247 0.10765 0.0538 0 0.0269t0-0.0269zm-3.6601-19.969q1.0765 0.86119 2.2876 2.0453 1.2111 1.1842 2.0184 2.2606 0.8612-1.0765 2.0184-2.2337 1.1572-1.1572 2.2337-2.0722-0.16147-3.0142-1.2649-6.2437-1.1034-3.2295-2.9873-6.4052v0.0269-0.0269q-1.8839 3.1218-2.9873 6.3513-1.1034 3.2295-1.3187 6.2975zm7.4817 10.119q0.6459 1.7224 1.1303 4.01 0.48442 2.2876 0.75355 4.7097 1.6686-0.53825 3.7677-1.7493 2.0992-1.2111 4.01-3.364 1.9108-2.153 3.3641-5.4094 1.4533-3.2564 1.83-7.8853 0.05382-0.10764 0.02691 0-0.02691 0.10765-0.02691 0-5.0595 0.75355-8.8273 3.2026-3.7677 2.449-6.0284 6.4859z"/><path d="m37.71 545.17q-4.0369-0.80737-7.8315-2.7989t-6.7012-5.4363q-2.9065-3.4448-4.6558-8.4236-1.7493-4.9788-1.7493-11.761v-0.4306q0-0.8612 0.59207-1.4533t1.4533-0.59207h0.48442q3.068 0 5.9207 0.51133 2.8527 0.51134 5.6516 1.7493 0.75355-4.306 2.8258-8.7734t4.8711-8.1276q0.75355-1.0227 1.9915-1.0227t1.9915 1.0227q2.7989 3.6601 4.8711 8.1276 2.0723 4.4675 2.8258 8.7734 2.8527-1.3994 5.7323-1.83 2.8796-0.4306 5.8938-0.4306h0.48442q0.8612 0 1.4533 0.59207 0.59208 0.59207 0.59208 1.4533v0.37678q0 7.4278-2.0184 12.649-2.0184 5.221-5.1941 8.6389-3.1757 3.4179-7.0511 5.1672-3.8754 1.7493-7.6431 2.2337-0.96885 0.10765-2.3683 0.0538-1.3994-0.0538-2.4221-0.26913zm2.2068-5.4901q-0.59207-9.0426-5.4363-13.752-4.8442-4.7097-11.895-5.7862h0.02691-0.02691q0.59207 9.2579 5.5978 13.914 5.0057 4.6558 11.734 5.6247 0.10765 0.0538 0 0.0269t0-0.0269zm-3.6601-19.969q1.0765 0.86119 2.2876 2.0453 1.2111 1.1842 2.0184 2.2606 0.8612-1.0765 2.0184-2.2337 1.1572-1.1572 2.2337-2.0722-0.16147-3.0142-1.2649-6.2437-1.1034-3.2295-2.9873-6.4052v0.0269-0.0269q-1.8839 3.1218-2.9873 6.3513-1.1034 3.2295-1.3187 6.2975zm7.4817 10.119q0.6459 1.7224 1.1303 4.01 0.48442 2.2876 0.75355 4.7097 1.6686-0.53825 3.7677-1.7493 2.0992-1.2111 4.01-3.364 1.9108-2.153 3.3641-5.4094 1.4533-3.2564 1.83-7.8853 0.05382-0.10764 0.02691 0-0.02691 0.10765-0.02691 0-5.0595 0.75355-8.8273 3.2026-3.7677 2.449-6.0284 6.4859z"/><path d="m37.71 705.17q-4.0369-0.80737-7.8315-2.7989t-6.7012-5.4363q-2.9065-3.4448-4.6558-8.4236-1.7493-4.9788-1.7493-11.761v-0.4306q0-0.8612 0.59207-1.4533t1.4533-0.59207h0.48442q3.068 0 5.9207 0.51133 2.8527 0.51134 5.6516 1.7493 0.75355-4.306 2.8258-8.7734t4.8711-8.1276q0.75355-1.0227 1.9915-1.0227t1.9915 1.0227q2.7989 3.6601 4.8711 8.1276 2.0723 4.4675 2.8258 8.7734 2.8527-1.3994 5.7323-1.83 2.8796-0.4306 5.8938-0.4306h0.48442q0.8612 0 1.4533 0.59207 0.59208 0.59207 0.59208 1.4533v0.37678q0 7.4278-2.0184 12.649-2.0184 5.221-5.1941 8.6389-3.1757 3.4179-7.0511 5.1672-3.8754 1.7493-7.6431 2.2337-0.96885 0.10765-2.3683 0.0538-1.3994-0.0538-2.4221-0.26913zm2.2068-5.4901q-0.59207-9.0426-5.4363-13.752-4.8442-4.7097-11.895-5.7862h0.02691-0.02691q0.59207 9.2579 5.5978 13.914 5.0057 4.6558 11.734 5.6247 0.10765 0.0538 0 0.0269t0-0.0269zm-3.6601-19.969q1.0765 0.86119 2.2876 2.0453 1.2111 1.1842 2.0184 2.2606 0.8612-1.0765 2.0184-2.2337 1.1572-1.1572 2.2337-2.0722-0.16147-3.0142-1.2649-6.2437-1.1034-3.2295-2.9873-6.4052v0.0269-0.0269q-1.8839 3.1218-2.9873 6.3513-1.1034 3.2295-1.3187 6.2975zm7.4817 10.119q0.6459 1.7224 1.1303 4.01 0.48442 2.2876 0.75355 4.7097 1.6686-0.53825 3.7677-1.7493 2.0992-1.2111 4.01-3.364 1.9108-2.153 3.3641-5.4094 1.4533-3.2564 1.83-7.8853 0.05382-0.10764 0.02691 0-0.02691 0.10765-0.02691 0-5.0595 0.75355-8.8273 3.2026-3.7677 2.449-6.0284 6.4859z"/></g></g></g></svg>
