<svg width="4.000in" height="5.000in" viewBox="0 0 1000 1250" xml:space="preserve" xmlns="http://www.w3.org/2000/svg">
  <rect width="1000" height="1250" rx="100" fill="#ee3a3b"/>
  <rect x="34.815" y="34.815" width="930.37" height="1180.4" rx="73.45" fill="none" stroke="#fff" stroke-width="19.63"/>
  <g transform="scale(.99408 1.006)" fill="#fff" stroke-linecap="round" stroke-linejoin="round" stroke-width="9.5693" style="paint-order:stroke fill markers" aria-label="FIND US ON">
    <path d="m316.98 379.63h28.754v-11.483h-28.754zm0 25.355h27.836v-10.932h-27.836zm-8.4518-36.839v64.307h12.678v-64.307zm39.175 0v64.307h13.321v-64.307zm62.876 0v39.87l-45.75-43.086v67.522h12.678v-39.87l45.75 43.086v-67.522zm16.575 0v64.307h13.413v-64.307zm21.864 64.307q10.105 0 17.638-3.9503 7.625-3.9503 11.851-11.116 4.2259-7.2575 4.2259-17.087t-4.2259-16.995q-4.2259-7.2575-11.851-11.208-7.5331-3.9503-17.638-3.9503h-13.413v11.943h12.953q4.2259 0 7.9924 1.1943 3.7665 1.1024 6.6144 3.5828 2.8479 2.4804 4.4096 6.3388 1.6536 3.7666 1.6536 9.0948 0 5.3283-1.6536 9.1867-1.5617 3.7666-4.4096 6.247t-6.6144 3.6747q-3.7666 1.1024-7.9924 1.1024h-12.953v11.943zm54.733-64.307v43.177q0 5.6958 1.8373 10.014t5.1446 7.2575q3.3072 2.9397 7.8087 4.4096 4.5015 1.5617 9.8298 1.5617 5.2364 0 9.7379-1.5617 4.5015-1.4699 7.8087-4.4096 3.3991-2.9398 5.2364-7.2575t1.8373-10.014v-43.177h-13.137v42.351q0 5.512-2.9397 8.9111-2.8479 3.3072-8.5436 3.3072-5.6958 0-8.6355-3.3072-2.8479-3.3991-2.8479-8.9111v-42.351zm58.191 42.718-9.3704 6.6144q2.1129 4.5015 5.8795 8.3599 3.7665 3.8584 8.8192 6.1551 5.1446 2.2048 11.024 2.2048 4.4096 0 8.3599-1.378 4.0422-1.2861 7.2575-3.7666 3.2153-2.5723 5.0527-6.247t1.8373-8.3599q0-4.134-1.378-7.2575-1.2861-3.2154-3.6747-5.512-2.2967-2.3886-5.2364-4.0422-2.8479-1.6536-5.9714-2.756-4.869-1.6536-8.0843-3.2154-3.2154-1.6536-4.7771-3.3991-1.5617-1.8373-1.5617-4.2259t1.9292-4.134q1.9292-1.8373 5.7876-1.8373 2.9398 0 5.2364 1.1943 2.2967 1.1024 4.0422 3.0316 1.8373 1.8373 3.1235 4.134l10.289-5.6958q-1.6536-3.3991-4.6852-6.5226-2.9397-3.2153-7.4412-5.2364-4.4096-2.113-10.565-2.113-5.9714 0-10.84 2.2048-4.7771 2.1129-7.625 6.1551-2.756 3.9503-2.756 9.4623 0 4.5934 1.7455 7.9006 1.7455 3.2154 4.4096 5.512 2.6642 2.2048 5.6039 3.6747 3.0316 1.378 5.3283 2.2048 4.3178 1.6536 7.2575 3.1235 3.0316 1.378 4.5015 3.2153 1.5617 1.8373 1.5617 4.869 0 3.491-2.4804 5.512-2.4804 2.0211-6.4307 2.0211-3.3991 0-6.3388-1.4699-2.9397-1.4699-5.4202-4.134-2.3885-2.6641-4.4096-6.247z"/>
    <path d="m644.83 401.88q0-2.7356 1.1432-4.8587t3.1439-3.348 4.6546-1.2249q2.6948 0 4.6954 1.2249t3.103 3.348 1.1024 4.8587q0 2.7356-1.1432 4.8587-1.1024 2.1231-3.103 3.348t-4.6546 1.2249q-2.6539 0-4.6546-1.2249t-3.1439-3.348q-1.1432-2.1231-1.1432-4.8587zm-6.1653 0q0 3.2255 1.1024 6.002 1.1024 2.7356 3.1439 4.7771t4.7771 3.1847q2.7764 1.1024 6.0836 1.1024t6.0428-1.1024q2.7764-1.1432 4.7771-3.1847 2.0415-2.0415 3.1439-4.7771 1.1432-2.7764 1.1432-6.002 0-3.2664-1.1432-5.9611-1.1024-2.7356-3.1847-4.7362-2.0415-2.0006-4.7771-3.0622-2.7356-1.1024-6.002-1.1024-3.2255 0-6.002 1.1024-2.7356 1.0616-4.7771 3.0622t-3.1847 4.7362q-1.1432 2.6948-1.1432 5.9611zm53.128-14.29v17.72l-20.333-19.149v30.01h5.6345v-17.72l20.333 19.149v-30.01z"/>
  </g>
  <g transform="matrix(8.3754 0 0 8.3754 164.99 403.03)" fill="#fff">
    <path d="m63.603 21.892 1.245-0.288c0.026-6e-3 0.07-0.016 0.122-0.033a1.374 1.374 0 0 0 0.983-1.636l-5e-3 -0.022a1.372 1.372 0 0 0-0.212-0.463 1.734 1.734 0 0 0-0.508-0.436 4.705 4.705 0 0 0-0.722-0.334l-1.365-0.499c-0.766-0.285-1.532-0.562-2.306-0.833-0.501-0.178-0.926-0.335-1.295-0.45a4.019 4.019 0 0 1-0.209-0.064c-0.446-0.136-0.76-0.193-1.025-0.195a1.22 1.22 0 0 0-0.517 0.094 1.327 1.327 0 0 0-0.45 0.32 2.736 2.736 0 0 0-0.176 0.222 2.617 2.617 0 0 0-0.262 0.522 7.085 7.085 0 0 0-0.374 2.326c5e-3 0.714 0.024 1.631 0.417 2.253 0.095 0.16 0.222 0.298 0.373 0.405 0.28 0.193 0.562 0.219 0.857 0.24 0.44 0.031 0.865-0.076 1.29-0.175l4.136-0.955zm13.89-6.609a7.072 7.072 0 0 0-1.352-1.927 2.08 2.08 0 0 0-0.23-0.198 2.682 2.682 0 0 0-0.234-0.157 2.666 2.666 0 0 0-0.256-0.123 1.318 1.318 0 0 0-0.543-0.09c-0.177 0.01-0.35 0.06-0.507 0.143-0.237 0.118-0.494 0.308-0.836 0.625-0.047 0.047-0.106 0.1-0.16 0.15-0.281 0.265-0.595 0.592-0.968 0.972-0.577 0.583-1.144 1.169-1.709 1.76l-1.01 1.048a4.71 4.71 0 0 0-0.502 0.617 1.736 1.736 0 0 0-0.267 0.615 1.41 1.41 0 0 0 0.012 0.51l5e-3 0.022a1.373 1.373 0 0 0 1.598 1.04 1.28 1.28 0 0 0 0.125-0.024l5.382-1.244c0.425-0.098 0.855-0.188 1.236-0.41 0.256-0.147 0.499-0.294 0.666-0.59a1.33 1.33 0 0 0 0.158-0.528c0.083-0.734-0.3-1.567-0.608-2.211zm-9.635 2.263c0.39-0.49 0.39-1.22 0.424-1.818 0.118-1.995 0.241-3.99 0.34-5.986 0.037-0.756 0.118-1.502 0.073-2.264-0.037-0.628-0.041-1.35-0.438-1.866-0.7-0.91-2.194-0.835-3.213-0.693a9.753 9.753 0 0 0-0.935 0.176c-0.31 0.074-0.618 0.155-0.918 0.252-0.978 0.32-2.353 0.908-2.585 2.035-0.132 0.637 0.18 1.288 0.42 1.87 0.293 0.704 0.692 1.339 1.056 2.002 0.963 1.751 1.943 3.492 2.92 5.234 0.293 0.52 0.61 1.178 1.175 1.448 0.038 0.016 0.076 0.03 0.115 0.043 0.253 0.096 0.53 0.114 0.793 0.053l0.047-0.01c0.244-0.067 0.464-0.2 0.637-0.383 0.032-0.03 0.061-0.06 0.09-0.093zm-0.467 5.341a1.245 1.245 0 0 0-1.386-0.467 1.27 1.27 0 0 0-0.172 0.071 1.67 1.67 0 0 0-0.245 0.153 3.233 3.233 0 0 0-0.585 0.599c-0.043 0.055-0.083 0.128-0.135 0.176l-0.866 1.19c-0.49 0.668-0.975 1.337-1.454 2.016-0.314 0.439-0.584 0.81-0.799 1.137-0.04 0.062-0.082 0.13-0.12 0.186-0.257 0.396-0.402 0.686-0.477 0.944a1.233 1.233 0 0 0-0.052 0.532c0.024 0.186 0.087 0.365 0.184 0.526 0.052 0.08 0.108 0.158 0.168 0.233a2.644 2.644 0 0 0 0.435 0.4c0.598 0.416 1.252 0.715 1.94 0.946 0.573 0.19 1.168 0.304 1.77 0.338 0.103 5e-3 0.206 3e-3 0.308-6e-3a2.99 2.99 0 0 0 0.282-0.04 2.69 2.69 0 0 0 0.276-0.08 1.34 1.34 0 0 0 0.47-0.3c0.127-0.127 0.225-0.28 0.286-0.449 0.1-0.25 0.166-0.566 0.21-1.036 3e-3 -0.067 0.013-0.147 0.02-0.22 0.034-0.39 0.05-0.85 0.074-1.388 0.043-0.829 0.076-1.654 0.102-2.481l0.056-1.472c0.013-0.338 2e-3 -0.714-0.092-1.051a1.574 1.574 0 0 0-0.198-0.457zm9.773 2.303c-0.18-0.199-0.436-0.396-0.84-0.64-0.058-0.033-0.127-0.076-0.19-0.114-0.336-0.203-0.741-0.415-1.214-0.672-0.727-0.4-1.454-0.788-2.189-1.174l-1.297-0.688c-0.067-0.02-0.135-0.068-0.199-0.099a3.234 3.234 0 0 0-0.788-0.281 1.67 1.67 0 0 0-0.286-0.03 1.45 1.45 0 0 0-0.186 0.011 1.247 1.247 0 0 0-1.04 1.029c-0.019 0.165-0.013 0.332 0.019 0.494 0.063 0.346 0.217 0.687 0.377 0.986l0.692 1.299c0.386 0.732 0.776 1.46 1.176 2.186 0.258 0.473 0.473 0.878 0.674 1.214 0.038 0.063 0.081 0.131 0.114 0.19 0.245 0.403 0.441 0.657 0.64 0.84a1.247 1.247 0 0 0 1.008 0.34 2.68 2.68 0 0 0 0.283-0.05 2.612 2.612 0 0 0 0.551-0.217 6.867 6.867 0 0 0 1.443-1.08c0.518-0.51 0.976-1.066 1.332-1.702 0.05-0.09 0.092-0.183 0.128-0.28a2.84 2.84 0 0 0 0.087-0.271c0.021-0.094 0.037-0.188 0.048-0.283a1.34 1.34 0 0 0-0.063-0.553 1.229 1.229 0 0 0-0.28-0.456z"/>
    <path d="m32.499 12.559c0-1.07 0.871-1.944 1.923-1.944 1.037 0 1.879 0.874 1.924 1.96v15.174c0 1.07-0.872 1.944-1.924 1.944a1.924 1.924 0 0 1-1.923-1.944zm-1.789 9.373c-0.015 0.301-0.09 0.859-0.48 1.266-0.421 0.437-0.992 0.542-1.323 0.542-1.375 8e-3 -2.75 0.012-4.125 0.015-1.375 4e-3 -2.75 8e-3 -4.125 0.015 0.12 0.377 0.36 0.95 0.901 1.477 0.33 0.317 0.646 0.497 0.782 0.573 0.165 0.105 0.736 0.407 1.442 0.407 0.752 0 1.413-0.242 2.06-0.573l0.053-0.028c0.45-0.233 0.913-0.473 1.404-0.56 0.48-0.075 0.992 0.015 1.367 0.347 0.451 0.392 0.632 0.964 0.466 1.552-0.195 0.663-0.751 1.236-1.337 1.582a6.61 6.61 0 0 1-1.052 0.497 7.935 7.935 0 0 1-2.9 0.453c-0.24 0-0.496 0-0.752-0.03-0.27-0.03-0.54-0.091-0.796-0.151a5.648 5.648 0 0 1-1.203-0.407 6.586 6.586 0 0 1-1.097-0.618 7.173 7.173 0 0 1-0.961-0.829 7.45 7.45 0 0 1-0.797-0.994c-0.811-1.236-1.187-2.758-1.112-4.235 0.06-1.446 0.541-2.893 1.413-4.068 0.094-0.148 0.203-0.273 0.306-0.391 0.045-0.052 0.089-0.102 0.13-0.152 1.076-1.316 2.514-1.732 3.107-1.904l0.033-0.01a6.74 6.74 0 0 1 3.682 0c0.286 0.076 1.894 0.573 3.141 1.914 0.06 0.06 0.226 0.256 0.436 0.543a7.177 7.177 0 0 1 1.155 2.418l2e-3 8e-3c0.09 0.331 0.18 0.783 0.18 1.34zm-8.821-2.486a3.394 3.394 0 0 0-1.172 1.898h6.552a3.497 3.497 0 0 0-1.187-1.899 3.426 3.426 0 0 0-2.104-0.753 3.37 3.37 0 0 0-2.09 0.753zm24.916-3.994c-1.713 0-3.276 0.769-4.388 2.02v-0.046a1.917 1.917 0 0 0-3.832 0.106v14.481a1.92 1.92 0 0 0 1.924 1.929 1.92 1.92 0 0 0 1.923-1.929v-4.521c1.112 1.236 2.66 2.02 4.388 2.02 3.442 0 6.237-3.12 6.237-7.008-0.015-3.887-2.81-7.052-6.252-7.052zm-0.841 10.91c-1.954 0-3.547-1.703-3.547-3.827 0-2.14 1.578-3.843 3.547-3.843 1.953 0 3.546 1.703 3.546 3.843-0.015 2.124-1.593 3.827-3.546 3.827zm-31.724-2.848-0.631 1.387c-0.286 0.602-0.572 1.22-0.842 1.838l-0.261 0.58c-1.202 2.672-2.627 5.844-5.735 6.517-1.503 0.332-3.772-0.12-4.614-1.537-0.841-1.431 0.406-3.074 2.014-2.697 0.254 0.056 0.503 0.18 0.755 0.306 0.419 0.21 0.844 0.421 1.304 0.327 0.436-0.075 0.706-0.392 1.052-0.799 0.48-0.557 0.691-1.145 0.781-1.492l-0.022-0.052a0.735 0.735 0 0 0-0.023-0.053c-0.391-0.73-0.733-1.382-1.018-1.927a110.8 110.8 0 0 0-0.485-0.921l-0.655-1.244c-0.48-0.91-0.56-1.06-0.772-1.453a55.275 55.275 0 0 0-1.473-2.607c-0.556-0.935-1.127-1.974-0.661-3.075a1.838 1.838 0 0 1 2.254-1.054c0.967 0.293 1.396 1.214 1.796 2.074 0.073 0.156 0.144 0.31 0.218 0.457 0.646 1.281 1.277 2.562 1.908 3.843 0.056 0.127 0.14 0.3 0.244 0.512 0.092 0.188 0.199 0.407 0.312 0.648l0.167 0.348c0.065 0.136 0.122 0.252 0.164 0.345 0.293-0.73 0.59-1.457 0.886-2.185 0.297-0.727 0.594-1.454 0.887-2.185 8e-3 -0.04 0.078-0.196 0.184-0.431 0.089-0.199 0.203-0.454 0.327-0.744l0.127-0.307c0.39-0.95 0.86-2.093 1.902-2.405a1.854 1.854 0 0 1 2.029 0.708c0.225 0.316 0.315 0.678 0.33 1.04 0.012 0.8-0.374 1.658-0.706 2.394-0.08 0.18-0.158 0.352-0.225 0.514l-0.04 0.088c-0.092 0.207-0.342 0.767-0.772 1.69-0.155 0.33-0.304 0.662-0.455 0.997z"/>
  </g>
  <g transform="matrix(.23749 0 0 .23749 317.73 70.072)" display="none" fill="#fff">
    <path d="m301 249c-69 2-105 43-105 43s47-28 105-29c57-1 108 29 108 29s-40-44-108-43z"/>
    <path d="m367 30s-105 38-176 86c-70 48-110 110-114 147-5 35 10 86 48 121 37 32 93 76 123 97 30 20 99 90 101 138 1 48 1 76-57 155-60 78-241 217-241 217l3 3s169-83 241-157c72-73 100-125 103-184 4-59-37-118-88-153-51-36-140-77-182-141-13-16-24-38-16-81 6-25 19-55 47-84 90-93 209-161 209-161z"/>
    <path d="m195 304s28 41 105 41c77 1 108-40 108-40s-46 31-108 31c-57 0-105-32-105-32z"/>
    <path d="m310 647s-87 11-129 23c-39 12-93 36-101 39l4 9c3-2 56-27 101-41 47-15 125-30 125-30zm-229 68 2 3h1z"/>
    <path d="m98 646s-37 15-37 34 23 38 23 38-12-24-12-38 26-34 26-34z"/>
    <path d="m206 643-108 3 108 4c51 0 104-3 104-3-1 0-57-4-104-4z"/>
    <path d="m81 586c-4 4-14 13-13 28 0 19 30 32 30 32s-21-15-21-33l2-20z"/>
    <path d="m83 582m0 0-4 11s32 15 86 29c64 17 145 25 145 25s-119-25-141-33c-80-26-86-32-86-32z"/>
    <path d="m460 102m0 0s82 92 84 230c1 76-19 141-41 189h1l32-3c27-45 51-107 49-187a319 319 0 0 0-125-229zm66 430-14 2 11 2zm-35 14c-21 40-40 63-40 63s30-19 62-59z"/>
    <path d="m692 461s-40 30-92 42-60 16-96 18-65-3-65 8 11 12 20 13c10 2 70 9 101 17s89 37 105 40a291 291 0 0 0 157-1c14-6 32-18 32-18s-3 12 0 15 8 8 28 13a242 242 0 0 0 147-36c13-8 44-22 55-23 12 0 26-4 33 2 6 6 3 16 3 21s2 15 10 22c8 6 30 13 47 15 16 1 99-2 170-9 71-8 137-23 137-23s-185 13-238 15c-53 1-83-4-89-7-7-2-10-1-11-19 0-19-9-29-20-35s-23-4-41-2-51 15-65 26c-14 10-30 19-60 28-30 8-50 11-70 11-21-1-22-2-23-6s19-26 23-31c4-4 6-8 1-11-5-4-5-3-11 2s-17 19-28 26c-12 7-23 17-58 23-34 6-73 6-98 1-24-4-56-18-87-36-32-18-97-28-97-28s48-3 85-17 61-27 78-38c16-11 17-18 17-18z"/>
    <path d="m988 433s-97 16-113 40c-13 20 6 28 6 28s16-22 37-35c20-13 70-33 70-33z"/>
  </g>
  <g transform="matrix(.23243 0 0 .23243 321.49 70.696)" fill="#fff">
    <path d="m301 249c-69 2-105 43-105 43s47-28 105-29c57-1 108 29 108 29s-40-44-108-43z"/>
    <path d="m367 30s-105 38-176 86c-70 48-110 110-114 147-5 35 10 86 48 121 37 32 93 76 123 97 30 20 99 90 101 138 1 48 1 76-57 155-60 78-241 217-241 217l3 3s169-83 241-157c72-73 100-125 103-184 4-59-37-118-88-153-51-36-140-77-182-141-13-16-24-38-16-81 6-25 19-55 47-84 90-93 209-161 209-161z"/>
    <path d="m195 304s28 41 105 41c77 1 108-40 108-40s-46 31-108 31c-57 0-105-32-105-32z"/>
    <path d="m310 647s-87 11-129 23c-39 12-93 36-101 39l4 9c3-2 56-27 101-41 47-15 125-30 125-30zm-229 68 2 3h1z"/>
    <path d="m98 646s-37 15-37 34 23 38 23 38-12-24-12-38 26-34 26-34z"/>
    <path d="m206 643-108 3 108 4c51 0 104-3 104-3-1 0-57-4-104-4z"/>
    <path d="m81 586c-4 4-14 13-13 28 0 19 30 32 30 32s-21-15-21-33l2-20z"/>
    <path d="m83 582m0 0-4 11s32 15 86 29c64 17 145 25 145 25s-119-25-141-33c-80-26-86-32-86-32z"/>
    <path d="m460 102m0 0s82 92 84 230c1 76-19 141-41 189h1l32-3c27-45 51-107 49-187a319 319 0 0 0-125-229zm66 430-14 2 11 2zm-35 14c-21 40-40 63-40 63s30-19 62-59z"/>
    <path d="m692 461s-40 30-92 42-60 16-96 18-65-3-65 8 11 12 20 13c10 2 70 9 101 17s89 37 105 40a291 291 0 0 0 157-1c14-6 32-18 32-18s-3 12 0 15 8 8 28 13a242 242 0 0 0 147-36c13-8 44-22 55-23 12 0 26-4 33 2 6 6 3 16 3 21s2 15 10 22c8 6 30 13 47 15 16 1 99-2 170-9 71-8 137-23 137-23s-185 13-238 15c-53 1-83-4-89-7-7-2-10-1-11-19 0-19-9-29-20-35s-23-4-41-2-51 15-65 26c-14 10-30 19-60 28-30 8-50 11-70 11-21-1-22-2-23-6s19-26 23-31c4-4 6-8 1-11-5-4-5-3-11 2s-17 19-28 26c-12 7-23 17-58 23-34 6-73 6-98 1-24-4-56-18-87-36-32-18-97-28-97-28s48-3 85-17 61-27 78-38c16-11 17-18 17-18z"/>
    <path d="m988 433s-97 16-113 40c-13 20 6 28 6 28s16-22 37-35c20-13 70-33 70-33z"/>
    <path d="m451 716v3l7 1 5 1 1 1 1 3v1l-1 48c-1 7-5 10-14 10v4h34v-4c-9 0-14-3-14-9l1-48 32 61h4l30-62 1 50c0 6-4 8-12 8v4h40v-4c-9 0-13-3-13-8l-2-50 1-3 1-2 4-1 8-1v-3h-29l-27 55-29-55z"/>
    <path d="m820 735-22 44-3 4-4 2v2h20v-2c-5 0-8-1-8-4l1-2 3-8 4-2h14c3 0 5 1 5 2l4 10 1 1v1l-1 1h-2l-2 1h-3v2h25v-2a73 73 0 0 0-5-1l-2-2-22-46zm-56 0-11 2-9 6a27 27 0 0 0-8 20c0 3 0 7 2 10l5 8 9 6a35 35 0 0 0 21 1l7-3 6-5 3-7-3-1-4 6-4 4-5 2-7 1-9-2-7-5-3-8-1-11 1-7c0-3 2-5 3-7l6-5 9-2c4 0 8 2 12 4 3 3 6 6 7 11h3a55 55 0 0 0-3-17l-6 3c-5-3-9-4-14-4zm-105 1a185 185 0 0 0-20 0h-8v2l4 1 3 1 1 2 1 4v32l-1 4-1 2-3 1h-4v2h23l17-1c5-2 9-3 12-6 3-2 5-4 6-8 2-3 3-6 3-10s-1-8-3-11c-1-3-3-6-6-8l-10-5c-4-2-9-2-14-2zm-87 0v2c6 0 9 3 9 7v35c0 3-3 5-9 5v2h49l3-15-3-1-2 6-4 4-6 2-9 1h-3c-5 0-7-1-7-4v-15c0-2 1-3 4-3h1l5 1 3 1 3 2 1 5h3v-20h-3l-2 4c0 2-1 2-2 3l-4 1h-7c-2 0-2-1-2-2v-14c0-2 2-4 7-4h2l7 1 5 1 4 3 3 7h3l-1-15zm128 0v2c6 0 9 3 9 7v35c0 3-3 5-9 5v2h27v-2c-6 0-9-2-9-5v-35c0-4 3-7 9-7v-2zm155 0v2c7 0 10 2 10 6v37c0 3-3 4-9 4v2h48l2-16h-2c-2 6-5 10-7 11l-6 2h-11c-4 0-6-1-6-3v-37c0-4 2-6 8-6v-2zm-200 3h3c8 0 13 2 17 6 4 3 6 9 6 17s-2 13-5 17c-4 4-9 5-16 5h-9l-2-2v-41l1-1 2-1zm164 7 8 16 1 3-3 1h-12l-3-1 1-3z"/>
    <path d="m988 714c-6 0-12 1-17 3-6 2-10 4-14 8-4 3-8 7-10 12l-3 15a34 34 0 0 0 12 26c4 3 8 6 14 8a59 59 0 0 0 31 1l11-4c4-2 7-4 9-7l5-10-5-1c-1 4-3 7-6 9l-6 6-8 3-10 1c-6 0-10-1-14-3-5-2-8-4-10-8-3-3-5-7-6-11l-2-14 2-11a27 27 0 0 1 14-16 34 34 0 0 1 32 3c6 3 10 8 12 15h5a70 70 0 0 0-4-22l-1-2c-4 0-7 2-10 4-7-3-14-5-21-5z"/>
    <path d="m1123 735a20 20 0 0 0-13 4l-3 4-2 6 2 7 6 5 8 3a434 434 0 0 1 16 7c2 1 2 3 2 5l-1 4-4 3-4 2a19 19 0 0 1-21-9l-1-6h-3a81 81 0 0 0 2 18l3-1 4-2a57 57 0 0 0 4 2 28 28 0 0 0 9 1l9-1 5-3 4-5 1-6-2-7-5-5-8-3a216 216 0 0 1-17-7c-2-1-2-3-2-5l3-6 8-2c4 0 8 1 11 4 3 2 5 5 6 10h3l-1-9-2-8-6 3a352 352 0 0 1-12-3zm339 0a20 20 0 0 0-12 4l-4 4-2 6c0 3 1 6 3 7l5 5 8 3a434 434 0 0 1 16 7c2 1 2 3 2 5l-1 4-4 3-4 2a19 19 0 0 1-20-9c-2-1-2-4-2-6h-3a81 81 0 0 0 2 18l3-1 4-2a58 58 0 0 0 4 2 28 28 0 0 0 9 1l9-1 5-3 4-5 1-6-2-7-5-5-8-3a217 217 0 0 1-17-7l-2-5 3-6 8-2c5 0 8 1 11 4 3 2 5 5 6 10h3l-1-9-1-8-6 3a352 352 0 0 1-12-3zm-397 0a32 32 0 0 0-22 8 26 26 0 0 0-8 19 25 25 0 0 0 9 19 31 31 0 0 0 21 7c5 0 9 0 13-2l10-6 6-9a24 24 0 0 0 0-20l-7-8c-2-3-6-5-9-6zm347 0-11 2c-4 1-7 3-9 6a27 27 0 0 0-9 19l2 11 6 8 9 5a35 35 0 0 0 21 1c2 0 5-1 7-3l5-4 4-8h-3l-4 6-4 4-6 2-6 1-9-2-7-5c-1-3-3-5-3-9l-2-10 1-7 4-7c1-2 3-4 6-5l8-2c5 0 9 1 13 4 3 2 6 6 7 11h3a55 55 0 0 0-3-18l-7 4c-4-3-8-4-13-4zm-120 0-3 17 3 1c1-5 3-8 6-10 2-3 6-4 10-4 3 0 4 1 4 3v36c0 5-3 7-10 7v2h29v-2c-6 0-10-2-10-7v-36c0-2 2-2 5-2 9 0 14 4 15 12h2v-17a126 126 0 0 1-8 1h-36a46 46 0 0 1-7-1zm-121 1h-19v2l5 1h3l1 2v37c-1 4-4 7-9 7v2h22v-2c-6 0-9-2-9-7v-34l21 43h3l19-44 1 36c0 4-3 6-8 6v2h26v-2c-6 0-8-2-8-6l-1-36v-2l1-1 3-1 4-1v-2h-18l-18 39zm113 0h-49v2c7 0 10 3 10 7v35c0 3-3 5-9 5v2h49l3-15-3-1-3 6c0 2-2 3-3 4l-6 2-9 1h-3c-5 0-7-1-7-4v-15c0-2 1-3 4-3h1l5 1 3 1 2 2 2 5h3v-20h-3l-2 4-2 3-4 1h-7c-2 0-2-1-2-2v-14c0-3 2-4 7-4h2l7 1 5 1 4 3 3 7 3-1zm64 0v2c6 0 9 3 9 7v35c0 3-3 5-9 5v2h27v-2c-6 0-9-2-9-5v-35c0-4 3-7 9-7v-2zm-283 2 9 2 7 5c1 3 3 5 3 8a34 34 0 0 1-3 26 17 17 0 0 1-15 6l-9-1-7-5-3-8-1-10 1-9c0-2 1-5 3-7 1-2 3-4 6-5 2-2 5-2 9-2z"/>
    <path d="m494 842c-14 0-21 5-21 16l1 7 5 7c-8 3-13 6-17 10-3 4-5 9-5 13 0 14 11 20 32 20 10 0 19-3 26-8a35 35 0 0 0 32 7l6-3 5-4 2-5-4-1-2 2-3 2-5 2-4 1-8-3-10-6a37 37 0 0 0 12-14l3-4 5-6 8-2v-3h-34v3c9 0 13 3 13 8 0 2-1 5-3 7-1 3-4 5-7 8a517 517 0 0 1-24-23l13-8c4-3 6-6 6-10 0-9-7-13-22-13zm0 3c8 0 12 3 12 11 0 3-4 8-12 14-7-7-10-12-10-15 0-7 3-10 10-10zm-13 29 14 15 17 14c-3 3-6 4-9 5l-9 1c-16 0-24-8-24-22 0-5 4-9 11-13z"/>
    <path d="m603 842v4c10 0 14 2 14 8v51c0 4-4 6-12 6v3h72l5-22-4-1c-3 9-7 14-11 16l-9 2h-17c-7 0-10-1-10-4v-51c0-6 5-8 13-8v-4z"/>
    <path d="m709 861-22 45-3 4-5 1v3h21v-3c-5 0-8-1-8-3v-2l4-8c0-2 1-2 4-2h14c3 0 4 0 5 2l4 9 1 1v1l-1 1-2 1h-5v3h25v-3a73 73 0 0 0-5-1l-2-2-22-46zm54 0a20 20 0 0 0-12 4l-4 5-1 6c0 3 0 5 2 7l5 5 9 3a434 434 0 0 1 16 6l2 6-2 4-3 3-5 1a19 19 0 0 1-16-3l-4-5-2-6h-3a81 81 0 0 0 2 18l4-1 3-2a59 59 0 0 0 4 2 28 28 0 0 0 9 1l9-1 6-4 3-5 1-6-2-7-5-4-8-4a217 217 0 0 1-17-7l-2-4c0-3 1-5 3-6 2-2 5-3 8-3 5 0 8 2 11 4 3 3 5 6 6 10h3v-8l-2-8-6 3a351 351 0 0 1-12-4zm120 1a168 168 0 0 0-13 0h-17v3c6 0 9 2 9 5v36c0 4-3 5-8 5v3h26v-3c-6 0-9-1-9-5v-16l3-1h3c2 0 4 0 5 2l4 4 3 7 2 6 4 5 8 2 3-1a9 9 0 0 0 5-5v-2l-2-1-3 4-3-1-3-4-1-4-2-4-4-5-7-4 7-2 5-3 3-3 1-5-1-5-4-4-6-3zm-41 0h-48v3c6 0 9 2 9 6v35c0 4-3 5-8 5v3h49l2-16h-2l-3 5-4 4c-1 2-3 2-5 3l-10 1h-3c-5 0-7-2-7-5v-15c0-1 1-2 4-2h6l4 1 2 3 1 4h3v-20h-3l-1 5-3 2-3 1h-8c-1 0-2 0-2-2v-14c0-2 2-3 7-3h9l6 1 4 4 2 6h3zm33 3h4l5 1 4 2 3 3 2 4-2 6-3 3-10 2h-5l-2-1v-15c0-3 1-5 4-5zm-167 7 8 17 1 2-3 1h-12l-3-1 1-3z"/>
  </g>
  <g transform="translate(172.38 173.07)">
    <path d="m187.71 643.24h5.7104v5.7104h-5.7104zm5.7104 0h5.7104v5.7104h-5.7104zm5.7104 0h5.7104v5.7104h-5.7104zm5.7104 0h5.7104v5.7104h-5.7104zm5.7104 0h5.7104v5.7104h-5.7104zm5.7104 0h5.7104v5.7104h-5.7104zm5.7104 0h5.7104v5.7104h-5.7104zm11.421 0h5.7104v5.7104h-5.7104zm5.7104 0h5.7104v5.7104h-5.7104zm11.421 0h5.7104v5.7104h-5.7104zm5.7104 0h5.7104v5.7104h-5.7104zm22.842 0h5.7104v5.7104h-5.7104zm5.7104 0h5.7104v5.7104h-5.7104zm22.842 0h5.7104v5.7104h-5.7104zm5.7104 0h5.7104v5.7104h-5.7104zm5.7104 0h5.7104v5.7104h-5.7104zm17.131 0h5.7104v5.7104h-5.7104zm17.131 0h5.7104v5.7104h-5.7104zm5.7104 0h5.7104v5.7104h-5.7104zm17.131 0h5.7104v5.7104h-5.7104zm39.973 0h5.7104v5.7104h-5.7104zm11.421 0h5.7104v5.7104h-5.7104zm5.7104 0h5.7104v5.7104h-5.7104zm5.7104 0h5.7104v5.7104h-5.7104zm5.7104 0h5.7104v5.7104h-5.7104zm5.7104 0h5.7104v5.7104h-5.7104zm5.7104 0h5.7104v5.7104h-5.7104zm5.7104 0h5.7104v5.7104h-5.7104zm-274.1 5.7104h5.7104v5.7104h-5.7104zm34.262 0h5.7104v5.7104h-5.7104zm11.421 0h5.7104v5.7104h-5.7104zm5.7104 0h5.7104v5.7104h-5.7104zm5.7104 0h5.7104v5.7104h-5.7104zm22.842 0h5.7104v5.7104h-5.7104zm17.131 0h5.7104v5.7104h-5.7104zm5.7104 0h5.7104v5.7104h-5.7104zm5.7104 0h5.7104v5.7104h-5.7104zm11.421 0h5.7104v5.7104h-5.7104zm5.7104 0h5.7104v5.7104h-5.7104zm5.7104 0h5.7104v5.7104h-5.7104zm5.7104 0h5.7104v5.7104h-5.7104zm5.7104 0h5.7104v5.7104h-5.7104zm17.131 0h5.7104v5.7104h-5.7104zm11.421 0h5.7104v5.7104h-5.7104zm5.7104 0h5.7104v5.7104h-5.7104zm11.421 0h5.7104v5.7104h-5.7104zm5.7104 0h5.7104v5.7104h-5.7104zm17.131 0h5.7104v5.7104h-5.7104zm5.7104 0h5.7104v5.7104h-5.7104zm5.7104 0h5.7104v5.7104h-5.7104zm5.7104 0h5.7104v5.7104h-5.7104zm11.421 0h5.7104v5.7104h-5.7104zm34.262 0h5.7104v5.7104h-5.7104zm-274.1 5.7104h5.7104v5.7104h-5.7104zm11.421 0h5.7104v5.7104h-5.7104zm5.7104 0h5.7104v5.7104h-5.7104zm5.7104 0h5.7104v5.7104h-5.7104zm11.421 0h5.7104v5.7104h-5.7104zm11.421 0h5.7104v5.7104h-5.7104zm17.131 0h5.7104v5.7104h-5.7104zm11.421 0h5.7104v5.7104h-5.7104zm22.842 0h5.7104v5.7104h-5.7104zm5.7104 0h5.7104v5.7104h-5.7104zm11.421 0h5.7104v5.7104h-5.7104zm5.7104 0h5.7104v5.7104h-5.7104zm11.421 0h5.7104v5.7104h-5.7104zm5.7104 0h5.7104v5.7104h-5.7104zm5.7104 0h5.7104v5.7104h-5.7104zm5.7104 0h5.7104v5.7104h-5.7104zm22.842 0h5.7104v5.7104h-5.7104zm5.7104 0h5.7104v5.7104h-5.7104zm17.131 0h5.7104v5.7104h-5.7104zm5.7104 0h5.7104v5.7104h-5.7104zm22.842 0h5.7104v5.7104h-5.7104zm5.7104 0h5.7104v5.7104h-5.7104zm11.421 0h5.7104v5.7104h-5.7104zm11.421 0h5.7104v5.7104h-5.7104zm5.7104 0h5.7104v5.7104h-5.7104zm5.7104 0h5.7104v5.7104h-5.7104zm11.421 0h5.7104v5.7104h-5.7104zm-274.1 5.7104h5.7104v5.7104h-5.7104zm11.421 0h5.7104v5.7104h-5.7104zm5.7104 0h5.7104v5.7104h-5.7104zm5.7104 0h5.7104v5.7104h-5.7104zm11.421 0h5.7104v5.7104h-5.7104zm22.842 0h5.7104v5.7104h-5.7104zm5.7104 0h5.7104v5.7104h-5.7104zm11.421 0h5.7104v5.7104h-5.7104zm5.7104 0h5.7104v5.7104h-5.7104zm5.7104 0h5.7104v5.7104h-5.7104zm5.7104 0h5.7104v5.7104h-5.7104zm11.421 0h5.7104v5.7104h-5.7104zm11.421 0h5.7104v5.7104h-5.7104zm5.7104 0h5.7104v5.7104h-5.7104zm5.7104 0h5.7104v5.7104h-5.7104zm5.7104 0h5.7104v5.7104h-5.7104zm11.421 0h5.7104v5.7104h-5.7104zm5.7104 0h5.7104v5.7104h-5.7104zm11.421 0h5.7104v5.7104h-5.7104zm22.842 0h5.7104v5.7104h-5.7104zm17.131 0h5.7104v5.7104h-5.7104zm5.7104 0h5.7104v5.7104h-5.7104zm5.7104 0h5.7104v5.7104h-5.7104zm11.421 0h5.7104v5.7104h-5.7104zm17.131 0h5.7104v5.7104h-5.7104zm11.421 0h5.7104v5.7104h-5.7104zm5.7104 0h5.7104v5.7104h-5.7104zm5.7104 0h5.7104v5.7104h-5.7104zm11.421 0h5.7104v5.7104h-5.7104zm-274.1 5.7104h5.7104v5.7104h-5.7104zm11.421 0h5.7104v5.7104h-5.7104z
             m5.7104 0h5.7104v5.7104h-5.7104zm5.7104 0h5.7104v5.7104h-5.7104zm11.421 0h5.7104v5.7104h-5.7104zm39.973 0h5.7104v5.7104h-5.7104zm5.7104 0h5.7104v5.7104h-5.7104zm5.7104 0h5.7104v5.7104h-5.7104zm5.7104 0h5.7104v5.7104h-5.7104zm22.842 0h5.7104v5.7104h-5.7104zm5.7104 0h5.7104v5.7104h-5.7104zm5.7104 0h5.7104v5.7104h-5.7104zm5.7104 0h5.7104v5.7104h-5.7104zm5.7104 0h5.7104v5.7104h-5.7104zm5.7104 0h5.7104v5.7104h-5.7104zm5.7104 0h5.7104v5.7104h-5.7104zm5.7104 0h5.7104v5.7104h-5.7104zm5.7104 0h5.7104v5.7104h-5.7104zm11.421 0h5.7104v5.7104h-5.7104zm5.7104 0h5.7104v5.7104h-5.7104zm5.7104 0h5.7104v5.7104h-5.7104zm17.131 0h5.7104v5.7104h-5.7104zm11.421 0h5.7104v5.7104h-5.7104zm28.552 0h5.7104v5.7104h-5.7104zm11.421 0h5.7104v5.7104h-5.7104zm5.7104 0h5.7104v5.7104h-5.7104zm5.7104 0h5.7104v5.7104h-5.7104zm11.421 0h5.7104v5.7104h-5.7104zm-274.1 5.7104h5.7104v5.7104h-5.7104zm34.262 0h5.7104v5.7104h-5.7104zm11.421 0h5.7104v5.7104h-5.7104zm22.842 0h5.7104v5.7104h-5.7104zm5.7104 0h5.7104v5.7104h-5.7104zm11.421 0h5.7104v5.7104h-5.7104zm17.131 0h5.7104v5.7104h-5.7104zm5.7104 0h5.7104v5.7104h-5.7104zm11.421 0h5.7104v5.7104h-5.7104zm5.7104 0h5.7104v5.7104h-5.7104zm22.842 0h5.7104v5.7104h-5.7104zm11.421 0h5.7104v5.7104h-5.7104zm5.7104 0h5.7104v5.7104h-5.7104zm11.421 0h5.7104v5.7104h-5.7104zm5.7104 0h5.7104v5.7104h-5.7104zm5.7104 0h5.7104v5.7104h-5.7104zm5.7104 0h5.7104v5.7104h-5.7104zm5.7104 0h5.7104v5.7104h-5.7104zm5.7104 0h5.7104v5.7104h-5.7104zm11.421 0h5.7104v5.7104h-5.7104zm22.842 0h5.7104v5.7104h-5.7104zm34.262 0h5.7104v5.7104h-5.7104zm-274.1 5.7104h5.7104v5.7104h-5.7104zm5.7104 0h5.7104v5.7104h-5.7104zm5.7104 0h5.7104v5.7104h-5.7104zm5.7104 0h5.7104v5.7104h-5.7104zm5.7104 0h5.7104v5.7104h-5.7104zm5.7104 0h5.7104v5.7104h-5.7104zm5.7104 0h5.7104v5.7104h-5.7104zm11.421 0h5.7104v5.7104h-5.7104zm11.421 0h5.7104v5.7104h-5.7104zm11.421 0h5.7104v5.7104h-5.7104zm11.421 0h5.7104v5.7104h-5.7104zm11.421 0h5.7104v5.7104h-5.7104zm11.421 0h5.7104v5.7104h-5.7104zm11.421 0h5.7104v5.7104h-5.7104zm11.421 0h5.7104v5.7104h-5.7104zm11.421 0h5.7104v5.7104h-5.7104zm11.421 0h5.7104v5.7104h-5.7104zm11.421 0h5.7104v5.7104h-5.7104zm11.421 0h5.7104v5.7104h-5.7104zm11.421 0h5.7104v5.7104h-5.7104zm11.421 0h5.7104v5.7104h-5.7104zm11.421 0h5.7104v5.7104h-5.7104zm11.421 0h5.7104v5.7104h-5.7104zm11.421 0h5.7104v5.7104h-5.7104zm11.421 0h5.7104v5.7104h-5.7104zm5.7104 0h5.7104v5.7104h-5.7104zm5.7104 0h5.7104v5.7104h-5.7104zm5.7104 0h5.7104v5.7104h-5.7104zm5.7104 0h5.7104v5.7104h-5.7104zm5.7104 0h5.7104v5.7104h-5.7104zm5.7104 0h5.7104v5.7104h-5.7104zm-228.42 5.7104h5.7104v5.7104h-5.7104zm11.421 0h5.7104v5.7104h-5.7104zm28.552 0h5.7104v5.7104h-5.7104zm5.7104 0h5.7104v5.7104h-5.7104zm11.421 0h5.7104v5.7104h-5.7104zm5.7104 0h5.7104v5.7104h-5.7104zm17.131 0h5.7104v5.7104h-5.7104zm22.842 0h5.7104v5.7104h-5.7104zm11.421 0h5.7104v5.7104h-5.7104zm11.421 0h5.7104v5.7104h-5.7104zm11.421 0h5.7104v5.7104h-5.7104zm11.421 0h5.7104v5.7104h-5.7104zm11.421 0h5.7104v5.7104h-5.7104zm5.7104 0h5.7104v5.7104h-5.7104zm5.7104 0h5.7104v5.7104h-5.7104zm5.7104 0h5.7104v5.7104h-5.7104zm5.7104 0h5.7104v5.7104h-5.7104zm-217 5.7104h5.7104v5.7104h-5.7104zm5.7104 0h5.7104v5.7104h-5.7104zm5.7104 0h5.7104v5.7104h-5.7104zm11.421 0h5.7104v5.7104h-5.7104zm11.421 0h5.7104v5.7104h-5.7104zm5.7104 0h5.7104v5.7104h-5.7104zm5.7104 0h5.7104v5.7104h-5.7104zm51.394 0h5.7104v5.7104h-5.7104zm5.7104 0h5.7104v5.7104h-5.7104zm11.421 0h5.7104v5.7104h-5.7104zm5.7104 0h5.7104v5.7104h-5.7104zm5.7104 0h5.7104v5.7104h-5.7104zm5.7104 0h5.7104v5.7104h-5.7104zm5.7104 0h5.7104v5.7104h-5.7104zm5.7104 0h5.7104v5.7104h-5.7104zm5.7104 0h
             5.7104v5.7104h-5.7104zm5.7104 0h5.7104v5.7104h-5.7104zm34.262 0h5.7104v5.7104h-5.7104zm11.421 0h5.7104v5.7104h-5.7104zm11.421 0h5.7104v5.7104h-5.7104zm5.7104 0h5.7104v5.7104h-5.7104zm5.7104 0h5.7104v5.7104h-5.7104zm5.7104 0h5.7104v5.7104h-5.7104zm5.7104 0h5.7104v5.7104h-5.7104zm17.131 0h5.7104v5.7104h-5.7104zm5.7104 0h5.7104v5.7104h-5.7104zm5.7104 0h5.7104v5.7104h-5.7104zm-251.26 5.7104h5.7104v5.7104h-5.7104zm17.131 0h5.7104v5.7104h-5.7104zm11.421 0h5.7104v5.7104h-5.7104zm5.7104 0h5.7104v5.7104h-5.7104zm17.131 0h5.7104v5.7104h-5.7104zm5.7104 0h5.7104v5.7104h-5.7104zm5.7104 0h5.7104v5.7104h-5.7104zm11.421 0h5.7104v5.7104h-5.7104zm5.7104 0h5.7104v5.7104h-5.7104zm5.7104 0h5.7104v5.7104h-5.7104zm11.421 0h5.7104v5.7104h-5.7104zm17.131 0h5.7104v5.7104h-5.7104zm5.7104 0h5.7104v5.7104h-5.7104zm5.7104 0h5.7104v5.7104h-5.7104zm11.421 0h5.7104v5.7104h-5.7104zm51.394 0h5.7104v5.7104h-5.7104zm11.421 0h5.7104v5.7104h-5.7104zm11.421 0h5.7104v5.7104h-5.7104zm5.7104 0h5.7104v5.7104h-5.7104zm5.7104 0h5.7104v5.7104h-5.7104zm-222.71 5.7104h5.7104v5.7104h-5.7104zm5.7104 0h5.7104v5.7104h-5.7104zm5.7104 0h5.7104v5.7104h-5.7104zm5.7104 0h5.7104v5.7104h-5.7104zm5.7104 0h5.7104v5.7104h-5.7104zm5.7104 0h5.7104v5.7104h-5.7104zm17.131 0h5.7104v5.7104h-5.7104zm11.421 0h5.7104v5.7104h-5.7104zm5.7104 0h5.7104v5.7104h-5.7104zm22.842 0h5.7104v5.7104h-5.7104zm5.7104 0h5.7104v5.7104h-5.7104zm5.7104 0h5.7104v5.7104h-5.7104zm5.7104 0h5.7104v5.7104h-5.7104zm22.842 0h5.7104v5.7104h-5.7104zm11.421 0h5.7104v5.7104h-5.7104zm11.421 0h5.7104v5.7104h-5.7104zm5.7104 0h5.7104v5.7104h-5.7104zm5.7104 0h5.7104v5.7104h-5.7104zm5.7104 0h5.7104v5.7104h-5.7104zm5.7104 0h5.7104v5.7104h-5.7104zm5.7104 0h5.7104v5.7104h-5.7104zm17.131 0h5.7104v5.7104h-5.7104zm34.262 0h5.7104v5.7104h-5.7104zm17.131 0h5.7104v5.7104h-5.7104zm5.7104 0h5.7104v5.7104h-5.7104zm-274.1 5.7104h5.7104v5.7104h-5.7104zm5.7104 0h5.7104v5.7104h-5.7104zm5.7104 0h5.7104v5.7104h-5.7104zm28.552 0h5.7104v5.7104h-5.7104zm5.7104 0h5.7104v5.7104h-5.7104zm28.552 0h5.7104v5.7104h-5.7104zm5.7104 0h5.7104v5.7104h-5.7104zm5.7104 0h5.7104v5.7104h-5.7104zm17.131 0h5.7104v5.7104h-5.7104zm22.842 0h5.7104v5.7104h-5.7104zm5.7104 0h5.7104v5.7104h-5.7104zm11.421 0h5.7104v5.7104h-5.7104zm5.7104 0h5.7104v5.7104h-5.7104zm17.131 0h5.7104v5.7104h-5.7104zm17.131 0h5.7104v5.7104h-5.7104zm11.421 0h5.7104v5.7104h-5.7104zm17.131 0h5.7104v5.7104h-5.7104zm17.131 0h5.7104v5.7104h-5.7104zm5.7104 0h5.7104v5.7104h-5.7104zm17.131 0h5.7104v5.7104h-5.7104zm17.131 0h5.7104v5.7104h-5.7104zm5.7104 0h5.7104v5.7104h-5.7104zm-274.1 5.7104h5.7104v5.7104h-5.7104zm5.7104 0h5.7104v5.7104h-5.7104zm17.131 0h5.7104v5.7104h-5.7104zm5.7104 0h5.7104v5.7104h-5.7104zm5.7104 0h5.7104v5.7104h-5.7104zm5.7104 0h5.7104v5.7104h-5.7104zm5.7104 0h5.7104v5.7104h-5.7104zm5.7104 0h5.7104v5.7104h-5.7104zm17.131 0h5.7104v5.7104h-5.7104zm5.7104 0h5.7104v5.7104h-5.7104zm5.7104 0h5.7104v5.7104h-5.7104zm22.842 0h5.7104v5.7104h-5.7104zm11.421 0h5.7104v5.7104h-5.7104zm5.7104 0h5.7104v5.7104h-5.7104zm5.7104 0h5.7104v5.7104h-5.7104zm5.7104 0h5.7104v5.7104h-5.7104zm5.7104 0h5.7104v5.7104h-5.7104zm11.421 0h5.7104v5.7104h-5.7104zm5.7104 0h5.7104v5.7104h-5.7104zm5.7104 0h5.7104v5.7104h-5.7104zm5.7104 0h5.7104v5.7104h-5.7104zm11.421 0h5.7104v5.7104h-5.7104zm17.131 0h5.7104v5.7104h-5.7104zm5.7104 0h5.7104v5.7104h-5.7104zm5.7104 0h5.7104v5.7104h-5.7104zm17.131 0h5.7104v5.7104h-5.7104zm5.7104 0h5.7104v5.7104h-5.7104zm17.131 0h5.7104v5.7104h-5.7104zm17.131 0h5.7104v5.7104h-5.7104zm5.7104 0h5.7104v5.7104h-5.7104zm-268.39 5.7104h5.7104v5.7104h-5.7104zm17.131 0h5.7104v5.7104h-5.7104zm11.421 0h5.7104v
             5.7104h-5.7104zm11.421 0h5.7104v5.7104h-5.7104zm5.7104 0h5.7104v5.7104h-5.7104zm11.421 0h5.7104v5.7104h-5.7104zm17.131 0h5.7104v5.7104h-5.7104zm17.131 0h5.7104v5.7104h-5.7104zm11.421 0h5.7104v5.7104h-5.7104zm17.131 0h5.7104v5.7104h-5.7104zm11.421 0h5.7104v5.7104h-5.7104zm11.421 0h5.7104v5.7104h-5.7104zm28.552 0h5.7104v5.7104h-5.7104zm5.7104 0h5.7104v5.7104h-5.7104zm5.7104 0h5.7104v5.7104h-5.7104zm22.842 0h5.7104v5.7104h-5.7104zm5.7104 0h5.7104v5.7104h-5.7104zm11.421 0h5.7104v5.7104h-5.7104zm11.421 0h5.7104v5.7104h-5.7104zm5.7104 0h5.7104v5.7104h-5.7104zm5.7104 0h5.7104v5.7104h-5.7104zm11.421 0h5.7104v5.7104h-5.7104zm-256.97 5.7104h5.7104v5.7104h-5.7104zm5.7104 0h5.7104v5.7104h-5.7104zm5.7104 0h5.7104v5.7104h-5.7104zm17.131 0h5.7104v5.7104h-5.7104zm5.7104 0h5.7104v5.7104h-5.7104zm11.421 0h5.7104v5.7104h-5.7104zm5.7104 0h5.7104v5.7104h-5.7104zm17.131 0h5.7104v5.7104h-5.7104zm11.421 0h5.7104v5.7104h-5.7104zm17.131 0h5.7104v5.7104h-5.7104zm17.131 0h5.7104v5.7104h-5.7104zm22.842 0h5.7104v5.7104h-5.7104zm11.421 0h5.7104v5.7104h-5.7104zm5.7104 0h5.7104v5.7104h-5.7104zm5.7104 0h5.7104v5.7104h-5.7104zm5.7104 0h5.7104v5.7104h-5.7104zm17.131 0h5.7104v5.7104h-5.7104zm5.7104 0h5.7104v5.7104h-5.7104zm5.7104 0h5.7104v5.7104h-5.7104zm5.7104 0h5.7104v5.7104h-5.7104zm17.131 0h5.7104v5.7104h-5.7104zm5.7104 0h5.7104v5.7104h-5.7104zm5.7104 0h5.7104v5.7104h-5.7104zm17.131 0h5.7104v5.7104h-5.7104zm5.7104 0h5.7104v5.7104h-5.7104zm17.131 0h5.7104v5.7104h-5.7104zm5.7104 0h5.7104v5.7104h-5.7104zm-268.39 5.7104h5.7104v5.7104h-5.7104zm5.7104 0h5.7104v5.7104h-5.7104zm5.7104 0h5.7104v5.7104h-5.7104zm5.7104 0h5.7104v5.7104h-5.7104zm22.842 0h5.7104v5.7104h-5.7104zm5.7104 0h5.7104v5.7104h-5.7104zm5.7104 0h5.7104v5.7104h-5.7104zm17.131 0h5.7104v5.7104h-5.7104zm22.842 0h5.7104v5.7104h-5.7104zm5.7104 0h5.7104v5.7104h-5.7104zm5.7104 0h5.7104v5.7104h-5.7104zm5.7104 0h5.7104v5.7104h-5.7104zm11.421 0h5.7104v5.7104h-5.7104zm22.842 0h5.7104v5.7104h-5.7104zm39.973 0h5.7104v5.7104h-5.7104zm34.262 0h5.7104v5.7104h-5.7104zm5.7104 0h5.7104v5.7104h-5.7104zm5.7104 0h5.7104v5.7104h-5.7104zm17.131 0h5.7104v5.7104h-5.7104zm5.7104 0h5.7104v5.7104h-5.7104zm11.421 0h5.7104v5.7104h-5.7104zm5.7104 0h5.7104v5.7104h-5.7104zm-274.1 5.7104h5.7104v5.7104h-5.7104zm11.421 0h5.7104v5.7104h-5.7104zm17.131 0h5.7104v5.7104h-5.7104zm5.7104 0h5.7104v5.7104h-5.7104zm17.131 0h5.7104v5.7104h-5.7104zm17.131 0h5.7104v5.7104h-5.7104zm11.421 0h5.7104v5.7104h-5.7104zm28.552 0h5.7104v5.7104h-5.7104zm22.842 0h5.7104v5.7104h-5.7104zm5.7104 0h5.7104v5.7104h-5.7104zm5.7104 0h5.7104v5.7104h-5.7104zm11.421 0h5.7104v5.7104h-5.7104zm11.421 0h5.7104v5.7104h-5.7104zm5.7104 0h5.7104v5.7104h-5.7104zm5.7104 0h5.7104v5.7104h-5.7104zm5.7104 0h5.7104v5.7104h-5.7104zm22.842 0h5.7104v5.7104h-5.7104zm5.7104 0h5.7104v5.7104h-5.7104zm11.421 0h5.7104v5.7104h-5.7104zm22.842 0h5.7104v5.7104h-5.7104zm-245.55 5.7104h5.7104v5.7104h-5.7104zm11.421 0h5.7104v5.7104h-5.7104zm5.7104 0h5.7104v5.7104h-5.7104zm34.262 0h5.7104v5.7104h-5.7104zm28.552 0h5.7104v5.7104h-5.7104zm5.7104 0h5.7104v5.7104h-5.7104zm11.421 0h5.7104v5.7104h-5.7104zm5.7104 0h5.7104v5.7104h-5.7104zm11.421 0h5.7104v5.7104h-5.7104zm17.131 0h5.7104v5.7104h-5.7104zm17.131 0h5.7104v5.7104h-5.7104zm5.7104 0h5.7104v5.7104h-5.7104zm5.7104 0h5.7104v5.7104h-5.7104zm5.7104 0h5.7104v5.7104h-5.7104zm11.421 0h5.7104v5.7104h-5.7104zm5.7104 0h5.7104v5.7104h-5.7104zm5.7104 0h5.7104v5.7104h-5.7104zm17.131 0h5.7104v5.7104h-5.7104zm22.842 0h5.7104v5.7104h-5.7104zm5.7104 0h5.7104v5.7104h-5.7104zm17.131 0h5.7104v5.7104h-5.7104zm5.7104 0h5.7104v5.7104h-5.7104zm5.7104 0h5.7104v5.7104h-5.7104z
             m-262.68 5.7104h5.7104v5.7104h-5.7104zm17.131 0h5.7104v5.7104h-5.7104zm5.7104 0h5.7104v5.7104h-5.7104zm11.421 0h5.7104v5.7104h-5.7104zm5.7104 0h5.7104v5.7104h-5.7104zm22.842 0h5.7104v5.7104h-5.7104zm11.421 0h5.7104v5.7104h-5.7104zm17.131 0h5.7104v5.7104h-5.7104zm11.421 0h5.7104v5.7104h-5.7104zm11.421 0h5.7104v5.7104h-5.7104zm17.131 0h5.7104v5.7104h-5.7104zm17.131 0h5.7104v5.7104h-5.7104zm5.7104 0h5.7104v5.7104h-5.7104zm5.7104 0h5.7104v5.7104h-5.7104zm11.421 0h5.7104v5.7104h-5.7104zm11.421 0h5.7104v5.7104h-5.7104zm17.131 0h5.7104v5.7104h-5.7104zm5.7104 0h5.7104v5.7104h-5.7104zm5.7104 0h5.7104v5.7104h-5.7104zm11.421 0h5.7104v5.7104h-5.7104zm5.7104 0h5.7104v5.7104h-5.7104zm11.421 0h5.7104v5.7104h-5.7104zm5.7104 0h5.7104v5.7104h-5.7104zm5.7104 0h5.7104v5.7104h-5.7104zm5.7104 0h5.7104v5.7104h-5.7104zm11.421 0h5.7104v5.7104h-5.7104zm5.7104 0h5.7104v5.7104h-5.7104zm-268.39 5.7104h5.7104v5.7104h-5.7104zm5.7104 0h5.7104v5.7104h-5.7104zm11.421 0h5.7104v5.7104h-5.7104zm22.842 0h5.7104v5.7104h-5.7104zm11.421 0h5.7104v5.7104h-5.7104zm5.7104 0h5.7104v5.7104h-5.7104zm5.7104 0h5.7104v5.7104h-5.7104zm5.7104 0h5.7104v5.7104h-5.7104zm5.7104 0h5.7104v5.7104h-5.7104zm17.131 0h5.7104v5.7104h-5.7104zm5.7104 0h5.7104v5.7104h-5.7104zm5.7104 0h5.7104v5.7104h-5.7104zm11.421 0h5.7104v5.7104h-5.7104zm5.7104 0h5.7104v5.7104h-5.7104zm5.7104 0h5.7104v5.7104h-5.7104zm5.7104 0h5.7104v5.7104h-5.7104zm11.421 0h5.7104v5.7104h-5.7104zm62.814 0h5.7104v5.7104h-5.7104zm5.7104 0h5.7104v5.7104h-5.7104zm11.421 0h5.7104v5.7104h-5.7104zm11.421 0h5.7104v5.7104h-5.7104zm5.7104 0h5.7104v5.7104h-5.7104zm5.7104 0h5.7104v5.7104h-5.7104zm17.131 0h5.7104v5.7104h-5.7104zm5.7104 0h5.7104v5.7104h-5.7104zm-274.1 5.7104h5.7104v5.7104h-5.7104zm28.552 0h5.7104v5.7104h-5.7104zm5.7104 0h5.7104v5.7104h-5.7104zm5.7104 0h5.7104v5.7104h-5.7104zm11.421 0h5.7104v5.7104h-5.7104zm17.131 0h5.7104v5.7104h-5.7104zm11.421 0h5.7104v5.7104h-5.7104zm28.552 0h5.7104v5.7104h-5.7104zm5.7104 0h5.7104v5.7104h-5.7104zm5.7104 0h5.7104v5.7104h-5.7104zm5.7104 0h5.7104v5.7104h-5.7104zm11.421 0h5.7104v5.7104h-5.7104zm5.7104 0h5.7104v5.7104h-5.7104zm17.131 0h5.7104v5.7104h-5.7104zm11.421 0h5.7104v5.7104h-5.7104zm22.842 0h5.7104v5.7104h-5.7104zm11.421 0h5.7104v5.7104h-5.7104zm5.7104 0h5.7104v5.7104h-5.7104zm5.7104 0h5.7104v5.7104h-5.7104zm11.421 0h5.7104v5.7104h-5.7104zm11.421 0h5.7104v5.7104h-5.7104zm5.7104 0h5.7104v5.7104h-5.7104zm17.131 0h5.7104v5.7104h-5.7104zm5.7104 0h5.7104v5.7104h-5.7104zm5.7104 0h5.7104v5.7104h-5.7104zm-268.39 5.7104h5.7104v5.7104h-5.7104zm11.421 0h5.7104v5.7104h-5.7104zm5.7104 0h5.7104v5.7104h-5.7104zm17.131 0h5.7104v5.7104h-5.7104zm5.7104 0h5.7104v5.7104h-5.7104zm11.421 0h5.7104v5.7104h-5.7104zm5.7104 0h5.7104v5.7104h-5.7104zm11.421 0h5.7104v5.7104h-5.7104zm5.7104 0h5.7104v5.7104h-5.7104zm5.7104 0h5.7104v5.7104h-5.7104zm28.552 0h5.7104v5.7104h-5.7104zm5.7104 0h5.7104v5.7104h-5.7104zm5.7104 0h5.7104v5.7104h-5.7104zm5.7104 0h5.7104v5.7104h-5.7104zm5.7104 0h5.7104v5.7104h-5.7104zm17.131 0h5.7104v5.7104h-5.7104zm17.131 0h5.7104v5.7104h-5.7104zm17.131 0h5.7104v5.7104h-5.7104zm17.131 0h5.7104v5.7104h-5.7104zm28.552 0h5.7104v5.7104h-5.7104zm5.7104 0h5.7104v5.7104h-5.7104zm22.842 0h5.7104v5.7104h-5.7104zm-256.97 5.7104h5.7104v5.7104h-5.7104zm11.421 0h5.7104v5.7104h-5.7104zm5.7104 0h5.7104v5.7104h-5.7104zm5.7104 0h5.7104v5.7104h-5.7104zm5.7104 0h5.7104v5.7104h-5.7104zm5.7104 0h5.7104v5.7104h-5.7104zm5.7104 0h5.7104v5.7104h-5.7104zm11.421 0h5.7104v5.7104h-5.7104zm5.7104 0h5.7104v5.7104h-5.7104zm22.842 0h5.7104v5.7104h-5.7104zm11.421 0h5.7104v5.7104h-5.7104zm17.131 0h5.7104v5.7104h-5.7104zm
             5.7104 0h5.7104v5.7104h-5.7104zm5.7104 0h5.7104v5.7104h-5.7104zm5.7104 0h5.7104v5.7104h-5.7104zm5.7104 0h5.7104v5.7104h-5.7104zm5.7104 0h5.7104v5.7104h-5.7104zm5.7104 0h5.7104v5.7104h-5.7104zm11.421 0h5.7104v5.7104h-5.7104zm5.7104 0h5.7104v5.7104h-5.7104zm5.7104 0h5.7104v5.7104h-5.7104zm5.7104 0h5.7104v5.7104h-5.7104zm5.7104 0h5.7104v5.7104h-5.7104zm5.7104 0h5.7104v5.7104h-5.7104zm5.7104 0h5.7104v5.7104h-5.7104zm5.7104 0h5.7104v5.7104h-5.7104zm17.131 0h5.7104v5.7104h-5.7104zm5.7104 0h5.7104v5.7104h-5.7104zm5.7104 0h5.7104v5.7104h-5.7104zm5.7104 0h5.7104v5.7104h-5.7104zm5.7104 0h5.7104v5.7104h-5.7104zm5.7104 0h5.7104v5.7104h-5.7104zm5.7104 0h5.7104v5.7104h-5.7104zm5.7104 0h5.7104v5.7104h-5.7104zm11.421 0h5.7104v5.7104h-5.7104zm5.7104 0h5.7104v5.7104h-5.7104zm-262.68 5.7104h5.7104v5.7104h-5.7104zm11.421 0h5.7104v5.7104h-5.7104zm22.842 0h5.7104v5.7104h-5.7104zm11.421 0h5.7104v5.7104h-5.7104zm5.7104 0h5.7104v5.7104h-5.7104zm5.7104 0h5.7104v5.7104h-5.7104zm5.7104 0h5.7104v5.7104h-5.7104zm5.7104 0h5.7104v5.7104h-5.7104zm5.7104 0h5.7104v5.7104h-5.7104zm11.421 0h5.7104v5.7104h-5.7104zm28.552 0h5.7104v5.7104h-5.7104zm22.842 0h5.7104v5.7104h-5.7104zm17.131 0h5.7104v5.7104h-5.7104zm28.552 0h5.7104v5.7104h-5.7104zm5.7104 0h5.7104v5.7104h-5.7104zm11.421 0h5.7104v5.7104h-5.7104zm5.7104 0h5.7104v5.7104h-5.7104zm11.421 0h5.7104v5.7104h-5.7104zm22.842 0h5.7104v5.7104h-5.7104zm17.131 0h5.7104v5.7104h-5.7104zm5.7104 0h5.7104v5.7104h-5.7104zm-268.39 5.7104h5.7104v5.7104h-5.7104zm11.421 0h5.7104v5.7104h-5.7104zm5.7104 0h5.7104v5.7104h-5.7104zm11.421 0h5.7104v5.7104h-5.7104zm11.421 0h5.7104v5.7104h-5.7104zm17.131 0h5.7104v5.7104h-5.7104zm11.421 0h5.7104v5.7104h-5.7104zm17.131 0h5.7104v5.7104h-5.7104zm11.421 0h5.7104v5.7104h-5.7104zm17.131 0h5.7104v5.7104h-5.7104zm5.7104 0h5.7104v5.7104h-5.7104zm11.421 0h5.7104v5.7104h-5.7104zm11.421 0h5.7104v5.7104h-5.7104zm5.7104 0h5.7104v5.7104h-5.7104zm5.7104 0h5.7104v5.7104h-5.7104zm5.7104 0h5.7104v5.7104h-5.7104zm5.7104 0h5.7104v5.7104h-5.7104zm5.7104 0h5.7104v5.7104h-5.7104zm5.7104 0h5.7104v5.7104h-5.7104zm11.421 0h5.7104v5.7104h-5.7104zm5.7104 0h5.7104v5.7104h-5.7104zm5.7104 0h5.7104v5.7104h-5.7104zm5.7104 0h5.7104v5.7104h-5.7104zm5.7104 0h5.7104v5.7104h-5.7104zm5.7104 0h5.7104v5.7104h-5.7104zm5.7104 0h5.7104v5.7104h-5.7104zm11.421 0h5.7104v5.7104h-5.7104zm11.421 0h5.7104v5.7104h-5.7104zm11.421 0h5.7104v5.7104h-5.7104zm5.7104 0h5.7104v5.7104h-5.7104zm5.7104 0h5.7104v5.7104h-5.7104zm-274.1 5.7104h5.7104v5.7104h-5.7104zm11.421 0h5.7104v5.7104h-5.7104zm11.421 0h5.7104v5.7104h-5.7104zm22.842 0h5.7104v5.7104h-5.7104zm5.7104 0h5.7104v5.7104h-5.7104zm5.7104 0h5.7104v5.7104h-5.7104zm28.552 0h5.7104v5.7104h-5.7104zm5.7104 0h5.7104v5.7104h-5.7104zm5.7104 0h5.7104v5.7104h-5.7104zm5.7104 0h5.7104v5.7104h-5.7104zm11.421 0h5.7104v5.7104h-5.7104zm11.421 0h5.7104v5.7104h-5.7104zm22.842 0h5.7104v5.7104h-5.7104zm34.262 0h5.7104v5.7104h-5.7104zm17.131 0h5.7104v5.7104h-5.7104zm5.7104 0h5.7104v5.7104h-5.7104zm5.7104 0h5.7104v5.7104h-5.7104zm11.421 0h5.7104v5.7104h-5.7104zm5.7104 0h5.7104v5.7104h-5.7104zm22.842 0h5.7104v5.7104h-5.7104zm11.421 0h5.7104v5.7104h-5.7104zm11.421 0h5.7104v5.7104h-5.7104zm-274.1 5.7104h5.7104v5.7104h-5.7104zm5.7104 0h5.7104v5.7104h-5.7104zm11.421 0h5.7104v5.7104h-5.7104zm5.7104 0h5.7104v5.7104h-5.7104zm5.7104 0h5.7104v5.7104h-5.7104zm5.7104 0h5.7104v5.7104h-5.7104zm5.7104 0h5.7104v5.7104h-5.7104zm5.7104 0h5.7104v5.7104h-5.7104zm11.421 0h5.7104v5.7104h-5.7104zm5.7104 0h5.7104v5.7104h-5.7104zm11.421 0h5.7104v5.7104h-5.7104zm5.7104 0h5.7104v5.7104h-5.7104zm5.7104 0h5.7104v5.7104h-5.7104zm5.7104 0h5.7104v
             5.7104h-5.7104zm5.7104 0h5.7104v5.7104h-5.7104zm5.7104 0h5.7104v5.7104h-5.7104zm17.131 0h5.7104v5.7104h-5.7104zm5.7104 0h5.7104v5.7104h-5.7104zm5.7104 0h5.7104v5.7104h-5.7104zm5.7104 0h5.7104v5.7104h-5.7104zm5.7104 0h5.7104v5.7104h-5.7104zm5.7104 0h5.7104v5.7104h-5.7104zm11.421 0h5.7104v5.7104h-5.7104zm17.131 0h5.7104v5.7104h-5.7104zm5.7104 0h5.7104v5.7104h-5.7104zm11.421 0h5.7104v5.7104h-5.7104zm22.842 0h5.7104v5.7104h-5.7104zm5.7104 0h5.7104v5.7104h-5.7104zm5.7104 0h5.7104v5.7104h-5.7104zm5.7104 0h5.7104v5.7104h-5.7104zm5.7104 0h5.7104v5.7104h-5.7104zm5.7104 0h5.7104v5.7104h-5.7104zm5.7104 0h5.7104v5.7104h-5.7104zm5.7104 0h5.7104v5.7104h-5.7104zm5.7104 0h5.7104v5.7104h-5.7104zm5.7104 0h5.7104v5.7104h-5.7104zm-268.39 5.7104h5.7104v5.7104h-5.7104zm22.842 0h5.7104v5.7104h-5.7104zm39.973 0h5.7104v5.7104h-5.7104zm5.7104 0h5.7104v5.7104h-5.7104zm17.131 0h5.7104v5.7104h-5.7104zm22.842 0h5.7104v5.7104h-5.7104zm11.421 0h5.7104v5.7104h-5.7104zm5.7104 0h5.7104v5.7104h-5.7104zm34.262 0h5.7104v5.7104h-5.7104zm5.7104 0h5.7104v5.7104h-5.7104zm22.842 0h5.7104v5.7104h-5.7104zm11.421 0h5.7104v5.7104h-5.7104zm34.262 0h5.7104v5.7104h-5.7104zm11.421 0h5.7104v5.7104h-5.7104zm11.421 0h5.7104v5.7104h-5.7104zm-256.97 5.7104h5.7104v5.7104h-5.7104zm5.7104 0h5.7104v5.7104h-5.7104zm17.131 0h5.7104v5.7104h-5.7104zm11.421 0h5.7104v5.7104h-5.7104zm5.7104 0h5.7104v5.7104h-5.7104zm17.131 0h5.7104v5.7104h-5.7104zm5.7104 0h5.7104v5.7104h-5.7104zm17.131 0h5.7104v5.7104h-5.7104zm5.7104 0h5.7104v5.7104h-5.7104zm11.421 0h5.7104v5.7104h-5.7104zm17.131 0h5.7104v5.7104h-5.7104zm5.7104 0h5.7104v5.7104h-5.7104zm28.552 0h5.7104v5.7104h-5.7104zm22.842 0h5.7104v5.7104h-5.7104zm22.842 0h5.7104v5.7104h-5.7104zm5.7104 0h5.7104v5.7104h-5.7104zm5.7104 0h5.7104v5.7104h-5.7104zm5.7104 0h5.7104v5.7104h-5.7104zm5.7104 0h5.7104v5.7104h-5.7104zm5.7104 0h5.7104v5.7104h-5.7104zm5.7104 0h5.7104v5.7104h-5.7104zm11.421 0h5.7104v5.7104h-5.7104zm5.7104 0h5.7104v5.7104h-5.7104zm11.421 0h5.7104v5.7104h-5.7104zm5.7104 0h5.7104v5.7104h-5.7104zm5.7104 0h5.7104v5.7104h-5.7104zm-268.39 5.7104h5.7104v5.7104h-5.7104zm22.842 0h5.7104v5.7104h-5.7104zm17.131 0h5.7104v5.7104h-5.7104zm22.842 0h5.7104v5.7104h-5.7104zm5.7104 0h5.7104v5.7104h-5.7104zm5.7104 0h5.7104v5.7104h-5.7104zm28.552 0h5.7104v5.7104h-5.7104zm5.7104 0h5.7104v5.7104h-5.7104zm11.421 0h5.7104v5.7104h-5.7104zm28.552 0h5.7104v5.7104h-5.7104zm34.262 0h5.7104v5.7104h-5.7104zm17.131 0h5.7104v5.7104h-5.7104zm11.421 0h5.7104v5.7104h-5.7104zm22.842 0h5.7104v5.7104h-5.7104zm-234.13 5.7104h5.7104v5.7104h-5.7104zm22.842 0h5.7104v5.7104h-5.7104zm5.7104 0h5.7104v5.7104h-5.7104zm5.7104 0h5.7104v5.7104h-5.7104zm11.421 0h5.7104v5.7104h-5.7104zm11.421 0h5.7104v5.7104h-5.7104zm5.7104 0h5.7104v5.7104h-5.7104zm5.7104 0h5.7104v5.7104h-5.7104zm5.7104 0h5.7104v5.7104h-5.7104zm5.7104 0h5.7104v5.7104h-5.7104zm5.7104 0h5.7104v5.7104h-5.7104zm5.7104 0h5.7104v5.7104h-5.7104zm45.683 0h5.7104v5.7104h-5.7104zm17.131 0h5.7104v5.7104h-5.7104zm22.842 0h5.7104v5.7104h-5.7104zm5.7104 0h5.7104v5.7104h-5.7104zm5.7104 0h5.7104v5.7104h-5.7104zm5.7104 0h5.7104v5.7104h-5.7104zm5.7104 0h5.7104v5.7104h-5.7104zm5.7104 0h5.7104v5.7104h-5.7104zm11.421 0h5.7104v5.7104h-5.7104zm5.7104 0h5.7104v5.7104h-5.7104zm11.421 0h5.7104v5.7104h-5.7104zm5.7104 0h5.7104v5.7104h-5.7104zm5.7104 0h5.7104v5.7104h-5.7104zm22.842 0h5.7104v5.7104h-5.7104zm5.7104 0h5.7104v5.7104h-5.7104zm-262.68 5.7104h5.7104v5.7104h-5.7104zm34.262 0h5.7104v5.7104h-5.7104zm22.842 0h5.7104v5.7104h-5.7104zm5.7104 0h5.7104v5.7104h-5.7104zm11.421 0h5.7104v5.7104h-5.7104zm5.7104 0h5.7104v5.7104h-5.7104zm5.7104 0h5.7104v
             5.7104h-5.7104zm22.842 0h5.7104v5.7104h-5.7104zm5.7104 0h5.7104v5.7104h-5.7104zm5.7104 0h5.7104v5.7104h-5.7104zm5.7104 0h5.7104v5.7104h-5.7104zm5.7104 0h5.7104v5.7104h-5.7104zm5.7104 0h5.7104v5.7104h-5.7104zm5.7104 0h5.7104v5.7104h-5.7104zm11.421 0h5.7104v5.7104h-5.7104zm11.421 0h5.7104v5.7104h-5.7104zm17.131 0h5.7104v5.7104h-5.7104zm5.7104 0h5.7104v5.7104h-5.7104zm5.7104 0h5.7104v5.7104h-5.7104zm22.842 0h5.7104v5.7104h-5.7104zm39.973 0h5.7104v5.7104h-5.7104zm-262.68 5.7104h5.7104v5.7104h-5.7104zm11.421 0h5.7104v5.7104h-5.7104zm17.131 0h5.7104v5.7104h-5.7104zm5.7104 0h5.7104v5.7104h-5.7104zm22.842 0h5.7104v5.7104h-5.7104zm5.7104 0h5.7104v5.7104h-5.7104zm17.131 0h5.7104v5.7104h-5.7104zm5.7104 0h5.7104v5.7104h-5.7104zm17.131 0h5.7104v5.7104h-5.7104zm5.7104 0h5.7104v5.7104h-5.7104zm11.421 0h5.7104v5.7104h-5.7104zm5.7104 0h5.7104v5.7104h-5.7104zm17.131 0h5.7104v5.7104h-5.7104zm39.973 0h5.7104v5.7104h-5.7104zm17.131 0h5.7104v5.7104h-5.7104zm5.7104 0h5.7104v5.7104h-5.7104zm11.421 0h5.7104v5.7104h-5.7104zm11.421 0h5.7104v5.7104h-5.7104zm5.7104 0h5.7104v5.7104h-5.7104zm11.421 0h5.7104v5.7104h-5.7104zm11.421 0h5.7104v5.7104h-5.7104zm11.421 0h5.7104v5.7104h-5.7104zm-274.1 5.7104h5.7104v5.7104h-5.7104zm5.7104 0h5.7104v5.7104h-5.7104zm17.131 0h5.7104v5.7104h-5.7104zm5.7104 0h5.7104v5.7104h-5.7104zm28.552 0h5.7104v5.7104h-5.7104zm28.552 0h5.7104v5.7104h-5.7104zm5.7104 0h5.7104v5.7104h-5.7104zm11.421 0h5.7104v5.7104h-5.7104zm5.7104 0h5.7104v5.7104h-5.7104zm11.421 0h5.7104v5.7104h-5.7104zm5.7104 0h5.7104v5.7104h-5.7104zm5.7104 0h5.7104v5.7104h-5.7104zm22.842 0h5.7104v5.7104h-5.7104zm5.7104 0h5.7104v5.7104h-5.7104zm17.131 0h5.7104v5.7104h-5.7104zm22.842 0h5.7104v5.7104h-5.7104zm5.7104 0h5.7104v5.7104h-5.7104zm5.7104 0h5.7104v5.7104h-5.7104zm11.421 0h5.7104v5.7104h-5.7104zm5.7104 0h5.7104v5.7104h-5.7104zm5.7104 0h5.7104v5.7104h-5.7104zm5.7104 0h5.7104v5.7104h-5.7104zm5.7104 0h5.7104v5.7104h-5.7104zm11.421 0h5.7104v5.7104h-5.7104zm-234.13 5.7104h5.7104v5.7104h-5.7104zm5.7104 0h5.7104v5.7104h-5.7104zm5.7104 0h5.7104v5.7104h-5.7104zm5.7104 0h5.7104v5.7104h-5.7104zm5.7104 0h5.7104v5.7104h-5.7104zm5.7104 0h5.7104v5.7104h-5.7104zm5.7104 0h5.7104v5.7104h-5.7104zm11.421 0h5.7104v5.7104h-5.7104zm5.7104 0h5.7104v5.7104h-5.7104zm5.7104 0h5.7104v5.7104h-5.7104zm5.7104 0h5.7104v5.7104h-5.7104zm11.421 0h5.7104v5.7104h-5.7104zm11.421 0h5.7104v5.7104h-5.7104zm11.421 0h5.7104v5.7104h-5.7104zm5.7104 0h5.7104v5.7104h-5.7104zm11.421 0h5.7104v5.7104h-5.7104zm5.7104 0h5.7104v5.7104h-5.7104zm5.7104 0h5.7104v5.7104h-5.7104zm5.7104 0h5.7104v5.7104h-5.7104zm11.421 0h5.7104v5.7104h-5.7104zm22.842 0h5.7104v5.7104h-5.7104zm5.7104 0h5.7104v5.7104h-5.7104zm11.421 0h5.7104v5.7104h-5.7104zm11.421 0h5.7104v5.7104h-5.7104zm5.7104 0h5.7104v5.7104h-5.7104zm11.421 0h5.7104v5.7104h-5.7104zm5.7104 0h5.7104v5.7104h-5.7104zm5.7104 0h5.7104v5.7104h-5.7104zm11.421 0h5.7104v5.7104h-5.7104zm5.7104 0h5.7104v5.7104h-5.7104zm5.7104 0h5.7104v5.7104h-5.7104zm5.7104 0h5.7104v5.7104h-5.7104zm-274.1 5.7104h5.7104v5.7104h-5.7104zm17.131 0h5.7104v5.7104h-5.7104zm5.7104 0h5.7104v5.7104h-5.7104zm5.7104 0h5.7104v5.7104h-5.7104zm17.131 0h5.7104v5.7104h-5.7104zm5.7104 0h5.7104v5.7104h-5.7104zm22.842 0h5.7104v5.7104h-5.7104zm17.131 0h5.7104v5.7104h-5.7104zm5.7104 0h5.7104v5.7104h-5.7104zm11.421 0h5.7104v5.7104h-5.7104zm17.131 0h5.7104v5.7104h-5.7104zm11.421 0h5.7104v5.7104h-5.7104zm34.262 0h5.7104v5.7104h-5.7104zm11.421 0h5.7104v5.7104h-5.7104zm34.262 0h5.7104v5.7104h-5.7104zm11.421 0h5.7104v5.7104h-5.7104zm17.131 0h5.7104v5.7104h-5.7104zm5.7104 0h5.7104v5.7104h-5.7104zm5.7104 0h5.7104v5.7104h-5.7104zm
             11.421 0h5.7104v5.7104h-5.7104zm-262.68 5.7104h5.7104v5.7104h-5.7104zm11.421 0h5.7104v5.7104h-5.7104zm5.7104 0h5.7104v5.7104h-5.7104zm11.421 0h5.7104v5.7104h-5.7104zm5.7104 0h5.7104v5.7104h-5.7104zm5.7104 0h5.7104v5.7104h-5.7104zm17.131 0h5.7104v5.7104h-5.7104zm5.7104 0h5.7104v5.7104h-5.7104zm17.131 0h5.7104v5.7104h-5.7104zm28.552 0h5.7104v5.7104h-5.7104zm5.7104 0h5.7104v5.7104h-5.7104zm5.7104 0h5.7104v5.7104h-5.7104zm17.131 0h5.7104v5.7104h-5.7104zm11.421 0h5.7104v5.7104h-5.7104zm5.7104 0h5.7104v5.7104h-5.7104zm5.7104 0h5.7104v5.7104h-5.7104zm11.421 0h5.7104v5.7104h-5.7104zm17.131 0h5.7104v5.7104h-5.7104zm5.7104 0h5.7104v5.7104h-5.7104zm5.7104 0h5.7104v5.7104h-5.7104zm17.131 0h5.7104v5.7104h-5.7104zm5.7104 0h5.7104v5.7104h-5.7104zm11.421 0h5.7104v5.7104h-5.7104zm11.421 0h5.7104v5.7104h-5.7104zm5.7104 0h5.7104v5.7104h-5.7104zm5.7104 0h5.7104v5.7104h-5.7104zm11.421 0h5.7104v5.7104h-5.7104zm-268.39 5.7104h5.7104v5.7104h-5.7104zm17.131 0h5.7104v5.7104h-5.7104zm28.552 0h5.7104v5.7104h-5.7104zm5.7104 0h5.7104v5.7104h-5.7104zm5.7104 0h5.7104v5.7104h-5.7104zm5.7104 0h5.7104v5.7104h-5.7104zm5.7104 0h5.7104v5.7104h-5.7104zm5.7104 0h5.7104v5.7104h-5.7104zm5.7104 0h5.7104v5.7104h-5.7104zm17.131 0h5.7104v5.7104h-5.7104zm22.842 0h5.7104v5.7104h-5.7104zm5.7104 0h5.7104v5.7104h-5.7104zm5.7104 0h5.7104v5.7104h-5.7104zm11.421 0h5.7104v5.7104h-5.7104zm11.421 0h5.7104v5.7104h-5.7104zm17.131 0h5.7104v5.7104h-5.7104zm22.842 0h5.7104v5.7104h-5.7104zm5.7104 0h5.7104v5.7104h-5.7104zm22.842 0h5.7104v5.7104h-5.7104zm5.7104 0h5.7104v5.7104h-5.7104zm11.421 0h5.7104v5.7104h-5.7104zm17.131 0h5.7104v5.7104h-5.7104zm-256.97 5.7104h5.7104v5.7104h-5.7104zm22.842 0h5.7104v5.7104h-5.7104zm5.7104 0h5.7104v5.7104h-5.7104zm22.842 0h5.7104v5.7104h-5.7104zm11.421 0h5.7104v5.7104h-5.7104zm5.7104 0h5.7104v5.7104h-5.7104zm11.421 0h5.7104v5.7104h-5.7104zm5.7104 0h5.7104v5.7104h-5.7104zm5.7104 0h5.7104v5.7104h-5.7104zm17.131 0h5.7104v5.7104h-5.7104zm5.7104 0h5.7104v5.7104h-5.7104zm5.7104 0h5.7104v5.7104h-5.7104zm5.7104 0h5.7104v5.7104h-5.7104zm28.552 0h5.7104v5.7104h-5.7104zm28.552 0h5.7104v5.7104h-5.7104zm5.7104 0h5.7104v5.7104h-5.7104zm5.7104 0h5.7104v5.7104h-5.7104zm17.131 0h5.7104v5.7104h-5.7104zm11.421 0h5.7104v5.7104h-5.7104zm5.7104 0h5.7104v5.7104h-5.7104zm5.7104 0h5.7104v5.7104h-5.7104zm17.131 0h5.7104v5.7104h-5.7104zm5.7104 0h5.7104v5.7104h-5.7104zm5.7104 0h5.7104v5.7104h-5.7104zm5.7104 0h5.7104v5.7104h-5.7104zm-268.39 5.7104h5.7104v5.7104h-5.7104zm5.7104 0h5.7104v5.7104h-5.7104zm5.7104 0h5.7104v5.7104h-5.7104zm45.683 0h5.7104v5.7104h-5.7104zm51.394 0h5.7104v5.7104h-5.7104zm11.421 0h5.7104v5.7104h-5.7104zm11.421 0h5.7104v5.7104h-5.7104zm17.131 0h5.7104v5.7104h-5.7104zm17.131 0h5.7104v5.7104h-5.7104zm5.7104 0h5.7104v5.7104h-5.7104zm5.7104 0h5.7104v5.7104h-5.7104zm11.421 0h5.7104v5.7104h-5.7104zm17.131 0h5.7104v5.7104h-5.7104zm5.7104 0h5.7104v5.7104h-5.7104zm17.131 0h5.7104v5.7104h-5.7104zm11.421 0h5.7104v5.7104h-5.7104zm17.131 0h5.7104v5.7104h-5.7104zm5.7104 0h5.7104v5.7104h-5.7104zm-268.39 5.7104h5.7104v5.7104h-5.7104zm5.7104 0h5.7104v5.7104h-5.7104zm5.7104 0h5.7104v5.7104h-5.7104zm22.842 0h5.7104v5.7104h-5.7104zm5.7104 0h5.7104v5.7104h-5.7104zm5.7104 0h5.7104v5.7104h-5.7104zm11.421 0h5.7104v5.7104h-5.7104zm11.421 0h5.7104v5.7104h-5.7104zm5.7104 0h5.7104v5.7104h-5.7104zm17.131 0h5.7104v5.7104h-5.7104zm5.7104 0h5.7104v5.7104h-5.7104zm17.131 0h5.7104v5.7104h-5.7104zm5.7104 0h5.7104v5.7104h-5.7104zm5.7104 0h5.7104v5.7104h-5.7104zm5.7104 0h5.7104v5.7104h-5.7104zm5.7104 0h5.7104v5.7104h-5.7104zm5.7104 0h5.7104v5.7104h-5.7104zm5.7104 0h5.7104v5.7104h-5.7104zm
             17.131 0h5.7104v5.7104h-5.7104zm11.421 0h5.7104v5.7104h-5.7104zm11.421 0h5.7104v5.7104h-5.7104zm5.7104 0h5.7104v5.7104h-5.7104zm5.7104 0h5.7104v5.7104h-5.7104zm5.7104 0h5.7104v5.7104h-5.7104zm11.421 0h5.7104v5.7104h-5.7104zm5.7104 0h5.7104v5.7104h-5.7104zm5.7104 0h5.7104v5.7104h-5.7104zm5.7104 0h5.7104v5.7104h-5.7104zm5.7104 0h5.7104v5.7104h-5.7104zm5.7104 0h5.7104v5.7104h-5.7104zm5.7104 0h5.7104v5.7104h-5.7104zm5.7104 0h5.7104v5.7104h-5.7104zm-211.28 5.7104h5.7104v5.7104h-5.7104zm11.421 0h5.7104v5.7104h-5.7104zm5.7104 0h5.7104v5.7104h-5.7104zm11.421 0h5.7104v5.7104h-5.7104zm5.7104 0h5.7104v5.7104h-5.7104zm11.421 0h5.7104v5.7104h-5.7104zm5.7104 0h5.7104v5.7104h-5.7104zm5.7104 0h5.7104v5.7104h-5.7104zm5.7104 0h5.7104v5.7104h-5.7104zm11.421 0h5.7104v5.7104h-5.7104zm5.7104 0h5.7104v5.7104h-5.7104zm22.842 0h5.7104v5.7104h-5.7104zm5.7104 0h5.7104v5.7104h-5.7104zm5.7104 0h5.7104v5.7104h-5.7104zm5.7104 0h5.7104v5.7104h-5.7104zm11.421 0h5.7104v5.7104h-5.7104zm17.131 0h5.7104v5.7104h-5.7104zm17.131 0h5.7104v5.7104h-5.7104zm5.7104 0h5.7104v5.7104h-5.7104zm11.421 0h5.7104v5.7104h-5.7104zm22.842 0h5.7104v5.7104h-5.7104zm-251.26 5.7104h5.7104v5.7104h-5.7104zm5.7104 0h5.7104v5.7104h-5.7104zm5.7104 0h5.7104v5.7104h-5.7104zm5.7104 0h5.7104v5.7104h-5.7104zm5.7104 0h5.7104v5.7104h-5.7104zm5.7104 0h5.7104v5.7104h-5.7104zm5.7104 0h5.7104v5.7104h-5.7104zm17.131 0h5.7104v5.7104h-5.7104zm11.421 0h5.7104v5.7104h-5.7104zm5.7104 0h5.7104v5.7104h-5.7104zm17.131 0h5.7104v5.7104h-5.7104zm5.7104 0h5.7104v5.7104h-5.7104zm5.7104 0h5.7104v5.7104h-5.7104zm28.552 0h5.7104v5.7104h-5.7104zm11.421 0h5.7104v5.7104h-5.7104zm11.421 0h5.7104v5.7104h-5.7104zm5.7104 0h5.7104v5.7104h-5.7104zm5.7104 0h5.7104v5.7104h-5.7104zm5.7104 0h5.7104v5.7104h-5.7104zm22.842 0h5.7104v5.7104h-5.7104zm11.421 0h5.7104v5.7104h-5.7104zm28.552 0h5.7104v5.7104h-5.7104zm11.421 0h5.7104v5.7104h-5.7104zm11.421 0h5.7104v5.7104h-5.7104zm5.7104 0h5.7104v5.7104h-5.7104zm11.421 0h5.7104v5.7104h-5.7104zm5.7104 0h5.7104v5.7104h-5.7104zm-274.1 5.7104h5.7104v5.7104h-5.7104zm34.262 0h5.7104v5.7104h-5.7104zm22.842 0h5.7104v5.7104h-5.7104zm5.7104 0h5.7104v5.7104h-5.7104zm11.421 0h5.7104v5.7104h-5.7104zm5.7104 0h5.7104v5.7104h-5.7104zm11.421 0h5.7104v5.7104h-5.7104zm5.7104 0h5.7104v5.7104h-5.7104zm5.7104 0h5.7104v5.7104h-5.7104zm11.421 0h5.7104v5.7104h-5.7104zm5.7104 0h5.7104v5.7104h-5.7104zm5.7104 0h5.7104v5.7104h-5.7104zm22.842 0h5.7104v5.7104h-5.7104zm5.7104 0h5.7104v5.7104h-5.7104zm5.7104 0h5.7104v5.7104h-5.7104zm5.7104 0h5.7104v5.7104h-5.7104zm5.7104 0h5.7104v5.7104h-5.7104zm5.7104 0h5.7104v5.7104h-5.7104zm5.7104 0h5.7104v5.7104h-5.7104zm11.421 0h5.7104v5.7104h-5.7104zm17.131 0h5.7104v5.7104h-5.7104zm5.7104 0h5.7104v5.7104h-5.7104zm5.7104 0h5.7104v5.7104h-5.7104zm5.7104 0h5.7104v5.7104h-5.7104zm22.842 0h5.7104v5.7104h-5.7104zm17.131 0h5.7104v5.7104h-5.7104zm5.7104 0h5.7104v5.7104h-5.7104zm-274.1 5.7104h5.7104v5.7104h-5.7104zm11.421 0h5.7104v5.7104h-5.7104zm5.7104 0h5.7104v5.7104h-5.7104zm5.7104 0h5.7104v5.7104h-5.7104zm11.421 0h5.7104v5.7104h-5.7104zm11.421 0h5.7104v5.7104h-5.7104zm17.131 0h5.7104v5.7104h-5.7104zm11.421 0h5.7104v5.7104h-5.7104zm5.7104 0h5.7104v5.7104h-5.7104zm5.7104 0h5.7104v5.7104h-5.7104zm11.421 0h5.7104v5.7104h-5.7104zm5.7104 0h5.7104v5.7104h-5.7104zm11.421 0h5.7104v5.7104h-5.7104zm11.421 0h5.7104v5.7104h-5.7104zm5.7104 0h5.7104v5.7104h-5.7104zm5.7104 0h5.7104v5.7104h-5.7104zm5.7104 0h5.7104v5.7104h-5.7104zm5.7104 0h5.7104v5.7104h-5.7104zm5.7104 0h5.7104v5.7104h-5.7104zm5.7104 0h5.7104v5.7104h-5.7104zm5.7104 0h5.7104v5.7104h-5.7104zm5.7104 0h5.7104v5.7104h-5.7104zm5.7104 0h5.7104v
             5.7104h-5.7104zm11.421 0h5.7104v5.7104h-5.7104zm5.7104 0h5.7104v5.7104h-5.7104zm5.7104 0h5.7104v5.7104h-5.7104zm5.7104 0h5.7104v5.7104h-5.7104zm5.7104 0h5.7104v5.7104h-5.7104zm5.7104 0h5.7104v5.7104h-5.7104zm5.7104 0h5.7104v5.7104h-5.7104zm5.7104 0h5.7104v5.7104h-5.7104zm5.7104 0h5.7104v5.7104h-5.7104zm5.7104 0h5.7104v5.7104h-5.7104zm5.7104 0h5.7104v5.7104h-5.7104zm5.7104 0h5.7104v5.7104h-5.7104zm11.421 0h5.7104v5.7104h-5.7104zm-262.68 5.7104h5.7104v5.7104h-5.7104zm11.421 0h5.7104v5.7104h-5.7104zm5.7104 0h5.7104v5.7104h-5.7104zm5.7104 0h5.7104v5.7104h-5.7104zm11.421 0h5.7104v5.7104h-5.7104zm11.421 0h5.7104v5.7104h-5.7104zm11.421 0h5.7104v5.7104h-5.7104zm5.7104 0h5.7104v5.7104h-5.7104zm34.262 0h5.7104v5.7104h-5.7104zm28.552 0h5.7104v5.7104h-5.7104zm17.131 0h5.7104v5.7104h-5.7104zm5.7104 0h5.7104v5.7104h-5.7104zm28.552 0h5.7104v5.7104h-5.7104zm5.7104 0h5.7104v5.7104h-5.7104zm17.131 0h5.7104v5.7104h-5.7104zm5.7104 0h5.7104v5.7104h-5.7104zm5.7104 0h5.7104v5.7104h-5.7104zm22.842 0h5.7104v5.7104h-5.7104zm17.131 0h5.7104v5.7104h-5.7104zm5.7104 0h5.7104v5.7104h-5.7104zm17.131 0h5.7104v5.7104h-5.7104zm-274.1 5.7104h5.7104v5.7104h-5.7104zm11.421 0h5.7104v5.7104h-5.7104zm5.7104 0h5.7104v5.7104h-5.7104zm5.7104 0h5.7104v5.7104h-5.7104zm11.421 0h5.7104v5.7104h-5.7104zm11.421 0h5.7104v5.7104h-5.7104zm17.131 0h5.7104v5.7104h-5.7104zm5.7104 0h5.7104v5.7104h-5.7104zm5.7104 0h5.7104v5.7104h-5.7104zm5.7104 0h5.7104v5.7104h-5.7104zm5.7104 0h5.7104v5.7104h-5.7104zm11.421 0h5.7104v5.7104h-5.7104zm5.7104 0h5.7104v5.7104h-5.7104zm5.7104 0h5.7104v5.7104h-5.7104zm17.131 0h5.7104v5.7104h-5.7104zm5.7104 0h5.7104v5.7104h-5.7104zm5.7104 0h5.7104v5.7104h-5.7104zm11.421 0h5.7104v5.7104h-5.7104zm22.842 0h5.7104v5.7104h-5.7104zm5.7104 0h5.7104v5.7104h-5.7104zm5.7104 0h5.7104v5.7104h-5.7104zm11.421 0h5.7104v5.7104h-5.7104zm11.421 0h5.7104v5.7104h-5.7104zm5.7104 0h5.7104v5.7104h-5.7104zm5.7104 0h5.7104v5.7104h-5.7104zm5.7104 0h5.7104v5.7104h-5.7104zm11.421 0h5.7104v5.7104h-5.7104zm11.421 0h5.7104v5.7104h-5.7104zm11.421 0h5.7104v5.7104h-5.7104zm11.421 0h5.7104v5.7104h-5.7104zm5.7104 0h5.7104v5.7104h-5.7104zm-274.1 5.7104h5.7104v5.7104h-5.7104zm34.262 0h5.7104v5.7104h-5.7104zm22.842 0h5.7104v5.7104h-5.7104zm17.131 0h5.7104v5.7104h-5.7104zm11.421 0h5.7104v5.7104h-5.7104zm11.421 0h5.7104v5.7104h-5.7104zm5.7104 0h5.7104v5.7104h-5.7104zm11.421 0h5.7104v5.7104h-5.7104zm11.421 0h5.7104v5.7104h-5.7104zm11.421 0h5.7104v5.7104h-5.7104zm11.421 0h5.7104v5.7104h-5.7104zm34.262 0h5.7104v5.7104h-5.7104zm5.7104 0h5.7104v5.7104h-5.7104zm45.683 0h5.7104v5.7104h-5.7104zm5.7104 0h5.7104v5.7104h-5.7104zm5.7104 0h5.7104v5.7104h-5.7104zm11.421 0h5.7104v5.7104h-5.7104zm17.131 0h5.7104v5.7104h-5.7104zm-274.1 5.7104h5.7104v5.7104h-5.7104zm5.7104 0h5.7104v5.7104h-5.7104zm5.7104 0h5.7104v5.7104h-5.7104zm5.7104 0h5.7104v5.7104h-5.7104zm5.7104 0h5.7104v5.7104h-5.7104zm5.7104 0h5.7104v5.7104h-5.7104zm5.7104 0h5.7104v5.7104h-5.7104zm22.842 0h5.7104v5.7104h-5.7104zm5.7104 0h5.7104v5.7104h-5.7104zm22.842 0h5.7104v5.7104h-5.7104zm34.262 0h5.7104v5.7104h-5.7104zm11.421 0h5.7104v5.7104h-5.7104zm17.131 0h5.7104v5.7104h-5.7104zm28.552 0h5.7104v5.7104h-5.7104zm17.131 0h5.7104v5.7104h-5.7104zm5.7104 0h5.7104v5.7104h-5.7104zm5.7104 0h5.7104v5.7104h-5.7104zm11.421 0h5.7104v5.7104h-5.7104zm5.7104 0h5.7104v5.7104h-5.7104zm11.421 0h5.7104v5.7104h-5.7104zm11.421 0h5.7104v5.7104h-5.7104zm5.7104 0h5.7104v5.7104h-5.7104zm5.7104 0h5.7104v5.7104h-5.7104zm5.7104 0h5.7104v5.7104h-5.7104zm5.7104 0h5.7104v5.7104h-5.7104zm5.7104 0h5.7104v5.7104h-5.7104z" fill="#fff" stroke-width="5.7104"/>
    <path d="m190.53 604.61c-22.628 0-41.002 18.374-41.002 41.002v274.19c0 22.628 18.374 41 41.002 41h274.18c22.628 0 41.002-18.372 41.002-41v-274.19c0-22.628-18.374-41.002-41.002-41.002zm0 10h274.18c17.261 0 31.002 13.741 31.002 31.002v274.19c0 17.261-13.741 31-31.002 31h-274.18c-17.261 0-31.002-13.739-31.002-31v-274.19c0-17.261 13.741-31.002 31.002-31.002z" fill="#fff" stop-color="#000000" stroke-linecap="round" style="paint-order:stroke fill markers"/>
    <path d="m365.26 783a37.641 37.641 0 0 1-37.641 37.641 37.641 37.641 0 0 1-37.641-37.641 37.641 37.641 0 0 1 37.641-37.641 37.641 37.641 0 0 1 37.641 37.641z" fill="#ee3a3b" stroke-linecap="round" stroke-width="10" style="paint-order:stroke fill markers"/>
  </g>
  <g transform="matrix(.077162 0 0 .077162 460.53 917.37)" fill="#fff">
    <path id="s" d="m606 82s-74 34-124 77-78 99-81 132c-3 32 7 78 34 109 26 29 66 68 87 87 21 18 70 81 71 124s1 68-40 139c-42 70-170 195-170 195l2 3s119-75 170-141 71-112 73-165c3-53-26-106-62-138s-99-69-129-126c-9-15-17-35-11-73 4-23 13-50 33-76 64-83 148-144 148-144z"/>
    <path id="upper-eye" d="m486 320s26-36 76-38c49-1 78 38 78 38s-37-27-78-26c-42 1-76 26-76 26z"/>
    <path id="lower-eye" d="m485 331s35 29 76 29c45 0 78-28 78-28s-22 37-78 36c-56 0-76-37-76-37z"/>
    <path id="lower-right-lip" d="m404 702s40-24 74-37 90-27 90-27-63 10-93 21-75 36-75 36z"/>
    <path id="lower-left-lip" d="m405 702s-17-17-17-34 27-31 27-31-19 18-19 31c0 12 9 34 9 34z"/>
    <path id="lip-split" d="m415 637s41 3 78 4c37 0 75-3 75-3s-41-3-75-3z"/>
    <path id="upper-left-lip" d="m415 637s-22-11-22-28c-1-17 11-26 11-26s-5 9-4 25c0 16 15 29 15 29z"/>
    <path id="upper-right-lip" d="m404 580-3 10s23 13 62 26c47 15 105 22 105 22s-86-22-102-29c-58-24-62-29-62-29z"/>
  </g>
  <g fill="#fff">
    <path transform="matrix(1.0827 0 0 1.0827 -15.553 176.6)" d="m161.5 753.62a66.154 66.154 45.737 0 0 65.297 67 66.154 66.154 135.74 0 0-67 65.297 66.154 66.154 45.737 0 0-65.297-67 66.154 66.154 135.74 0 0 67-65.297z" style="paint-order:stroke fill markers"/>
    <path transform="matrix(.55829 0 0 .55829 133.77 676.37)" d="m161.5 753.62a66.154 66.154 45.737 0 0 65.297 67 66.154 66.154 135.74 0 0-67 65.297 66.154 66.154 45.737 0 0-65.297-67 66.154 66.154 135.74 0 0 67-65.297z" style="paint-order:stroke fill markers"/>
    <path transform="matrix(1.0827 0 0 1.0827 643.5 -670.76)" d="m161.5 753.62a66.154 66.154 45.737 0 0 65.297 67 66.154 66.154 135.74 0 0-67 65.297 66.154 66.154 45.737 0 0-65.297-67 66.154 66.154 135.74 0 0 67-65.297z" style="paint-order:stroke fill markers"/>
  </g>
</svg>
