<svg width="4in" height="5in" version="1.1" viewBox="0 0 1e3 1250" xml:space="preserve" xmlns="http://www.w3.org/2000/svg">
  <rect width="1e3" height="1250" rx="100" fill="#fff"/>
  <rect x="34.815" y="34.815" width="930.37" height="1180.4" rx="73.45" fill="none" stroke="#666" stroke-width="19.63"/>
  <g transform="scale(.99408 1.006)" fill="#666" stroke-linecap="round" stroke-linejoin="round" stroke-width="9.5693" style="paint-order:stroke fill markers" aria-label="FIND US ON">
    <path d="m316.98 379.63h28.754v-11.483h-28.754zm0 25.355h27.836v-10.932h-27.836zm-8.4518-36.839v64.307h12.678v-64.307zm39.175 0v64.307h13.321v-64.307zm62.876 0v39.87l-45.75-43.086v67.522h12.678v-39.87l45.75 43.086v-67.522zm16.575 0v64.307h13.413v-64.307zm21.864 64.307q10.105 0 17.638-3.9503 7.625-3.9503 11.851-11.116 4.2259-7.2575 4.2259-17.087t-4.2259-16.995q-4.2259-7.2575-11.851-11.208-7.5331-3.9503-17.638-3.9503h-13.413v11.943h12.953q4.2259 0 7.9924 1.1943 3.7665 1.1024 6.6144 3.5828t4.4096 6.3388q1.6536 3.7666 1.6536 9.0948 0 5.3283-1.6536 9.1867-1.5617 3.7666-4.4096 6.247t-6.6144 3.6747q-3.7666 1.1024-7.9924 1.1024h-12.953v11.943zm54.733-64.307v43.177q0 5.6958 1.8373 10.014t5.1446 7.2575q3.3072 2.9397 7.8087 4.4096 4.5015 1.5617 9.8298 1.5617 5.2364 0 9.7379-1.5617 4.5015-1.4699 7.8087-4.4096 3.3991-2.9398 5.2364-7.2575t1.8373-10.014v-43.177h-13.137v42.351q0 5.512-2.9397 8.9111-2.8479 3.3072-8.5436 3.3072-5.6958 0-8.6355-3.3072-2.8479-3.3991-2.8479-8.9111v-42.351zm58.191 42.718-9.3704 6.6144q2.1129 4.5015 5.8795 8.3599 3.7665 3.8584 8.8192 6.1551 5.1446 2.2048 11.024 2.2048 4.4096 0 8.3599-1.378 4.0422-1.2861 7.2575-3.7666 3.2153-2.5723 5.0527-6.247t1.8373-8.3599q0-4.134-1.378-7.2575-1.2861-3.2154-3.6747-5.512-2.2967-2.3886-5.2364-4.0422-2.8479-1.6536-5.9714-2.756-4.869-1.6536-8.0843-3.2154-3.2154-1.6536-4.7771-3.3991-1.5617-1.8373-1.5617-4.2259t1.9292-4.134q1.9292-1.8373 5.7876-1.8373 2.9398 0 5.2364 1.1943 2.2967 1.1024 4.0422 3.0316 1.8373 1.8373 3.1235 4.134l10.289-5.6958q-1.6536-3.3991-4.6852-6.5226-2.9397-3.2153-7.4412-5.2364-4.4096-2.113-10.565-2.113-5.9714 0-10.84 2.2048-4.7771 2.1129-7.625 6.1551-2.756 3.9503-2.756 9.4623 0 4.5934 1.7455 7.9006 1.7455 3.2154 4.4096 5.512 2.6642 2.2048 5.6039 3.6747 3.0316 1.378 5.3283 2.2048 4.3178 1.6536 7.2575 3.1235 3.0316 1.378 4.5015 3.2153 1.5617 1.8373 1.5617 4.869 0 3.491-2.4804 5.512-2.4804 2.0211-6.4307 2.0211-3.3991 0-6.3388-1.4699t-5.4202-4.134q-2.3885-2.6641-4.4096-6.247z"/>
    <path d="m644.83 401.88q0-2.7356 1.1432-4.8587t3.1439-3.348 4.6546-1.2249q2.6948 0 4.6954 1.2249t3.103 3.348 1.1024 4.8587q0 2.7356-1.1432 4.8587-1.1024 2.1231-3.103 3.348t-4.6546 1.2249q-2.6539 0-4.6546-1.2249t-3.1439-3.348q-1.1432-2.1231-1.1432-4.8587zm-6.1653 0q0 3.2255 1.1024 6.002 1.1024 2.7356 3.1439 4.7771t4.7771 3.1847q2.7764 1.1024 6.0836 1.1024t6.0428-1.1024q2.7764-1.1432 4.7771-3.1847 2.0415-2.0415 3.1439-4.7771 1.1432-2.7764 1.1432-6.002 0-3.2664-1.1432-5.9611-1.1024-2.7356-3.1847-4.7362-2.0415-2.0006-4.7771-3.0622-2.7356-1.1024-6.002-1.1024-3.2255 0-6.002 1.1024-2.7356 1.0616-4.7771 3.0622t-3.1847 4.7362q-1.1432 2.6948-1.1432 5.9611zm53.128-14.29v17.72l-20.333-19.149v30.01h5.6345v-17.72l20.333 19.149v-30.01z"/>
  </g>
  
  
  
  <g transform="translate(172.38,173.07)"><g fill="#666">
    <path d="m187.71 643.24h5.7104v5.7104h-5.7104zm5.7104 0h5.7104v5.7104h-5.7104zm5.7104 0h5.7104v5.7104h-5.7104zm5.7104 0h5.7104v5.7104h-5.7104zm5.7104 0h5.7104v5.7104h-5.7104zm5.7104 0h5.7104v5.7104h-5.7104zm5.7104 0h5.7104v5.7104h-5.7104zm11.421 0h5.7104v5.7104h-5.7104zm5.7104 0h5.7104v5.7104h-5.7104zm11.421 0h5.7104v5.7104h-5.7104zm5.7104 0h5.7104v5.7104h-5.7104zm22.842 0h5.7104v5.7104h-5.7104zm5.7104 0h5.7104v5.7104h-5.7104zm22.842 0h5.7104v5.7104h-5.7104zm5.7104 0h5.7104v5.7104h-5.7104zm5.7104 0h5.7104v5.7104h-5.7104zm17.131 0h5.7104v5.7104h-5.7104zm17.131 0h5.7104v5.7104h-5.7104zm5.7104 0h5.7104v5.7104h-5.7104zm17.131 0h5.7104v5.7104h-5.7104zm39.973 0h5.7104v5.7104h-5.7104zm11.421 0h5.7104v5.7104h-5.7104zm5.7104 0h5.7104v5.7104h-5.7104zm5.7104 0h5.7104v5.7104h-5.7104zm5.7104 0h5.7104v5.7104h-5.7104zm5.7104 0h5.7104v5.7104h-5.7104zm5.7104 0h5.7104v5.7104h-5.7104zm5.7104 0h5.7104v5.7104h-5.7104zm-274.1 5.7104h5.7104v5.7104h-5.7104zm34.262 0h5.7104v5.7104h-5.7104zm11.421 0h5.7104v5.7104h-5.7104zm5.7104 0h5.7104v5.7104h-5.7104zm5.7104 0h5.7104v5.7104h-5.7104zm22.842 0h5.7104v5.7104h-5.7104zm17.131 0h5.7104v5.7104h-5.7104zm5.7104 0h5.7104v5.7104h-5.7104zm5.7104 0h5.7104v5.7104h-5.7104zm11.421 0h5.7104v5.7104h-5.7104zm5.7104 0h5.7104v5.7104h-5.7104zm5.7104 0h5.7104v5.7104h-5.7104zm5.7104 0h5.7104v5.7104h-5.7104zm5.7104 0h5.7104v5.7104h-5.7104zm17.131 0h5.7104v5.7104h-5.7104zm11.421 0h5.7104v5.7104h-5.7104zm5.7104 0h5.7104v5.7104h-5.7104zm11.421 0h5.7104v5.7104h-5.7104zm5.7104 0h5.7104v5.7104h-5.7104zm17.131 0h5.7104v5.7104h-5.7104zm5.7104 0h5.7104v5.7104h-5.7104zm5.7104 0h5.7104v5.7104h-5.7104zm5.7104 0h5.7104v5.7104h-5.7104zm11.421 0h5.7104v5.7104h-5.7104zm34.262 0h5.7104v5.7104h-5.7104zm-274.1 5.7104h5.7104v5.7104h-5.7104zm11.421 0h5.7104v5.7104h-5.7104zm5.7104 0h5.7104v5.7104h-5.7104zm5.7104 0h5.7104v5.7104h-5.7104zm11.421 0h5.7104v5.7104h-5.7104zm11.421 0h5.7104v5.7104h-5.7104zm17.131 0h5.7104v5.7104h-5.7104zm11.421 0h5.7104v5.7104h-5.7104zm22.842 0h5.7104v5.7104h-5.7104zm5.7104 0h5.7104v5.7104h-5.7104zm11.421 0h5.7104v5.7104h-5.7104zm5.7104 0h5.7104v5.7104h-5.7104zm11.421 0h5.7104v5.7104h-5.7104zm5.7104 0h5.7104v5.7104h-5.7104zm5.7104 0h5.7104v5.7104h-5.7104zm5.7104 0h5.7104v5.7104h-5.7104zm22.842 0h5.7104v5.7104h-5.7104zm5.7104 0h5.7104v5.7104h-5.7104zm17.131 0h5.7104v5.7104h-5.7104zm5.7104 0h5.7104v5.7104h-5.7104zm22.842 0h5.7104v5.7104h-5.7104zm5.7104 0h5.7104v5.7104h-5.7104zm11.421 0h5.7104v5.7104h-5.7104zm11.421 0h5.7104v5.7104h-5.7104zm5.7104 0h5.7104v5.7104h-5.7104zm5.7104 0h5.7104v5.7104h-5.7104zm11.421 0h5.7104v5.7104h-5.7104zm-274.1 5.7104h5.7104v5.7104h-5.7104zm11.421 0h5.7104v5.7104h-5.7104zm5.7104 0h5.7104v5.7104h-5.7104zm5.7104 0h5.7104v5.7104h-5.7104zm11.421 0h5.7104v5.7104h-5.7104zm22.842 0h5.7104v5.7104h-5.7104zm5.7104 0h5.7104v5.7104h-5.7104zm11.421 0h5.7104v5.7104h-5.7104zm5.7104 0h5.7104v5.7104h-5.7104zm5.7104 0h5.7104v5.7104h-5.7104zm5.7104 0h5.7104v5.7104h-5.7104zm11.421 0h5.7104v5.7104h-5.7104zm11.421 0h5.7104v5.7104h-5.7104zm5.7104 0h5.7104v5.7104h-5.7104zm5.7104 0h5.7104v5.7104h-5.7104zm5.7104 0h5.7104v5.7104h-5.7104zm11.421 0h5.7104v5.7104h-5.7104zm5.7104 0h5.7104v5.7104h-5.7104zm11.421 0h5.7104v5.7104h-5.7104zm22.842 0h5.7104v5.7104h-5.7104zm17.131 0h5.7104v5.7104h-5.7104zm5.7104 0h5.7104v5.7104h-5.7104zm5.7104 0h5.7104v5.7104h-5.7104zm11.421 0h5.7104v5.7104h-5.7104zm17.131 0h5.7104v5.7104h-5.7104zm11.421 0h5.7104v5.7104h-5.7104zm5.7104 0h5.7104v5.7104h-5.7104zm5.7104 0h5.7104v5.7104h-5.7104zm11.421 0h5.7104v5.7104h-5.7104zm-274.1 5.7104h5.7104v5.7104h-5.7104zm11.421 0h5.7104v5.7104h-5.7104zm5.7104 0h5.7104v5.7104h-5.7104zm5.7104 0h5.7104v5.7104h-5.7104zm11.421 0h5.7104v5.7104h-5.7104zm39.973 0h5.7104v5.7104h-5.7104zm5.7104 0h5.7104v5.7104h-5.7104zm5.7104 0h5.7104v5.7104h-5.7104zm5.7104 0h5.7104v5.7104h-5.7104zm22.842 0h5.7104v5.7104h-5.7104zm5.7104 0h5.7104v5.7104h-5.7104zm5.7104 0h5.7104v5.7104h-5.7104zm5.7104 0h5.7104v5.7104h-5.7104zm5.7104 0h5.7104v5.7104h-5.7104zm5.7104 0h5.7104v5.7104h-5.7104zm5.7104 0h5.7104v5.7104h-5.7104zm5.7104 0h5.7104v5.7104h-5.7104zm5.7104 0h5.7104v5.7104h-5.7104zm11.421 0h5.7104v5.7104h-5.7104zm5.7104 0h5.7104v5.7104h-5.7104zm5.7104 0h5.7104v5.7104h-5.7104zm17.131 0h5.7104v5.7104h-5.7104zm11.421 0h5.7104v5.7104h-5.7104zm28.552 0h5.7104v5.7104h-5.7104zm11.421 0h5.7104v5.7104h-5.7104zm5.7104 0h5.7104v5.7104h-5.7104zm5.7104 0h5.7104v5.7104h-5.7104zm11.421 0h5.7104v5.7104h-5.7104zm-274.1 5.7104h5.7104v5.7104h-5.7104zm34.262 0h5.7104v5.7104h-5.7104zm11.421 0h5.7104v5.7104h-5.7104zm22.842 0h5.7104v5.7104h-5.7104zm5.7104 0h5.7104v5.7104h-5.7104zm11.421 0h5.7104v5.7104h-5.7104zm17.131 0h5.7104v5.7104h-5.7104zm5.7104 0h5.7104v5.7104h-5.7104zm11.421 0h5.7104v5.7104h-5.7104zm5.7104 0h5.7104v5.7104h-5.7104zm22.842 0h5.7104v5.7104h-5.7104zm11.421 0h5.7104v5.7104h-5.7104zm5.7104 0h5.7104v5.7104h-5.7104zm11.421 0h5.7104v5.7104h-5.7104zm5.7104 0h5.7104v5.7104h-5.7104zm5.7104 0h5.7104v5.7104h-5.7104zm5.7104 0h5.7104v5.7104h-5.7104zm5.7104 0h5.7104v5.7104h-5.7104zm5.7104 0h5.7104v5.7104h-5.7104zm11.421 0h5.7104v5.7104h-5.7104zm22.842 0h5.7104v5.7104h-5.7104zm34.262 0h5.7104v5.7104h-5.7104zm-274.1 5.7104h5.7104v5.7104h-5.7104zm5.7104 0h5.7104v5.7104h-5.7104zm5.7104 0h5.7104v5.7104h-5.7104zm5.7104 0h5.7104v5.7104h-5.7104zm5.7104 0h5.7104v5.7104h-5.7104zm5.7104 0h5.7104v5.7104h-5.7104zm5.7104 0h5.7104v5.7104h-5.7104zm11.421 0h5.7104v5.7104h-5.7104zm11.421 0h5.7104v5.7104h-5.7104zm11.421 0h5.7104v5.7104h-5.7104zm11.421 0h5.7104v5.7104h-5.7104zm11.421 0h5.7104v5.7104h-5.7104zm11.421 0h5.7104v5.7104h-5.7104zm11.421 0h5.7104v5.7104h-5.7104zm11.421 0h5.7104v5.7104h-5.7104zm11.421 0h5.7104v5.7104h-5.7104zm11.421 0h5.7104v5.7104h-5.7104zm11.421 0h5.7104v5.7104h-5.7104zm11.421 0h5.7104v5.7104h-5.7104zm11.421 0h5.7104v5.7104h-5.7104zm11.421 0h5.7104v5.7104h-5.7104zm11.421 0h5.7104v5.7104h-5.7104zm11.421 0h5.7104v5.7104h-5.7104zm11.421 0h5.7104v5.7104h-5.7104zm11.421 0h5.7104v5.7104h-5.7104zm5.7104 0h5.7104v5.7104h-5.7104zm5.7104 0h5.7104v5.7104h-5.7104zm5.7104 0h5.7104v5.7104h-5.7104zm5.7104 0h5.7104v5.7104h-5.7104zm5.7104 0h5.7104v5.7104h-5.7104zm5.7104 0h5.7104v5.7104h-5.7104zm-228.42 5.7104h5.7104v5.7104h-5.7104zm11.421 0h5.7104v5.7104h-5.7104zm28.552 0h5.7104v5.7104h-5.7104zm5.7104 0h5.7104v5.7104h-5.7104zm11.421 0h5.7104v5.7104h-5.7104zm5.7104 0h5.7104v5.7104h-5.7104zm17.131 0h5.7104v5.7104h-5.7104zm22.842 0h5.7104v5.7104h-5.7104zm11.421 0h5.7104v5.7104h-5.7104zm11.421 0h5.7104v5.7104h-5.7104zm11.421 0h5.7104v5.7104h-5.7104zm11.421 0h5.7104v5.7104h-5.7104zm11.421 0h5.7104v5.7104h-5.7104zm5.7104 0h5.7104v5.7104h-5.7104zm5.7104 0h5.7104v5.7104h-5.7104zm5.7104 0h5.7104v5.7104h-5.7104zm5.7104 0h5.7104v5.7104h-5.7104zm-217 5.7104h5.7104v5.7104h-5.7104zm5.7104 0h5.7104v5.7104h-5.7104zm5.7104 0h5.7104v5.7104h-5.7104zm11.421 0h5.7104v5.7104h-5.7104zm11.421 0h5.7104v5.7104h-5.7104zm5.7104 0h5.7104v5.7104h-5.7104zm5.7104 0h5.7104v5.7104h-5.7104zm51.394 0h5.7104v5.7104h-5.7104zm5.7104 0h5.7104v5.7104h-5.7104zm11.421 0h5.7104v5.7104h-5.7104zm5.7104 0h5.7104v5.7104h-5.7104zm5.7104 0h5.7104v5.7104h-5.7104zm5.7104 0h5.7104v5.7104h-5.7104zm5.7104 0h5.7104v5.7104h-5.7104zm5.7104 0h5.7104v5.7104h-5.7104zm5.7104 0h5.7104v5.7104h-5.7104zm5.7104 0h5.7104v5.7104h-5.7104zm34.262 0h5.7104v5.7104h-5.7104zm11.421 0h5.7104v5.7104h-5.7104zm11.421 0h5.7104v5.7104h-5.7104zm5.7104 0h5.7104v5.7104h-5.7104zm5.7104 0h5.7104v5.7104h-5.7104zm5.7104 0h5.7104v5.7104h-5.7104zm5.7104 0h5.7104v5.7104h-5.7104zm17.131 0h5.7104v5.7104h-5.7104zm5.7104 0h5.7104v5.7104h-5.7104zm5.7104 0h5.7104v5.7104h-5.7104zm-251.26 5.7104h5.7104v5.7104h-5.7104zm17.131 0h5.7104v5.7104h-5.7104zm11.421 0h5.7104v5.7104h-5.7104zm5.7104 0h5.7104v5.7104h-5.7104zm17.131 0h5.7104v5.7104h-5.7104zm5.7104 0h5.7104v5.7104h-5.7104zm5.7104 0h5.7104v5.7104h-5.7104zm11.421 0h5.7104v5.7104h-5.7104zm5.7104 0h5.7104v5.7104h-5.7104zm5.7104 0h5.7104v5.7104h-5.7104zm11.421 0h5.7104v5.7104h-5.7104zm17.131 0h5.7104v5.7104h-5.7104zm5.7104 0h5.7104v5.7104h-5.7104zm5.7104 0h5.7104v5.7104h-5.7104zm11.421 0h5.7104v5.7104h-5.7104zm51.394 0h5.7104v5.7104h-5.7104zm11.421 0h5.7104v5.7104h-5.7104zm11.421 0h5.7104v5.7104h-5.7104zm5.7104 0h5.7104v5.7104h-5.7104zm5.7104 0h5.7104v5.7104h-5.7104zm-222.71 5.7104h5.7104v5.7104h-5.7104zm5.7104 0h5.7104v5.7104h-5.7104zm5.7104 0h5.7104v5.7104h-5.7104zm5.7104 0h5.7104v5.7104h-5.7104zm5.7104 0h5.7104v5.7104h-5.7104zm5.7104 0h5.7104v5.7104h-5.7104zm17.131 0h5.7104v5.7104h-5.7104zm11.421 0h5.7104v5.7104h-5.7104zm5.7104 0h5.7104v5.7104h-5.7104zm22.842 0h5.7104v5.7104h-5.7104zm5.7104 0h5.7104v5.7104h-5.7104zm5.7104 0h5.7104v5.7104h-5.7104zm5.7104 0h5.7104v5.7104h-5.7104zm22.842 0h5.7104v5.7104h-5.7104zm11.421 0h5.7104v5.7104h-5.7104zm11.421 0h5.7104v5.7104h-5.7104zm5.7104 0h5.7104v5.7104h-5.7104zm5.7104 0h5.7104v5.7104h-5.7104zm5.7104 0h5.7104v5.7104h-5.7104zm5.7104 0h5.7104v5.7104h-5.7104zm5.7104 0h5.7104v5.7104h-5.7104zm17.131 0h5.7104v5.7104h-5.7104zm34.262 0h5.7104v5.7104h-5.7104zm17.131 0h5.7104v5.7104h-5.7104zm5.7104 0h5.7104v5.7104h-5.7104zm-274.1 5.7104h5.7104v5.7104h-5.7104zm5.7104 0h5.7104v5.7104h-5.7104zm5.7104 0h5.7104v5.7104h-5.7104zm28.552 0h5.7104v5.7104h-5.7104zm5.7104 0h5.7104v5.7104h-5.7104zm28.552 0h5.7104v5.7104h-5.7104zm5.7104 0h5.7104v5.7104h-5.7104zm5.7104 0h5.7104v5.7104h-5.7104zm17.131 0h5.7104v5.7104h-5.7104zm22.842 0h5.7104v5.7104h-5.7104zm5.7104 0h5.7104v5.7104h-5.7104zm11.421 0h5.7104v5.7104h-5.7104zm5.7104 0h5.7104v5.7104h-5.7104zm17.131 0h5.7104v5.7104h-5.7104zm17.131 0h5.7104v5.7104h-5.7104zm11.421 0h5.7104v5.7104h-5.7104zm17.131 0h5.7104v5.7104h-5.7104zm17.131 0h5.7104v5.7104h-5.7104zm5.7104 0h5.7104v5.7104h-5.7104zm17.131 0h5.7104v5.7104h-5.7104zm17.131 0h5.7104v5.7104h-5.7104zm5.7104 0h5.7104v5.7104h-5.7104zm-274.1 5.7104h5.7104v5.7104h-5.7104zm5.7104 0h5.7104v5.7104h-5.7104zm17.131 0h5.7104v5.7104h-5.7104zm5.7104 0h5.7104v5.7104h-5.7104zm5.7104 0h5.7104v5.7104h-5.7104zm5.7104 0h5.7104v5.7104h-5.7104zm5.7104 0h5.7104v5.7104h-5.7104zm5.7104 0h5.7104v5.7104h-5.7104zm17.131 0h5.7104v5.7104h-5.7104zm5.7104 0h5.7104v5.7104h-5.7104zm5.7104 0h5.7104v5.7104h-5.7104zm22.842 0h5.7104v5.7104h-5.7104zm11.421 0h5.7104v5.7104h-5.7104zm5.7104 0h5.7104v5.7104h-5.7104zm5.7104 0h5.7104v5.7104h-5.7104zm5.7104 0h5.7104v5.7104h-5.7104zm5.7104 0h5.7104v5.7104h-5.7104zm11.421 0h5.7104v5.7104h-5.7104zm5.7104 0h5.7104v5.7104h-5.7104zm5.7104 0h5.7104v5.7104h-5.7104zm5.7104 0h5.7104v5.7104h-5.7104zm11.421 0h5.7104v5.7104h-5.7104zm17.131 0h5.7104v5.7104h-5.7104zm5.7104 0h5.7104v5.7104h-5.7104zm5.7104 0h5.7104v5.7104h-5.7104zm17.131 0h5.7104v5.7104h-5.7104zm5.7104 0h5.7104v5.7104h-5.7104zm17.131 0h5.7104v5.7104h-5.7104zm17.131 0h5.7104v5.7104h-5.7104zm5.7104 0h5.7104v5.7104h-5.7104zm-268.39 5.7104h5.7104v5.7104h-5.7104zm17.131 0h5.7104v5.7104h-5.7104zm11.421 0h5.7104v5.7104h-5.7104zm11.421 0h5.7104v5.7104h-5.7104zm5.7104 0h5.7104v5.7104h-5.7104zm11.421 0h5.7104v5.7104h-5.7104zm17.131 0h5.7104v5.7104h-5.7104zm17.131 0h5.7104v5.7104h-5.7104zm11.421 0h5.7104v5.7104h-5.7104zm17.131 0h5.7104v5.7104h-5.7104zm11.421 0h5.7104v5.7104h-5.7104zm11.421 0h5.7104v5.7104h-5.7104zm28.552 0h5.7104v5.7104h-5.7104zm5.7104 0h5.7104v5.7104h-5.7104zm5.7104 0h5.7104v5.7104h-5.7104zm22.842 0h5.7104v5.7104h-5.7104zm5.7104 0h5.7104v5.7104h-5.7104zm11.421 0h5.7104v5.7104h-5.7104zm11.421 0h5.7104v5.7104h-5.7104zm5.7104 0h5.7104v5.7104h-5.7104zm5.7104 0h5.7104v5.7104h-5.7104zm11.421 0h5.7104v5.7104h-5.7104zm-256.97 5.7104h5.7104v5.7104h-5.7104zm5.7104 0h5.7104v5.7104h-5.7104zm5.7104 0h5.7104v5.7104h-5.7104zm17.131 0h5.7104v5.7104h-5.7104zm5.7104 0h5.7104v5.7104h-5.7104zm11.421 0h5.7104v5.7104h-5.7104zm5.7104 0h5.7104v5.7104h-5.7104zm17.131 0h5.7104v5.7104h-5.7104zm11.421 0h5.7104v5.7104h-5.7104zm17.131 0h5.7104v5.7104h-5.7104zm17.131 0h5.7104v5.7104h-5.7104zm22.842 0h5.7104v5.7104h-5.7104zm11.421 0h5.7104v5.7104h-5.7104zm5.7104 0h5.7104v5.7104h-5.7104zm5.7104 0h5.7104v5.7104h-5.7104zm5.7104 0h5.7104v5.7104h-5.7104zm17.131 0h5.7104v5.7104h-5.7104zm5.7104 0h5.7104v5.7104h-5.7104zm5.7104 0h5.7104v5.7104h-5.7104zm5.7104 0h5.7104v5.7104h-5.7104zm17.131 0h5.7104v5.7104h-5.7104zm5.7104 0h5.7104v5.7104h-5.7104zm5.7104 0h5.7104v5.7104h-5.7104zm17.131 0h5.7104v5.7104h-5.7104zm5.7104 0h5.7104v5.7104h-5.7104zm17.131 0h5.7104v5.7104h-5.7104zm5.7104 0h5.7104v5.7104h-5.7104zm-268.39 5.7104h5.7104v5.7104h-5.7104zm5.7104 0h5.7104v5.7104h-5.7104zm5.7104 0h5.7104v5.7104h-5.7104zm5.7104 0h5.7104v5.7104h-5.7104zm22.842 0h5.7104v5.7104h-5.7104zm5.7104 0h5.7104v5.7104h-5.7104zm5.7104 0h5.7104v5.7104h-5.7104zm17.131 0h5.7104v5.7104h-5.7104zm22.842 0h5.7104v5.7104h-5.7104zm5.7104 0h5.7104v5.7104h-5.7104zm5.7104 0h5.7104v5.7104h-5.7104zm5.7104 0h5.7104v5.7104h-5.7104zm11.421 0h5.7104v5.7104h-5.7104zm22.842 0h5.7104v5.7104h-5.7104zm39.973 0h5.7104v5.7104h-5.7104zm34.262 0h5.7104v5.7104h-5.7104zm5.7104 0h5.7104v5.7104h-5.7104zm5.7104 0h5.7104v5.7104h-5.7104zm17.131 0h5.7104v5.7104h-5.7104zm5.7104 0h5.7104v5.7104h-5.7104zm11.421 0h5.7104v5.7104h-5.7104zm5.7104 0h5.7104v5.7104h-5.7104zm-274.1 5.7104h5.7104v5.7104h-5.7104zm11.421 0h5.7104v5.7104h-5.7104zm17.131 0h5.7104v5.7104h-5.7104zm5.7104 0h5.7104v5.7104h-5.7104zm17.131 0h5.7104v5.7104h-5.7104zm17.131 0h5.7104v5.7104h-5.7104zm11.421 0h5.7104v5.7104h-5.7104zm28.552 0h5.7104v5.7104h-5.7104zm22.842 0h5.7104v5.7104h-5.7104zm5.7104 0h5.7104v5.7104h-5.7104zm5.7104 0h5.7104v5.7104h-5.7104zm11.421 0h5.7104v5.7104h-5.7104zm11.421 0h5.7104v5.7104h-5.7104zm5.7104 0h5.7104v5.7104h-5.7104zm5.7104 0h5.7104v5.7104h-5.7104zm5.7104 0h5.7104v5.7104h-5.7104zm22.842 0h5.7104v5.7104h-5.7104zm5.7104 0h5.7104v5.7104h-5.7104zm11.421 0h5.7104v5.7104h-5.7104zm22.842 0h5.7104v5.7104h-5.7104zm-245.55 5.7104h5.7104v5.7104h-5.7104zm11.421 0h5.7104v5.7104h-5.7104zm5.7104 0h5.7104v5.7104h-5.7104zm34.262 0h5.7104v5.7104h-5.7104zm28.552 0h5.7104v5.7104h-5.7104zm5.7104 0h5.7104v5.7104h-5.7104zm11.421 0h5.7104v5.7104h-5.7104zm5.7104 0h5.7104v5.7104h-5.7104zm11.421 0h5.7104v5.7104h-5.7104zm17.131 0h5.7104v5.7104h-5.7104zm17.131 0h5.7104v5.7104h-5.7104zm5.7104 0h5.7104v5.7104h-5.7104zm5.7104 0h5.7104v5.7104h-5.7104zm5.7104 0h5.7104v5.7104h-5.7104zm11.421 0h5.7104v5.7104h-5.7104zm5.7104 0h5.7104v5.7104h-5.7104zm5.7104 0h5.7104v5.7104h-5.7104zm17.131 0h5.7104v5.7104h-5.7104zm22.842 0h5.7104v5.7104h-5.7104zm5.7104 0h5.7104v5.7104h-5.7104zm17.131 0h5.7104v5.7104h-5.7104zm5.7104 0h5.7104v5.7104h-5.7104zm5.7104 0h5.7104v5.7104h-5.7104zm-262.68 5.7104h5.7104v5.7104h-5.7104zm17.131 0h5.7104v5.7104h-5.7104zm5.7104 0h5.7104v5.7104h-5.7104zm11.421 0h5.7104v5.7104h-5.7104zm5.7104 0h5.7104v5.7104h-5.7104zm22.842 0h5.7104v5.7104h-5.7104zm11.421 0h5.7104v5.7104h-5.7104zm17.131 0h5.7104v5.7104h-5.7104zm11.421 0h5.7104v5.7104h-5.7104zm11.421 0h5.7104v5.7104h-5.7104zm17.131 0h5.7104v5.7104h-5.7104zm17.131 0h5.7104v5.7104h-5.7104zm5.7104 0h5.7104v5.7104h-5.7104zm5.7104 0h5.7104v5.7104h-5.7104zm11.421 0h5.7104v5.7104h-5.7104zm11.421 0h5.7104v5.7104h-5.7104zm17.131 0h5.7104v5.7104h-5.7104zm5.7104 0h5.7104v5.7104h-5.7104zm5.7104 0h5.7104v5.7104h-5.7104zm11.421 0h5.7104v5.7104h-5.7104zm5.7104 0h5.7104v5.7104h-5.7104zm11.421 0h5.7104v5.7104h-5.7104zm5.7104 0h5.7104v5.7104h-5.7104zm5.7104 0h5.7104v5.7104h-5.7104zm5.7104 0h5.7104v5.7104h-5.7104zm11.421 0h5.7104v5.7104h-5.7104zm5.7104 0h5.7104v5.7104h-5.7104zm-268.39 5.7104h5.7104v5.7104h-5.7104zm5.7104 0h5.7104v5.7104h-5.7104zm11.421 0h5.7104v5.7104h-5.7104zm22.842 0h5.7104v5.7104h-5.7104zm11.421 0h5.7104v5.7104h-5.7104zm5.7104 0h5.7104v5.7104h-5.7104zm5.7104 0h5.7104v5.7104h-5.7104zm5.7104 0h5.7104v5.7104h-5.7104zm5.7104 0h5.7104v5.7104h-5.7104zm17.131 0h5.7104v5.7104h-5.7104zm5.7104 0h5.7104v5.7104h-5.7104zm5.7104 0h5.7104v5.7104h-5.7104zm11.421 0h5.7104v5.7104h-5.7104zm5.7104 0h5.7104v5.7104h-5.7104zm5.7104 0h5.7104v5.7104h-5.7104zm5.7104 0h5.7104v5.7104h-5.7104zm11.421 0h5.7104v5.7104h-5.7104zm62.814 0h5.7104v5.7104h-5.7104zm5.7104 0h5.7104v5.7104h-5.7104zm11.421 0h5.7104v5.7104h-5.7104zm11.421 0h5.7104v5.7104h-5.7104zm5.7104 0h5.7104v5.7104h-5.7104zm5.7104 0h5.7104v5.7104h-5.7104zm17.131 0h5.7104v5.7104h-5.7104zm5.7104 0h5.7104v5.7104h-5.7104zm-274.1 5.7104h5.7104v5.7104h-5.7104zm28.552 0h5.7104v5.7104h-5.7104zm5.7104 0h5.7104v5.7104h-5.7104zm5.7104 0h5.7104v5.7104h-5.7104zm11.421 0h5.7104v5.7104h-5.7104zm17.131 0h5.7104v5.7104h-5.7104zm11.421 0h5.7104v5.7104h-5.7104zm28.552 0h5.7104v5.7104h-5.7104zm5.7104 0h5.7104v5.7104h-5.7104zm5.7104 0h5.7104v5.7104h-5.7104zm5.7104 0h5.7104v5.7104h-5.7104zm11.421 0h5.7104v5.7104h-5.7104zm5.7104 0h5.7104v5.7104h-5.7104zm17.131 0h5.7104v5.7104h-5.7104zm11.421 0h5.7104v5.7104h-5.7104zm22.842 0h5.7104v5.7104h-5.7104zm11.421 0h5.7104v5.7104h-5.7104zm5.7104 0h5.7104v5.7104h-5.7104zm5.7104 0h5.7104v5.7104h-5.7104zm11.421 0h5.7104v5.7104h-5.7104zm11.421 0h5.7104v5.7104h-5.7104zm5.7104 0h5.7104v5.7104h-5.7104zm17.131 0h5.7104v5.7104h-5.7104zm5.7104 0h5.7104v5.7104h-5.7104zm5.7104 0h5.7104v5.7104h-5.7104zm-268.39 5.7104h5.7104v5.7104h-5.7104zm11.421 0h5.7104v5.7104h-5.7104zm5.7104 0h5.7104v5.7104h-5.7104zm17.131 0h5.7104v5.7104h-5.7104zm5.7104 0h5.7104v5.7104h-5.7104zm11.421 0h5.7104v5.7104h-5.7104zm5.7104 0h5.7104v5.7104h-5.7104zm11.421 0h5.7104v5.7104h-5.7104zm5.7104 0h5.7104v5.7104h-5.7104zm5.7104 0h5.7104v5.7104h-5.7104zm28.552 0h5.7104v5.7104h-5.7104zm5.7104 0h5.7104v5.7104h-5.7104zm5.7104 0h5.7104v5.7104h-5.7104zm5.7104 0h5.7104v5.7104h-5.7104zm5.7104 0h5.7104v5.7104h-5.7104zm17.131 0h5.7104v5.7104h-5.7104zm17.131 0h5.7104v5.7104h-5.7104zm17.131 0h5.7104v5.7104h-5.7104zm17.131 0h5.7104v5.7104h-5.7104zm28.552 0h5.7104v5.7104h-5.7104zm5.7104 0h5.7104v5.7104h-5.7104zm22.842 0h5.7104v5.7104h-5.7104zm-256.97 5.7104h5.7104v5.7104h-5.7104zm11.421 0h5.7104v5.7104h-5.7104zm5.7104 0h5.7104v5.7104h-5.7104zm5.7104 0h5.7104v5.7104h-5.7104zm5.7104 0h5.7104v5.7104h-5.7104zm5.7104 0h5.7104v5.7104h-5.7104zm5.7104 0h5.7104v5.7104h-5.7104zm11.421 0h5.7104v5.7104h-5.7104zm5.7104 0h5.7104v5.7104h-5.7104zm22.842 0h5.7104v5.7104h-5.7104zm11.421 0h5.7104v5.7104h-5.7104zm17.131 0h5.7104v5.7104h-5.7104zm5.7104 0h5.7104v5.7104h-5.7104zm5.7104 0h5.7104v5.7104h-5.7104zm5.7104 0h5.7104v5.7104h-5.7104zm5.7104 0h5.7104v5.7104h-5.7104zm5.7104 0h5.7104v5.7104h-5.7104zm5.7104 0h5.7104v5.7104h-5.7104zm11.421 0h5.7104v5.7104h-5.7104zm5.7104 0h5.7104v5.7104h-5.7104zm5.7104 0h5.7104v5.7104h-5.7104zm5.7104 0h5.7104v5.7104h-5.7104zm5.7104 0h5.7104v5.7104h-5.7104zm5.7104 0h5.7104v5.7104h-5.7104zm5.7104 0h5.7104v5.7104h-5.7104zm5.7104 0h5.7104v5.7104h-5.7104zm17.131 0h5.7104v5.7104h-5.7104zm5.7104 0h5.7104v5.7104h-5.7104zm5.7104 0h5.7104v5.7104h-5.7104zm5.7104 0h5.7104v5.7104h-5.7104zm5.7104 0h5.7104v5.7104h-5.7104zm5.7104 0h5.7104v5.7104h-5.7104zm5.7104 0h5.7104v5.7104h-5.7104zm5.7104 0h5.7104v5.7104h-5.7104zm11.421 0h5.7104v5.7104h-5.7104zm5.7104 0h5.7104v5.7104h-5.7104zm-262.68 5.7104h5.7104v5.7104h-5.7104zm11.421 0h5.7104v5.7104h-5.7104zm22.842 0h5.7104v5.7104h-5.7104zm11.421 0h5.7104v5.7104h-5.7104zm5.7104 0h5.7104v5.7104h-5.7104zm5.7104 0h5.7104v5.7104h-5.7104zm5.7104 0h5.7104v5.7104h-5.7104zm5.7104 0h5.7104v5.7104h-5.7104zm5.7104 0h5.7104v5.7104h-5.7104zm11.421 0h5.7104v5.7104h-5.7104zm28.552 0h5.7104v5.7104h-5.7104zm22.842 0h5.7104v5.7104h-5.7104zm17.131 0h5.7104v5.7104h-5.7104zm28.552 0h5.7104v5.7104h-5.7104zm5.7104 0h5.7104v5.7104h-5.7104zm11.421 0h5.7104v5.7104h-5.7104zm5.7104 0h5.7104v5.7104h-5.7104zm11.421 0h5.7104v5.7104h-5.7104zm22.842 0h5.7104v5.7104h-5.7104zm17.131 0h5.7104v5.7104h-5.7104zm5.7104 0h5.7104v5.7104h-5.7104zm-268.39 5.7104h5.7104v5.7104h-5.7104zm11.421 0h5.7104v5.7104h-5.7104zm5.7104 0h5.7104v5.7104h-5.7104zm11.421 0h5.7104v5.7104h-5.7104zm11.421 0h5.7104v5.7104h-5.7104zm17.131 0h5.7104v5.7104h-5.7104zm11.421 0h5.7104v5.7104h-5.7104zm17.131 0h5.7104v5.7104h-5.7104zm11.421 0h5.7104v5.7104h-5.7104zm17.131 0h5.7104v5.7104h-5.7104zm5.7104 0h5.7104v5.7104h-5.7104zm11.421 0h5.7104v5.7104h-5.7104zm11.421 0h5.7104v5.7104h-5.7104zm5.7104 0h5.7104v5.7104h-5.7104zm5.7104 0h5.7104v5.7104h-5.7104zm5.7104 0h5.7104v5.7104h-5.7104zm5.7104 0h5.7104v5.7104h-5.7104zm5.7104 0h5.7104v5.7104h-5.7104zm5.7104 0h5.7104v5.7104h-5.7104zm11.421 0h5.7104v5.7104h-5.7104zm5.7104 0h5.7104v5.7104h-5.7104zm5.7104 0h5.7104v5.7104h-5.7104zm5.7104 0h5.7104v5.7104h-5.7104zm5.7104 0h5.7104v5.7104h-5.7104zm5.7104 0h5.7104v5.7104h-5.7104zm5.7104 0h5.7104v5.7104h-5.7104zm11.421 0h5.7104v5.7104h-5.7104zm11.421 0h5.7104v5.7104h-5.7104zm11.421 0h5.7104v5.7104h-5.7104zm5.7104 0h5.7104v5.7104h-5.7104zm5.7104 0h5.7104v5.7104h-5.7104zm-274.1 5.7104h5.7104v5.7104h-5.7104zm11.421 0h5.7104v5.7104h-5.7104zm11.421 0h5.7104v5.7104h-5.7104zm22.842 0h5.7104v5.7104h-5.7104zm5.7104 0h5.7104v5.7104h-5.7104zm5.7104 0h5.7104v5.7104h-5.7104zm28.552 0h5.7104v5.7104h-5.7104zm5.7104 0h5.7104v5.7104h-5.7104zm5.7104 0h5.7104v5.7104h-5.7104zm5.7104 0h5.7104v5.7104h-5.7104zm11.421 0h5.7104v5.7104h-5.7104zm11.421 0h5.7104v5.7104h-5.7104zm22.842 0h5.7104v5.7104h-5.7104zm34.262 0h5.7104v5.7104h-5.7104zm17.131 0h5.7104v5.7104h-5.7104zm5.7104 0h5.7104v5.7104h-5.7104zm5.7104 0h5.7104v5.7104h-5.7104zm11.421 0h5.7104v5.7104h-5.7104zm5.7104 0h5.7104v5.7104h-5.7104zm22.842 0h5.7104v5.7104h-5.7104zm11.421 0h5.7104v5.7104h-5.7104zm11.421 0h5.7104v5.7104h-5.7104zm-274.1 5.7104h5.7104v5.7104h-5.7104zm5.7104 0h5.7104v5.7104h-5.7104zm11.421 0h5.7104v5.7104h-5.7104zm5.7104 0h5.7104v5.7104h-5.7104zm5.7104 0h5.7104v5.7104h-5.7104zm5.7104 0h5.7104v5.7104h-5.7104zm5.7104 0h5.7104v5.7104h-5.7104zm5.7104 0h5.7104v5.7104h-5.7104zm11.421 0h5.7104v5.7104h-5.7104zm5.7104 0h5.7104v5.7104h-5.7104zm11.421 0h5.7104v5.7104h-5.7104zm5.7104 0h5.7104v5.7104h-5.7104zm5.7104 0h5.7104v5.7104h-5.7104zm5.7104 0h5.7104v5.7104h-5.7104zm5.7104 0h5.7104v5.7104h-5.7104zm5.7104 0h5.7104v5.7104h-5.7104zm17.131 0h5.7104v5.7104h-5.7104zm5.7104 0h5.7104v5.7104h-5.7104zm5.7104 0h5.7104v5.7104h-5.7104zm5.7104 0h5.7104v5.7104h-5.7104zm5.7104 0h5.7104v5.7104h-5.7104zm5.7104 0h5.7104v5.7104h-5.7104zm11.421 0h5.7104v5.7104h-5.7104zm17.131 0h5.7104v5.7104h-5.7104zm5.7104 0h5.7104v5.7104h-5.7104zm11.421 0h5.7104v5.7104h-5.7104zm22.842 0h5.7104v5.7104h-5.7104zm5.7104 0h5.7104v5.7104h-5.7104zm5.7104 0h5.7104v5.7104h-5.7104zm5.7104 0h5.7104v5.7104h-5.7104zm5.7104 0h5.7104v5.7104h-5.7104zm5.7104 0h5.7104v5.7104h-5.7104zm5.7104 0h5.7104v5.7104h-5.7104zm5.7104 0h5.7104v5.7104h-5.7104zm5.7104 0h5.7104v5.7104h-5.7104zm5.7104 0h5.7104v5.7104h-5.7104zm-268.39 5.7104h5.7104v5.7104h-5.7104zm22.842 0h5.7104v5.7104h-5.7104zm39.973 0h5.7104v5.7104h-5.7104zm5.7104 0h5.7104v5.7104h-5.7104zm17.131 0h5.7104v5.7104h-5.7104zm22.842 0h5.7104v5.7104h-5.7104zm11.421 0h5.7104v5.7104h-5.7104zm5.7104 0h5.7104v5.7104h-5.7104zm34.262 0h5.7104v5.7104h-5.7104zm5.7104 0h5.7104v5.7104h-5.7104zm22.842 0h5.7104v5.7104h-5.7104zm11.421 0h5.7104v5.7104h-5.7104zm34.262 0h5.7104v5.7104h-5.7104zm11.421 0h5.7104v5.7104h-5.7104zm11.421 0h5.7104v5.7104h-5.7104zm-256.97 5.7104h5.7104v5.7104h-5.7104zm5.7104 0h5.7104v5.7104h-5.7104zm17.131 0h5.7104v5.7104h-5.7104zm11.421 0h5.7104v5.7104h-5.7104zm5.7104 0h5.7104v5.7104h-5.7104zm17.131 0h5.7104v5.7104h-5.7104zm5.7104 0h5.7104v5.7104h-5.7104zm17.131 0h5.7104v5.7104h-5.7104zm5.7104 0h5.7104v5.7104h-5.7104zm11.421 0h5.7104v5.7104h-5.7104zm17.131 0h5.7104v5.7104h-5.7104zm5.7104 0h5.7104v5.7104h-5.7104zm28.552 0h5.7104v5.7104h-5.7104zm22.842 0h5.7104v5.7104h-5.7104zm22.842 0h5.7104v5.7104h-5.7104zm5.7104 0h5.7104v5.7104h-5.7104zm5.7104 0h5.7104v5.7104h-5.7104zm5.7104 0h5.7104v5.7104h-5.7104zm5.7104 0h5.7104v5.7104h-5.7104zm5.7104 0h5.7104v5.7104h-5.7104zm5.7104 0h5.7104v5.7104h-5.7104zm11.421 0h5.7104v5.7104h-5.7104zm5.7104 0h5.7104v5.7104h-5.7104zm11.421 0h5.7104v5.7104h-5.7104zm5.7104 0h5.7104v5.7104h-5.7104zm5.7104 0h5.7104v5.7104h-5.7104zm-268.39 5.7104h5.7104v5.7104h-5.7104zm22.842 0h5.7104v5.7104h-5.7104zm17.131 0h5.7104v5.7104h-5.7104zm22.842 0h5.7104v5.7104h-5.7104zm5.7104 0h5.7104v5.7104h-5.7104zm5.7104 0h5.7104v5.7104h-5.7104zm28.552 0h5.7104v5.7104h-5.7104zm5.7104 0h5.7104v5.7104h-5.7104zm11.421 0h5.7104v5.7104h-5.7104zm28.552 0h5.7104v5.7104h-5.7104zm34.262 0h5.7104v5.7104h-5.7104zm17.131 0h5.7104v5.7104h-5.7104zm11.421 0h5.7104v5.7104h-5.7104zm22.842 0h5.7104v5.7104h-5.7104zm-234.13 5.7104h5.7104v5.7104h-5.7104zm22.842 0h5.7104v5.7104h-5.7104zm5.7104 0h5.7104v5.7104h-5.7104zm5.7104 0h5.7104v5.7104h-5.7104zm11.421 0h5.7104v5.7104h-5.7104zm11.421 0h5.7104v5.7104h-5.7104zm5.7104 0h5.7104v5.7104h-5.7104zm5.7104 0h5.7104v5.7104h-5.7104zm5.7104 0h5.7104v5.7104h-5.7104zm5.7104 0h5.7104v5.7104h-5.7104zm5.7104 0h5.7104v5.7104h-5.7104zm5.7104 0h5.7104v5.7104h-5.7104zm45.683 0h5.7104v5.7104h-5.7104zm17.131 0h5.7104v5.7104h-5.7104zm22.842 0h5.7104v5.7104h-5.7104zm5.7104 0h5.7104v5.7104h-5.7104zm5.7104 0h5.7104v5.7104h-5.7104zm5.7104 0h5.7104v5.7104h-5.7104zm5.7104 0h5.7104v5.7104h-5.7104zm5.7104 0h5.7104v5.7104h-5.7104zm11.421 0h5.7104v5.7104h-5.7104zm5.7104 0h5.7104v5.7104h-5.7104zm11.421 0h5.7104v5.7104h-5.7104zm5.7104 0h5.7104v5.7104h-5.7104zm5.7104 0h5.7104v5.7104h-5.7104zm22.842 0h5.7104v5.7104h-5.7104zm5.7104 0h5.7104v5.7104h-5.7104zm-262.68 5.7104h5.7104v5.7104h-5.7104zm34.262 0h5.7104v5.7104h-5.7104zm22.842 0h5.7104v5.7104h-5.7104zm5.7104 0h5.7104v5.7104h-5.7104zm11.421 0h5.7104v5.7104h-5.7104zm5.7104 0h5.7104v5.7104h-5.7104zm5.7104 0h5.7104v5.7104h-5.7104zm22.842 0h5.7104v5.7104h-5.7104zm5.7104 0h5.7104v5.7104h-5.7104zm5.7104 0h5.7104v5.7104h-5.7104zm5.7104 0h5.7104v5.7104h-5.7104zm5.7104 0h5.7104v5.7104h-5.7104zm5.7104 0h5.7104v5.7104h-5.7104zm5.7104 0h5.7104v5.7104h-5.7104zm11.421 0h5.7104v5.7104h-5.7104zm11.421 0h5.7104v5.7104h-5.7104zm17.131 0h5.7104v5.7104h-5.7104zm5.7104 0h5.7104v5.7104h-5.7104zm5.7104 0h5.7104v5.7104h-5.7104zm22.842 0h5.7104v5.7104h-5.7104zm39.973 0h5.7104v5.7104h-5.7104zm-262.68 5.7104h5.7104v5.7104h-5.7104zm11.421 0h5.7104v5.7104h-5.7104zm17.131 0h5.7104v5.7104h-5.7104zm5.7104 0h5.7104v5.7104h-5.7104zm22.842 0h5.7104v5.7104h-5.7104zm5.7104 0h5.7104v5.7104h-5.7104zm17.131 0h5.7104v5.7104h-5.7104zm5.7104 0h5.7104v5.7104h-5.7104zm17.131 0h5.7104v5.7104h-5.7104zm5.7104 0h5.7104v5.7104h-5.7104zm11.421 0h5.7104v5.7104h-5.7104zm5.7104 0h5.7104v5.7104h-5.7104zm17.131 0h5.7104v5.7104h-5.7104zm39.973 0h5.7104v5.7104h-5.7104zm17.131 0h5.7104v5.7104h-5.7104zm5.7104 0h5.7104v5.7104h-5.7104zm11.421 0h5.7104v5.7104h-5.7104zm11.421 0h5.7104v5.7104h-5.7104zm5.7104 0h5.7104v5.7104h-5.7104zm11.421 0h5.7104v5.7104h-5.7104zm11.421 0h5.7104v5.7104h-5.7104zm11.421 0h5.7104v5.7104h-5.7104zm-274.1 5.7104h5.7104v5.7104h-5.7104zm5.7104 0h5.7104v5.7104h-5.7104zm17.131 0h5.7104v5.7104h-5.7104zm5.7104 0h5.7104v5.7104h-5.7104zm28.552 0h5.7104v5.7104h-5.7104zm28.552 0h5.7104v5.7104h-5.7104zm5.7104 0h5.7104v5.7104h-5.7104zm11.421 0h5.7104v5.7104h-5.7104zm5.7104 0h5.7104v5.7104h-5.7104zm11.421 0h5.7104v5.7104h-5.7104zm5.7104 0h5.7104v5.7104h-5.7104zm5.7104 0h5.7104v5.7104h-5.7104zm22.842 0h5.7104v5.7104h-5.7104zm5.7104 0h5.7104v5.7104h-5.7104zm17.131 0h5.7104v5.7104h-5.7104zm22.842 0h5.7104v5.7104h-5.7104zm5.7104 0h5.7104v5.7104h-5.7104zm5.7104 0h5.7104v5.7104h-5.7104zm11.421 0h5.7104v5.7104h-5.7104zm5.7104 0h5.7104v5.7104h-5.7104zm5.7104 0h5.7104v5.7104h-5.7104zm5.7104 0h5.7104v5.7104h-5.7104zm5.7104 0h5.7104v5.7104h-5.7104zm11.421 0h5.7104v5.7104h-5.7104zm-234.13 5.7104h5.7104v5.7104h-5.7104zm5.7104 0h5.7104v5.7104h-5.7104zm5.7104 0h5.7104v5.7104h-5.7104zm5.7104 0h5.7104v5.7104h-5.7104zm5.7104 0h5.7104v5.7104h-5.7104zm5.7104 0h5.7104v5.7104h-5.7104zm5.7104 0h5.7104v5.7104h-5.7104zm11.421 0h5.7104v5.7104h-5.7104zm5.7104 0h5.7104v5.7104h-5.7104zm5.7104 0h5.7104v5.7104h-5.7104zm5.7104 0h5.7104v5.7104h-5.7104zm11.421 0h5.7104v5.7104h-5.7104zm11.421 0h5.7104v5.7104h-5.7104zm11.421 0h5.7104v5.7104h-5.7104zm5.7104 0h5.7104v5.7104h-5.7104zm11.421 0h5.7104v5.7104h-5.7104zm5.7104 0h5.7104v5.7104h-5.7104zm5.7104 0h5.7104v5.7104h-5.7104zm5.7104 0h5.7104v5.7104h-5.7104zm11.421 0h5.7104v5.7104h-5.7104zm22.842 0h5.7104v5.7104h-5.7104zm5.7104 0h5.7104v5.7104h-5.7104zm11.421 0h5.7104v5.7104h-5.7104zm11.421 0h5.7104v5.7104h-5.7104zm5.7104 0h5.7104v5.7104h-5.7104zm11.421 0h5.7104v5.7104h-5.7104zm5.7104 0h5.7104v5.7104h-5.7104zm5.7104 0h5.7104v5.7104h-5.7104zm11.421 0h5.7104v5.7104h-5.7104zm5.7104 0h5.7104v5.7104h-5.7104zm5.7104 0h5.7104v5.7104h-5.7104zm5.7104 0h5.7104v5.7104h-5.7104zm-274.1 5.7104h5.7104v5.7104h-5.7104zm17.131 0h5.7104v5.7104h-5.7104zm5.7104 0h5.7104v5.7104h-5.7104zm5.7104 0h5.7104v5.7104h-5.7104zm17.131 0h5.7104v5.7104h-5.7104zm5.7104 0h5.7104v5.7104h-5.7104zm22.842 0h5.7104v5.7104h-5.7104zm17.131 0h5.7104v5.7104h-5.7104zm5.7104 0h5.7104v5.7104h-5.7104zm11.421 0h5.7104v5.7104h-5.7104zm17.131 0h5.7104v5.7104h-5.7104zm11.421 0h5.7104v5.7104h-5.7104zm34.262 0h5.7104v5.7104h-5.7104zm11.421 0h5.7104v5.7104h-5.7104zm34.262 0h5.7104v5.7104h-5.7104zm11.421 0h5.7104v5.7104h-5.7104zm17.131 0h5.7104v5.7104h-5.7104zm5.7104 0h5.7104v5.7104h-5.7104zm5.7104 0h5.7104v5.7104h-5.7104zm11.421 0h5.7104v5.7104h-5.7104zm-262.68 5.7104h5.7104v5.7104h-5.7104zm11.421 0h5.7104v5.7104h-5.7104zm5.7104 0h5.7104v5.7104h-5.7104zm11.421 0h5.7104v5.7104h-5.7104zm5.7104 0h5.7104v5.7104h-5.7104zm5.7104 0h5.7104v5.7104h-5.7104zm17.131 0h5.7104v5.7104h-5.7104zm5.7104 0h5.7104v5.7104h-5.7104zm17.131 0h5.7104v5.7104h-5.7104zm28.552 0h5.7104v5.7104h-5.7104zm5.7104 0h5.7104v5.7104h-5.7104zm5.7104 0h5.7104v5.7104h-5.7104zm17.131 0h5.7104v5.7104h-5.7104zm11.421 0h5.7104v5.7104h-5.7104zm5.7104 0h5.7104v5.7104h-5.7104zm5.7104 0h5.7104v5.7104h-5.7104zm11.421 0h5.7104v5.7104h-5.7104zm17.131 0h5.7104v5.7104h-5.7104zm5.7104 0h5.7104v5.7104h-5.7104zm5.7104 0h5.7104v5.7104h-5.7104zm17.131 0h5.7104v5.7104h-5.7104zm5.7104 0h5.7104v5.7104h-5.7104zm11.421 0h5.7104v5.7104h-5.7104zm11.421 0h5.7104v5.7104h-5.7104zm5.7104 0h5.7104v5.7104h-5.7104zm5.7104 0h5.7104v5.7104h-5.7104zm11.421 0h5.7104v5.7104h-5.7104zm-268.39 5.7104h5.7104v5.7104h-5.7104zm17.131 0h5.7104v5.7104h-5.7104zm28.552 0h5.7104v5.7104h-5.7104zm5.7104 0h5.7104v5.7104h-5.7104zm5.7104 0h5.7104v5.7104h-5.7104zm5.7104 0h5.7104v5.7104h-5.7104zm5.7104 0h5.7104v5.7104h-5.7104zm5.7104 0h5.7104v5.7104h-5.7104zm5.7104 0h5.7104v5.7104h-5.7104zm17.131 0h5.7104v5.7104h-5.7104zm22.842 0h5.7104v5.7104h-5.7104zm5.7104 0h5.7104v5.7104h-5.7104zm5.7104 0h5.7104v5.7104h-5.7104zm11.421 0h5.7104v5.7104h-5.7104zm11.421 0h5.7104v5.7104h-5.7104zm17.131 0h5.7104v5.7104h-5.7104zm22.842 0h5.7104v5.7104h-5.7104zm5.7104 0h5.7104v5.7104h-5.7104zm22.842 0h5.7104v5.7104h-5.7104zm5.7104 0h5.7104v5.7104h-5.7104zm11.421 0h5.7104v5.7104h-5.7104zm17.131 0h5.7104v5.7104h-5.7104zm-256.97 5.7104h5.7104v5.7104h-5.7104zm22.842 0h5.7104v5.7104h-5.7104zm5.7104 0h5.7104v5.7104h-5.7104zm22.842 0h5.7104v5.7104h-5.7104zm11.421 0h5.7104v5.7104h-5.7104zm5.7104 0h5.7104v5.7104h-5.7104zm11.421 0h5.7104v5.7104h-5.7104zm5.7104 0h5.7104v5.7104h-5.7104zm5.7104 0h5.7104v5.7104h-5.7104zm17.131 0h5.7104v5.7104h-5.7104zm5.7104 0h5.7104v5.7104h-5.7104zm5.7104 0h5.7104v5.7104h-5.7104zm5.7104 0h5.7104v5.7104h-5.7104zm28.552 0h5.7104v5.7104h-5.7104zm28.552 0h5.7104v5.7104h-5.7104zm5.7104 0h5.7104v5.7104h-5.7104zm5.7104 0h5.7104v5.7104h-5.7104zm17.131 0h5.7104v5.7104h-5.7104zm11.421 0h5.7104v5.7104h-5.7104zm5.7104 0h5.7104v5.7104h-5.7104zm5.7104 0h5.7104v5.7104h-5.7104zm17.131 0h5.7104v5.7104h-5.7104zm5.7104 0h5.7104v5.7104h-5.7104zm5.7104 0h5.7104v5.7104h-5.7104zm5.7104 0h5.7104v5.7104h-5.7104zm-268.39 5.7104h5.7104v5.7104h-5.7104zm5.7104 0h5.7104v5.7104h-5.7104zm5.7104 0h5.7104v5.7104h-5.7104zm45.683 0h5.7104v5.7104h-5.7104zm51.394 0h5.7104v5.7104h-5.7104zm11.421 0h5.7104v5.7104h-5.7104zm11.421 0h5.7104v5.7104h-5.7104zm17.131 0h5.7104v5.7104h-5.7104zm17.131 0h5.7104v5.7104h-5.7104zm5.7104 0h5.7104v5.7104h-5.7104zm5.7104 0h5.7104v5.7104h-5.7104zm11.421 0h5.7104v5.7104h-5.7104zm17.131 0h5.7104v5.7104h-5.7104zm5.7104 0h5.7104v5.7104h-5.7104zm17.131 0h5.7104v5.7104h-5.7104zm11.421 0h5.7104v5.7104h-5.7104zm17.131 0h5.7104v5.7104h-5.7104zm5.7104 0h5.7104v5.7104h-5.7104zm-268.39 5.7104h5.7104v5.7104h-5.7104zm5.7104 0h5.7104v5.7104h-5.7104zm5.7104 0h5.7104v5.7104h-5.7104zm22.842 0h5.7104v5.7104h-5.7104zm5.7104 0h5.7104v5.7104h-5.7104zm5.7104 0h5.7104v5.7104h-5.7104zm11.421 0h5.7104v5.7104h-5.7104zm11.421 0h5.7104v5.7104h-5.7104zm5.7104 0h5.7104v5.7104h-5.7104zm17.131 0h5.7104v5.7104h-5.7104zm5.7104 0h5.7104v5.7104h-5.7104zm17.131 0h5.7104v5.7104h-5.7104zm5.7104 0h5.7104v5.7104h-5.7104zm5.7104 0h5.7104v5.7104h-5.7104zm5.7104 0h5.7104v5.7104h-5.7104zm5.7104 0h5.7104v5.7104h-5.7104zm5.7104 0h5.7104v5.7104h-5.7104zm5.7104 0h5.7104v5.7104h-5.7104zm17.131 0h5.7104v5.7104h-5.7104zm11.421 0h5.7104v5.7104h-5.7104zm11.421 0h5.7104v5.7104h-5.7104zm5.7104 0h5.7104v5.7104h-5.7104zm5.7104 0h5.7104v5.7104h-5.7104zm5.7104 0h5.7104v5.7104h-5.7104zm11.421 0h5.7104v5.7104h-5.7104zm5.7104 0h5.7104v5.7104h-5.7104zm5.7104 0h5.7104v5.7104h-5.7104zm5.7104 0h5.7104v5.7104h-5.7104zm5.7104 0h5.7104v5.7104h-5.7104zm5.7104 0h5.7104v5.7104h-5.7104zm5.7104 0h5.7104v5.7104h-5.7104zm5.7104 0h5.7104v5.7104h-5.7104zm-211.28 5.7104h5.7104v5.7104h-5.7104zm11.421 0h5.7104v5.7104h-5.7104zm5.7104 0h5.7104v5.7104h-5.7104zm11.421 0h5.7104v5.7104h-5.7104zm5.7104 0h5.7104v5.7104h-5.7104zm11.421 0h5.7104v5.7104h-5.7104zm5.7104 0h5.7104v5.7104h-5.7104zm5.7104 0h5.7104v5.7104h-5.7104zm5.7104 0h5.7104v5.7104h-5.7104zm11.421 0h5.7104v5.7104h-5.7104zm5.7104 0h5.7104v5.7104h-5.7104zm22.842 0h5.7104v5.7104h-5.7104zm5.7104 0h5.7104v5.7104h-5.7104zm5.7104 0h5.7104v5.7104h-5.7104zm5.7104 0h5.7104v5.7104h-5.7104zm11.421 0h5.7104v5.7104h-5.7104zm17.131 0h5.7104v5.7104h-5.7104zm17.131 0h5.7104v5.7104h-5.7104zm5.7104 0h5.7104v5.7104h-5.7104zm11.421 0h5.7104v5.7104h-5.7104zm22.842 0h5.7104v5.7104h-5.7104zm-251.26 5.7104h5.7104v5.7104h-5.7104zm5.7104 0h5.7104v5.7104h-5.7104zm5.7104 0h5.7104v5.7104h-5.7104zm5.7104 0h5.7104v5.7104h-5.7104zm5.7104 0h5.7104v5.7104h-5.7104zm5.7104 0h5.7104v5.7104h-5.7104zm5.7104 0h5.7104v5.7104h-5.7104zm17.131 0h5.7104v5.7104h-5.7104zm11.421 0h5.7104v5.7104h-5.7104zm5.7104 0h5.7104v5.7104h-5.7104zm17.131 0h5.7104v5.7104h-5.7104zm5.7104 0h5.7104v5.7104h-5.7104zm5.7104 0h5.7104v5.7104h-5.7104zm28.552 0h5.7104v5.7104h-5.7104zm11.421 0h5.7104v5.7104h-5.7104zm11.421 0h5.7104v5.7104h-5.7104zm5.7104 0h5.7104v5.7104h-5.7104zm5.7104 0h5.7104v5.7104h-5.7104zm5.7104 0h5.7104v5.7104h-5.7104zm22.842 0h5.7104v5.7104h-5.7104zm11.421 0h5.7104v5.7104h-5.7104zm28.552 0h5.7104v5.7104h-5.7104zm11.421 0h5.7104v5.7104h-5.7104zm11.421 0h5.7104v5.7104h-5.7104zm5.7104 0h5.7104v5.7104h-5.7104zm11.421 0h5.7104v5.7104h-5.7104zm5.7104 0h5.7104v5.7104h-5.7104zm-274.1 5.7104h5.7104v5.7104h-5.7104zm34.262 0h5.7104v5.7104h-5.7104zm22.842 0h5.7104v5.7104h-5.7104zm5.7104 0h5.7104v5.7104h-5.7104zm11.421 0h5.7104v5.7104h-5.7104zm5.7104 0h5.7104v5.7104h-5.7104zm11.421 0h5.7104v5.7104h-5.7104zm5.7104 0h5.7104v5.7104h-5.7104zm5.7104 0h5.7104v5.7104h-5.7104zm11.421 0h5.7104v5.7104h-5.7104zm5.7104 0h5.7104v5.7104h-5.7104zm5.7104 0h5.7104v5.7104h-5.7104zm22.842 0h5.7104v5.7104h-5.7104zm5.7104 0h5.7104v5.7104h-5.7104zm5.7104 0h5.7104v5.7104h-5.7104zm5.7104 0h5.7104v5.7104h-5.7104zm5.7104 0h5.7104v5.7104h-5.7104zm5.7104 0h5.7104v5.7104h-5.7104zm5.7104 0h5.7104v5.7104h-5.7104zm11.421 0h5.7104v5.7104h-5.7104zm17.131 0h5.7104v5.7104h-5.7104zm5.7104 0h5.7104v5.7104h-5.7104zm5.7104 0h5.7104v5.7104h-5.7104zm5.7104 0h5.7104v5.7104h-5.7104zm22.842 0h5.7104v5.7104h-5.7104zm17.131 0h5.7104v5.7104h-5.7104zm5.7104 0h5.7104v5.7104h-5.7104zm-274.1 5.7104h5.7104v5.7104h-5.7104zm11.421 0h5.7104v5.7104h-5.7104zm5.7104 0h5.7104v5.7104h-5.7104zm5.7104 0h5.7104v5.7104h-5.7104zm11.421 0h5.7104v5.7104h-5.7104zm11.421 0h5.7104v5.7104h-5.7104zm17.131 0h5.7104v5.7104h-5.7104zm11.421 0h5.7104v5.7104h-5.7104zm5.7104 0h5.7104v5.7104h-5.7104zm5.7104 0h5.7104v5.7104h-5.7104zm11.421 0h5.7104v5.7104h-5.7104zm5.7104 0h5.7104v5.7104h-5.7104zm11.421 0h5.7104v5.7104h-5.7104zm11.421 0h5.7104v5.7104h-5.7104zm5.7104 0h5.7104v5.7104h-5.7104zm5.7104 0h5.7104v5.7104h-5.7104zm5.7104 0h5.7104v5.7104h-5.7104zm5.7104 0h5.7104v5.7104h-5.7104zm5.7104 0h5.7104v5.7104h-5.7104zm5.7104 0h5.7104v5.7104h-5.7104zm5.7104 0h5.7104v5.7104h-5.7104zm5.7104 0h5.7104v5.7104h-5.7104zm5.7104 0h5.7104v5.7104h-5.7104zm11.421 0h5.7104v5.7104h-5.7104zm5.7104 0h5.7104v5.7104h-5.7104zm5.7104 0h5.7104v5.7104h-5.7104zm5.7104 0h5.7104v5.7104h-5.7104zm5.7104 0h5.7104v5.7104h-5.7104zm5.7104 0h5.7104v5.7104h-5.7104zm5.7104 0h5.7104v5.7104h-5.7104zm5.7104 0h5.7104v5.7104h-5.7104zm5.7104 0h5.7104v5.7104h-5.7104zm5.7104 0h5.7104v5.7104h-5.7104zm5.7104 0h5.7104v5.7104h-5.7104zm5.7104 0h5.7104v5.7104h-5.7104zm11.421 0h5.7104v5.7104h-5.7104zm-262.68 5.7104h5.7104v5.7104h-5.7104zm11.421 0h5.7104v5.7104h-5.7104zm5.7104 0h5.7104v5.7104h-5.7104zm5.7104 0h5.7104v5.7104h-5.7104zm11.421 0h5.7104v5.7104h-5.7104zm11.421 0h5.7104v5.7104h-5.7104zm11.421 0h5.7104v5.7104h-5.7104zm5.7104 0h5.7104v5.7104h-5.7104zm34.262 0h5.7104v5.7104h-5.7104zm28.552 0h5.7104v5.7104h-5.7104zm17.131 0h5.7104v5.7104h-5.7104zm5.7104 0h5.7104v5.7104h-5.7104zm28.552 0h5.7104v5.7104h-5.7104zm5.7104 0h5.7104v5.7104h-5.7104zm17.131 0h5.7104v5.7104h-5.7104zm5.7104 0h5.7104v5.7104h-5.7104zm5.7104 0h5.7104v5.7104h-5.7104zm22.842 0h5.7104v5.7104h-5.7104zm17.131 0h5.7104v5.7104h-5.7104zm5.7104 0h5.7104v5.7104h-5.7104zm17.131 0h5.7104v5.7104h-5.7104zm-274.1 5.7104h5.7104v5.7104h-5.7104zm11.421 0h5.7104v5.7104h-5.7104zm5.7104 0h5.7104v5.7104h-5.7104zm5.7104 0h5.7104v5.7104h-5.7104zm11.421 0h5.7104v5.7104h-5.7104zm11.421 0h5.7104v5.7104h-5.7104zm17.131 0h5.7104v5.7104h-5.7104zm5.7104 0h5.7104v5.7104h-5.7104zm5.7104 0h5.7104v5.7104h-5.7104zm5.7104 0h5.7104v5.7104h-5.7104zm5.7104 0h5.7104v5.7104h-5.7104zm11.421 0h5.7104v5.7104h-5.7104zm5.7104 0h5.7104v5.7104h-5.7104zm5.7104 0h5.7104v5.7104h-5.7104zm17.131 0h5.7104v5.7104h-5.7104zm5.7104 0h5.7104v5.7104h-5.7104zm5.7104 0h5.7104v5.7104h-5.7104zm11.421 0h5.7104v5.7104h-5.7104zm22.842 0h5.7104v5.7104h-5.7104zm5.7104 0h5.7104v5.7104h-5.7104zm5.7104 0h5.7104v5.7104h-5.7104zm11.421 0h5.7104v5.7104h-5.7104zm11.421 0h5.7104v5.7104h-5.7104zm5.7104 0h5.7104v5.7104h-5.7104zm5.7104 0h5.7104v5.7104h-5.7104zm5.7104 0h5.7104v5.7104h-5.7104zm11.421 0h5.7104v5.7104h-5.7104zm11.421 0h5.7104v5.7104h-5.7104zm11.421 0h5.7104v5.7104h-5.7104zm11.421 0h5.7104v5.7104h-5.7104zm5.7104 0h5.7104v5.7104h-5.7104zm-274.1 5.7104h5.7104v5.7104h-5.7104zm34.262 0h5.7104v5.7104h-5.7104zm22.842 0h5.7104v5.7104h-5.7104zm17.131 0h5.7104v5.7104h-5.7104zm11.421 0h5.7104v5.7104h-5.7104zm11.421 0h5.7104v5.7104h-5.7104zm5.7104 0h5.7104v5.7104h-5.7104zm11.421 0h5.7104v5.7104h-5.7104zm11.421 0h5.7104v5.7104h-5.7104zm11.421 0h5.7104v5.7104h-5.7104zm11.421 0h5.7104v5.7104h-5.7104zm34.262 0h5.7104v5.7104h-5.7104zm5.7104 0h5.7104v5.7104h-5.7104zm45.683 0h5.7104v5.7104h-5.7104zm5.7104 0h5.7104v5.7104h-5.7104zm5.7104 0h5.7104v5.7104h-5.7104zm11.421 0h5.7104v5.7104h-5.7104zm17.131 0h5.7104v5.7104h-5.7104zm-274.1 5.7104h5.7104v5.7104h-5.7104zm5.7104 0h5.7104v5.7104h-5.7104zm5.7104 0h5.7104v5.7104h-5.7104zm5.7104 0h5.7104v5.7104h-5.7104zm5.7104 0h5.7104v5.7104h-5.7104zm5.7104 0h5.7104v5.7104h-5.7104zm5.7104 0h5.7104v5.7104h-5.7104zm22.842 0h5.7104v5.7104h-5.7104zm5.7104 0h5.7104v5.7104h-5.7104zm22.842 0h5.7104v5.7104h-5.7104zm34.262 0h5.7104v5.7104h-5.7104zm11.421 0h5.7104v5.7104h-5.7104zm17.131 0h5.7104v5.7104h-5.7104zm28.552 0h5.7104v5.7104h-5.7104zm17.131 0h5.7104v5.7104h-5.7104zm5.7104 0h5.7104v5.7104h-5.7104zm5.7104 0h5.7104v5.7104h-5.7104zm11.421 0h5.7104v5.7104h-5.7104zm5.7104 0h5.7104v5.7104h-5.7104zm11.421 0h5.7104v5.7104h-5.7104zm11.421 0h5.7104v5.7104h-5.7104zm5.7104 0h5.7104v5.7104h-5.7104zm5.7104 0h5.7104v5.7104h-5.7104zm5.7104 0h5.7104v5.7104h-5.7104zm5.7104 0h5.7104v5.7104h-5.7104zm5.7104 0h5.7104v5.7104h-5.7104z" display="none" stroke-width="5.7104"/><path transform="matrix(2.6042 0 0 2.6042 -1023.9 -1001.2)" d="m465.28 631.46h2.9036v2.9036h-2.9036zm2.9036 0h2.9036v2.9036h-2.9036zm2.9036 0h2.9036v2.9036h-2.9036zm2.9036 0h2.9036v2.9036h-2.9036zm2.9036 0h2.9036v2.9036h-2.9036zm2.9036 0h2.9037v2.9036h-2.9037zm2.9037 0h2.9036v2.9036h-2.9036zm5.8073 0h2.9036v2.9036h-2.9036zm2.9036 0h2.9036v2.9036h-2.9036zm8.7109 0h2.9036v2.9036h-2.9036zm2.9036 0h2.9036v2.9036h-2.9036zm2.9036 0h2.9036v2.9036h-2.9036zm5.8073 0h2.9036v2.9036h-2.9036zm5.8073 0h2.9036v2.9036h-2.9036zm2.9036 0h2.9036v2.9036h-2.9036zm2.9036 0h2.9037v2.9036h-2.9037zm11.615 0h2.9037v2.9036h-2.9037zm17.422 0h2.9036v2.9036h-2.9036zm2.9036 0h2.9036v2.9036h-2.9036zm2.9036 0h2.9037v2.9036h-2.9037zm2.9037 0h2.9036v2.9036h-2.9036zm2.9036 0h2.9036v2.9036h-2.9036zm2.9036 0h2.9036v2.9036h-2.9036zm2.9036 0h2.9036v2.9036h-2.9036zm-104.53 2.9036h2.9036v2.9036h-2.9036zm17.422 0h2.9036v2.9036h-2.9036zm5.8073 0h2.9036v2.9036h-2.9036zm2.9036 0h2.9036v2.9036h-2.9036zm5.8073 0h2.9036v2.9036h-2.9036zm5.8073 0h2.9036v2.9036h-2.9036zm5.8073 0h2.9036v2.9036h-2.9036zm2.9036 0h2.9036v2.9036h-2.9036zm5.8073 0h2.9036v2.9036h-2.9036zm2.9036 0h2.9036v2.9036h-2.9036zm2.9036 0h2.9037v2.9036h-2.9037zm2.9037 0h2.9036v2.9036h-2.9036zm2.9036 0h2.9036v2.9036h-2.9036zm2.9036 0h2.9036v2.9036h-2.9036zm5.8073 0h2.9036v2.9036h-2.9036zm5.8073 0h2.9037v2.9036h-2.9037zm8.7109 0h2.9036v2.9036h-2.9036zm17.422 0h2.9036v2.9036h-2.9036zm-104.53 2.9036h2.9036v2.9036h-2.9036zm5.8073 0h2.9036v2.9036h-2.9036zm2.9036 0h2.9036v2.9036h-2.9036zm2.9036 0h2.9036v2.9036h-2.9036zm5.8073 0h2.9036v2.9036h-2.9036zm14.518 0h2.9036v2.9036h-2.9036zm5.8073 0h2.9036v2.9036h-2.9036zm5.8073 0h2.9036v2.9036h-2.9036zm5.8073 0h2.9036v2.9036h-2.9036zm14.518 0h2.9036v2.9036h-2.9036zm2.9036 0h2.9036v2.9036h-2.9036zm8.7109 0h2.9036v2.9036h-2.9036zm2.9036 0h2.9037v2.9036h-2.9037zm2.9037 0h2.9036v2.9036h-2.9036zm5.8073 0h2.9036v2.9036h-2.9036zm5.8073 0h2.9037v2.9036h-2.9037zm2.9037 0h2.9036v2.9036h-2.9036zm2.9036 0h2.9036v2.9036h-2.9036zm5.8073 0h2.9036v2.9036h-2.9036zm-104.53 2.9036h2.9036v2.9036h-2.9036zm5.8073 0h2.9036v2.9036h-2.9036zm2.9036 0h2.9036v2.9036h-2.9036zm2.9036 0h2.9036v2.9036h-2.9036zm5.8073 0h2.9036v2.9036h-2.9036zm5.8073 0h2.9036v2.9036h-2.9036zm2.9036 0h2.9036v2.9036h-2.9036zm2.9036 0h2.9037v2.9036h-2.9037zm5.8073 0h2.9036v2.9036h-2.9036zm8.7109 0h2.9036v2.9036h-2.9036zm5.8073 0h2.9036v2.9036h-2.9036zm2.9036 0h2.9036v2.9036h-2.9036zm2.9036 0h2.9036v2.9036h-2.9036zm2.9036 0h2.9037v2.9036h-2.9037zm2.9037 0h2.9036v2.9036h-2.9036zm5.8073 0h2.9036v2.9036h-2.9036zm2.9036 0h2.9037v2.9036h-2.9037zm2.9037 0h2.9036v2.9036h-2.9036zm2.9036 0h2.9036v2.9036h-2.9036zm2.9036 0h2.9037v2.9036h-2.9037zm8.7109 0h2.9036v2.9036h-2.9036zm5.8073 0h2.9037v2.9036h-2.9037zm2.9037 0h2.9036v2.9036h-2.9036zm2.9036 0h2.9036v2.9036h-2.9036zm5.8073 0h2.9036v2.9036h-2.9036zm-104.53 2.9036h2.9036v2.9036h-2.9036zm5.8073 0h2.9036v2.9036h-2.9036zm2.9036 0h2.9036v2.9036h-2.9036zm2.9036 0h2.9036v2.9036h-2.9036zm5.8073 0h2.9036v2.9036h-2.9036zm5.8073 0h2.9036v2.9036h-2.9036zm5.8073 0h2.9037v2.9036h-2.9037zm11.615 0h2.9036v2.9036h-2.9036zm2.9036 0h2.9036v2.9036h-2.9036zm2.9036 0h2.9036v2.9036h-2.9036zm5.8073 0h2.9036v2.9036h-2.9036zm8.7109 0h2.9036v2.9036h-2.9036zm2.9036 0h2.9036v2.9036h-2.9036zm2.9036 0h2.9036v2.9036h-2.9036zm5.8073 0h2.9036v2.9036h-2.9036zm2.9036 0h2.9036v2.9036h-2.9036zm2.9036 0h2.9037v2.9036h-2.9037zm8.7109 0h2.9036v2.9036h-2.9036zm5.8073 0h2.9037v2.9036h-2.9037zm2.9037 0h2.9036v2.9036h-2.9036zm2.9036 0h2.9036v2.9036h-2.9036zm5.8073 0h2.9036v2.9036h-2.9036zm-104.53 2.9036h2.9036v2.9037h-2.9036zm17.422 0h2.9036v2.9037h-2.9036zm5.8073 0h2.9036v2.9037h-2.9036zm2.9036 0h2.9036v2.9037h-2.9036zm26.133 0h2.9036v2.9037h-2.9036zm2.9036 0h2.9036v2.9037h-2.9036zm5.8073 0h2.9036v2.9037h-2.9036zm2.9036 0h2.9036v2.9037h-2.9036zm5.8073 0h2.9037v2.9037h-2.9037zm2.9037 0h2.9036v2.9037h-2.9036zm2.9036 0h2.9036v2.9037h-2.9036zm2.9036 0h2.9037v2.9037h-2.9037zm2.9037 0h2.9036v2.9037h-2.9036zm5.8073 0h2.9036v2.9037h-2.9036zm17.422 0h2.9036v2.9037h-2.9036zm-104.53 2.9037h2.9036v2.9036h-2.9036zm2.9036 0h2.9036v2.9036h-2.9036zm2.9036 0h2.9036v2.9036h-2.9036zm2.9036 0h2.9036v2.9036h-2.9036zm2.9036 0h2.9036v2.9036h-2.9036zm2.9036 0h2.9037v2.9036h-2.9037zm2.9037 0h2.9036v2.9036h-2.9036zm5.8073 0h2.9036v2.9036h-2.9036zm5.8073 0h2.9037v2.9036h-2.9037zm5.8073 0h2.9036v2.9036h-2.9036zm5.8073 0h2.9036v2.9036h-2.9036zm5.8073 0h2.9036v2.9036h-2.9036zm5.8073 0h2.9036v2.9036h-2.9036zm5.8073 0h2.9037v2.9036h-2.9037zm5.8073 0h2.9036v2.9036h-2.9036zm5.8073 0h2.9037v2.9036h-2.9037zm5.8073 0h2.9036v2.9036h-2.9036zm5.8073 0h2.9036v2.9036h-2.9036zm5.8073 0h2.9036v2.9036h-2.9036zm2.9036 0h2.9036v2.9036h-2.9036zm2.9036 0h2.9037v2.9036h-2.9037zm2.9037 0h2.9036v2.9036h-2.9036zm2.9036 0h2.9036v2.9036h-2.9036zm2.9036 0h2.9036v2.9036h-2.9036zm2.9036 0h2.9036v2.9036h-2.9036zm-66.784 2.9036h2.9036v2.9036h-2.9036zm8.7109 0h2.9036v2.9036h-2.9036zm2.9036 0h2.9036v2.9036h-2.9036zm8.7109 0h2.9037v2.9036h-2.9037zm17.422 0h2.9036v2.9036h-2.9036zm-66.784 2.9036h2.9036v2.9036h-2.9036zm8.7109 0h2.9036v2.9036h-2.9036zm17.422 0h2.9036v2.9036h-2.9036zm2.9036 0h2.9036v2.9036h-2.9036zm5.8073 0h2.9036v2.9036h-2.9036zm2.9036 0h2.9036v2.9036h-2.9036zm2.9036 0h2.9036v2.9036h-2.9036zm5.8073 0h2.9036v2.9036h-2.9036zm2.9036 0h2.9037v2.9036h-2.9037zm5.8073 0h2.9036v2.9036h-2.9036zm5.8073 0h2.9037v2.9036h-2.9037zm8.7109 0h2.9037v2.9036h-2.9037zm2.9037 0h2.9036v2.9036h-2.9036zm8.7109 0h2.9036v2.9036h-2.9036zm2.9036 0h2.9037v2.9036h-2.9037zm2.9037 0h2.9036v2.9036h-2.9036zm5.8073 0h2.9036v2.9036h-2.9036zm2.9036 0h2.9036v2.9036h-2.9036zm-101.63 2.9036h2.9036v2.9036h-2.9036zm8.7109 0h2.9036v2.9036h-2.9036zm14.518 0h2.9036v2.9036h-2.9036zm2.9036 0h2.9037v2.9036h-2.9037zm2.9037 0h2.9036v2.9036h-2.9036zm8.7109 0h2.9036v2.9036h-2.9036zm11.615 0h2.9036v2.9036h-2.9036zm2.9036 0h2.9036v2.9036h-2.9036zm2.9036 0h2.9037v2.9036h-2.9037zm5.8073 0h2.9036v2.9036h-2.9036zm2.9036 0h2.9036v2.9036h-2.9036zm8.7109 0h2.9036v2.9036h-2.9036zm2.9036 0h2.9037v2.9036h-2.9037zm2.9037 0h2.9036v2.9036h-2.9036zm2.9036 0h2.9036v2.9036h-2.9036zm2.9036 0h2.9036v2.9036h-2.9036zm8.7109 0h2.9036v2.9036h-2.9036zm8.7109 0h2.9036v2.9036h-2.9036zm-98.724 2.9036h2.9036v2.9037h-2.9036zm8.7109 0h2.9037v2.9037h-2.9037zm2.9037 0h2.9036v2.9037h-2.9036zm5.8073 0h2.9036v2.9037h-2.9036zm2.9036 0h2.9036v2.9037h-2.9036zm5.8073 0h2.9036v2.9037h-2.9036zm2.9036 0h2.9036v2.9037h-2.9036zm5.8073 0h2.9036v2.9037h-2.9036zm2.9036 0h2.9036v2.9037h-2.9036zm8.7109 0h2.9036v2.9037h-2.9036zm2.9036 0h2.9036v2.9037h-2.9036zm2.9036 0h2.9037v2.9037h-2.9037zm2.9037 0h2.9036v2.9037h-2.9036zm8.7109 0h2.9037v2.9037h-2.9037zm8.7109 0h2.9037v2.9037h-2.9037zm8.7109 0h2.9036v2.9037h-2.9036zm5.8073 0h2.9037v2.9037h-2.9037zm5.8073 0h2.9036v2.9037h-2.9036zm2.9036 0h2.9036v2.9037h-2.9036zm2.9036 0h2.9036v2.9037h-2.9036zm-101.63 2.9037h2.9036v2.9036h-2.9036zm11.615 0h2.9037v2.9036h-2.9037zm5.8073 0h2.9036v2.9036h-2.9036zm2.9036 0h2.9036v2.9036h-2.9036zm2.9036 0h2.9036v2.9036h-2.9036zm5.8073 0h2.9036v2.9036h-2.9036zm2.9036 0h2.9036v2.9036h-2.9036zm8.7109 0h2.9036v2.9036h-2.9036zm5.8073 0h2.9036v2.9036h-2.9036zm2.9036 0h2.9036v2.9036h-2.9036zm2.9036 0h2.9036v2.9036h-2.9036zm2.9036 0h2.9037v2.9036h-2.9037zm2.9037 0h2.9036v2.9036h-2.9036zm11.615 0h2.9036v2.9036h-2.9036zm8.7109 0h2.9036v2.9036h-2.9036zm8.7109 0h2.9036v2.9036h-2.9036zm-87.109 2.9036h2.9036v2.9036h-2.9036zm11.615 0h2.9037v2.9036h-2.9037zm2.9037 0h2.9036v2.9036h-2.9036zm2.9036 0h2.9036v2.9036h-2.9036zm5.8073 0h2.9036v2.9036h-2.9036zm5.8073 0h2.9036v2.9036h-2.9036zm5.8073 0h2.9036v2.9036h-2.9036zm2.9036 0h2.9036v2.9036h-2.9036zm5.8073 0h2.9036v2.9036h-2.9036zm5.8073 0h2.9036v2.9036h-2.9036zm2.9036 0h2.9036v2.9036h-2.9036zm2.9036 0h2.9037v2.9036h-2.9037zm2.9037 0h2.9036v2.9036h-2.9036zm5.8073 0h2.9036v2.9036h-2.9036zm2.9036 0h2.9037v2.9036h-2.9037zm2.9037 0h2.9036v2.9036h-2.9036zm5.8073 0h2.9037v2.9036h-2.9037zm2.9037 0h2.9036v2.9036h-2.9036zm2.9036 0h2.9036v2.9036h-2.9036zm2.9036 0h2.9036v2.9036h-2.9036zm2.9036 0h2.9036v2.9036h-2.9036zm2.9036 0h2.9037v2.9036h-2.9037zm-87.109 2.9036h2.9036v2.9036h-2.9036zm8.7109 0h2.9037v2.9036h-2.9037zm23.229 0h2.9036v2.9036h-2.9036zm2.9036 0h2.9036v2.9036h-2.9036zm2.9036 0h2.9036v2.9036h-2.9036zm5.8073 0h2.9036v2.9036h-2.9036zm5.8073 0h2.9036v2.9036h-2.9036zm5.8073 0h2.9036v2.9036h-2.9036zm2.9036 0h2.9036v2.9036h-2.9036zm2.9036 0h2.9036v2.9036h-2.9036zm2.9036 0h2.9037v2.9036h-2.9037zm2.9037 0h2.9036v2.9036h-2.9036zm5.8073 0h2.9037v2.9036h-2.9037zm8.7109 0h2.9036v2.9036h-2.9036zm2.9036 0h2.9036v2.9036h-2.9036zm5.8073 0h2.9036v2.9036h-2.9036zm5.8073 0h2.9036v2.9036h-2.9036zm2.9036 0h2.9036v2.9036h-2.9036zm-101.63 2.9036h2.9036v2.9036h-2.9036zm2.9036 0h2.9036v2.9036h-2.9036zm11.615 0h2.9036v2.9036h-2.9036zm2.9036 0h2.9036v2.9036h-2.9036zm2.9036 0h2.9036v2.9036h-2.9036zm5.8073 0h2.9037v2.9036h-2.9037zm2.9037 0h2.9036v2.9036h-2.9036zm2.9036 0h2.9036v2.9036h-2.9036zm5.8073 0h2.9036v2.9036h-2.9036zm5.8073 0h2.9036v2.9036h-2.9036zm2.9036 0h2.9036v2.9036h-2.9036zm5.8073 0h2.9036v2.9036h-2.9036zm11.615 0h2.9036v2.9036h-2.9036zm2.9036 0h2.9037v2.9036h-2.9037zm23.229 0h2.9037v2.9036h-2.9037zm5.8073 0h2.9036v2.9036h-2.9036zm5.8073 0h2.9036v2.9036h-2.9036zm-104.53 2.9036h2.9036v2.9036h-2.9036zm5.8073 0h2.9036v2.9036h-2.9036zm2.9036 0h2.9036v2.9036h-2.9036zm5.8073 0h2.9037v2.9036h-2.9037zm5.8073 0h2.9036v2.9036h-2.9036zm2.9036 0h2.9036v2.9036h-2.9036zm5.8073 0h2.9037v2.9036h-2.9037zm2.9037 0h2.9036v2.9036h-2.9036zm5.8073 0h2.9036v2.9036h-2.9036zm2.9036 0h2.9036v2.9036h-2.9036zm2.9036 0h2.9036v2.9036h-2.9036zm2.9036 0h2.9036v2.9036h-2.9036zm2.9036 0h2.9036v2.9036h-2.9036zm2.9036 0h2.9036v2.9036h-2.9036zm2.9036 0h2.9036v2.9036h-2.9036zm2.9036 0h2.9037v2.9036h-2.9037zm11.615 0h2.9037v2.9036h-2.9037zm2.9037 0h2.9036v2.9036h-2.9036zm5.8073 0h2.9037v2.9036h-2.9037zm2.9037 0h2.9036v2.9036h-2.9036zm5.8073 0h2.9036v2.9036h-2.9036zm2.9036 0h2.9036v2.9036h-2.9036zm2.9036 0h2.9037v2.9036h-2.9037zm8.7109 0h2.9036v2.9036h-2.9036zm-101.63 2.9036h2.9036v2.9036h-2.9036zm2.9036 0h2.9036v2.9036h-2.9036zm5.8073 0h2.9036v2.9036h-2.9036zm8.7109 0h2.9036v2.9036h-2.9036zm8.7109 0h2.9036v2.9036h-2.9036zm2.9036 0h2.9037v2.9036h-2.9037zm5.8073 0h2.9036v2.9036h-2.9036zm8.7109 0h2.9036v2.9036h-2.9036zm5.8073 0h2.9036v2.9036h-2.9036zm2.9036 0h2.9036v2.9036h-2.9036zm26.133 0h2.9037v2.9036h-2.9037zm5.8073 0h2.9036v2.9036h-2.9036zm2.9036 0h2.9036v2.9036h-2.9036zm2.9036 0h2.9036v2.9036h-2.9036zm5.8073 0h2.9036v2.9036h-2.9036zm2.9036 0h2.9036v2.9036h-2.9036zm5.8073 0h2.9036v2.9036h-2.9036zm-104.53 2.9036h2.9036v2.9036h-2.9036zm5.8073 0h2.9036v2.9036h-2.9036zm8.7109 0h2.9037v2.9036h-2.9037zm8.7109 0h2.9036v2.9036h-2.9036zm5.8073 0h2.9037v2.9036h-2.9037zm2.9037 0h2.9036v2.9036h-2.9036zm14.518 0h2.9036v2.9036h-2.9036zm5.8073 0h2.9036v2.9036h-2.9036zm2.9036 0h2.9036v2.9036h-2.9036zm2.9036 0h2.9037v2.9036h-2.9037zm8.7109 0h2.9036v2.9036h-2.9036zm2.9036 0h2.9037v2.9036h-2.9037zm2.9037 0h2.9036v2.9036h-2.9036zm2.9036 0h2.9036v2.9036h-2.9036zm2.9036 0h2.9037v2.9036h-2.9037zm2.9037 0h2.9036v2.9036h-2.9036zm2.9036 0h2.9036v2.9036h-2.9036zm2.9036 0h2.9036v2.9036h-2.9036zm2.9036 0h2.9036v2.9036h-2.9036zm2.9036 0h2.9037v2.9036h-2.9037zm2.9037 0h2.9036v2.9036h-2.9036zm8.7109 0h2.9036v2.9036h-2.9036zm-104.53 2.9036h2.9036v2.9036h-2.9036zm2.9036 0h2.9036v2.9036h-2.9036zm11.615 0h2.9037v2.9036h-2.9037zm2.9037 0h2.9036v2.9036h-2.9036zm5.8073 0h2.9036v2.9036h-2.9036zm2.9036 0h2.9036v2.9036h-2.9036zm2.9036 0h2.9037v2.9036h-2.9037zm2.9037 0h2.9036v2.9036h-2.9036zm2.9036 0h2.9036v2.9036h-2.9036zm8.7109 0h2.9036v2.9036h-2.9036zm5.8073 0h2.9036v2.9036h-2.9036zm5.8073 0h2.9036v2.9036h-2.9036zm5.8073 0h2.9036v2.9036h-2.9036zm2.9036 0h2.9036v2.9036h-2.9036zm23.229 0h2.9036v2.9036h-2.9036zm2.9036 0h2.9036v2.9036h-2.9036zm2.9036 0h2.9037v2.9036h-2.9037zm2.9037 0h2.9036v2.9036h-2.9036zm2.9036 0h2.9036v2.9036h-2.9036zm2.9036 0h2.9036v2.9036h-2.9036zm2.9036 0h2.9036v2.9036h-2.9036zm-95.82 2.9036h2.9036v2.9036h-2.9036zm2.9036 0h2.9036v2.9036h-2.9036zm2.9036 0h2.9037v2.9036h-2.9037zm8.7109 0h2.9036v2.9036h-2.9036zm5.8073 0h2.9037v2.9036h-2.9037zm5.8073 0h2.9036v2.9036h-2.9036zm2.9036 0h2.9036v2.9036h-2.9036zm5.8073 0h2.9036v2.9036h-2.9036zm20.325 0h2.9036v2.9036h-2.9036zm5.8073 0h2.9037v2.9036h-2.9037zm5.8073 0h2.9036v2.9036h-2.9036zm14.518 0h2.9036v2.9036h-2.9036zm8.7109 0h2.9036v2.9036h-2.9036zm5.8073 0h2.9036v2.9036h-2.9036zm-104.53 2.9036h2.9036v2.9037h-2.9036zm5.8073 0h2.9036v2.9037h-2.9036zm2.9036 0h2.9036v2.9037h-2.9036zm8.7109 0h2.9036v2.9037h-2.9036zm8.7109 0h2.9036v2.9037h-2.9036zm2.9036 0h2.9037v2.9037h-2.9037zm5.8073 0h2.9036v2.9037h-2.9036zm8.7109 0h2.9036v2.9037h-2.9036zm5.8073 0h2.9036v2.9037h-2.9036zm5.8073 0h2.9036v2.9037h-2.9036zm5.8073 0h2.9036v2.9037h-2.9036zm2.9036 0h2.9036v2.9037h-2.9036zm5.8073 0h2.9037v2.9037h-2.9037zm5.8073 0h2.9036v2.9037h-2.9036zm2.9036 0h2.9037v2.9037h-2.9037zm2.9037 0h2.9036v2.9037h-2.9036zm2.9036 0h2.9036v2.9037h-2.9036zm2.9036 0h2.9036v2.9037h-2.9036zm2.9036 0h2.9036v2.9037h-2.9036zm2.9036 0h2.9037v2.9037h-2.9037zm11.615 0h2.9036v2.9037h-2.9036zm-104.53 2.9037h2.9036v2.9036h-2.9036zm2.9036 0h2.9036v2.9036h-2.9036zm5.8073 0h2.9036v2.9036h-2.9036zm11.615 0h2.9036v2.9036h-2.9036zm8.7109 0h2.9037v2.9036h-2.9037zm5.8073 0h2.9036v2.9036h-2.9036zm2.9036 0h2.9036v2.9036h-2.9036zm5.8073 0h2.9036v2.9036h-2.9036zm2.9036 0h2.9036v2.9036h-2.9036zm8.7109 0h2.9036v2.9036h-2.9036zm2.9036 0h2.9037v2.9036h-2.9037zm2.9037 0h2.9036v2.9036h-2.9036zm2.9036 0h2.9036v2.9036h-2.9036zm5.8073 0h2.9037v2.9036h-2.9037zm17.422 0h2.9036v2.9036h-2.9036zm17.422 0h2.9036v2.9036h-2.9036zm-104.53 2.9036h2.9036v2.9036h-2.9036zm2.9036 0h2.9036v2.9036h-2.9036zm2.9036 0h2.9036v2.9036h-2.9036zm2.9036 0h2.9036v2.9036h-2.9036zm2.9036 0h2.9036v2.9036h-2.9036zm2.9036 0h2.9037v2.9036h-2.9037zm2.9037 0h2.9036v2.9036h-2.9036zm2.9036 0h2.9036v2.9036h-2.9036zm2.9036 0h2.9036v2.9036h-2.9036zm2.9036 0h2.9036v2.9036h-2.9036zm5.8073 0h2.9036v2.9036h-2.9036zm2.9036 0h2.9036v2.9036h-2.9036zm2.9036 0h2.9036v2.9036h-2.9036zm2.9036 0h2.9036v2.9036h-2.9036zm2.9036 0h2.9036v2.9036h-2.9036zm8.7109 0h2.9036v2.9036h-2.9036zm8.7109 0h2.9036v2.9036h-2.9036zm2.9036 0h2.9036v2.9036h-2.9036zm5.8073 0h2.9037v2.9036h-2.9037zm14.518 0h2.9036v2.9036h-2.9036zm2.9036 0h2.9036v2.9036h-2.9036zm2.9036 0h2.9036v2.9036h-2.9036zm2.9036 0h2.9037v2.9036h-2.9037zm5.8073 0h2.9036v2.9036h-2.9036zm2.9036 0h2.9036v2.9036h-2.9036zm2.9036 0h2.9036v2.9036h-2.9036zm-104.53 2.9036h2.9036v2.9036h-2.9036zm2.9036 0h2.9036v2.9036h-2.9036zm2.9036 0h2.9036v2.9036h-2.9036zm2.9036 0h2.9036v2.9036h-2.9036zm5.8073 0h2.9037v2.9036h-2.9037zm5.8073 0h2.9036v2.9036h-2.9036zm8.7109 0h2.9037v2.9036h-2.9037zm11.615 0h2.9036v2.9036h-2.9036zm2.9036 0h2.9036v2.9036h-2.9036zm5.8073 0h2.9036v2.9036h-2.9036zm11.615 0h2.9036v2.9036h-2.9036zm5.8073 0h2.9036v2.9036h-2.9036zm2.9036 0h2.9037v2.9036h-2.9037zm5.8073 0h2.9036v2.9036h-2.9036zm8.7109 0h2.9036v2.9036h-2.9036zm8.7109 0h2.9037v2.9036h-2.9037zm8.7109 0h2.9036v2.9036h-2.9036zm2.9036 0h2.9036v2.9036h-2.9036zm-90.013 2.9036h2.9037v2.9037h-2.9037zm2.9037 0h2.9036v2.9037h-2.9036zm8.7109 0h2.9036v2.9037h-2.9036zm2.9036 0h2.9037v2.9037h-2.9037zm2.9037 0h2.9036v2.9037h-2.9036zm5.8073 0h2.9036v2.9037h-2.9036zm5.8073 0h2.9036v2.9037h-2.9036zm2.9036 0h2.9036v2.9037h-2.9036zm8.7109 0h2.9036v2.9037h-2.9036zm5.8073 0h2.9036v2.9037h-2.9036zm5.8073 0h2.9036v2.9037h-2.9036zm2.9036 0h2.9037v2.9037h-2.9037zm8.7109 0h2.9037v2.9037h-2.9037zm2.9037 0h2.9036v2.9037h-2.9036zm2.9036 0h2.9036v2.9037h-2.9036zm2.9036 0h2.9036v2.9037h-2.9036zm8.7109 0h2.9036v2.9037h-2.9036zm2.9036 0h2.9036v2.9037h-2.9036zm2.9036 0h2.9036v2.9037h-2.9036zm-98.724 2.9037h2.9036v2.9036h-2.9036zm2.9036 0h2.9036v2.9036h-2.9036zm2.9036 0h2.9036v2.9036h-2.9036zm5.8073 0h2.9037v2.9036h-2.9037zm8.7109 0h2.9036v2.9036h-2.9036zm5.8073 0h2.9037v2.9036h-2.9037zm5.8073 0h2.9036v2.9036h-2.9036zm11.615 0h2.9036v2.9036h-2.9036zm2.9036 0h2.9036v2.9036h-2.9036zm2.9036 0h2.9036v2.9036h-2.9036zm2.9036 0h2.9036v2.9036h-2.9036zm2.9036 0h2.9037v2.9036h-2.9037zm5.8073 0h2.9036v2.9036h-2.9036zm2.9036 0h2.9036v2.9036h-2.9036zm2.9036 0h2.9037v2.9036h-2.9037zm8.7109 0h2.9037v2.9036h-2.9037zm2.9037 0h2.9036v2.9036h-2.9036zm5.8073 0h2.9036v2.9036h-2.9036zm2.9036 0h2.9036v2.9036h-2.9036zm8.7109 0h2.9036v2.9036h-2.9036zm5.8073 0h2.9036v2.9036h-2.9036zm-104.53 2.9036h2.9036v2.9036h-2.9036zm8.7109 0h2.9036v2.9036h-2.9036zm2.9036 0h2.9036v2.9036h-2.9036zm5.8073 0h2.9036v2.9036h-2.9036zm8.7109 0h2.9036v2.9036h-2.9036zm2.9036 0h2.9037v2.9036h-2.9037zm2.9037 0h2.9036v2.9036h-2.9036zm8.7109 0h2.9036v2.9036h-2.9036zm5.8073 0h2.9036v2.9036h-2.9036zm2.9036 0h2.9036v2.9036h-2.9036zm8.7109 0h2.9037v2.9036h-2.9037zm11.615 0h2.9037v2.9036h-2.9037zm2.9037 0h2.9036v2.9036h-2.9036zm2.9036 0h2.9036v2.9036h-2.9036zm8.7109 0h2.9036v2.9036h-2.9036zm2.9036 0h2.9036v2.9036h-2.9036zm5.8073 0h2.9037v2.9036h-2.9037zm2.9037 0h2.9036v2.9036h-2.9036zm2.9036 0h2.9036v2.9036h-2.9036zm5.8073 0h2.9036v2.9036h-2.9036zm-101.63 2.9036h2.9036v2.9037h-2.9036zm2.9036 0h2.9036v2.9037h-2.9036zm2.9036 0h2.9036v2.9037h-2.9036zm2.9036 0h2.9036v2.9037h-2.9036zm8.7109 0h2.9036v2.9037h-2.9036zm2.9036 0h2.9036v2.9037h-2.9036zm2.9036 0h2.9036v2.9037h-2.9036zm8.7109 0h2.9036v2.9037h-2.9036zm5.8073 0h2.9036v2.9037h-2.9036zm5.8073 0h2.9036v2.9037h-2.9036zm2.9036 0h2.9036v2.9037h-2.9036zm5.8073 0h2.9036v2.9037h-2.9036zm5.8073 0h2.9036v2.9037h-2.9036zm2.9036 0h2.9036v2.9037h-2.9036zm5.8073 0h2.9037v2.9037h-2.9037zm2.9037 0h2.9036v2.9037h-2.9036zm2.9036 0h2.9036v2.9037h-2.9036zm5.8073 0h2.9036v2.9037h-2.9036zm5.8073 0h2.9036v2.9037h-2.9036zm17.422 0h2.9036v2.9037h-2.9036zm-104.53 2.9037h2.9036v2.9036h-2.9036zm2.9036 0h2.9036v2.9036h-2.9036zm2.9036 0h2.9036v2.9036h-2.9036zm2.9036 0h2.9036v2.9036h-2.9036zm2.9036 0h2.9036v2.9036h-2.9036zm2.9036 0h2.9037v2.9036h-2.9037zm2.9037 0h2.9036v2.9036h-2.9036zm2.9036 0h2.9036v2.9036h-2.9036zm5.8073 0h2.9036v2.9036h-2.9036zm14.518 0h2.9036v2.9036h-2.9036zm2.9036 0h2.9036v2.9036h-2.9036zm8.7109 0h2.9036v2.9036h-2.9036zm2.9036 0h2.9036v2.9036h-2.9036zm11.615 0h2.9036v2.9036h-2.9036zm2.9036 0h2.9037v2.9036h-2.9037zm5.8073 0h2.9036v2.9036h-2.9036zm5.8073 0h2.9036v2.9036h-2.9036zm2.9036 0h2.9036v2.9036h-2.9036zm2.9036 0h2.9036v2.9036h-2.9036zm2.9036 0h2.9036v2.9036h-2.9036zm2.9036 0h2.9037v2.9036h-2.9037zm2.9037 0h2.9036v2.9036h-2.9036zm2.9036 0h2.9036v2.9036h-2.9036zm2.9036 0h2.9036v2.9036h-2.9036zm-78.398 2.9036h2.9036v2.9036h-2.9036zm2.9036 0h2.9036v2.9036h-2.9036zm5.8073 0h2.9036v2.9036h-2.9036zm8.7109 0h2.9036v2.9036h-2.9036zm2.9036 0h2.9036v2.9036h-2.9036zm2.9036 0h2.9036v2.9036h-2.9036zm5.8073 0h2.9036v2.9036h-2.9036zm2.9036 0h2.9036v2.9036h-2.9036zm11.615 0h2.9036v2.9036h-2.9036zm5.8073 0h2.9036v2.9036h-2.9036zm2.9036 0h2.9036v2.9036h-2.9036zm2.9036 0h2.9037v2.9036h-2.9037zm2.9037 0h2.9036v2.9036h-2.9036zm11.615 0h2.9037v2.9036h-2.9037zm8.7109 0h2.9036v2.9036h-2.9036zm2.9036 0h2.9036v2.9036h-2.9036zm-104.53 2.9036h2.9036v2.9036h-2.9036zm2.9036 0h2.9036v2.9036h-2.9036zm2.9036 0h2.9036v2.9036h-2.9036zm2.9036 0h2.9036v2.9036h-2.9036zm2.9036 0h2.9036v2.9036h-2.9036zm2.9036 0h2.9037v2.9036h-2.9037zm2.9037 0h2.9036v2.9036h-2.9036zm11.615 0h2.9037v2.9036h-2.9037zm2.9037 0h2.9036v2.9036h-2.9036zm11.615 0h2.9036v2.9036h-2.9036zm2.9036 0h2.9036v2.9036h-2.9036zm2.9036 0h2.9036v2.9036h-2.9036zm2.9036 0h2.9036v2.9036h-2.9036zm8.7109 0h2.9036v2.9036h-2.9036zm2.9036 0h2.9036v2.9036h-2.9036zm8.7109 0h2.9036v2.9036h-2.9036zm5.8073 0h2.9037v2.9036h-2.9037zm2.9037 0h2.9036v2.9036h-2.9036zm5.8073 0h2.9036v2.9036h-2.9036zm5.8073 0h2.9037v2.9036h-2.9037zm5.8073 0h2.9036v2.9036h-2.9036zm2.9036 0h2.9036v2.9036h-2.9036zm2.9036 0h2.9036v2.9036h-2.9036zm-104.53 2.9036h2.9036v2.9036h-2.9036zm17.422 0h2.9036v2.9036h-2.9036zm8.7109 0h2.9036v2.9036h-2.9036zm8.7109 0h2.9036v2.9036h-2.9036zm2.9036 0h2.9036v2.9036h-2.9036zm2.9036 0h2.9036v2.9036h-2.9036zm2.9036 0h2.9036v2.9036h-2.9036zm5.8073 0h2.9036v2.9036h-2.9036zm8.7109 0h2.9037v2.9036h-2.9037zm2.9037 0h2.9036v2.9036h-2.9036zm2.9036 0h2.9036v2.9036h-2.9036zm2.9036 0h2.9036v2.9036h-2.9036zm2.9036 0h2.9037v2.9036h-2.9037zm5.8073 0h2.9036v2.9036h-2.9036zm2.9036 0h2.9037v2.9036h-2.9037zm2.9037 0h2.9036v2.9036h-2.9036zm11.615 0h2.9037v2.9036h-2.9037zm5.8073 0h2.9036v2.9036h-2.9036zm2.9036 0h2.9036v2.9036h-2.9036zm2.9036 0h2.9036v2.9036h-2.9036zm-104.53 2.9036h2.9036v2.9037h-2.9036zm5.8073 0h2.9036v2.9037h-2.9036zm2.9036 0h2.9036v2.9037h-2.9036zm2.9036 0h2.9036v2.9037h-2.9036zm5.8073 0h2.9036v2.9037h-2.9036zm8.7109 0h2.9036v2.9037h-2.9036zm5.8073 0h2.9036v2.9037h-2.9036zm14.518 0h2.9036v2.9037h-2.9036zm5.8073 0h2.9036v2.9037h-2.9036zm2.9036 0h2.9036v2.9037h-2.9036zm2.9036 0h2.9037v2.9037h-2.9037zm8.7109 0h2.9036v2.9037h-2.9036zm5.8073 0h2.9036v2.9037h-2.9036zm2.9036 0h2.9036v2.9037h-2.9036zm5.8073 0h2.9036v2.9037h-2.9036zm2.9036 0h2.9036v2.9037h-2.9036zm2.9036 0h2.9036v2.9037h-2.9036zm2.9036 0h2.9036v2.9037h-2.9036zm2.9036 0h2.9037v2.9037h-2.9037zm2.9037 0h2.9036v2.9037h-2.9036zm-95.82 2.9037h2.9036v2.9036h-2.9036zm5.8073 0h2.9036v2.9036h-2.9036zm2.9036 0h2.9036v2.9036h-2.9036zm2.9036 0h2.9036v2.9036h-2.9036zm5.8073 0h2.9036v2.9036h-2.9036zm5.8073 0h2.9036v2.9036h-2.9036zm2.9036 0h2.9036v2.9036h-2.9036zm5.8073 0h2.9036v2.9036h-2.9036zm2.9036 0h2.9036v2.9036h-2.9036zm2.9036 0h2.9036v2.9036h-2.9036zm2.9036 0h2.9036v2.9036h-2.9036zm14.518 0h2.9036v2.9036h-2.9036zm2.9036 0h2.9037v2.9036h-2.9037zm5.8073 0h2.9036v2.9036h-2.9036zm2.9036 0h2.9036v2.9036h-2.9036zm5.8073 0h2.9036v2.9036h-2.9036zm11.615 0h2.9036v2.9036h-2.9036zm17.422 0h2.9036v2.9036h-2.9036zm2.9036 0h2.9036v2.9036h-2.9036zm-104.53 2.9036h2.9036v2.9036h-2.9036zm5.8073 0h2.9036v2.9036h-2.9036zm2.9036 0h2.9036v2.9036h-2.9036zm2.9036 0h2.9036v2.9036h-2.9036zm5.8073 0h2.9036v2.9036h-2.9036zm11.615 0h2.9037v2.9036h-2.9037zm5.8073 0h2.9036v2.9036h-2.9036zm5.8073 0h2.9036v2.9036h-2.9036zm5.8073 0h2.9036v2.9036h-2.9036zm2.9036 0h2.9036v2.9036h-2.9036zm2.9036 0h2.9036v2.9036h-2.9036zm2.9036 0h2.9036v2.9036h-2.9036zm2.9036 0h2.9037v2.9036h-2.9037zm2.9037 0h2.9036v2.9036h-2.9036zm11.615 0h2.9036v2.9036h-2.9036zm2.9036 0h2.9036v2.9036h-2.9036zm5.8073 0h2.9036v2.9036h-2.9036zm2.9036 0h2.9036v2.9036h-2.9036zm8.7109 0h2.9037v2.9036h-2.9037zm2.9037 0h2.9036v2.9036h-2.9036zm2.9036 0h2.9036v2.9036h-2.9036zm5.8073 0h2.9036v2.9036h-2.9036zm-104.53 2.9036h2.9036v2.9036h-2.9036zm17.422 0h2.9036v2.9036h-2.9036zm14.518 0h2.9036v2.9036h-2.9036zm2.9036 0h2.9036v2.9036h-2.9036zm2.9036 0h2.9036v2.9036h-2.9036zm2.9036 0h2.9036v2.9036h-2.9036zm5.8073 0h2.9036v2.9036h-2.9036zm5.8073 0h2.9036v2.9036h-2.9036zm2.9036 0h2.9036v2.9036h-2.9036zm8.7109 0h2.9036v2.9036h-2.9036zm8.7109 0h2.9036v2.9036h-2.9036zm5.8073 0h2.9037v2.9036h-2.9037zm2.9037 0h2.9036v2.9036h-2.9036zm8.7109 0h2.9036v2.9036h-2.9036zm2.9036 0h2.9037v2.9036h-2.9037zm-92.916 2.9036h2.9036v2.9036h-2.9036zm2.9036 0h2.9036v2.9036h-2.9036zm2.9036 0h2.9036v2.9036h-2.9036zm2.9036 0h2.9036v2.9036h-2.9036zm2.9036 0h2.9036v2.9036h-2.9036zm2.9036 0h2.9037v2.9036h-2.9037zm2.9037 0h2.9036v2.9036h-2.9036zm17.422 0h2.9036v2.9036h-2.9036zm2.9036 0h2.9036v2.9036h-2.9036zm5.8073 0h2.9036v2.9036h-2.9036zm5.8073 0h2.9036v2.9036h-2.9036zm2.9036 0h2.9036v2.9036h-2.9036zm8.7109 0h2.9036v2.9036h-2.9036zm8.7109 0h2.9037v2.9036h-2.9037zm11.615 0h2.9036v2.9036h-2.9036zm11.615 0h2.9037v2.9036h-2.9037zm8.7109 0h2.9036v2.9036h-2.9036zm2.9036 0h2.9036v2.9036h-2.9036z"/>
    <path d="m190.53 604.61c-22.628 0-41.002 18.374-41.002 41.002v274.19c0 22.628 18.374 41 41.002 41h274.18c22.628 0 41.002-18.372 41.002-41v-274.19c0-22.628-18.374-41.002-41.002-41.002zm0 10h274.18c17.261 0 31.002 13.741 31.002 31.002v274.19c0 17.261-13.741 31-31.002 31h-274.18c-17.261 0-31.002-13.739-31.002-31v-274.19c0-17.261 13.741-31.002 31.002-31.002z" stop-color="#000000" stroke-linecap="round" style="paint-order:stroke fill markers"/>
    </g><path d="m365.26 783a37.641 37.641 0 0 1-37.641 37.641 37.641 37.641 0 0 1-37.641-37.641 37.641 37.641 0 0 1 37.641-37.641 37.641 37.641 0 0 1 37.641 37.641z" fill="#fff" stroke-linecap="round" stroke-width="10" style="paint-order:stroke fill markers"/>
  </g>
  
  <g>
    <path transform="matrix(1.0827,0,0,1.0827,-15.553,176.6)" d="m161.5 753.62a66.154 66.154 45.737 0 0 65.297 67 66.154 66.154 135.74 0 0-67 65.297 66.154 66.154 45.737 0 0-65.297-67 66.154 66.154 135.74 0 0 67-65.297z" fill="#ea4335" style="paint-order:stroke fill markers"/>
    <path transform="matrix(.55829 0 0 .55829 133.77 676.37)" d="m161.5 753.62a66.154 66.154 45.737 0 0 65.297 67 66.154 66.154 135.74 0 0-67 65.297 66.154 66.154 45.737 0 0-65.297-67 66.154 66.154 135.74 0 0 67-65.297z" fill="#fbbc05" style="paint-order:stroke fill markers"/>
    <path transform="matrix(1.0827,0,0,1.0827,643.5,-670.76)" d="m161.5 753.62a66.154 66.154 45.737 0 0 65.297 67 66.154 66.154 135.74 0 0-67 65.297 66.154 66.154 45.737 0 0-65.297-67 66.154 66.154 135.74 0 0 67-65.297z" fill="#4285f4" style="paint-order:stroke fill markers"/>
  </g>
<g transform="matrix(2.6042 0 0 2.6042 147.97 481.47)"><path d="m115.75 47.18c0 12.77-9.99 22.18-22.25 22.18s-22.25-9.41-22.25-22.18c0-12.86 9.99-22.18 22.25-22.18s22.25 9.32 22.25 22.18zm-9.74 0c0-7.98-5.79-13.44-12.51-13.44s-12.51 5.46-12.51 13.44c0 7.9 5.79 13.44 12.51 13.44s12.51-5.55 12.51-13.44z" fill="#ea4335"/><path d="m163.75 47.18c0 12.77-9.99 22.18-22.25 22.18s-22.25-9.41-22.25-22.18c0-12.85 9.99-22.18 22.25-22.18s22.25 9.32 22.25 22.18zm-9.74 0c0-7.98-5.79-13.44-12.51-13.44s-12.51 5.46-12.51 13.44c0 7.9 5.79 13.44 12.51 13.44s12.51-5.55 12.51-13.44z" fill="#fbbc05"/><path d="m209.75 26.34v39.82c0 16.38-9.66 23.07-21.08 23.07-10.75 0-17.22-7.19-19.66-13.07l8.48-3.53c1.51 3.61 5.21 7.87 11.17 7.87 7.31 0 11.84-4.51 11.84-13v-3.19h-0.34c-2.18 2.69-6.38 5.04-11.68 5.04-11.09 0-21.25-9.66-21.25-22.09 0-12.52 10.16-22.26 21.25-22.26 5.29 0 9.49 2.35 11.68 4.96h0.34v-3.61h9.25zm-8.56 20.92c0-7.81-5.21-13.52-11.84-13.52-6.72 0-12.35 5.71-12.35 13.52 0 7.73 5.63 13.36 12.35 13.36 6.63 0 11.84-5.63 11.84-13.36z" fill="#4285f4"/><path d="m225 3v65h-9.5v-65z" fill="#34a853"/><path d="m262.02 54.48 7.56 5.04c-2.44 3.61-8.32 9.83-18.48 9.83-12.6 0-22.01-9.74-22.01-22.18 0-13.19 9.49-22.18 20.92-22.18 11.51 0 17.14 9.16 18.98 14.11l1.01 2.52-29.65 12.28c2.27 4.45 5.8 6.72 10.75 6.72 4.96 0 8.4-2.44 10.92-6.14zm-23.27-7.98 19.82-8.23c-1.09-2.77-4.37-4.7-8.23-4.7-4.95 0-11.84 4.37-11.59 12.93z" fill="#ea4335"/><path d="m35.29 41.41v-9.41h31.71c0.31 1.64 0.47 3.58 0.47 5.68 0 7.06-1.93 15.79-8.15 22.01-6.05 6.3-13.78 9.66-24.02 9.66-18.98 0-34.94-15.46-34.94-34.44s15.96-34.44 34.94-34.44c10.5 0 17.98 4.12 23.6 9.49l-6.64 6.64c-4.03-3.78-9.49-6.72-16.97-6.72-13.86 0-24.7 11.17-24.7 25.03s10.84 25.03 24.7 25.03c8.99 0 14.11-3.61 17.39-6.89 2.66-2.66 4.41-6.46 5.1-11.65z" fill="#4285f4"/></g><g transform="matrix(.23258 0 0 .23258 321.18 70.575)"><path d="m301 249c-69 2-105 43-105 43s47-28 105-29c57-1 108 29 108 29s-40-44-108-43z"/><path d="m367 30s-105 38-176 86c-70 48-110 110-114 147-5 35 10 86 48 121 37 32 93 76 123 97 30 20 99 90 101 138 1 48 1 76-57 155-60 78-241 217-241 217l3 3s169-83 241-157c72-73 100-125 103-184 4-59-37-118-88-153-51-36-140-77-182-141-13-16-24-38-16-81 6-25 19-55 47-84 90-93 209-161 209-161z" fill="#cd5d96"/><path d="m195 304s28 41 105 41c77 1 108-40 108-40s-46 31-108 31c-57 0-105-32-105-32z"/><path d="m310 647s-87 11-129 23c-39 12-93 36-101 39l4 9c3-2 56-27 101-41 47-15 125-30 125-30zm-229 68 2 3h1z"/><path d="m98 646s-37 15-37 34 23 38 23 38-12-24-12-38 26-34 26-34z"/><path d="m206 643-108 3 108 4c51 0 104-3 104-3-1 0-57-4-104-4z"/><path d="m81 586c-4 4-14 13-13 28 0 19 30 32 30 32s-21-15-21-33l2-20z"/><path d="m83 582m0 0-4 11s32 15 86 29c64 17 145 25 145 25s-119-25-141-33c-80-26-86-32-86-32z"/><path d="m460 102m0 0s82 92 84 230c1 76-19 141-41 189h1l32-3c27-45 51-107 49-187a319 319 0 0 0-125-229zm66 430-14 2 11 2zm-35 14c-21 40-40 63-40 63s30-19 62-59z" fill="#cd5d96"/><path d="m692 461s-40 30-92 42-60 16-96 18-65-3-65 8 11 12 20 13c10 2 70 9 101 17s89 37 105 40a291 291 0 0 0 157-1c14-6 32-18 32-18s-3 12 0 15 8 8 28 13a242 242 0 0 0 147-36c13-8 44-22 55-23 12 0 26-4 33 2 6 6 3 16 3 21s2 15 10 22c8 6 30 13 47 15 16 1 99-2 170-9 71-8 137-23 137-23s-185 13-238 15c-53 1-83-4-89-7-7-2-10-1-11-19 0-19-9-29-20-35s-23-4-41-2-51 15-65 26c-14 10-30 19-60 28-30 8-50 11-70 11-21-1-22-2-23-6s19-26 23-31c4-4 6-8 1-11-5-4-5-3-11 2s-17 19-28 26c-12 7-23 17-58 23-34 6-73 6-98 1-24-4-56-18-87-36-32-18-97-28-97-28s48-3 85-17 61-27 78-38c16-11 17-18 17-18z" fill="#cd5d96"/><path d="m988 433s-97 16-113 40c-13 20 6 28 6 28s16-22 37-35c20-13 70-33 70-33z"/><path d="m451 716v3l7 1 5 1 1 1 1 3v1l-1 48c-1 7-5 10-14 10v4h34v-4c-9 0-14-3-14-9l1-48 32 61h4l30-62 1 50c0 6-4 8-12 8v4h40v-4c-9 0-13-3-13-8l-2-50 1-3 1-2 4-1 8-1v-3h-29l-27 55-29-55z"/><path d="m820 735-22 44-3 4-4 2v2h20v-2c-5 0-8-1-8-4l1-2 3-8 4-2h14c3 0 5 1 5 2l4 10 1 1v1l-1 1h-2l-2 1h-3v2h25v-2a73 73 0 0 0-5-1l-2-2-22-46zm-56 0-11 2-9 6a27 27 0 0 0-8 20c0 3 0 7 2 10l5 8 9 6a35 35 0 0 0 21 1l7-3 6-5 3-7-3-1-4 6-4 4-5 2-7 1-9-2-7-5-3-8-1-11 1-7c0-3 2-5 3-7l6-5 9-2c4 0 8 2 12 4 3 3 6 6 7 11h3a55 55 0 0 0-3-17l-6 3c-5-3-9-4-14-4zm-105 1a185 185 0 0 0-20 0h-8v2l4 1 3 1 1 2 1 4v32l-1 4-1 2-3 1h-4v2h23l17-1c5-2 9-3 12-6 3-2 5-4 6-8 2-3 3-6 3-10s-1-8-3-11c-1-3-3-6-6-8l-10-5c-4-2-9-2-14-2zm-87 0v2c6 0 9 3 9 7v35c0 3-3 5-9 5v2h49l3-15-3-1-2 6-4 4-6 2-9 1h-3c-5 0-7-1-7-4v-15c0-2 1-3 4-3h1l5 1 3 1 3 2 1 5h3v-20h-3l-2 4c0 2-1 2-2 3l-4 1h-7c-2 0-2-1-2-2v-14c0-2 2-4 7-4h2l7 1 5 1 4 3 3 7h3l-1-15zm128 0v2c6 0 9 3 9 7v35c0 3-3 5-9 5v2h27v-2c-6 0-9-2-9-5v-35c0-4 3-7 9-7v-2zm155 0v2c7 0 10 2 10 6v37c0 3-3 4-9 4v2h48l2-16h-2c-2 6-5 10-7 11l-6 2h-11c-4 0-6-1-6-3v-37c0-4 2-6 8-6v-2zm-200 3h3c8 0 13 2 17 6 4 3 6 9 6 17s-2 13-5 17c-4 4-9 5-16 5h-9l-2-2v-41l1-1 2-1zm164 7 8 16 1 3-3 1h-12l-3-1 1-3z"/><path d="m988 714c-6 0-12 1-17 3-6 2-10 4-14 8-4 3-8 7-10 12l-3 15a34 34 0 0 0 12 26c4 3 8 6 14 8a59 59 0 0 0 31 1l11-4c4-2 7-4 9-7l5-10-5-1c-1 4-3 7-6 9l-6 6-8 3-10 1c-6 0-10-1-14-3-5-2-8-4-10-8-3-3-5-7-6-11l-2-14 2-11a27 27 0 0 1 14-16 34 34 0 0 1 32 3c6 3 10 8 12 15h5a70 70 0 0 0-4-22l-1-2c-4 0-7 2-10 4-7-3-14-5-21-5z"/><path d="m1123 735a20 20 0 0 0-13 4l-3 4-2 6 2 7 6 5 8 3a434 434 0 0 1 16 7c2 1 2 3 2 5l-1 4-4 3-4 2a19 19 0 0 1-21-9l-1-6h-3a81 81 0 0 0 2 18l3-1 4-2a57 57 0 0 0 4 2 28 28 0 0 0 9 1l9-1 5-3 4-5 1-6-2-7-5-5-8-3a216 216 0 0 1-17-7c-2-1-2-3-2-5l3-6 8-2c4 0 8 1 11 4 3 2 5 5 6 10h3l-1-9-2-8-6 3a352 352 0 0 1-12-3zm339 0a20 20 0 0 0-12 4l-4 4-2 6c0 3 1 6 3 7l5 5 8 3a434 434 0 0 1 16 7c2 1 2 3 2 5l-1 4-4 3-4 2a19 19 0 0 1-20-9c-2-1-2-4-2-6h-3a81 81 0 0 0 2 18l3-1 4-2a58 58 0 0 0 4 2 28 28 0 0 0 9 1l9-1 5-3 4-5 1-6-2-7-5-5-8-3a217 217 0 0 1-17-7l-2-5 3-6 8-2c5 0 8 1 11 4 3 2 5 5 6 10h3l-1-9-1-8-6 3a352 352 0 0 1-12-3zm-397 0a32 32 0 0 0-22 8 26 26 0 0 0-8 19 25 25 0 0 0 9 19 31 31 0 0 0 21 7c5 0 9 0 13-2l10-6 6-9a24 24 0 0 0 0-20l-7-8c-2-3-6-5-9-6zm347 0-11 2c-4 1-7 3-9 6a27 27 0 0 0-9 19l2 11 6 8 9 5a35 35 0 0 0 21 1c2 0 5-1 7-3l5-4 4-8h-3l-4 6-4 4-6 2-6 1-9-2-7-5c-1-3-3-5-3-9l-2-10 1-7 4-7c1-2 3-4 6-5l8-2c5 0 9 1 13 4 3 2 6 6 7 11h3a55 55 0 0 0-3-18l-7 4c-4-3-8-4-13-4zm-120 0-3 17 3 1c1-5 3-8 6-10 2-3 6-4 10-4 3 0 4 1 4 3v36c0 5-3 7-10 7v2h29v-2c-6 0-10-2-10-7v-36c0-2 2-2 5-2 9 0 14 4 15 12h2v-17a126 126 0 0 1-8 1h-36a46 46 0 0 1-7-1zm-121 1h-19v2l5 1h3l1 2v37c-1 4-4 7-9 7v2h22v-2c-6 0-9-2-9-7v-34l21 43h3l19-44 1 36c0 4-3 6-8 6v2h26v-2c-6 0-8-2-8-6l-1-36v-2l1-1 3-1 4-1v-2h-18l-18 39zm113 0h-49v2c7 0 10 3 10 7v35c0 3-3 5-9 5v2h49l3-15-3-1-3 6c0 2-2 3-3 4l-6 2-9 1h-3c-5 0-7-1-7-4v-15c0-2 1-3 4-3h1l5 1 3 1 2 2 2 5h3v-20h-3l-2 4-2 3-4 1h-7c-2 0-2-1-2-2v-14c0-3 2-4 7-4h2l7 1 5 1 4 3 3 7 3-1zm64 0v2c6 0 9 3 9 7v35c0 3-3 5-9 5v2h27v-2c-6 0-9-2-9-5v-35c0-4 3-7 9-7v-2zm-283 2 9 2 7 5c1 3 3 5 3 8a34 34 0 0 1-3 26 17 17 0 0 1-15 6l-9-1-7-5-3-8-1-10 1-9c0-2 1-5 3-7 1-2 3-4 6-5 2-2 5-2 9-2z"/><path d="m494 842c-14 0-21 5-21 16l1 7 5 7c-8 3-13 6-17 10-3 4-5 9-5 13 0 14 11 20 32 20 10 0 19-3 26-8a35 35 0 0 0 32 7l6-3 5-4 2-5-4-1-2 2-3 2-5 2-4 1-8-3-10-6a37 37 0 0 0 12-14l3-4 5-6 8-2v-3h-34v3c9 0 13 3 13 8 0 2-1 5-3 7-1 3-4 5-7 8a517 517 0 0 1-24-23l13-8c4-3 6-6 6-10 0-9-7-13-22-13zm0 3c8 0 12 3 12 11 0 3-4 8-12 14-7-7-10-12-10-15 0-7 3-10 10-10zm-13 29 14 15 17 14c-3 3-6 4-9 5l-9 1c-16 0-24-8-24-22 0-5 4-9 11-13z"/><path d="m603 842v4c10 0 14 2 14 8v51c0 4-4 6-12 6v3h72l5-22-4-1c-3 9-7 14-11 16l-9 2h-17c-7 0-10-1-10-4v-51c0-6 5-8 13-8v-4z"/><path d="m709 861-22 45-3 4-5 1v3h21v-3c-5 0-8-1-8-3v-2l4-8c0-2 1-2 4-2h14c3 0 4 0 5 2l4 9 1 1v1l-1 1-2 1h-5v3h25v-3a73 73 0 0 0-5-1l-2-2-22-46zm54 0a20 20 0 0 0-12 4l-4 5-1 6c0 3 0 5 2 7l5 5 9 3a434 434 0 0 1 16 6l2 6-2 4-3 3-5 1a19 19 0 0 1-16-3l-4-5-2-6h-3a81 81 0 0 0 2 18l4-1 3-2a59 59 0 0 0 4 2 28 28 0 0 0 9 1l9-1 6-4 3-5 1-6-2-7-5-4-8-4a217 217 0 0 1-17-7l-2-4c0-3 1-5 3-6 2-2 5-3 8-3 5 0 8 2 11 4 3 3 5 6 6 10h3v-8l-2-8-6 3a351 351 0 0 1-12-4zm120 1a168 168 0 0 0-13 0h-17v3c6 0 9 2 9 5v36c0 4-3 5-8 5v3h26v-3c-6 0-9-1-9-5v-16l3-1h3c2 0 4 0 5 2l4 4 3 7 2 6 4 5 8 2 3-1a9 9 0 0 0 5-5v-2l-2-1-3 4-3-1-3-4-1-4-2-4-4-5-7-4 7-2 5-3 3-3 1-5-1-5-4-4-6-3zm-41 0h-48v3c6 0 9 2 9 6v35c0 4-3 5-8 5v3h49l2-16h-2l-3 5-4 4c-1 2-3 2-5 3l-10 1h-3c-5 0-7-2-7-5v-15c0-1 1-2 4-2h6l4 1 2 3 1 4h3v-20h-3l-1 5-3 2-3 1h-8c-1 0-2 0-2-2v-14c0-2 2-3 7-3h9l6 1 4 4 2 6h3zm33 3h4l5 1 4 2 3 3 2 4-2 6-3 3-10 2h-5l-2-1v-15c0-3 1-5 4-5zm-167 7 8 17 1 2-3 1h-12l-3-1 1-3z"/></g><g transform="matrix(.077164 0 0 .077164 460.54 917.38)"><path d="m606 82s-74 34-124 77-78 99-81 132c-3 32 7 78 34 109 26 29 66 68 87 87 21 18 70 81 71 124s1 68-40 139c-42 70-170 195-170 195l2 3s119-75 170-141 71-112 73-165c3-53-26-106-62-138s-99-69-129-126c-9-15-17-35-11-73 4-23 13-50 33-76 64-83 148-144 148-144z" fill="#cd5d96"/><g><path d="m486 320s26-36 76-38c49-1 78 38 78 38s-37-27-78-26c-42 1-76 26-76 26z"/><path d="m485 331s35 29 76 29c45 0 78-28 78-28s-22 37-78 36c-56 0-76-37-76-37z"/><path d="m404 702s40-24 74-37 90-27 90-27-63 10-93 21-75 36-75 36z"/><path d="m405 702s-17-17-17-34 27-31 27-31-19 18-19 31c0 12 9 34 9 34z"/><path d="m415 637s41 3 78 4c37 0 75-3 75-3s-41-3-75-3z"/><path d="m415 637s-22-11-22-28c-1-17 11-26 11-26s-5 9-4 25c0 16 15 29 15 29z"/><path d="m404 580-3 10s23 13 62 26c47 15 105 22 105 22s-86-22-102-29c-58-24-62-29-62-29z"/></g></g></svg>
