<svg viewBox="0 0 512 512" fill="none" xmlns="http://www.w3.org/2000/svg">
  <g clip-path="url(#clip0_425_74)">
    <rect fill="#ffcc00" x="259" y="389" width="253" height="123" />
    <rect fill="url(#paint0_linear_425_74)" width="512" height="389" />
    <rect fill="#f082ca" y="188" width="132" height="324" />
    <g clip-path="url(#clip1_425_74)">
      <circle stroke="#ffffff" stroke-width="86" cx="518.5" cy="-7.5" r="161.5" />
      <path fill-rule="evenodd" clip-rule="evenodd" fill="#d2d1d6" d="M518.5 121.325C589.648 121.325 647.325 63.6479 647.325 -7.50002C647.325 -78.6479 589.648 -136.325 518.5 -136.325C447.352 -136.325 389.675 -78.6479 389.675 -7.50002C389.675 63.6479 447.352 121.325 518.5 121.325ZM518.5 187C625.919 187 713 99.9194 713 -7.50002C713 -114.919 625.919 -202 518.5 -202C411.081 -202 324 -114.919 324 -7.50002C324 99.9194 411.081 187 518.5 187Z" />
    </g>
    <path fill="#f2f1f6" d="M271.801 -7H114.801V110.707C114.801 116.993 107.884 120.823 102.556 117.488L2.26471 54.7078L-67 157.76L479.852 520.417L549.116 414.365L271.801 228.405V-7Z" />
    <path fill="url(#paint1_linear_425_74)" d="M140 -15H194H248V256H140V-15Z" />
    <path fill="#eef0f6" d="M118 256H194.5H271V512H118V256Z" />
    <g>
      <circle fill="url(#paint2_linear_425_74)" stroke="#ffffff" stroke-width="20" cx="193" cy="317" r="119" />
      <path fill="#ffffff" d="M205.22 246.173C201.074 235.276 184.927 235.276 180.781 246.173L134.944 371.374C132.026 379.347 141.899 385.777 148.01 379.884L190.224 339.177C191.773 337.683 194.227 337.683 195.777 339.177L237.99 379.883C244.101 385.776 253.974 379.347 251.056 371.374L205.22 246.173Z" />
    </g>
  </g>
  <defs>
    <filter id="filter0_d_425_74" x="4" y="143" width="378" height="378" filterUnits="userSpaceOnUse" color-interpolation-filters="sRGB">
      <feFlood flood-opacity="0" result="BackgroundImageFix" />
      <feColorMatrix in="SourceAlpha" type="matrix" values="0 0 0 0 0 0 0 0 0 0 0 0 0 0 0 0 0 0 127 0" result="hardAlpha" />
      <feOffset dy="15" />
      <feGaussianBlur stdDeviation="30" />
      <feComposite in2="hardAlpha" operator="out" />
      <feColorMatrix type="matrix" values="0 0 0 0 0 0 0 0 0 0 0 0 0 0 0 0 0 0 0.25 0" />
      <feBlend mode="normal" in2="BackgroundImageFix" result="effect1_dropShadow_425_74" />
      <feBlend mode="normal" in="SourceGraphic" in2="effect1_dropShadow_425_74" result="shape" />
    </filter>
    <linearGradient id="paint0_linear_425_74" gradientUnits="userSpaceOnUse" x1="256" y1="0" x2="256" y2="389">
      <stop stop-color="#7fed7d" />
      <stop offset="1" stop-color="#2ed058" />
    </linearGradient>
    <linearGradient id="paint1_linear_425_74" gradientUnits="userSpaceOnUse" x1="194" y1="-15" x2="194" y2="256">
      <stop stop-color="#0c91ff" />
      <stop stop-color="#0077f7" offset="1" />
    </linearGradient>
    <linearGradient id="paint2_linear_425_74" gradientUnits="userSpaceOnUse" x1="193" y1="188" x2="193" y2="446">
      <stop stop-color="#0c91ff" />
      <stop stop-color="#017aff" offset="1" />
    </linearGradient>
    <clipPath id="clip0_425_74">
      <rect fill="#ffffff" width="512" height="512" rx="112" />
    </clipPath>
    <clipPath id="clip1_425_74">
      <rect fill="#ffffff" x="314" width="198" height="205" />
    </clipPath>
  </defs>
</svg>
