<svg viewBox="0 0 256 56.207" xmlns="http://www.w3.org/2000/svg" role="img" aria-labelledby="waze-wordmark-title waze-wordmark-desc">
  <title id="waze-wordmark-title">Waze</title>
  <desc id="waze-wordmark-desc">Waze wordmark logo</desc>
  <g transform="matrix(4.0505 0 0 4.0505 .44704 .0060754)" fill="#666666">
    <path d="m0.57 0.375c-0.449 0-0.675 0.301-0.523 0.75l3.824 11.777c0.074 0.301 0.375 0.598 0.676 0.598h3.148c0.374 0 0.602-0.223 0.676-0.598l2.102-7.875 2.097 7.875c0.075 0.301 0.375 0.598 0.75 0.598h3c0.375 0 0.602-0.223 0.75-0.598l3.825-11.699c0.152-0.453-0.075-0.75-0.524-0.75h-2.324c-0.375 0-0.602 0.297-0.676 0.524l-2.398 8.324-2.25-8.399c-0.078-0.375-0.375-0.527-0.676-0.527h-2.852c-0.375 0-0.597 0.152-0.675 0.527l-2.325 8.399-2.324-8.399c-0.074-0.3-0.301-0.527-0.676-0.527zm27.375-0.375c-3.449 0-6.597 2.703-6.597 6.902 0 4.2 3.148 6.973 6.597 6.973 1.875 0 3.375-0.824 4.051-1.949v0.976c0 0.301 0.227 0.524 0.524 0.524h2.402c0.301 0 0.523-0.223 0.523-0.524v-12c0-0.3-0.222-0.601-0.523-0.601h-2.402c-0.297 0-0.524 0.301-0.524 0.601v1.051c-0.676-1.125-2.176-1.953-4.051-1.953zm0.528 3.227c2.023 0 3.523 1.648 3.523 3.675 0 2.024-1.5 3.676-3.523 3.676-2.028 0-3.528-1.652-3.528-3.676-0.074-2.027 1.5-3.675 3.528-3.675zm9.75-2.852c-0.301 0-0.528 0.227-0.528 0.527v1.875c0 0.301 0.227 0.524 0.602 0.598h5.848l-6.45 7.203c-0.222 0.223-0.3 0.375-0.3 0.672v1.652c0 0.301 0.226 0.524 0.601 0.598h10.574c0.301 0 0.528-0.223 0.528-0.523v-1.875c0-0.301-0.227-0.602-0.528-0.602h-6.375l6.375-7.199c0.227-0.149 0.301-0.375 0.301-0.676v-1.723c0-0.3-0.301-0.527-0.601-0.601h-10.047zm18.375-0.375c-1.864-0.039-3.66 0.684-4.981 2-1.316 1.316-2.039 3.113-1.996 4.977 0 3.898 2.852 6.898 6.977 6.898 2.922 0 4.648-1.125 5.699-2.547 0.148-0.226 0.223-0.601-0.074-0.828l-1.727-1.199c-0.074-0.074-0.226-0.074-0.301-0.074-0.148 0-0.3 0.074-0.449 0.226-0.762 0.899-1.898 1.399-3.074 1.348-1.801 0-3.227-1.199-3.449-3.074h9.375c0.523 0 0.597-0.301 0.597-0.602v-0.672c0.153-3.375-2.472-6.453-6.597-6.453zm0.074 2.777c1.5 0 2.926 0.973 3.223 2.774h-6.45c0.301-1.649 1.653-2.774 3.227-2.774z"/>
  </g>
</svg>
