<svg viewBox="0 0 2e3 752" xmlns="http://www.w3.org/2000/svg">
  <!--
  Public Domain Work
  Creator: Tyler Morgan
  Modified
-->
  <title>DMK Logo</title>
  <desc>DMK Logo Symbol</desc>
  <path d="m1202.9 680.04c-13.183-2.7115-22.39-11.3-23.903-22.298-0.4098-2.9785-0.5301-5.6302-0.2678-5.8927 0.6649-0.66489 22.044 1.7899 24.966 2.8666 1.3142 0.48432 2.3896 1.5747 2.3896 2.4229 0 0.8483 1.2594 2.5329 2.7987 3.7438 2.2584 1.7765 4.3152 2.2014 10.656 2.2014 15.044 0 18.271-3.419 19.205-20.339 0.3172-5.7549 0.2373-10.463-0.1773-10.463-0.4149 0-1.9374 1.4061-3.3836 3.1247-1.4462 1.7188-5.5543 4.5864-9.1293 6.3729-5.2973 2.6472-7.809 3.248-13.576 3.248-10.603 0-16.415-2.4223-24.011-10.007-4.7749-4.7679-7.0875-8.12-8.8428-12.818-4.723-12.64-4.7373-31.963-0.033-44.538 8.5714-22.91 38.658-30.403 55.672-13.867l4.8103 4.6752v-11.604h22.305l-0.033 42.751c-0.035 45.518-0.6833 55.016-4.3349 63.504-2.7743 6.4494-9.7472 12.902-16.668 15.424-5.8193 2.121-30.688 3.0847-38.443 1.4897zm24.217-55.622c3.5975-1.8718 6.8332-5.3971 9.3539-10.191 2.9738-5.6559 2.8256-23.199-0.2523-29.854-3.0421-6.5787-8.5874-10.687-15.293-11.331-14.021-1.3474-22.367 10.771-20.891 30.331 1.1068 14.669 7.5897 22.539 18.568 22.539 3.1063 0 6.9387-0.67144 8.5162-1.4921zm610.41 55.244c-2.921-0.77792-6.5722-1.9263-8.1137-2.5518-4.2728-1.7334-10.361-7.5149-12.661-12.024-2.3494-4.6052-2.8387-13.705-0.7341-13.652 0.7302 0.0176 6.3463 0.72034 12.48 1.5596 6.1342 0.83932 11.512 1.541 11.949 1.5596 0.4382 0.0176 0.7966 0.77246 0.7966 1.675 0 0.90287 1.1732 2.8147 2.6071 4.2486 2.3225 2.3225 3.511 2.607 10.887 2.6054 15.411 0 19.427-4.3591 19.431-21.074v-9.9232l-5.3423 4.8032c-7.0184 6.31-13.768 8.5583-23.738 7.907-16.451-1.0745-28.742-12.916-32.59-31.399-1.8312-8.7946-0.7391-26.859 2.0717-34.272 9.3036-24.536 38.65-32.313 56.677-15.021l3.983 3.8204v-11.053h22.423l-0.3676 48.593c-0.4209 55.665-0.4766 56.07-8.9723 65.153-7.2559 7.7572-13.313 9.7285-31.139 10.134-9.5538 0.21708-16.111-0.14631-19.65-1.0889zm26.471-56.303c6.7499-3.9558 9.4678-9.7704 9.9783-21.347 0.5178-11.742-0.9176-17.46-5.7165-22.772-4.7082-5.2114-8.71-6.833-15.3-6.1998-6.6805 0.64187-11.738 4.3928-15.037 11.153-2.0879 4.2783-2.4643 6.6564-2.3998 15.165 0.078 10.357 1.6456 16.219 5.4957 20.56 5.7603 6.4938 15.327 7.9272 22.979 3.443zm-1620.2 22.161c-21.468-6.6659-24.093-36.783-4.0603-46.569 3.1094-1.5192 12.106-4.1899 19.992-5.9351 21.807-4.8258 20.661-4.3452 21.039-8.82 0.42934-5.0788-1.2779-8.0464-5.6891-9.8895-4.7497-1.9845-13.635-1.9124-17.972 0.14602-1.9115 0.90716-4.3628 3.2969-5.4472 5.3107-1.0845 2.0137-2.3922 3.6616-2.9059 3.6616-4.2294 0-19.826-3.7022-19.826-4.7061 0-3.0366 5.8742-12.606 9.8025-15.967 7.005-5.9959 12.945-7.4853 29.497-7.3948 15.59 0.0849 20.583 1.2637 27.403 6.4656 2.0082 1.5316 4.6499 4.9874 5.8705 7.6797 2.033 4.4839 2.2707 7.4816 2.8303 35.696 0.51334 25.883 0.90202 31.459 2.434 34.915 1.0027 2.2621 1.8231 4.2933 1.8231 4.5141s-5.2359 0.40136-11.636 0.40136h-11.636l-0.6996-3.7291c-0.38478-2.0513-1.0391-3.9392-1.4539-4.1955-0.41487-0.25641-3.0893 1.1938-5.943 3.223-9.1998 6.5407-22.453 8.6002-33.424 5.1938zm28.887-17.732c6.0581-3.4048 7.5617-6.443 8.0836-16.335l0.45453-8.6139-11.79 2.9897c-6.4841 1.6443-12.639 3.445-13.679 4.0013-5.91 3.163-7.7276 9.9933-4.1231 15.495 4.0163 6.1296 12.718 7.1476 21.054 2.4627zm286.3 18.211c-13.835-3.2606-24.911-14.872-28.328-29.694-1.5484-6.7192-1.3756-23.951 0.30291-30.227 2.2618-8.4548 6.4171-15.58 12.291-21.074 8.3261-7.788 13.374-9.6647 26.094-9.6996 13.685-0.0381 19.741 1.9867 27.696 9.2568 9.3522 8.5471 14.26 20.848 14.26 35.744v7.5472h-58.654l0.73724 3.9831c1.703 9.2002 6.7392 15.205 14.506 17.297 7.6157 2.0506 15.003-1.4929 17.951-8.6114 1.1476-2.7707 1.8157-3.2189 4.1208-2.7646 1.5132 0.29829 6.6942 1.1424 11.514 1.8758 4.8194 0.73342 8.7582 1.8482 8.7527 2.4775-5e-3 0.62917-1.4122 3.5886-3.1259 6.5766-7.073 12.332-19.075 18.558-35.389 18.36-4.8072-0.0586-10.535-0.52952-12.728-1.0464zm28.671-57.918c-2.2724-20.161-31.165-20.161-33.436 0l-0.5524 4.9008h34.541zm257.16 56.677c-20.7-7.2522-30.777-23.846-29.297-48.238 0.74006-12.197 5.1662-21.624 14.06-29.944 9.436-8.827 16.497-11.318 31.853-11.24 15.509 0.0791 21.789 2.4257 30.921 11.551 7.1994 7.1935 10.262 12.407 12.632 21.506 5.6904 21.847-4.1774 44.595-23.484 54.137-7.2617 3.5889-8.8027 3.9423-18.77 4.3051-9.2908 0.33811-11.877 0.039-17.915-2.0772zm26.873-19.79c7.186-4.5572 10.456-11.725 10.448-22.901-8e-3 -10.934-1.3656-15.681-5.9315-20.735-5.1714-5.7242-10.071-7.8139-16.977-7.2412-6.3692 0.52815-11.578 3.551-15.182 8.8126-3.3423 4.8777-4.3894 9.4475-4.3894 19.157 0 7.1295 0.47013 9.5046 2.8113 14.203 3.859 7.7439 10.164 11.769 18.431 11.769 4.7414 0 6.9428-0.62507 10.788-3.0642zm171.36 20.906c-4.562-1.5874-9.9249-7.037-11.241-11.422-0.621-2.0705-1.4005-16.312-1.7318-31.646l-0.6026-27.881h-10.323v-18.057h10.622v-17.613l11.464-6.5942c6.3058-3.6268 11.802-6.5942 12.215-6.5942 0.4129 0 0.7497 6.9305 0.7497 15.401v15.401h15.932v18.057h-15.932v24.885c0 28.579 0.1013 28.934 7.9423 27.86 2.4026-0.32913 5.1192-0.88666 6.0368-1.2388 1.3972-0.53615 1.7897 0.74836 2.4136 7.9012 0.4097 4.6979 0.482 8.9674 0.1603 9.4877-1.8101 2.929-21.084 4.3588-27.706 2.0553zm53.207-0.85796c-10.572-4.1283-15.968-12.202-15.968-23.888 0-16.246 7.8433-22.845 33.395-28.096 6.1338-1.2608 13.423-3.021 16.197-3.9118 4.4623-1.4323 5.0452-1.9697 5.0452-4.6514 0-7.9437-4.7456-11.668-14.87-11.668-7.5433 0-12.337 2.2597-14.525 6.8452-0.9905 2.077-2.2412 3.7763-2.7795 3.7763-4.0824 0-19.868-3.6954-19.86-4.6491 0.026-3.0904 5.4041-12.208 9.2377-15.663 6.7522-6.0865 13.337-7.8338 29.52-7.8338 10.7 0 15.079 0.44265 19.453 1.967 6.9591 2.4248 13.336 8.3262 15.092 13.964 0.8647 2.7785 1.458 13.989 1.7147 32.396 0.3776 27.082 0.9118 32.118 4.2537 40.096 0.4254 1.0151-2.1758 1.3278-11.047 1.3278h-11.604l-1.273-4.2486c-0.7-2.3368-1.4885-4.2485-1.7521-4.2485-0.2637 0-2.6544 1.6603-5.313 3.6895-9.03 6.893-24.208 8.9785-34.916 4.7975zm25.093-14.907c5.0633-1.4061 10.28-5.8046 12.126-10.225 0.7969-1.907 1.4488-6.5083 1.4488-10.225v-6.7574l-11.734 2.9758c-6.4539 1.6367-13.105 3.7852-14.779 4.7745-3.1231 1.8449-5.3534 5.4606-5.3465 8.667 0.012 3.1992 4.1854 8.7889 7.7175 10.325 4.1739 1.8145 5.5007 1.8729 10.568 0.46578zm182.13 15.509c-7.585-2.7056-12.058-6.5246-15.246-13.019l-3.0255-6.1614-0.6855-69.57h23.33l0.4208 31.068c0.2767 20.418 0.8466 32.069 1.6624 33.989 2.9588 6.9606 15.452 9.6092 22.549 4.7801 8.4451-5.7477 9.4615-10.684 9.5136-46.203l0.035-23.633h23.366v88.158h-22.305v-11.975l-5.0988 4.7694c-8.9138 8.3378-23.662 11.669-34.516 7.7971zm109.44 0.43522c-20.782-5.1918-32.759-26.284-29.533-52.009 2.1704-17.308 10.293-29.782 23.429-35.985 5.0648-2.3908 7.2548-2.7594 16.464-2.7716 13.536-0.0176 19.776 2.033 27.407 9.0087 9.5468 8.7253 14.498 21.122 14.532 36.383l0.016 7.1693h-29.208c-32.665 0-30.403-0.62254-28.083 7.7295 2.4077 8.6703 12.546 15.635 20.57 14.129 4.613-0.86528 9.4477-4.8108 11.262-9.1901 1.1476-2.7706 1.8158-3.2188 4.1209-2.7644 1.513 0.29809 6.6999 1.1431 11.526 1.8778 8.1292 1.2371 8.7253 1.4976 8.0971 3.5395-2.5706 8.3538-9.9151 16.325-18.734 20.333-5.6611 2.5731-8.1959 3.0549-17.258 3.2802-5.8418 0.14523-12.415-0.18438-14.609-0.73215zm28.687-57.845c-0.6144-5.4502-4.6145-11.393-9.2997-13.815-3.9183-2.026-10.914-2.0436-14.794-0.0381-3.7031 1.9148-8.4121 7.3744-9.0357 10.476-0.2553 1.2695-0.7421 3.6224-1.0821 5.2289l-0.6178 2.9208h35.367zm-1332.8-4.1732v-61.155l26.819 0.0215c14.751 0.0127 30.15 0.50248 34.221 1.0908 19.579 2.8295 33.244 16.132 38.884 37.854 2.4984 9.6226 3.0787 32.377 1.0515 41.226-4.6082 20.113-14.878 33.299-30.343 38.954-5.9194 2.1644-8.6589 2.3599-38.503 2.7476l-32.13 0.41747zm63.36 37.19c6.009-3.2703 9.2504-7.9869 11.629-16.921 1.7702-6.649 1.9793-31.219 0.3309-38.904-1.5729-7.3344-6.8074-14.812-12.654-18.078-4.439-2.4789-5.9725-2.6948-21.508-3.0282l-16.729-0.3587v81.189l16.771-0.48335c15.842-0.4566 17.069-0.64606 22.159-3.4162zm154.39-20.278v-44.079h22.305v11.954l4.8585-4.4785c6.3212-5.8267 13.09-8.7376 21.758-9.3578 9.9393-0.71117 17.798 1.7688 23.744 7.4933 7.5734 7.2902 8.0571 10.249 8.0571 49.282v33.264h-23.367l-0.0599-30.005c-0.0666-33.323-0.47494-35.941-6.2044-39.793-6.9598-4.6797-18.933-1.8118-23.536 5.6378-2.904 4.6986-4.0988 17.439-4.1499 44.246l-0.0379 19.915h-23.367zm105.15 0v-44.079h21.243v11.864l4.8154-4.2386c6.7192-5.9146 13.549-8.8871 21.818-9.4952 9.7308-0.71536 17.843 1.7853 23.9 7.3678 7.6881 7.0868 8.1526 9.7028 8.6881 48.937l0.46034 33.723h-24.629v-30.305c0-32.068-0.36986-34.894-5.121-39.125-2.8308-2.5215-10.5-3.4133-15.411-1.7923-4.703 1.5522-9.7944 7.205-11.267 12.51-0.64392 2.3187-1.1166 15.555-1.1201 31.362l-6e-3 27.35h-23.366zm246.42-16.994v-61.073h36.701l11.058 41.538c6.9192 25.991 11.324 40.8 11.769 39.565 0.39118-1.0855 5.4223-19.778 11.18-41.538l10.469-39.565h36.72v122.15h-22.305l-0.0322-47c-0.0177-25.85-0.42438-46.283-0.90361-45.407-0.47923 0.87632-6.0392 22.027-12.355 47l-11.484 45.407h-23.822l-23.432-92.937-0.19559 92.937h-23.367zm246.42 16.994v-44.079h22.305v12.126l4.5141-4.4188c7.0958-6.9461 13.319-9.2885 24.694-9.2948 8.1476 0 10.33 0.39111 14.777 2.6802 2.8698 1.4769 6.6284 4.4281 8.3523 6.558 5.2874 6.5327 6.0442 12.572 6.0627 48.377l0.016 32.13h-23.223l-0.33749-31.068c-0.29644-27.289-0.56571-31.485-2.2142-34.502-5.7065-10.442-22.47-8.4144-28.395 3.4339-2.6003 5.2008-2.663 5.899-3.0228 33.723l-0.3674 28.412h-23.163zm617.11-16.994v-61.073h24.429v26.554c0 14.604 0.4057 26.554 0.9015 26.554s11.847-11.949 25.226-26.554l24.324-26.554 32.766-7.8e-4 -2.575 2.8671c-1.4162 1.577-11.537 12.152-22.49 23.5-10.953 11.347-19.915 21.031-19.915 21.518 0 0.76075 40.119 63.133 45.888 71.34l2.0532 2.9209-32.54-0.0439-16.366-28.125c-9.001-15.469-16.679-28.125-17.065-28.125-0.3853 0-5.0887 4.4763-10.454 9.9474l-9.7548 9.9471v36.399h-24.429zm123.21 16.994v-44.079h23.367v88.158h-23.367zm46.734 0v-44.079h22.305v11.954l4.8585-4.4785c6.3213-5.8267 13.09-8.7376 21.758-9.3578 9.9392-0.71117 17.798 1.7688 23.744 7.4933 7.5734 7.2902 8.0571 10.249 8.0571 49.282v33.264h-23.367l-0.06-30.005c-0.067-33.323-0.475-35.941-6.2046-39.793-7.0727-4.7555-18.914-1.8176-23.7 5.8802-2.359 3.7939-2.4394 4.782-2.7561 33.913l-0.3266 30.005h-24.308zm225.21 14.618c-6.5498-2.3118-15.079-11.023-17.368-17.737-0.9794-2.8739-1.7806-8.4096-1.7806-12.302 0-13.068 7.6585-24.076 19.956-28.68 11.948-4.4736 23.991-1.5998 32.938 7.8604 8.5006 8.9881 10.954 21.143 6.6086 32.748-2.9486 7.8757-7.4872 12.901-15.076 16.694-5.4003 2.6985-7.7355 3.2472-13.527 3.1778-3.8499-0.0449-9.1377-0.83844-11.75-1.7606zm18.438-3.9077c6.9077-2.079 11.317-5.7442 14.968-12.442 2.554-4.6859 3.1018-6.9361 3.0692-12.608-0.045-7.9647-1.8501-12.828-6.8873-18.566-8.9542-10.198-24.848-10.79-34.754-1.2954-5.7661 5.5273-7.9874 10.85-8.0667 19.329-0.06 6.3352 0.3978 8.2787 3.0885 13.139 3.6285 6.5538 8.1152 10.36 14.6 12.385 5.9408 1.8552 7.9811 1.8636 13.982 0.0576zm-18.466-24.405c0-19.737-0.5064-18.701 9.1492-18.701 7.4763 0 12.852 2.2514 14.268 5.9749 1.5139 3.9818 0.2758 8.6322-2.8419 10.675-2.6001 1.7037-2.6015 1.7134-0.5147 3.947 1.1506 1.2315 2.7789 5.2264 3.6187 8.8774l1.5272 6.6384h-2.9727c-3.0907 0-3.3793-0.45201-4.7479-7.4351-1.0521-5.3679-3.3016-7.4349-8.0919-7.4349h-4.0839v7.4349c0 7.2226-0.074 7.4351-2.6554 7.4351h-2.6553zm12.678-2.7497c4.0617-1.1648 5.3381-2.6175 5.3621-6.1021 0.021-3.1604-4.2606-5.8314-8.6712-5.4081-3.344 0.32084-3.5443 0.57901-3.8596 4.974-0.5564 7.7554 0.275 8.5133 7.1687 6.5362zm-471.53 16.444v-12.214h45.672v24.429h-45.672zm-915.96-62.932c2.0885-4.5274 4.6882-10.263 5.7772-12.746l1.9801-4.5141h26.829l-23.857 25.491h-14.528zm1102.9-3.9829v-11.153h23.367v22.305h-23.367zm-1556.1-263.41v-199.15h1788.6v398.3h-1788.6zm581 128.62c44.208-8.3872 75.157-30.439 92.469-65.882 14.592-29.874 17.824-76.762 7.7224-111.99-9.636-33.601-34.355-59.569-68.326-71.78-25.571-9.1912-36.936-10.146-120.81-10.146h-69.311v262.47l74.084-0.37764c65.914-0.33606 75.197-0.58876 84.175-2.2921zm-113.65-129.69v-99.31l43.814 6e-3c33.113 4e-3 46.342 0.38752 54.171 1.5675 37.319 5.6253 61.386 26.016 71.369 60.463 7.3133 25.236 5.8367 60.963-3.5159 85.069-4.4759 11.536-10.403 20.233-19.713 28.928-8.5752 8.0083-16.737 12.832-28.498 16.844-15.268 5.2072-21.938 5.7424-71.563 5.7424h-46.064zm311.29 22.039 0.0864-110.19 2.3825 7.435c1.3104 4.0893 21.209 53.688 44.22 110.22l41.837 102.78 42.423-0.57364 42.281-101.43c23.254-55.789 43.442-104.78 44.861-108.87l2.58-7.435 0.1674 218.28h43.547v-262.35h-63.467l-2.1526 5.0451c-15.518 36.371-83.954 202.29-85.622 207.57l-2.2372 7.0975-88.102-219.72h-63.253v262.35h40.361zm368.5 64.259 0.022-45.937 24.278-19.075c13.354-10.491 24.694-19.206 25.204-19.366 0.5097-0.15978 26.259 29.078 57.221 64.973l56.294 65.263 27.438 0.04c15.365 0.0215 27.284-0.3713 27.085-0.89437-0.1946-0.5139-30.458-35.621-67.252-78.016-36.794-42.394-67.006-77.463-67.138-77.929-0.1323-0.46676 29.374-24.257 65.571-52.867 36.196-28.609 65.811-52.15 65.811-52.311 0-0.16039-13.264-0.29149-29.475-0.29125l-29.475 4.1e-4 -155.07 125.61-0.2741-62.803-0.2743-62.803h-44.593v262.35h44.61z" fill="#19312b" stroke-width="1.101"/>
</svg>
