<svg viewBox="0 0 2e3 2e3" xmlns="http://www.w3.org/2000/svg">
  <!--
  Public Domain Work
  Creator: Tyler Morgan
  Modified
-->
  <title>DMK Logo</title>
  <desc>DMK Logo Symbol</desc>
  <rect width="2e3" height="2e3" fill="#fff" />
  <path d="m1183.9 1276c-11.974-2.4628-20.337-10.264-21.711-20.253-0.3721-2.7054-0.4815-5.1139-0.2431-5.3524 0.6039-0.6039 20.023 1.6258 22.677 2.6037 1.1938 0.44 2.1706 1.4303 2.1706 2.2008s1.1439 2.3007 2.542 3.4005c2.0513 1.6136 3.9195 1.9996 9.6784 1.9996 13.665 0 16.596-3.1055 17.444-18.474 0.2881-5.2272 0.2155-9.504-0.1612-9.504s-1.7597 1.2772-3.0732 2.8382c-1.3136 1.5611-5.045 4.1659-8.2922 5.7885-4.8116 2.4045-7.0929 2.9502-12.331 2.9502-9.6307 0-14.91-2.2002-21.809-9.0892-4.337-4.3307-6.4375-7.3754-8.0319-11.643-4.29-11.481-4.3029-29.032-0.03-40.454 7.7854-20.809 35.113-27.615 50.567-12.595l4.3693 4.2465v-10.54h20.26l-0.03 38.831c-0.032 41.344-0.6206 49.971-3.9373 57.681-2.52 5.858-8.8534 11.719-15.14 14.01-5.2857 1.9265-27.874 2.8018-34.918 1.3531zm21.996-50.522c3.2676-1.7002 6.2066-4.9022 8.4961-9.2567 2.7012-5.1374 2.5666-21.072-0.2291-27.117-2.7632-5.9754-7.7999-9.7073-13.891-10.292-12.735-1.2237-20.316 9.7835-18.975 27.55 1.0054 13.324 6.8938 20.472 16.865 20.472 2.8215 0 6.3024-0.6099 7.7353-1.3554zm554.44 50.178c-2.6531-0.7066-5.9694-1.7497-7.3696-2.3178-3.881-1.5745-9.4106-6.8259-11.5-10.921-2.134-4.1829-2.5784-12.448-0.6667-12.4 0.6632 0.016 5.7643 0.6543 11.336 1.4166s10.456 1.3997 10.853 1.4165c0.398 0.016 0.7236 0.7016 0.7236 1.5215 0 0.82 1.0655 2.5566 2.368 3.859 2.1095 2.1095 3.189 2.3679 9.8886 2.3665 13.998 0 17.646-3.9594 17.649-19.142v-9.0133l-4.8524 4.3628c-6.3748 5.7314-12.505 7.7735-21.561 7.182-14.942-0.9759-26.106-11.732-29.601-28.52-1.6633-7.9882-0.6715-24.396 1.8817-31.129 8.4505-22.286 35.106-29.35 51.48-13.644l3.6178 3.4701v-10.039h20.367l-0.3338 44.137c-0.3823 50.561-0.4329 50.929-8.1496 59.179-6.5906 7.0459-12.092 8.8364-28.284 9.2043-8.6777 0.1972-14.634-0.1329-17.848-0.989zm24.044-51.14c6.131-3.5931 8.5997-8.8745 9.0633-19.39 0.4703-10.665-0.8334-15.859-5.1922-20.684-4.2765-4.7336-7.9114-6.2065-13.897-5.6314-6.068 0.5831-10.662 3.9901-13.658 10.13-1.8965 3.886-2.2383 6.046-2.1797 13.774 0.071 9.4069 1.4946 14.732 4.9917 18.675 5.2322 5.8983 13.922 7.2003 20.872 3.1272zm-1471.6 20.129c-19.499-6.0547-21.884-33.41-3.688-42.299 2.8243-1.3798 10.996-3.8056 18.159-5.3908 19.807-4.3832 18.766-3.9467 19.11-8.0112 0.38997-4.613-1.1607-7.3085-5.1674-8.9826-4.3142-1.8026-12.385-1.7371-16.324 0.1326-1.7362 0.8239-3.9627 2.9945-4.9477 4.8237-0.9851 1.8291-2.1728 3.3258-2.6394 3.3258-3.8416 0-18.008-3.3627-18.008-4.2745 0-2.7581 5.3355-11.45 8.9036-14.503 6.3627-5.4461 11.758-6.7989 26.792-6.7167 14.16 0.077 18.696 1.1478 24.89 5.8727 1.824 1.3912 4.2235 4.5301 5.3322 6.9755 1.8466 4.0727 2.0625 6.7955 2.5708 32.423 0.46628 23.51 0.81932 28.574 2.2108 31.713 0.91072 2.0547 1.6559 3.8997 1.6559 4.1002s-4.7558 0.3646-10.569 0.3646h-10.569l-0.63546-3.3872c-0.3495-1.8631-0.94378-3.5779-1.3206-3.8108-0.37683-0.2329-2.806 1.0844-5.398 2.9274-8.3562 5.941-20.394 7.8117-30.359 4.7177zm26.238-16.106c5.5026-3.0926 6.8683-5.8522 7.3424-14.837l0.41285-7.824-10.709 2.7156c-5.8895 1.4935-11.48 3.1291-12.425 3.6344-5.3681 2.8729-7.019 9.0769-3.745 14.074 3.648 5.5675 11.552 6.4921 19.123 2.2368zm260.05 16.541c-12.566-2.9616-22.627-13.508-25.73-26.971-1.4064-6.103-1.2495-21.755 0.27514-27.455 2.0544-7.6796 5.8287-14.151 11.164-19.142 7.5626-7.074 12.148-8.7785 23.701-8.8102 12.43-0.034 17.931 1.8045 25.156 8.4079 8.4946 7.7635 12.952 18.936 12.952 32.466v6.8552h-53.276l0.66964 3.6178c1.5468 8.3566 6.1212 13.811 13.176 15.711 6.9174 1.8626 13.627-1.356 16.305-7.8218 1.0424-2.5166 1.6492-2.9237 3.7429-2.5111 1.3744 0.2709 6.0804 1.0376 10.458 1.7038 4.3775 0.6662 7.9551 1.6788 7.9501 2.2503s-1.2827 3.2595-2.8393 5.9736c-6.4244 11.201-17.326 16.856-32.144 16.676-4.3664-0.053-9.5686-0.481-11.561-0.9505zm26.042-52.607c-2.064-18.312-28.307-18.312-30.37 0l-0.50175 4.4515h31.374zm233.58 51.48c-18.802-6.5872-27.955-21.659-26.611-43.815 0.67219-11.079 4.6925-19.641 12.771-27.198 8.5708-8.0175 14.984-10.28 28.932-10.209 14.087 0.072 19.791 2.2033 28.086 10.492 6.5392 6.5338 9.3209 11.269 11.474 19.534 5.1686 19.844-3.7943 40.506-21.331 49.173-6.5958 3.2598-7.9955 3.5808-17.049 3.9103-8.4389 0.3071-10.788 0.035-16.272-1.8867zm24.409-17.975c6.5271-4.1393 9.4972-10.65 9.4902-20.801-7e-3 -9.9311-1.2404-14.243-5.3876-18.834-4.6972-5.1993-9.1471-7.0973-15.42-6.5771-5.7852 0.4797-10.516 3.2254-13.79 8.0045-3.0358 4.4304-3.9869 8.5812-3.9869 17.4 0 6.4758 0.42702 8.633 2.5535 12.901 3.5051 7.0337 9.2316 10.69 16.741 10.69 4.3066 0 6.3062-0.5678 9.7989-2.7832zm155.65 18.989c-4.1438-1.4418-9.0149-6.3917-10.21-10.375-0.5641-1.8806-1.2721-14.816-1.5731-28.744l-0.5473-25.324h-9.3768v-16.401h9.6475v-15.998l10.413-5.9895c5.7276-3.2942 10.72-5.9895 11.095-5.9895s0.6809 6.2949 0.6809 13.989v13.989h14.471v16.401h-14.471v22.603c0 25.958 0.092 26.281 7.214 25.305 2.1823-0.299 4.6498-0.8054 5.4833-1.1253 1.269-0.4869 1.6255 0.6798 2.1922 7.1767 0.3722 4.2671 0.4378 8.1451 0.1457 8.6177-1.6442 2.6604-19.151 3.9591-25.166 1.8668zm48.328-0.7792c-9.6022-3.7497-14.504-11.083-14.504-21.698 0-14.756 7.1241-20.75 30.333-25.52 5.5714-1.1451 12.192-2.744 14.712-3.5531 4.0532-1.3009 4.5826-1.789 4.5826-4.2248 0-7.2153-4.3105-10.598-13.506-10.598-6.8517 0-11.206 2.0525-13.193 6.2175-0.8997 1.8865-2.0357 3.43-2.5247 3.43-3.7081 0-18.046-3.3565-18.039-4.2228 0.024-2.807 4.9085-11.089 8.3906-14.227 6.133-5.5284 12.114-7.1156 26.813-7.1156 9.7188 0 13.696 0.4022 17.669 1.7867 6.321 2.2025 12.113 7.5626 13.708 12.684 0.7855 2.5237 1.3244 12.706 1.5575 29.425 0.3429 24.599 0.8281 29.173 3.8637 36.419 0.3863 0.922-1.9764 1.206-10.034 1.206h-10.54l-1.1563-3.859c-0.6358-2.1225-1.352-3.859-1.5914-3.859-0.2395 0-2.411 1.5081-4.8258 3.3513-8.202 6.2609-21.988 8.1551-31.714 4.3575zm22.792-13.54c4.599-1.2772 9.3368-5.2723 11.014-9.2878 0.7238-1.7322 1.3159-5.9115 1.3159-9.2872v-6.1377l-10.658 2.7029c-5.8621 1.4866-11.903 3.4382-13.424 4.3367-2.8367 1.6757-4.8625 4.9599-4.8562 7.8723 0.01 2.9059 3.8016 7.983 7.0099 9.3778 3.7911 1.6481 4.9963 1.7012 9.5984 0.4231zm165.43 14.087c-6.8894-2.4575-10.952-5.9263-13.848-11.825l-2.7481-5.5965-0.6226-63.191h21.191l0.3823 28.219c0.2513 18.546 0.7688 29.128 1.5099 30.872 2.6875 6.3224 14.035 8.7281 20.481 4.3418 7.6707-5.2206 8.5939-9.7044 8.6413-41.966l0.032-21.466h21.224v80.074h-20.26v-10.877l-4.6314 4.3321c-8.0963 7.5732-21.492 10.599-31.351 7.0822zm99.407 0.3953c-18.876-4.7157-29.755-23.874-26.825-47.24 1.9713-15.721 9.3488-27.051 21.281-32.685 4.6003-2.1714 6.5895-2.5063 14.954-2.5174 12.295-0.016 17.962 1.8466 24.894 8.1826 8.6714 7.9252 13.169 19.185 13.199 33.047l0.014 6.512h-26.53c-29.67 0-27.615-0.5655-25.508 7.0207 2.187 7.8753 11.396 14.201 18.684 12.833 4.19-0.786 8.5813-4.3696 10.229-8.3474 1.0424-2.5165 1.6493-2.9236 3.743-2.511 1.3743 0.2709 6.0856 1.0383 10.469 1.7056 7.3838 1.1237 7.9253 1.3603 7.3546 3.215-2.3349 7.5877-9.0059 14.828-17.016 18.469-5.142 2.3371-7.4443 2.7747-15.675 2.9793-5.3061 0.1319-11.277-0.1674-13.269-0.665zm26.056-52.541c-0.558-4.9504-4.1913-10.348-8.4469-12.548-3.559-1.8403-9.9128-1.8562-13.437-0.034-3.3635 1.7392-7.6407 6.6982-8.2071 9.5152-0.2319 1.153-0.6741 3.2902-0.9829 4.7494l-0.5612 2.653h32.124zm-1210.6-3.7906v-55.547l24.36 0.019c13.398 0.011 27.385 0.4564 31.083 0.9907 17.784 2.5701 30.196 14.653 35.318 34.383 2.2693 8.7402 2.7964 29.408 0.95508 37.446-4.1856 18.269-13.514 30.246-27.561 35.382-5.3766 1.966-7.8649 2.1435-34.972 2.4957l-29.184 0.3791zm57.55 33.78c5.458-2.9705 8.4022-7.2546 10.563-15.369 1.6079-6.0393 1.7978-28.356 0.30056-35.337-1.4287-6.6618-6.1832-13.454-11.494-16.42-4.0319-2.2516-5.4248-2.4477-19.536-2.7505l-15.195-0.3258v73.744l15.233-0.439c14.389-0.4148 15.504-0.5868 20.127-3.103zm140.23-18.419v-40.037h20.26v10.858l4.413-4.0678c5.7416-5.2924 11.89-7.9364 19.763-8.4998 9.0279-0.6459 16.166 1.6067 21.567 6.8062 6.8789 6.6218 7.3183 9.3092 7.3183 44.763v30.214h-21.224l-0.0544-27.254c-0.0605-30.267-0.43139-32.645-5.6355-36.144-6.3216-4.2504-17.197-1.6455-21.378 5.1208-2.6377 4.2678-3.723 15.84-3.7694 40.189l-0.0344 18.089h-21.224zm95.51 0v-40.037h19.295v10.776l4.3738-3.85c6.1031-5.3722 12.307-8.0722 19.817-8.6244 8.8385-0.6499 16.207 1.6216 21.708 6.6922 6.9831 6.4369 7.405 8.8131 7.8914 44.45l0.41812 30.631h-22.371v-27.526c0-29.127-0.33594-31.694-4.6514-35.537-2.5712-2.2903-9.537-3.1003-13.998-1.6279-4.2717 1.4097-8.8963 6.5443-10.234 11.363-0.58488 2.1062-1.0142 14.129-1.0174 28.486l-6e-3 24.842h-21.224zm223.82-15.436v-55.473h33.336l10.044 37.729c6.2847 23.608 10.286 37.059 10.69 35.937 0.35531-0.986 4.9251-17.964 10.155-37.729l9.509-35.937h33.353v110.95h-20.26l-0.0293-42.69c-0.0161-23.48-0.38547-42.039-0.82075-41.243-0.43529 0.7959-5.4854 20.007-11.222 42.69l-10.431 41.243h-21.638l-21.283-84.415-0.17765 84.415h-21.224zm223.82 15.436v-40.037h20.26v11.014l4.1002-4.0137c6.4451-6.3091 12.098-8.4367 22.43-8.4425 7.4005 0 9.3826 0.3553 13.422 2.4344 2.6067 1.3415 6.0206 4.0221 7.5865 5.9567 4.8025 5.9337 5.4899 11.419 5.5067 43.941l0.015 29.184h-21.094l-0.30654-28.219c-0.26926-24.787-0.51383-28.598-2.0112-31.338-5.1832-9.4841-20.41-7.6427-25.791 3.1191-2.3619 4.7239-2.4188 5.358-2.7456 30.631l-0.33372 25.807h-21.039zm560.52-15.436v-55.473h22.189v24.119c0 13.265 0.3685 24.119 0.8188 24.119 0.4504 0 10.761-10.853 22.913-24.119l22.094-24.119 29.761-7e-4 -2.3389 2.6042c-1.2863 1.4324-10.479 11.038-20.428 21.345-9.9484 10.307-18.089 19.103-18.089 19.545 0 0.691 36.44 57.344 41.68 64.798l1.8648 2.653-29.556-0.04-14.865-25.546c-8.1756-14.051-15.15-25.546-15.5-25.546s-4.622 4.0659-9.4952 9.0352l-8.8604 9.0351v33.061h-22.189zm111.91 15.436v-40.037h21.224v80.074h-21.224zm42.449 0v-40.037h20.26v10.858l4.413-4.0678c5.7416-5.2924 11.89-7.9364 19.763-8.4998 9.0278-0.6459 16.166 1.6067 21.567 6.8062 6.8789 6.6218 7.3183 9.3092 7.3183 44.763v30.214h-21.224l-0.054-27.254c-0.061-30.267-0.4315-32.645-5.6356-36.144-6.4242-4.3194-17.18-1.6509-21.527 5.3411-2.1427 3.446-2.2157 4.3434-2.5033 30.803l-0.2967 27.254h-22.079zm204.56 13.278c-5.9492-2.0998-13.696-10.012-15.775-16.111-0.8895-2.6104-1.6172-7.6385-1.6172-11.174 0-11.87 6.9562-21.868 18.126-26.05 10.852-4.0633 21.791-1.453 29.918 7.1396 7.7211 8.164 9.9494 19.204 6.0026 29.745-2.6783 7.1535-6.8007 11.718-13.694 15.163-4.9052 2.4511-7.0262 2.9494-12.287 2.8864-3.4969-0.041-8.2998-0.7615-10.673-1.5992zm16.747-3.5494c6.2743-1.8883 10.279-5.2175 13.595-11.301 2.3198-4.2563 2.8174-6.3002 2.7879-11.452-0.041-7.2344-1.6805-11.652-6.2558-16.864-8.1331-9.2631-22.57-9.8008-31.567-1.1766-5.2374 5.0204-7.255 9.8549-7.327 17.557-0.054 5.7542 0.3612 7.5196 2.8053 11.934 3.2958 5.9528 7.3711 9.4096 13.261 11.249 5.3961 1.6851 7.2493 1.6927 12.7 0.052zm-16.773-22.167c0-17.927-0.4601-16.986 8.3102-16.986 6.7908 0 11.674 2.045 12.96 5.4271 1.3751 3.6166 0.2506 7.8406-2.5812 9.6957-2.3618 1.5475-2.363 1.5563-0.4676 3.5851 1.045 1.1186 2.5241 4.7471 3.2869 8.0634l1.3871 6.0297h-2.7001c-2.8073 0-3.0694-0.4105-4.3125-6.7533-0.9556-4.8757-2.9989-6.7532-7.3498-6.7532h-3.7095v6.7532c0 6.5603-0.068 6.7533-2.4118 6.7533h-2.4119zm11.515-2.4975c3.6892-1.058 4.8486-2.3776 4.8704-5.5426 0.019-2.8706-3.8699-5.2966-7.876-4.9122-3.0375 0.2914-3.2194 0.5259-3.5058 4.5179-0.5054 7.0443 0.2498 7.7327 6.5114 5.9369zm-428.29 14.936v-11.094h41.484v22.189h-41.484zm-831.97-57.161c1.897-4.1123 4.2583-9.3219 5.2474-11.577l1.7985-4.1001h24.369l-21.669 23.154h-13.196zm1001.8-3.6178v-10.13h21.224v20.26h-21.224zm-1413.4-239.26v-180.89h1624.6v361.78h-1624.6zm527.72 116.83c40.154-7.6182 68.265-27.648 83.99-59.841 13.254-27.135 16.19-69.723 7.0143-101.72-8.7524-30.52-31.205-54.107-62.061-65.198-23.226-8.3484-33.549-9.2153-109.73-9.2153h-62.955v238.4l67.291-0.3431c59.87-0.3052 68.302-0.5348 76.456-2.0819zm-103.23-117.8v-90.204l39.796 6e-3c30.077 4e-3 42.093 0.35199 49.204 1.4238 33.897 5.1095 55.757 23.63 64.825 54.919 6.6427 22.922 5.3015 55.373-3.1935 77.268-4.0655 10.478-9.4491 18.378-17.905 26.275-7.7889 7.274-15.202 11.655-25.885 15.299-13.868 4.7297-19.926 5.2158-65.001 5.2158h-41.84zm282.75 20.018 0.0784-100.09 2.164 6.7532c1.1902 3.7143 19.264 48.765 40.165 100.11l38.001 93.358 38.533-0.521 38.404-92.133c21.122-50.673 39.458-95.172 40.747-98.886l2.3436-6.7532 0.152 198.26h39.554v-238.29h-57.647l-1.9552 4.5825c-14.095 33.036-76.256 183.74-77.771 188.54l-2.0321 6.4467-80.023-199.57h-57.453v238.29h36.66zm334.71 58.367 0.019-41.725 22.052-17.326c12.129-9.5293 22.43-17.445 22.893-17.59 0.463-0.14513 23.851 26.412 51.974 59.015l51.132 59.279 24.922 0.036c13.956 0.02 24.782-0.3372 24.601-0.8124-0.1768-0.4667-27.665-32.355-61.085-70.862s-60.862-70.36-60.982-70.783c-0.1203-0.42395 26.68-22.033 59.558-48.019 32.877-25.986 59.776-47.368 59.776-47.514 0-0.14568-12.048-0.26476-26.772-0.26454l-26.772 3.7e-4 -140.85 114.09-0.2489-57.044-0.2492-57.044h-40.504v238.29h40.519z" fill="#19312b"/>
</svg>
