<svg viewBox="0 0 666.67 666.67" xmlns="http://www.w3.org/2000/svg">
<!--
  Public Domain Work
  Creator: 0x0a
  Source: https://commons.wikimedia.org/wiki/File:2023_Facebook_icon.svg
  Modified
-->

  <title>Facebook</title>
  <desc>Facebook logo in white</desc>
  <path fill="#fff" d="m666.66 334.56c0-184.77-149.24-334.56-333.33-334.56-184.09 0-333.33 149.79-333.33 334.56 0 156.9 107.62 288.56 252.81 324.71v-222.47h-68.736v-102.24h68.736v-44.054c0-113.87 51.344-166.66 162.73-166.66 21.117 0 57.556 4.1553 72.462 8.3118v92.678c-7.8679-0.83104-21.532-1.2472-38.508-1.2472-54.657 0-75.775 20.781-75.775 74.807v36.157h108.88l-18.704 102.24h-90.174v229.87c165.05-20.008 292.95-161.06 292.95-332.11"/>
</svg>
