<svg width="666.67" height="666.67" viewBox="0 0 666.67 666.67" xmlns="http://www.w3.org/2000/svg">
<!--
  Public Domain Work
  Creator: 0x0a
  Source: https://commons.wikimedia.org/wiki/File:2023_Facebook_icon.svg
  Modified
-->

  <title>Facebook</title>
  <desc>Facebook logo in white</desc>
  <path fill="#000" d="m658.4 334.52c0-179.53-145.54-325.07-325.07-325.07-179.53 0-325.07 145.54-325.07 325.07 0 152.45 104.95 280.37 246.54 315.5v-216.16h-67.032v-99.336h67.032v-42.804c0-110.64 50.071-161.93 158.7-161.93 20.594 0 56.129 4.0374 70.666 8.076v90.049c-7.6729-0.80747-20.998-1.2118-37.554-1.2118-53.302 0-73.897 20.191-73.897 72.685v35.131h106.18l-18.24 99.336h-87.939v223.35c160.96-19.44 285.69-156.49 285.69-322.69" />
</svg>
