<svg width="24" height="24" viewBox="0 0 24 24" xmlns="http://www.w3.org/2000/svg">
  <g transform="matrix(1.0692 0 0 1.0474 -.59572 -.56922)" fill="#fff">
    <path d="m22.56 12.25c0-0.78-0.07-1.53-0.2-2.25h-10.36v4.26h5.92c-0.26 1.37-1.04 2.53-2.21 3.31v2.77h3.57c2.08-1.92 3.28-4.74 3.28-8.09z"/>
    <path d="m12 23c2.97 0 5.46-0.98 7.28-2.66l-3.57-2.77c-0.98 0.66-2.23 1.06-3.71 1.06-2.86 0-5.29-1.93-6.16-4.53h-3.66v2.84c1.81 3.59 5.52 6.06 9.82 6.06z"/>
    <path d="m5.84 14.09c-0.22-0.66-0.35-1.36-0.35-2.09s0.13-1.43 0.35-2.09v-2.84h-3.66c-0.75 1.48-1.18 3.15-1.18 4.93s0.43 3.45 1.18 4.93l2.85-2.22z"/>
    <path d="m12 5.38c1.62 0 3.06 0.56 4.21 1.64l3.15-3.15c-1.91-1.78-4.39-2.87-7.36-2.87-4.3 0-8.01 2.47-9.82 6.07l3.66 2.84c0.87-2.6 3.3-4.53 6.16-4.53z"/>
  </g>
</svg>
