<svg viewBox="0 0 264.58 264.58" xmlns="http://www.w3.org/2000/svg">
  <!--
  Public Domain Work
  Creator: Not Larry C.
  Source: https://en.wikipedia.org/wiki/File:Instagram_logo_2022.svg
  Modified
-->

  <title>Instagram</title>
  <desc>Instagram logo in black</desc>
  <path fill="#000" d="m132.3 0.001087c-35.929 0-40.438 0.15705-54.549 0.79925-14.084 0.64488-23.696 2.8745-32.108 6.146-8.7009 3.3788-16.082 7.8986-23.434 15.255-7.3587 7.3532-11.878 14.733-15.269 23.432-3.2799 8.4142-5.5122 18.031-6.1461 32.107-0.63111 14.11-0.79652 18.622-0.79652 54.55 0 35.927 0.15989 40.423 0.7992 54.533 0.64778 14.083 2.8774 23.697 6.1461 32.107 3.3818 8.7008 7.9017 16.081 15.258 23.435 7.3507 7.3585 14.731 11.89 23.426 15.269 8.417 3.2714 18.033 5.501 32.113 6.146 14.11 0.64192 18.617 0.7991 54.544 0.7991 35.932 0 40.427-0.15704 54.537-0.79925 14.084-0.64489 23.709-2.8745 32.124-6.146 8.6982-3.3787 16.068-7.9097 23.418-15.269 7.3587-7.3531 11.878-14.733 15.269-23.432 3.2521-8.4142 5.4846-18.031 6.1461-32.107 0.6338-14.11 0.7992-18.61 0.7992-54.537 0-35.927-0.1654-40.436-0.7992-54.547-0.6615-14.083-2.8939-23.697-6.1461-32.107-3.3899-8.7009-7.9101-16.081-15.269-23.435-7.3588-7.3585-14.717-11.879-23.426-15.255-8.4337-3.2714-18.052-5.501-32.136-6.1459-14.11-0.6422-18.604-0.79925-54.544-0.79925zm-11.868 23.84c3.5224-0.0054 7.4525 0 11.868 0 35.322 0 39.509 0.12677 53.456 0.76062 12.899 0.58984 19.899 2.745 24.562 4.5557 6.1737 2.3978 10.575 5.2641 15.203 9.8941 4.6302 4.6302 7.4966 9.0398 9.8999 15.214 1.8107 4.6577 3.9688 11.658 4.5557 24.556 0.63394 13.945 0.77178 18.134 0.77178 53.439 0 35.304-0.13784 39.494-0.77178 53.439-0.58982 12.898-2.745 19.898-4.5557 24.556-2.3977 6.1735-5.2697 10.569-9.8999 15.196-4.6301 4.6302-9.0262 7.4964-15.203 9.8942-4.6578 1.819-11.663 3.9686-24.562 4.5585-13.945 0.63386-18.135 0.77166-53.456 0.77166-35.325 0-39.511-0.1378-53.456-0.77166-12.899-0.59522-19.899-2.7504-24.565-4.5612-6.1737-2.3978-10.583-5.2641-15.213-9.8941-4.6302-4.6301-7.4966-9.0287-9.8999-15.204-1.8107-4.6577-3.9688-11.658-4.5557-24.556-0.63393-13.946-0.76075-18.134-0.76075-53.461 0-35.326 0.12682-39.494 0.76075-53.439 0.58983-12.899 2.745-19.898 4.5557-24.561 2.3977-6.1735 5.2697-10.584 9.8999-15.214 4.6301-4.6302 9.0399-7.4964 15.213-9.8996 4.6633-1.819 11.666-3.9686 24.565-4.5613 12.204-0.55122 16.933-0.71648 41.589-0.7442zm82.484 21.966c-8.7644 0-15.875 7.1024-15.875 15.869 0 8.7642 7.1109 15.874 15.875 15.874 8.7642 0 15.875-7.1105 15.875-15.874 0-8.7641-7.1109-15.874-15.875-15.874zm-70.617 18.549c-37.518 0-67.938 30.418-67.938 67.936 0 37.518 30.419 67.922 67.938 67.922 37.518 0 67.926-30.405 67.926-67.922s-30.411-67.936-67.929-67.936zm0 23.84c24.353 0 44.097 19.74 44.097 44.097 0 24.353-19.744 44.097-44.097 44.097-24.355 0-44.097-19.744-44.097-44.097 0-24.355 19.742-44.097 44.097-44.097z"/>
</svg>
