<svg width="1e3" height="1e3" viewBox="0 0 264.58 264.58" xmlns="http://www.w3.org/2000/svg">
<!--
  Public Domain Work
  Creator: Not Larry C.
  Source: https://en.wikipedia.org/wiki/File:Instagram_logo_2022.svg
  Modified
-->

  <title>Instagram</title>
  <desc>Instagram logo in white</desc>
  <path d="m132.3 5.7214c-34.4 0-38.717 0.15026-52.228 0.76469-13.485 0.617-22.688 2.7502-30.742 5.8803-8.3307 3.2327-15.398 7.5571-22.437 14.595-7.0456 7.0353-11.373 14.096-14.619 22.419-3.1403 8.0504-5.2777 17.251-5.8846 30.719-0.60426 13.5-0.76263 17.817-0.76263 52.192 0 34.374 0.15309 38.675 0.7652 52.175 0.62022 13.474 2.755 22.672 5.8846 30.719 3.2379 8.3246 7.5655 15.386 14.609 22.422 7.0379 7.0404 14.104 11.376 22.429 14.609 8.0589 3.13 17.266 5.2632 30.747 5.8803 13.51 0.61417 17.825 0.76456 52.223 0.76456 34.403 0 38.707-0.15026 52.217-0.7647 13.485-0.617 22.7-2.7502 30.757-5.8803 8.3281-3.2326 15.384-7.5677 22.422-14.609 7.0456-7.0352 11.373-14.096 14.619-22.419 3.1137-8.0504 5.2512-17.251 5.8846-30.719 0.60684-13.5 0.7652-17.805 0.7652-52.179s-0.15836-38.688-0.7652-52.189c-0.63335-13.474-2.7708-22.672-5.8846-30.719-3.2457-8.3247-7.5735-15.386-14.619-22.422-7.0457-7.0404-14.091-11.365-22.429-14.595-8.0749-3.13-17.284-5.2632-30.769-5.8802-13.51-0.61443-17.812-0.76469-52.223-0.76469zm-11.363 22.809c3.3725-0.0052 7.1354 0 11.363 0 33.819 0 37.828 0.12129 51.182 0.72773 12.35 0.56434 19.052 2.6263 23.517 4.3587 5.911 2.2941 10.125 5.0365 14.556 9.4663 4.4332 4.43 7.1776 8.649 9.4787 14.556 1.7337 4.4563 3.7999 11.154 4.3619 23.494 0.60696 13.342 0.73894 17.35 0.73894 51.129 0 33.778-0.13198 37.786-0.73894 51.129-0.56473 12.34-2.6282 19.038-4.3619 23.494-2.2957 5.9066-5.0455 10.112-9.4787 14.539-4.4331 4.43-8.6422 7.1723-14.556 9.4664-4.4596 1.7404-11.167 3.797-23.517 4.3614-13.352 0.60646-17.363 0.7383-51.182 0.7383-33.822 0-37.83-0.13184-51.182-0.7383-12.35-0.56948-19.052-2.6315-23.52-4.364-5.911-2.2941-10.133-5.0365-14.566-9.4663-4.4332-4.4299-7.1776-8.6383-9.4787-14.547-1.7337-4.4563-3.7999-11.154-4.3619-23.494-0.60696-13.343-0.72838-17.35-0.72838-51.15 0-33.799 0.12142-37.786 0.72838-51.129 0.56473-12.341 2.6282-19.038 4.3619-23.499 2.2957-5.9066 5.0455-10.126 9.4787-14.556 4.4331-4.43 8.6553-7.1723 14.566-9.4716 4.4649-1.7404 11.17-3.797 23.52-4.3641 11.685-0.52739 16.213-0.6855 39.819-0.71202zm78.974 21.016c-8.3915 0-15.2 6.7953-15.2 15.183 0 8.3853 6.8083 15.188 15.2 15.188 8.3913 0 15.2-6.8031 15.2-15.188 0-8.3852-6.8083-15.188-15.2-15.188zm-67.612 17.747c-35.922 0-65.047 29.103-65.047 64.999 0 35.896 29.125 64.985 65.047 64.985 35.922 0 65.036-29.09 65.036-64.985s-29.117-64.999-65.039-64.999zm0 22.809c23.317 0 42.221 18.887 42.221 42.19 0 23.3-18.904 42.19-42.221 42.19-23.319 0-42.221-18.89-42.221-42.19 0-23.302 18.902-42.19 42.221-42.19z" fill="#fff" stroke-width="1.2876"/>
</svg>
