<svg aria-labelledby="skinmcl-logo-title skinmcl-logo-description" role="img" viewBox="0 0 1024 1024" xmlns="http://www.w3.org/2000/svg">
  <title id="skinmcl-logo-title">SkinMCL Logo</title>
  <desc id="skinmcl-logo-description">An abstract face  with an eye and mouth, outlined in the shape of an S</desc>
  <rect width="1024" height="1024" fill="#fff"/>
  <path id="s" d="m624.65 26.023s-82.803 38.045-138.75 86.16c-55.948 48.115-87.279 110.78-90.636 147.7-3.3569 35.807 7.8327 87.279 38.045 121.97 29.093 32.45 73.851 76.089 97.349 97.349 23.498 20.141 78.327 90.636 79.446 138.75 1.119 48.115 1.119 76.089-44.758 155.54-46.996 78.327-190.22 218.2-190.22 218.2l2.2379 3.357s133.16-83.922 190.22-157.77c57.067-73.851 79.446-125.32 81.684-184.63 3.3569-59.305-29.093-118.61-69.375-154.42-40.282-35.807-110.78-77.208-144.35-140.99-10.071-16.784-19.022-39.163-12.309-81.684 4.4758-25.736 14.546-55.948 36.926-85.041 71.613-92.873 165.61-161.13 165.61-161.13z" fill="#cd5d96" stroke-width="1.119"/>
  <g transform="matrix(1.119 0 0 1.119 -53.434 -65.731)">
    <path id="upper-eye" d="m486 320s26-36 76-38c49-1 78 38 78 38s-37-27-78-26c-42 1-76 26-76 26z"/>
    <path id="lower-eye" d="m485 331s35 29 76 29c45 0 78-28 78-28s-22 37-78 36c-56 0-76-37-76-37z"/>
    <path id="lower-right-lip" d="m404 702s40-24 74-37 90-27 90-27-63 10-93 21-75 36-75 36z"/>
    <path id="lower-left-lip" d="m405 702s-17-17-17-34 27-31 27-31-19 18-19 31c0 12 9 34 9 34z"/>
    <path id="lip-split" d="m415 637s41 3 78 4c37 0 75-3 75-3s-41-3-75-3z"/>
    <path id="upper-left-lip" d="m415 637s-22-11-22-28c-1-17 11-26 11-26s-5 9-4 25c0 16 15 29 15 29z"/>
    <path id="upper-right-lip" d="m404 580-3 10s23 13 62 26c47 15 105 22 105 22s-86-22-102-29c-58-24-62-29-62-29z"/>
  </g>
</svg>
