<svg xmlns="http://www.w3.org/2000/svg" fill="none" viewBox="0 0 191 42">
  <path fill="#1b1b1b" d="M36 6.2a20.7 20.7 0 0 0-29.4 0 20.8 20.8 0 1 0 29.5 0Zm-4.6 25H21.3V21.1l3.7 3.7 1.5-1.4c2.4-2.8 3-4.6 2.1-6.6s-2.8-3.2-5-3.2h-7.8v17.6h-3.7V9.8h11.5c3.7 0 7 2.2 8.4 5.5 2.2 5-1.3 9-2.8 10.6v.1l-1.5 1.5zm33.9-7.3-.1-.2h.1a6 6 0 0 0 2.8-2.3q1-1.5 1-3.6c0-2.1-.3-2.6-1-3.6q-.9-1.5-2.7-2.3a10 10 0 0 0-4.3-.8H53v18.6h4v-5.2h4.2l3.7 5.2h4.4l-4-5.7Zm-1.4-3.6q-1 1-3 1H57v-7h3.7q2 0 3.1 1 1 .8 1 2.5c0 1.7-.3 2-1 2.5Zm21.9 2.3q0-2.1-1-3.9-1-1.6-2.7-2.6a8 8 0 0 0-3.8-.9q-2.1 0-3.9 1a7 7 0 0 0-3.7 6.4 7 7 0 0 0 3.9 6.4q1.8 1 4.3 1 3.8 0 5.8-2.3l-2-2.2-1.7 1q-1 .3-2 .3-1.7 0-2.9-.8a4 4 0 0 1-1.4-2.2v-.2h11v-1Zm-11.2-1.1v-.2q.3-1.4 1.3-2.3t2.5-.8a3.6 3.6 0 0 1 3.7 3.1v.2zm27.7-2.8a7 7 0 0 0-6.2-3.5q-3 0-4.5 1.9l-.2.3v-2h-3.8V35h4v-7l.2.2q1.5 1.8 4.3 1.8a8 8 0 0 0 6.2-3.5q.9-1.6.9-4a7 7 0 0 0-1-3.8Zm-4.2 7q-1 1-2.7 1t-2.8-1q-1-1.2-1-3.1c0-1.9.3-2.3 1-3q1-1.2 2.8-1.2 1.6 0 2.7 1.2 1 1 1.1 3c.1 2-.4 2.3-1.1 3Zm21.9-3.1a7 7 0 0 0-3.6-6.5 8 8 0 0 0-3.8-.9q-2.2 0-4 1a7 7 0 0 0-3.6 6.4 7 7 0 0 0 3.9 6.4q1.8 1 4.2 1 3.8 0 5.9-2.3l-2.1-2.2q-.7.6-1.6 1-1 .3-2 .3-1.7 0-2.9-.8a4 4 0 0 1-1.5-2.2v-.2h11zm-11-1.1v-.2q.1-1.4 1.2-2.3t2.5-.8a3.6 3.6 0 0 1 3.7 3.1v.2zm24.2-4.7a8 8 0 0 0-5-1.6q-1.8 0-3.5.5t-2.7 1.2l1.4 2.7a7 7 0 0 1 4.1-1.3q1.7 0 2.7.8.9.8.9 2.2v.2h-3.5q-3.2 0-4.7 1.1t-1.4 3a4 4 0 0 0 2.4 3.8q1.2.6 2.9.6c3.8 0 4.5-2.3 4.5-2.3v2h3.7v-8.1q0-3.1-1.8-4.8m-2.1 8.5a3 3 0 0 1-1.3 1.6q-.8.5-2 .5t-1.8-.5q-.7-.6-.7-1.4 0-1.8 2.7-1.9h3zm16.3 3.8q-.6.5-1.4.6l-1.9.3q-2.5 0-4-1.3a6 6 0 0 1-1.3-3.8v-6.2h-2.2v-3h2.2v-3.5h4v3.6h3.6v3h-3.7v6q0 1 .5 1.5t1.5.6a3 3 0 0 0 1.6-.5l1 2.7Zm19.6.8V16l-7 11.6h-1l-7-11.4v13.7h-2.6v-19h2.2l8 13.3 7.7-13.3h2.3v19zm5.3-18.9h8q3 0 5.3 1.1a9 9 0 0 1 4.9 8.3q0 2.8-1.3 5-1.2 2.1-3.6 3.3-2.3 1.2-5.3 1.2h-8v-19Zm7.8 16.5q2.3 0 4-.9a6 6 0 0 0 2.7-2.5q1-1.6 1-3.7 0-2-1-3.7a6 6 0 0 0-2.7-2.5 9 9 0 0 0-4-1H175v14.3z" />
</svg>