<svg viewBox="0 0 20.915 24" xmlns="http://www.w3.org/2000/svg">
  <!--
  Public Domain Work
  Creator: Ntx61
  Source: https://en.wikipedia.org/wiki/File:TikTok_logo.svg
  Modified
-->

  <path fill="#fff" d="m19.712 5.6225a5.7508 5.7508 0 0 1-4.5234-5.0933v-0.52913h-4.1335v16.404a3.4747 3.4747 0 0 1-6.2404 2.0913l-0.0024-0.0012 0.0024 0.0012a3.4735 3.4735 0 0 1 3.8191-5.4113v-4.1995a7.5938 7.5938 0 0 0-6.472 12.829 7.595 7.595 0 0 0 13.027-5.3081v-8.3821a9.8171 9.8171 0 0 0 5.7269 1.831v-4.1071a5.7964 5.7964 0 0 1-1.2034-0.12478z"/>
</svg>
