<svg viewBox="0 0 35.422 43.545" xmlns="http://www.w3.org/2000/svg">
  <path fill="#fff" d="m11.612 27.474 2.043-0.46385c0.04267-0.0097 0.11487-0.02577 0.2002-0.05315a2.2547 2.213 0 0 0 1.6131-2.6349l-0.0082-0.03543a2.2515 2.2097 0 0 0-0.3479-0.74571 2.8455 2.7928 0 0 0-0.83363-0.70222 7.7209 7.5779 0 0 0-1.1848-0.53794l-2.24-0.80369c-1.257-0.45902-2.514-0.90516-3.7841-1.3416-0.82214-0.28669-1.5196-0.53955-2.1251-0.72477a6.5952 6.473 0 0 1-0.34297-0.10308c-0.73189-0.21904-1.2472-0.31085-1.682-0.31407a2.002 1.9649 0 0 0-0.8484 0.1514 2.1776 2.1373 0 0 0-0.73845 0.51539 4.4898 4.4066 0 0 0-0.28882 0.35755 4.2945 4.2149 0 0 0-0.42994 0.84073 11.626 11.411 0 0 0-0.61373 3.7463c0.00821 1.15 0.039384 2.6269 0.6843 3.6287 0.1559 0.2577 0.3643 0.47996 0.61209 0.65229 0.45948 0.31085 0.92224 0.35272 1.4063 0.38654 0.72204 0.04993 1.4195-0.12241 2.1169-0.28186l6.7872-1.5381zm22.793-10.644a11.605 11.39 0 0 0-2.2186-3.1036 3.4133 3.35 0 0 0-0.37743-0.3189 4.4012 4.3196 0 0 0-0.38399-0.25286 4.3749 4.2939 0 0 0-0.4201-0.1981 2.1628 2.1228 0 0 0-0.89106-0.14495c-0.29046 0.01611-0.57435 0.09664-0.83199 0.23032-0.38892 0.19005-0.81065 0.49606-1.3719 1.0066-0.07713 0.0757-0.17395 0.16106-0.26256 0.24159-0.46112 0.42681-0.9764 0.95348-1.5885 1.5655-0.94686 0.93898-1.8773 1.8828-2.8045 2.8347l-1.6574 1.6879a7.7291 7.5859 0 0 0-0.82378 0.99374 2.8488 2.796 0 0 0-0.43815 0.99052 2.3138 2.2709 0 0 0 0.01969 0.82141l0.0082 0.03543a2.2531 2.2114 0 0 0 2.6223 1.675 2.1005 2.0616 0 0 0 0.20512-0.03865l8.8319-2.0036c0.69742-0.15784 1.4031-0.30279 2.0283-0.66035 0.4201-0.23676 0.81886-0.47352 1.0929-0.95025a2.1825 2.1421 0 0 0 0.25928-0.8504c0.1362-1.1822-0.4923-2.5238-0.99773-3.561zm-15.811 3.6448c0.63999-0.78919 0.63999-1.9649 0.69578-2.9281 0.19364-3.2131 0.39548-6.4263 0.55794-9.6411 0.06072-1.2176 0.19364-2.4191 0.11979-3.6464-0.06072-1.0115-0.06728-2.1743-0.71876-3.0054-1.1487-1.4656-3.6004-1.3449-5.2725-1.1161a16.005 15.708 0 0 0-1.5343 0.28347c-0.50871 0.11918-1.0141 0.24964-1.5064 0.40587-1.6049 0.51539-3.8613 1.4624-4.242 3.2776-0.21661 1.026 0.29538 2.0745 0.68922 3.0118 0.48081 1.1339 1.1356 2.1566 1.7329 3.2244 1.5803 2.8202 3.1885 5.6242 4.7917 8.4299 0.48081 0.83751 1.001 1.8973 1.9282 2.3321 0.06236 0.02577 0.12472 0.04832 0.18872 0.06926 0.41517 0.15462 0.86973 0.18361 1.3013 0.08536l0.07713-0.01611c0.4004-0.10791 0.76142-0.32212 1.0453-0.61686 0.05251-0.04832 0.1001-0.09664 0.14769-0.14979zm-0.76635 8.6022a2.043 2.0052 0 0 0-2.2744-0.75215 2.0841 2.0455 0 0 0-0.28225 0.11435 2.7405 2.6897 0 0 0-0.40204 0.24642 5.3054 5.2071 0 0 0-0.95998 0.96475c-0.07056 0.08858-0.1362 0.20616-0.22154 0.28347l-1.4211 1.9166c-0.80409 1.0759-1.6 2.1534-2.386 3.247-0.51527 0.70705-0.95834 1.3046-1.3112 1.8313-0.06564 0.09986-0.13456 0.20938-0.19692 0.29957-0.42174 0.6378-0.65968 1.1049-0.78276 1.5204a2.0234 1.9859 0 0 0-0.08533 0.85684c0.03938 0.29957 0.14277 0.58787 0.30194 0.84718 0.08533 0.12885 0.17723 0.25448 0.27569 0.37527a4.3388 4.2584 0 0 0 0.71384 0.64424c0.98132 0.67001 2.0545 1.1516 3.1835 1.5236 0.94029 0.30601 1.9167 0.48962 2.9046 0.54438 0.16902 0.0081 0.33805 0.0048 0.50543-0.0097a4.9066 4.8157 0 0 0 0.46276-0.06442 4.4143 4.3325 0 0 0 0.45292-0.12885 2.1989 2.1582 0 0 0 0.77127-0.48318c0.20841-0.20455 0.36922-0.45097 0.46933-0.72316 0.1641-0.40265 0.27241-0.9116 0.34461-1.6686 0.0049-0.10791 0.02133-0.23676 0.03282-0.35433 0.05579-0.62813 0.08205-1.369 0.12143-2.2355 0.07056-1.3352 0.12472-2.6639 0.16738-3.9959l0.0919-2.3708c0.02133-0.54438 0.0033-1.15-0.15097-1.6927a2.5829 2.5351 0 0 0-0.32492-0.73604zm16.037 3.7092c-0.29538-0.32051-0.71548-0.6378-1.3784-1.0308-0.09518-0.05315-0.20841-0.1224-0.31179-0.18361-0.55138-0.32695-1.216-0.6684-1.9922-1.0823-1.193-0.64424-2.386-1.2692-3.5921-1.8908l-2.1284-1.1081c-0.10995-0.03221-0.22154-0.10952-0.32656-0.15945a5.307 5.2087 0 0 0-1.2931-0.45258 2.7405 2.6897 0 0 0-0.46933-0.04832 2.3794 2.3354 0 0 0-0.30523 0.01772 2.0463 2.0084 0 0 0-1.7066 1.6573c-0.03118 0.26575-0.02133 0.53472 0.03118 0.79564 0.10338 0.55727 0.3561 1.1065 0.61866 1.5881l1.1356 2.0922c0.63343 1.179 1.2734 2.3515 1.9298 3.5208 0.42338 0.76181 0.77619 1.4141 1.106 1.9553 0.06236 0.10147 0.13292 0.21099 0.18707 0.30601 0.40204 0.64907 0.72368 1.0582 1.0502 1.3529a2.0463 2.0084 0 0 0 1.6541 0.5476 4.3979 4.3164 0 0 0 0.4644-0.08053 4.2863 4.2069 0 0 0 0.90419-0.3495 11.269 11.06 0 0 0 2.368-1.7394c0.85004-0.82141 1.6016-1.7169 2.1858-2.7412 0.08205-0.14495 0.15097-0.29474 0.21005-0.45097a4.6604 4.5741 0 0 0 0.14277-0.43647c0.03446-0.1514 0.06072-0.30279 0.07877-0.4558a2.1989 2.1582 0 0 0-0.10338-0.89066 2.0168 1.9794 0 0 0-0.45948-0.73443z"/>
</svg>
