<svg viewBox="0 0 400 400" xmlns="http://www.w3.org/2000/svg">
 <!--
  Public Domain Work
  Creator: Tyler Morgan
  Modified
 -->
  <title>Zo Logo</title>
  <desc>Zo Logo Symbol</desc>
  <rect width="400" height="400" fill="#fff" stroke-linecap="round" stroke-linejoin="round" stroke-width="35"/>
  <path d="m-2.28e-6 200v-200h400v400h-400zm198.54 153.45c19.443-5.0409 39.458-22.304 54.649-47.136 14.081-23.018 21.962-48.47 21.939-70.851-0.0446-42.336-27.968-63.405-74.113-55.922-13.003 2.591-25.896 5.9102-38.767 9.6052 2.0203-3.9083 11.842-19.201 22.593-32.562 11.422-14.195 36.98-40.134 53.659-54.46 6.6-5.669 19.762-16.16 29.25-23.313l17.25-13.006v-10.405c0-5.7228-0.18131-9.8687-0.18967-10.548-1.0661 0-20.091 14.843-29.226 22.802-33.759 29.412-75.368 79.232-96.692 116.52-2.1441 3.7495-3.2927 5.7946-4.2155 7.376-1.3895 0.48598-2.7038 0.96402-5.0776 1.9011-2.96 1.1686-5.985 2.4628-6.1017 2.3135-0.11671-0.14933 5.9953-9.2715 13.582-20.272 7.587-11 17.892-25.94 22.9-33.2 5.008-7.2598 10.661-15.783 12.563-18.941 3.3314-5.5323 4.4948-10.359 2.497-10.359-0.52818 0-18.753 8.8596-40.5 19.688l-39.54 19.688v7.812c0 4.2966 0.38247 7.8121 0.84994 7.8121 1.5067 0 46.769-25.316 58.495-32.718 2.1145-1.3346 3.9979-2.2732 4.1854-2.0857 0.33861 0.33861-3.2131 5.6204-32.817 48.803-16.466 24.018-18.712 27.734-18.712 30.95 0 2.6511 0.49917 2.6004 8.1117-0.82429 3.5136-1.5807 7.4282-3.1947 8.6991-3.5867l2.3108-0.71273-2.4273 4.8367c-4.4412 8.8496-9.5678 22.957-12.635 34.769-7.8234 30.131-6.3352 55.128 4.5754 76.856 6.7238 13.39 21.195 25.132 35.973 29.19 6.7272 1.8471 19.761 1.8358 26.932-0.0232zm-19.334-15.011c-20.893-5.6238-34.576-21.391-40.863-47.09-2.3236-9.4976-2.2736-31.812 0.0983-43.853 2.0227-10.269 7.2564-26.671 11.489-36.005l2.8792-6.35 9.8456-2.9697c20.687-6.2398 33.682-8.5065 48.846-8.5196 13.65-0.0118 21.551 1.6801 30.803 6.596 18.824 10.002 27.489 34.541 22.145 62.713-4.6644 24.589-20.897 52.136-38.447 65.248-5.4241 4.0523-16.94 9.4442-22.799 10.675-7.1044 1.4921-17.519 1.2995-23.995-0.44366z" fill="#0517a1"/>
</svg>
