<svg viewBox="0 0 216.8 56.453" xmlns="http://www.w3.org/2000/svg">
  <!--
  Public Domain Work
  Creator: Tyler Morgan
  Modified
 -->
  <g transform="translate(-1.0445 -26.993)" fill="#4f4f4f">
    <path d="m206.93 26.993c-1.5058 0-2.9222 0.29224-4.252 0.87891-1.3102 0.56711-2.4656 1.3503-3.4629 2.3477-0.97778 0.97778-1.759 2.1312-2.3457 3.4609-0.56711 1.3102-0.85156 2.7188-0.85156 4.2246s0.28445 2.9241 0.85156 4.2539c0.58667 1.3102 1.3679 2.4636 2.3457 3.4609 0.99733 0.97778 2.1527 1.759 3.4629 2.3457 1.3298 0.56711 2.7462 0.85156 4.252 0.85156 1.5058 1e-6 2.9144-0.28445 4.2246-0.85156 1.3298-0.58667 2.4832-1.3679 3.4609-2.3457 0.99733-0.99733 1.7805-2.1507 2.3476-3.4609 0.58667-1.3298 0.87891-2.7481 0.87891-4.2539s-0.29224-2.9144-0.87891-4.2246c-0.56711-1.3298-1.3503-2.4832-2.3476-3.4609-0.97778-0.99733-2.1312-1.7805-3.4609-2.3477-1.3102-0.58667-2.7188-0.87891-4.2246-0.87891zm0 2.4629c1.1342 0 2.1902 0.226 3.168 0.67578 0.99733 0.43022 1.8585 1.0264 2.582 1.7891 0.72355 0.76266 1.2905 1.6628 1.7012 2.6992 0.43022 1.0169 0.64453 2.1118 0.64453 3.2852s-0.21431 2.278-0.64453 3.3145c-0.41066 1.0169-0.97762 1.9073-1.7012 2.6699-0.72356 0.76267-1.5847 1.3686-2.582 1.8184-0.97778 0.43022-2.0338 0.64453-3.168 0.64453s-2.1999-0.21431-3.1973-0.64453c-0.97778-0.44978-1.8272-1.0557-2.5508-1.8184-0.72355-0.76267-1.3002-1.653-1.7305-2.6699-0.41066-1.0364-0.61718-2.1411-0.61718-3.3145s0.20652-2.2683 0.61718-3.2852c0.43023-1.0364 1.0069-1.9366 1.7305-2.6992 0.72356-0.76267 1.573-1.3588 2.5508-1.7891 0.99734-0.44978 2.063-0.67578 3.1973-0.67578zm-4.1934 2.6113v11.439h2.8144v-4.3984h0.67579l2.6113 4.3984h3.0781l-2.9316-4.5449c0.31288-0.03911 0.61487-0.14822 0.9082-0.32422 0.31289-0.19556 0.58761-0.43909 0.82227-0.73242 0.25422-0.29333 0.45879-0.64598 0.61523-1.0566 0.15645-0.43022 0.23438-0.89976 0.23438-1.4082 0-0.68444-0.14612-1.2417-0.43946-1.6719-0.29333-0.44978-0.68494-0.79072-1.1738-1.0254-0.46933-0.25422-1.0168-0.43152-1.6426-0.5293-0.60622-0.09778-1.2414-0.14648-1.9062-0.14648zm2.7852 2.2891h1.3789c0.176 0 0.37279 0.0097 0.58789 0.0293 0.21512 0.01955 0.40994 0.06826 0.58594 0.14648 0.19556 0.07822 0.35142 0.20486 0.46875 0.38086 0.13689 0.15644 0.20508 0.3805 0.20508 0.67383s-0.0682 0.52908-0.20508 0.70508c-0.11733 0.15644-0.27319 0.27334-0.46875 0.35156-0.176 0.07822-0.37082 0.12693-0.58594 0.14648-0.2151 0.01955-0.41189 0.0293-0.58789 0.0293h-1.3789z"/>
    <path d="m35.113 26.993-15.666 28.227 15.666 28.226h149.63l15.666-28.226-15.666-28.227zm54.201 8.9121c2.691 0 5.0788 0.46875 7.1621 1.4062 2.0833 0.92014 3.8362 2.2142 5.2598 3.8809 1.441 1.6667 2.5347 3.6619 3.2812 5.9883 0.74653 2.3264 1.1191 4.8965 1.1191 7.709s-0.37261 5.3987-1.1191 7.7598c-0.74653 2.3437-1.8403 4.367-3.2812 6.0684-1.4236 1.684-3.1764 2.9941-5.2598 3.9316-2.0833 0.9375-4.4711 1.4062-7.1621 1.4062s-5.0788-0.46875-7.1621-1.4062c-2.066-0.95486-3.8188-2.273-5.2598-3.957-1.4236-1.7014-2.5093-3.7246-3.2559-6.0684-0.72917-2.3611-1.0938-4.9473-1.0938-7.7598s0.36458-5.3826 1.0938-7.709c0.74653-2.3264 1.8322-4.3236 3.2559-5.9902 1.441-1.6667 3.1938-2.9588 5.2598-3.8789 2.0833-0.92014 4.4711-1.3809 7.1621-1.3809zm81.936 0.87109c1.1947 0 2.3018 0.16082 3.3223 0.48438 1.0453 0.29867 1.955 0.76059 2.7266 1.3828 0.77155 0.59733 1.3801 1.3687 1.8281 2.3145 0.448 0.94578 0.67188 2.0529 0.67188 3.3223 0 1.6676-0.3847 3.1105-1.1562 4.3301-0.74667 1.1947-1.7174 2.3404-2.9121 3.4355l-8.1758 7.5781h12.244v4.0312h-17.695v-4.7402l10.268-9.9316 0.9336-0.93164c0.32355-0.34844 0.60853-0.71065 0.85742-1.084 0.27378-0.37333 0.49765-0.75803 0.67187-1.1562 0.17423-0.42311 0.26172-0.85864 0.26172-1.3066 0-0.54756-0.11193-1.0339-0.33593-1.457-0.19912-0.42311-0.47383-0.78336-0.82227-1.082s-0.75758-0.52254-1.2305-0.67188c-0.448-0.17422-0.93436-0.26172-1.457-0.26172-1.12 0-2.0399 0.32359-2.7617 0.9707-0.72178 0.64711-1.1573 1.5182-1.3066 2.6133l-4.7051-0.37305c0.0996-1.2196 0.38649-2.29 0.85938-3.2109 0.49777-0.94578 1.1327-1.7293 1.9043-2.3516 0.77156-0.62222 1.6671-1.0964 2.6875-1.4199 1.0204-0.32356 2.1276-0.48438 3.3223-0.48438zm-131.75 0.04102h28.621v5.4688l-20.912 25.598h20.912v5.2617h-28.621v-4.793l21.199-26.354h-21.199zm69.607 0h6.8223l8.2812 12.812 8.2812-12.812h6.9277l-11.797 18.125 11.797 18.203h-6.9277l-8.2285-12.812-8.334 12.812h-6.9004l11.744-18.23zm41.84 0.40625h4.0703v26.432h-4.4805v-21.279l-4.9648 4.5918-2.6133-3.0977zm-61.631 3.8125c-1.5104 0-2.9167 0.3125-4.2188 0.9375-1.2847 0.60764-2.4045 1.5011-3.3594 2.6816-0.9375 1.1632-1.6847 2.6035-2.2402 4.3223-0.53819 1.7187-0.80664 3.6819-0.80664 5.8867 0 2.2049 0.26845 4.174 0.80664 5.9102 0.55556 1.7361 1.3027 3.2125 2.2402 4.4277 0.95486 1.1979 2.0747 2.1174 3.3594 2.7598 1.3021 0.625 2.7083 0.9375 4.2188 0.9375 1.4931 0 2.8813-0.3125 4.166-0.9375 1.3021-0.64236 2.4319-1.5618 3.3867-2.7598 0.97222-1.2153 1.7355-2.6916 2.291-4.4277s0.83398-3.7053 0.83398-5.9102-0.27843-4.168-0.83398-5.8867-1.3188-3.1591-2.291-4.3223c-0.95486-1.1806-2.0846-2.074-3.3867-2.6816-1.2847-0.625-2.673-0.9375-4.166-0.9375z"/>
  </g>
</svg>
