<svg version="1.1" viewBox="0 0 700 700" xml:space="preserve" xmlns="http://www.w3.org/2000/svg">
	<g transform="matrix(1.4,0,0,1.4,-138.6,-141.4)">
		<polygon points="99 348.52 99 101 347.15 101 599 101 599 350.98 599 601 350.5 601 99 601" fill="#fff"/>
		<path d="m599 601v-79.227h-60.321l-31.056-34.34-31.213 34.34h-198.88v-160.05h-64.191l79.622-180.19h76.788l27.411 61.731v-61.731h95.049l16.503 46.518 16.611-46.518h73.68v-80.534h-500v500zm-50.16-99.265h50.16l-66.353-70.364 66.353-69.564h-49.362l-40.977 44.778-40.583-44.778h-50.172l65.965 69.964-65.965 69.964h48.776l41.178-45.177zm11.735-70.305 38.425 40.879v-81.417zm-223.63 37.922v-21.79h78.957v-31.584h-78.957v-21.787h80.955v-32.384h-119.14v139.93h119.14v-32.383zm224.27-127.85h37.782v-139.93h-58.771l-31.385 87.153-31.183-87.153h-59.768v139.93h37.779v-97.949l35.983 97.949h33.581l35.982-98.151zm-186.3 0h42.978l-61.765-139.93h-49.176l-61.771 139.93h41.979l11.596-27.985h64.365zm-24.985-59.37h-37.983l18.992-45.776z" fill="#006fcf"/>
	</g>
</svg>
