<!-- Created with Inkscape (http://www.inkscape.org/) -->
<svg width="127.59" height="83.8" version="1.1" viewBox="0 0 127.59 83.8" xmlns="http://www.w3.org/2000/svg" xmlns:xlink="http://www.w3.org/1999/xlink">
  <defs>
    <clipPath id="clipPath2">
      <path transform="translate(-3.297 -57.553)" d="M 0,62.85 H 95.69 V 0 H 0 Z"/>
    </clipPath>
    <clipPath id="clipPath4">
      <path transform="translate(-12.879 -28.446)" d="M 0,62.85 H 95.69 V 0 H 0 Z"/>
    </clipPath>
    <clipPath id="clipPath6">
      <path d="M 0,62.85 H 95.69 V 0 H 0 Z"/>
    </clipPath>
    <clipPath id="clipPath8">
      <path transform="translate(-26.133 -32.995)" d="M 0,62.85 H 95.69 V 0 H 0 Z"/>
    </clipPath>
    <clipPath id="clipPath10">
      <path transform="translate(-30.456 -31.547)" d="M 0,62.85 H 95.69 V 0 H 0 Z"/>
    </clipPath>
    <clipPath id="clipPath12">
      <path transform="translate(-59.163 -29.431)" d="M 0,62.85 H 95.69 V 0 H 0 Z"/>
    </clipPath>
    <clipPath id="clipPath14">
      <path transform="translate(-66.215 -25.366)" d="M 0,62.85 H 95.69 V 0 H 0 Z"/>
    </clipPath>
    <clipPath id="clipPath16">
      <path transform="translate(-77.78 -32.046)" d="M 0,62.85 H 95.69 V 0 H 0 Z"/>
    </clipPath>
    <clipPath id="clipPath18">
      <path transform="translate(-84.09 -36.947)" d="M 0,62.85 H 95.69 V 0 H 0 Z"/>
    </clipPath>
    <clipPath id="clipPath20">
      <path transform="translate(-84.184 -36.107)" d="M 0,62.85 H 95.69 V 0 H 0 Z"/>
    </clipPath>
    <clipPath id="clipPath22">
      <path transform="translate(-53.911 -31.569)" d="M 0,62.85 H 95.69 V 0 H 0 Z"/>
    </clipPath>
    <clipPath id="clipPath24">
      <path transform="translate(-88.907 -31.425)" d="M 0,62.85 H 95.69 V 0 H 0 Z"/>
    </clipPath>
  </defs>
  <path transform="matrix(1.3333 0 0 -1.3333 4.396 7.0628)" d="m0 0v-52.256c0-1.103 0.897-2 2-2h55.482c15.535 0 28.128 12.593 28.128 28.128s-12.593 28.128-28.128 28.128h-55.482c-1.103 0-2-0.897-2-2" clip-path="url(#clipPath2)" fill="#fff"/>
  <g fill="#231f20">
    <path transform="matrix(1.3333 0 0 -1.3333 17.172 45.872)" d="m0 0c-0.759-0.685-1.744-0.984-3.304-0.984h-0.648v8.186h0.648c1.56 0 2.506-0.278 3.304-1.001 0.835-0.743 1.337-1.896 1.337-3.081 0-1.189-0.502-2.377-1.337-3.12m-2.82 9.3h-3.545v-12.379h3.526c1.874 0 3.228 0.441 4.417 1.429 1.412 1.169 2.247 2.93 2.247 4.751 0 3.654-2.73 6.199-6.645 6.199" clip-path="url(#clipPath4)"/>
    <path transform="matrix(1.3333 0 0 -1.3333 0 83.8)" d="m17.815 25.366h2.414v12.379h-2.414z" clip-path="url(#clipPath6)"/>
    <path transform="matrix(1.3333 0 0 -1.3333 34.845 39.806)" d="m0 0c-1.449 0.536-1.875 0.89-1.875 1.558 0 0.78 0.759 1.373 1.799 1.373 0.724 0 1.318-0.298 1.947-1.003l1.264 1.654c-1.038 0.909-2.281 1.373-3.637 1.373-2.191 0-3.862-1.521-3.862-3.547 0-1.706 0.779-2.579 3.046-3.395 0.945-0.333 1.426-0.556 1.669-0.705 0.482-0.314 0.725-0.761 0.725-1.281 0-1.003-0.798-1.746-1.876-1.746-1.151 0-2.079 0.576-2.635 1.651l-1.56-1.502c1.113-1.633 2.449-2.356 4.286-2.356 2.51 0 4.27 1.668 4.27 4.064 0 1.967-0.814 2.857-3.561 3.862" clip-path="url(#clipPath8)"/>
    <path transform="matrix(1.3333 0 0 -1.3333 40.608 41.737)" d="m0 0c0-3.638 2.857-6.459 6.534-6.459 1.039 0 1.929 0.204 3.027 0.72v2.843c-0.966-0.966-1.82-1.356-2.915-1.356-2.432 0-4.158 1.763-4.158 4.27 0 2.377 1.781 4.251 4.046 4.251 1.151 0 2.024-0.41 3.027-1.392v2.841c-1.06 0.537-1.931 0.76-2.97 0.76-3.658 0-6.591-2.878-6.591-6.478" clip-path="url(#clipPath10)"/>
    <path transform="matrix(1.3333 0 0 -1.3333 78.884 44.559)" d="m0 0-3.302 8.315h-2.637l5.253-12.698h1.299l5.348 12.698h-2.617z" clip-path="url(#clipPath12)"/>
    <path transform="matrix(1.3333 0 0 -1.3333 88.287 49.978)" d="m0 0h6.848v2.096h-4.435v3.341h4.271v2.097h-4.271v2.747h4.435v2.098h-6.848z" clip-path="url(#clipPath14)"/>
    <path transform="matrix(1.3333 0 0 -1.3333 103.71 41.071)" d="m0 0h-0.706v3.749h0.743c1.505 0 2.322-0.63 2.322-1.835 0-1.244-0.817-1.914-2.359-1.914m4.845 2.045c0 2.317-1.598 3.654-4.382 3.654h-3.581v-12.379h2.412v4.973h0.316l3.341-4.973h2.97l-3.898 5.215c1.82 0.37 2.822 1.614 2.822 3.51" clip-path="url(#clipPath16)"/>
    <path transform="matrix(1.3333 0 0 -1.3333 112.12 34.537)" d="m0 0h-0.045v0.286h0.047c0.129 0 0.196-0.047 0.196-0.141 0-0.096-0.068-0.145-0.198-0.145m0.459 0.149c0 0.218-0.15 0.337-0.414 0.337h-0.35v-1.092h0.26v0.423l0.306-0.423h0.318l-0.359 0.45c0.153 0.042 0.239 0.154 0.239 0.305" clip-path="url(#clipPath18)"/>
  </g>
  <g>
    <path transform="matrix(1.3333 0 0 -1.3333 71.881 41.707)" d="m0 0c0-3.62-2.934-6.555-6.555-6.555s-6.556 2.935-6.556 6.555c0 3.621 2.935 6.555 6.556 6.555s6.555-2.934 6.555-6.555" clip-path="url(#clipPath22)" fill="#f47922"/>
    <path transform="matrix(1.3333 0 0 -1.3333 112.25 35.657)" d="m0 0c-0.417 0-0.758 0.347-0.758 0.781s0.338 0.782 0.758 0.782c0.416 0 0.753-0.356 0.753-0.782 0-0.43-0.337-0.781-0.753-0.781m4e-3 1.734c-0.53 0-0.951-0.423-0.951-0.952 0-0.528 0.426-0.952 0.951-0.952 0.516 0 0.94 0.428 0.94 0.952 0 0.521-0.424 0.952-0.94 0.952" clip-path="url(#clipPath20)" fill="#231f20"/>
    <path transform="matrix(1.3333 0 0 -1.3333 118.54 41.9)" d="m0 0c0-15.535-12.593-28.128-28.128-28.128h-55.482c-1.103 0-2 0.897-2 2v52.256c0 1.103 0.897 2 2 2h55.482c15.535 0 28.128-12.593 28.128-28.128zm1.482 29.128h-85.092c-1.657 0-3-1.343-3-3v-52.256c0-1.657 1.343-3 3-3h85.092c1.657 0 3 1.343 3 3v52.256c0 1.657-1.343 3-3 3" clip-path="url(#clipPath24)" fill="#f47922"/>
  </g>
</svg>
