<!-- Generator: Adobe Illustrator 27.9.0, SVG Export Plug-In . SVG Version: 6.00 Build 0)  -->
<svg enable-background="new 0 0 152.4 108" version="1.1" viewBox="0 0 152.4 108" xml:space="preserve" xmlns="http://www.w3.org/2000/svg">
<style type="text/css">
	.st0{fill:none;}
	.st1{fill:#FF5F00;}
	.st2{fill:#EB001B;}
	.st3{fill:#F79E1B;}
</style>

	<rect class="st0" width="152.4" height="108"/>
	<g transform="matrix(1.2864 0 0 1.2864 -21.738 -15.474)">
		<rect class="st1" x="60.4" y="25.7" width="31.5" height="56.6"/>
		<path class="st2" d="m62.4 54c0-11 5.1-21.5 13.7-28.3-15.6-12.3-38.3-9.6-50.6 6.1-12.2 15.6-9.5 38.2 6.2 50.5 13.1 10.3 31.4 10.3 44.5 0-8.7-6.8-13.8-17.3-13.8-28.3z"/>
		<path class="st3" d="m134.4 54c0 19.9-16.1 36-36 36-8.1 0-15.9-2.7-22.2-7.7 15.6-12.3 18.3-34.9 6-50.6-1.8-2.2-3.8-4.3-6-6 15.6-12.3 38.3-9.6 50.5 6.1 5 6.3 7.7 14.1 7.7 22.2z"/>
	</g>

</svg>
