<svg fill="#85bb65" viewBox="0 -960 960 710.236" xmlns="http://www.w3.org/2000/svg">
  <path d="m552.74-554.04q-51.361 0-87.611-36.074-36.239-36.074-36.239-87.611t36.147-87.539q36.157-36.002 87.806-36.002 51.361 0 87.312 36.023 35.961 36.023 35.961 87.487 0 51.547-35.889 87.631-35.879 36.085-87.487 36.085zm-314.7 159.49q-38.619 0-65.371-26.577-26.742-26.577-26.742-65.536v-381.22q0-38.526 26.742-65.319 26.752-26.793 65.371-26.793h630.01q38.464 0 65.206 26.793 26.742 26.793 26.742 65.319v381.22q0 38.959-26.742 65.536-26.742 26.577-65.206 26.577zm99.457-88.909h430.94q0-42.523 29.966-72.468 29.976-29.945 72.695-29.945v-182.64q-42.77 0-72.715-30.162-29.945-30.162-29.945-72.499h-430.94q0 42.358-30.079 72.509-30.079 30.151-72.582 30.151v182.64q42.523 0 72.592 30.007 30.069 30.007 30.069 72.406zm444.69 233.7h-690.23q-38.464 0-65.206-26.742-26.742-26.742-26.742-65.206v-435.36q0-19.098 13.608-32.366t32.613-13.268q19.345 0 32.541 13.268 13.185 13.268 13.185 32.366v435.36h690.23q18.748 0 32.191 13.484 13.433 13.484 13.433 32.49 0 19.006-13.433 32.49-13.443 13.484-32.191 13.484zm-547.35-233.7v-387.71z" stroke-width="1.0301"/>
</svg>
