<svg version="1.1" viewBox="0 0 1829.925 1093.1" xml:space="preserve" xmlns="http://www.w3.org/2000/svg">
<path d="m694.79 261.48-239.58 571.6h-156.3l-117.89-456.17c-7.1574-28.097-13.381-38.39-35.15-50.228-35.541-19.281-94.234-37.37-145.87-48.598l3.5074-16.612h251.6c32.071 0 60.901 21.349 68.184 58.279l62.264 330.76 153.89-389.05h155.35zm612.42 384.98c0.629-150.86-208.61-159.17-207.17-226.57 0.4479-20.51 19.977-42.317 62.724-47.883 21.187-2.7735 79.565-4.8893 145.78 25.581l25.972-121.21c-35.578-12.915-81.355-25.342-138.31-25.342-146.16 0-249.01 77.695-249.88 188.95-0.94354 82.291 73.418 128.21 129.44 155.55 57.63 28.001 76.97 45.996 76.754 71.045-0.4098 38.342-45.967 55.268-88.541 55.938-74.321 1.1437-117.45-20.11-151.83-36.093l-26.801 125.23c34.55 15.85 98.322 29.679 164.44 30.375 155.34 0 256.96-76.732 257.44-195.56m385.94 186.62h136.76l-119.38-571.6h-126.23c-28.383 0-52.324 16.526-62.924 41.936l-221.89 529.67h155.27l30.823-85.378h189.71zm-164.99-202.53 77.83-214.61 44.795 214.61zm-622.1-369.07-122.27 571.6h-147.86l122.32-571.6z" fill="#1434cb" stroke-width=".9531"/>
</svg>
