<svg viewBox="0 0 150 150" xmlns="http://www.w3.org/2000/svg" fill="#ffffff">
  <g transform="matrix(1.0002 0 0 1.0002 -30.017 -73.524)" stroke-linecap="round" stroke-linejoin="round">
    <path d="m105 73.512c-41.328 0-74.989 33.661-74.989 74.989s33.661 74.988 74.989 74.988c41.328 0 74.988-33.661 74.988-74.988s-33.661-74.989-74.988-74.989zm0 14.666c33.402 0 60.322 26.92 60.322 60.322s-26.92 60.322-60.322 60.322c-33.402 0-60.322-26.92-60.322-60.322s26.92-60.322 60.322-60.322z" stop-color="#ffffff" style="paint-order:stroke fill markers"/>
    <g transform="matrix(1.2777 0 0 1.2777 -25.262 -41.745)">
      <path d="m76.929 134.53c-3.8592 0-6.8609 1.1877-8.741 3.3977-1.3194 1.5503-1.9128 3.0015-2.4076 5.8712l6.9268 0.72555c0.16492-1.3854 0.36286-2.0451 0.82464-2.7708 0.72566-1.1215 1.8472-1.6489 3.4304-1.6489 2.111 0 3.5291 1.0553 3.5291 2.6385 0 1.5173-0.69242 2.3751-3.5291 4.2882-3.3644 2.2759-4.6178 3.2324-5.8712 4.3869-2.3089 2.144-3.8925 4.6509-4.7501 7.3886-0.39582 1.2864-0.56045 2.2756-0.69239 3.8919 1.2204-0.099 1.9788-0.13185 4.9474-0.13185h11.578c2.3419 0 3.7271 0.066 5.6402 0.23093v-6.234c-1.2864 0.16493-2.8036 0.23093-5.2775 0.23093h-7.6855c0.75865-1.4513 1.9791-2.606 4.8488-4.5851 3.3644-2.3419 3.6944-2.573 4.7828-3.5295 2.045-1.6822 3.0345-3.727 3.0345-6.1349 0-1.4183-0.36267-2.7046-1.0883-3.8591-1.6492-2.6718-5.0468-4.1564-9.4998-4.1564zm32.995 0.36278c-1.3194 0.16492-2.5398 0.23093-5.4425 0.23093h-9.8625c-1.5833 0-1.9132 8e-5 -3.2986-0.0659-0.03298 1.2534-0.06588 2.0449-0.13184 2.7376l-0.89056 10.291c-0.09895 0.92357-0.19768 1.7153-0.32962 2.7049l6.1349 0.59371c0.72566-1.6162 2.0779-2.4408 4.156-2.4408 2.7707 0 4.5519 1.715 4.5519 4.3537s-1.8471 4.3869-4.6178 4.3869c-2.3749 0-3.7602-1.0225-4.321-3.1995l-6.6299 1.0228c0.49477 1.7152 0.89064 2.6716 1.6493 3.6941 1.9131 2.6388 5.1787 4.0573 9.3348 4.0573 6.9927 0 11.149-3.7604 11.149-10.093 0-2.7707-0.8247-4.9145-2.4739-6.5967-1.7482-1.7812-4.1557-2.7049-7.0914-2.7049-2.144 0-3.8595 0.49487-5.3438 1.5834 0.06597-0.56073 0.09909-0.89065 0.09909-1.0556l0.33002-3.9582h7.6523c2.111 0 3.6284 0.066 5.3766 0.23093z" stroke-width="97.941" style="paint-order:stroke fill markers"/>
      <path d="m126.61 134.7v2.8735c-3.1504 0.41543-5.0196 1.2113-6.7852 2.9423-1.9733 1.9387-3.1158 4.9852-3.1158 8.3779 0 3.4273 1.1425 6.4741 3.1158 8.4474 1.731 1.6964 3.6002 2.4923 6.7852 2.8731v2.8735h2.3194v-2.8387c1.5232-0.1731 2.5618-0.3809 3.358-0.62324 1.8694-0.65776 3.4968-1.8346 4.4662-3.3232 0.69239-1.004 1.0729-1.9388 1.4883-3.3928l-6.3698-1.0386c-0.17309 0.79624-0.31142 1.1426-0.65761 1.5927-0.69239 0.96934-1.9043 1.5231-3.2545 1.5231-2.7695 0-4.5349-2.4235-4.5349-6.1624 0-3.8081 1.6616-6.0236 4.4658-6.0236 1.2463 0 2.2159 0.41543 2.9083 1.2117 0.45006 0.51929 0.65769 1.004 0.93465 2.0772l6.2659-1.2808c-0.62315-2.4234-1.9039-4.3276-3.8425-5.5739-1.4886-0.96934-2.7698-1.3845-5.2277-1.6614v-2.8735z" stroke-width="102.8" style="paint-order:stroke fill markers"/>
    </g>
  </g>
</svg>
